<svg xmlns="http://www.w3.org/2000/svg" xmlns:xlink="http://www.w3.org/1999/xlink" xmlns:lucid="lucid" width="942.33" height="628.33"><g transform="translate(-654.6666666517733 -616.6666666666666)" lucid:page-tab-id="0_0"><path d="M656.67 702a12 12 0 0 1 12-12H1583a12 12 0 0 1 12 12v529a12 12 0 0 1-12 12H668.67a12 12 0 0 1-12-12z" stroke="#ba23f6" stroke-width="4" fill="#fff"/><path d="M656.67 628.67a12 12 0 0 1 12-12H1264a12 12 0 0 1 12 12V666a12 12 0 0 1-12 12H668.68a12 12 0 0 1-12-12z" fill="#ba23f6"/><use xlink:href="#a" transform="matrix(1,0,0,1,668.6666666666279,632.2666666666667) translate(0 25.22222222222222)"/><use xlink:href="#b" transform="matrix(1,0,0,1,668.6666666666279,632.2666666666667) translate(62.13580246913581 25.22222222222222)"/><use xlink:href="#c" transform="matrix(1,0,0,1,668.6666666666279,632.2666666666667) translate(141.55555555555557 25.22222222222222)"/><use xlink:href="#d" transform="matrix(1,0,0,1,668.6666666666279,632.2666666666667) translate(174.30864197530866 25.22222222222222)"/><use xlink:href="#e" transform="matrix(1,0,0,1,668.6666666666279,632.2666666666667) translate(262.28395061728395 25.22222222222222)"/><use xlink:href="#f" transform="matrix(1,0,0,1,668.6666666666279,632.2666666666667) translate(348.6172839506173 25.22222222222222)"/><use xlink:href="#g" transform="matrix(1,0,0,1,668.6666666666279,632.2666666666667) translate(467.7901234567902 25.22222222222222)"/><path d="M1025.33 896.67a6 6 0 0 1 6-6h148a6 6 0 0 1 6 6v108a6 6 0 0 1-6 6h-148a6 6 0 0 1-6-6z" stroke="#3a414a" stroke-width="3" fill="#fff"/><use xlink:href="#h" transform="matrix(1,0,0,1,1033.333333333333,896.6666666666667) translate(30.869444444444454 57.925)"/><path d="M1154.32 709c27.06 0 49 21.94 49 49s-21.94 49-49 49h-97.98c-27.05 0-49-21.94-49-49s21.95-49 49-49z" stroke="#3a414a" stroke-width="3" fill="#dedeff"/><use xlink:href="#i" transform="matrix(1,0,0,1,1017.1517025931387,713.9091846299027) translate(20.03333333333336 48.6125)"/><path d="M1154.32 1094.34c27.06 0 49 21.94 49 49 0 27.05-21.94 48.98-49 48.98h-97.98c-27.05 0-49-21.93-49-49 0-27.04 21.95-48.98 49-48.98z" stroke="#3a414a" stroke-width="3" fill="#dedeff"/><use xlink:href="#j" transform="matrix(1,0,0,1,1017.1517025931387,1099.2425179632362) translate(16.350000000000023 48.6125)"/><path d="M1440.32 901.68c27.06 0 49 21.93 49 49 0 27.04-21.94 48.98-49 48.98h-97.98c-27.05 0-49-21.94-49-49 0-27.05 21.95-48.98 49-48.98z" stroke="#3a414a" stroke-width="3" fill="#dedeff"/><use xlink:href="#k" transform="matrix(1,0,0,1,1303.1517025930611,906.5758512965695) translate(34.40555555555556 48.6125)"/><path d="M895 901.68c27.05 0 48.98 21.93 48.98 49 0 27.04-21.93 48.98-49 48.98h-97.97c-27.05 0-48.98-21.94-48.98-49 0-27.05 21.93-48.98 49-48.98z" stroke="#3a414a" stroke-width="3" fill="#dedeff"/><use xlink:href="#l" transform="matrix(1,0,0,1,757.8183692598055,906.5758512965695) translate(38.01666666666667 48.6125)"/><path d="M1105.33 887.67V819.6" stroke="#3a414a" stroke-width="3" fill="none"/><path d="M1106.83 889.17h-3v-1.54h3z" stroke="#3a414a" stroke-width=".05" fill="#3a414a"/><path d="M1105.33 811.44l7.64 12.9h-15.27z" stroke="#3a414a" stroke-width="3" fill="#3a414a"/><path d="M1188.33 950.67h92.4" stroke="#3a414a" stroke-width="3" fill="none"/><path d="M1188.37 952.17h-1.54v-3h1.54z" stroke="#3a414a" stroke-width=".05" fill="#3a414a"/><path d="M1288.9 950.67l-12.9 7.63v-15.27z" stroke="#3a414a" stroke-width="3" fill="#3a414a"/><path d="M1105.33 1013.67v68.06" stroke="#3a414a" stroke-width="3" fill="none"/><path d="M1106.83 1013.7h-3v-1.53h3z" stroke="#3a414a" stroke-width=".05" fill="#3a414a"/><path d="M1105.33 1089.9l-7.63-12.9h15.27z" stroke="#3a414a" stroke-width="3" fill="#3a414a"/><path d="M1022.33 950.67H956.6" stroke="#3a414a" stroke-width="3" fill="none"/><path d="M1023.83 952.17h-1.54v-3h1.53z" stroke="#3a414a" stroke-width=".05" fill="#3a414a"/><path d="M948.43 950.67l12.9-7.64v15.27z" stroke="#3a414a" stroke-width="3" fill="#3a414a"/><defs><path fill="#fff" d="M127-220V0H93v-220H8v-28h204v28h-85" id="m"/><path fill="#fff" d="M106-169C34-169 62-67 57 0H25v-261h32l-1 103c12-21 28-36 61-36 89 0 53 116 60 194h-32v-121c2-32-8-49-39-48" id="n"/><path fill="#fff" d="M100-194c63 0 86 42 84 106H49c0 40 14 67 53 68 26 1 43-12 49-29l28 8c-11 28-37 45-77 45C44 4 14-33 15-96c1-61 26-98 85-98zm52 81c6-60-76-77-97-28-3 7-6 17-6 28h103" id="o"/><g id="a"><use transform="matrix(0.08641975308641976,0,0,0.08641975308641976,0,0)" xlink:href="#m"/><use transform="matrix(0.08641975308641976,0,0,0.08641975308641976,18.925925925925927,0)" xlink:href="#n"/><use transform="matrix(0.08641975308641976,0,0,0.08641975308641976,36.20987654320988,0)" xlink:href="#o"/></g><path fill="#fff" d="M206 0h-36l-40-164L89 0H53L-1-190h32L70-26l43-164h34l41 164 42-164h31" id="p"/><path fill="#fff" d="M141-36C126-15 110 5 73 4 37 3 15-17 15-53c-1-64 63-63 125-63 3-35-9-54-41-54-24 1-41 7-42 31l-33-3c5-37 33-52 76-52 45 0 72 20 72 64v82c-1 20 7 32 28 27v20c-31 9-61-2-59-35zM48-53c0 20 12 33 32 33 41-3 63-29 60-74-43 2-92-5-92 41" id="q"/><path fill="#fff" d="M179-190L93 31C79 59 56 82 12 73V49c39 6 53-20 64-50L1-190h34L92-34l54-156h33" id="r"/><path fill="#fff" d="M135-143c-3-34-86-38-87 0 15 53 115 12 119 90S17 21 10-45l28-5c4 36 97 45 98 0-10-56-113-15-118-90-4-57 82-63 122-42 12 7 21 19 24 35" id="s"/><g id="b"><use transform="matrix(0.08641975308641976,0,0,0.08641975308641976,0,0)" xlink:href="#p"/><use transform="matrix(0.08641975308641976,0,0,0.08641975308641976,22.38271604938272,0)" xlink:href="#q"/><use transform="matrix(0.08641975308641976,0,0,0.08641975308641976,39.66666666666667,0)" xlink:href="#r"/><use transform="matrix(0.08641975308641976,0,0,0.08641975308641976,55.22222222222223,0)" xlink:href="#s"/></g><path fill="#fff" d="M24-231v-30h32v30H24zM24 0v-190h32V0H24" id="t"/><path fill="#fff" d="M117-194c89-4 53 116 60 194h-32v-121c0-31-8-49-39-48C34-167 62-67 57 0H25l-1-190h30c1 10-1 24 2 32 11-22 29-35 61-36" id="u"/><g id="c"><use transform="matrix(0.08641975308641976,0,0,0.08641975308641976,0,0)" xlink:href="#t"/><use transform="matrix(0.08641975308641976,0,0,0.08641975308641976,6.8271604938271615,0)" xlink:href="#u"/></g><path fill="#fff" d="M96-169c-40 0-48 33-48 73s9 75 48 75c24 0 41-14 43-38l32 2c-6 37-31 61-74 61-59 0-76-41-82-99-10-93 101-131 147-64 4 7 5 14 7 22l-32 3c-4-21-16-35-41-35" id="v"/><g id="d"><use transform="matrix(0.08641975308641976,0,0,0.08641975308641976,0,0)" xlink:href="#p"/><use transform="matrix(0.08641975308641976,0,0,0.08641975308641976,22.38271604938272,0)" xlink:href="#n"/><use transform="matrix(0.08641975308641976,0,0,0.08641975308641976,39.66666666666667,0)" xlink:href="#t"/><use transform="matrix(0.08641975308641976,0,0,0.08641975308641976,46.49382716049383,0)" xlink:href="#v"/><use transform="matrix(0.08641975308641976,0,0,0.08641975308641976,62.04938271604939,0)" xlink:href="#n"/></g><path fill="#fff" d="M240 0l2-218c-23 76-54 145-80 218h-23L58-218 59 0H30v-248h44l77 211c21-75 51-140 76-211h43V0h-30" id="w"/><path fill="#fff" d="M126-127c33 6 58 20 58 59 0 88-139 92-164 29-3-8-5-16-6-25l32-3c6 27 21 44 54 44 32 0 52-15 52-46 0-38-36-46-79-43v-28c39 1 72-4 72-42 0-27-17-43-46-43-28 0-47 15-49 41l-32-3c6-42 35-63 81-64 48-1 79 21 79 65 0 36-21 52-52 59" id="x"/><path fill="#fff" d="M110-160c48 1 74 30 74 79 0 53-28 85-80 85-65 0-83-55-86-122-5-90 50-162 133-122 14 7 22 21 27 39l-31 6c-5-40-67-38-82-6-9 19-15 44-15 74 11-20 30-34 60-33zm-7 138c34 0 49-23 49-58s-16-56-50-56c-29 0-50 16-49 49 1 36 15 65 50 65" id="y"/><path fill="#fff" d="M54-142c48-35 137-8 131 61C196 18 31 33 14-55l32-4c7 23 22 37 52 37 35-1 51-22 54-58 4-55-73-65-99-34H22l8-134h141v27H59" id="z"/><g id="e"><use transform="matrix(0.08641975308641976,0,0,0.08641975308641976,0,0)" xlink:href="#w"/><use transform="matrix(0.08641975308641976,0,0,0.08641975308641976,25.83950617283951,0)" xlink:href="#x"/><use transform="matrix(0.08641975308641976,0,0,0.08641975308641976,43.12345679012346,0)" xlink:href="#y"/><use transform="matrix(0.08641975308641976,0,0,0.08641975308641976,60.407407407407426,0)" xlink:href="#z"/></g><path fill="#fff" d="M115-194c55 1 70 41 70 98S169 2 115 4C84 4 66-9 55-30l1 105H24l-1-265h31l2 30c10-21 28-34 59-34zm-8 174c40 0 45-34 45-75s-6-73-45-74c-42 0-51 32-51 76 0 43 10 73 51 73" id="A"/><path fill="#fff" d="M114-163C36-179 61-72 57 0H25l-1-190h30c1 12-1 29 2 39 6-27 23-49 58-41v29" id="B"/><path fill="#fff" d="M100-194c62-1 85 37 85 99 1 63-27 99-86 99S16-35 15-95c0-66 28-99 85-99zM99-20c44 1 53-31 53-75 0-43-8-75-51-75s-53 32-53 75 10 74 51 75" id="C"/><path fill="#fff" d="M59-47c-2 24 18 29 38 22v24C64 9 27 4 27-40v-127H5v-23h24l9-43h21v43h35v23H59v120" id="D"/><g id="f"><use transform="matrix(0.08641975308641976,0,0,0.08641975308641976,0,0)" xlink:href="#A"/><use transform="matrix(0.08641975308641976,0,0,0.08641975308641976,17.283950617283953,0)" xlink:href="#B"/><use transform="matrix(0.08641975308641976,0,0,0.08641975308641976,27.567901234567906,0)" xlink:href="#C"/><use transform="matrix(0.08641975308641976,0,0,0.08641975308641976,44.85185185185187,0)" xlink:href="#D"/><use transform="matrix(0.08641975308641976,0,0,0.08641975308641976,53.49382716049383,0)" xlink:href="#o"/><use transform="matrix(0.08641975308641976,0,0,0.08641975308641976,70.77777777777779,0)" xlink:href="#v"/><use transform="matrix(0.08641975308641976,0,0,0.08641975308641976,86.33333333333334,0)" xlink:href="#D"/><use transform="matrix(0.08641975308641976,0,0,0.08641975308641976,94.97530864197532,0)" xlink:href="#s"/></g><path fill="#fff" d="M87 75C49 33 22-17 22-94c0-76 28-126 65-167h31c-38 41-64 92-64 168S80 34 118 75H87" id="E"/><path fill="#fff" d="M84 4C-5 8 30-112 23-190h32v120c0 31 7 50 39 49 72-2 45-101 50-169h31l1 190h-30c-1-10 1-25-2-33-11 22-28 36-60 37" id="F"/><path fill="#fff" d="M33-261c38 41 65 92 65 168S71 34 33 75H2C39 34 66-17 66-93S39-220 2-261h31" id="G"/><g id="g"><use transform="matrix(0.08641975308641976,0,0,0.08641975308641976,0,0)" xlink:href="#E"/><use transform="matrix(0.08641975308641976,0,0,0.08641975308641976,10.283950617283951,0)" xlink:href="#s"/><use transform="matrix(0.08641975308641976,0,0,0.08641975308641976,25.839506172839503,0)" xlink:href="#o"/><use transform="matrix(0.08641975308641976,0,0,0.08641975308641976,43.123456790123456,0)" xlink:href="#v"/><use transform="matrix(0.08641975308641976,0,0,0.08641975308641976,58.679012345679006,0)" xlink:href="#F"/><use transform="matrix(0.08641975308641976,0,0,0.08641975308641976,75.96296296296296,0)" xlink:href="#B"/><use transform="matrix(0.08641975308641976,0,0,0.08641975308641976,86.24691358024691,0)" xlink:href="#t"/><use transform="matrix(0.08641975308641976,0,0,0.08641975308641976,93.07407407407409,0)" xlink:href="#D"/><use transform="matrix(0.08641975308641976,0,0,0.08641975308641976,101.71604938271606,0)" xlink:href="#r"/><use transform="matrix(0.08641975308641976,0,0,0.08641975308641976,117.27160493827162,0)" xlink:href="#G"/></g><path d="M30-248c87 1 191-15 191 75 0 78-77 80-158 76V0H30v-248zm33 125c57 0 124 11 124-50 0-59-68-47-124-48v98" id="H"/><path d="M114-163C36-179 61-72 57 0H25l-1-190h30c1 12-1 29 2 39 6-27 23-49 58-41v29" id="I"/><path d="M100-194c62-1 85 37 85 99 1 63-27 99-86 99S16-35 15-95c0-66 28-99 85-99zM99-20c44 1 53-31 53-75 0-43-8-75-51-75s-53 32-53 75 10 74 51 75" id="J"/><path d="M59-47c-2 24 18 29 38 22v24C64 9 27 4 27-40v-127H5v-23h24l9-43h21v43h35v23H59v120" id="K"/><path d="M100-194c63 0 86 42 84 106H49c0 40 14 67 53 68 26 1 43-12 49-29l28 8c-11 28-37 45-77 45C44 4 14-33 15-96c1-61 26-98 85-98zm52 81c6-60-76-77-97-28-3 7-6 17-6 28h103" id="L"/><path d="M96-169c-40 0-48 33-48 73s9 75 48 75c24 0 41-14 43-38l32 2c-6 37-31 61-74 61-59 0-76-41-82-99-10-93 101-131 147-64 4 7 5 14 7 22l-32 3c-4-21-16-35-41-35" id="M"/><g id="h"><use transform="matrix(0.07222222222222222,0,0,0.07222222222222222,0,0)" xlink:href="#H"/><use transform="matrix(0.07222222222222222,0,0,0.07222222222222222,17.333333333333332,0)" xlink:href="#I"/><use transform="matrix(0.07222222222222222,0,0,0.07222222222222222,25.927777777777774,0)" xlink:href="#J"/><use transform="matrix(0.07222222222222222,0,0,0.07222222222222222,40.37222222222222,0)" xlink:href="#K"/><use transform="matrix(0.07222222222222222,0,0,0.07222222222222222,47.59444444444444,0)" xlink:href="#L"/><use transform="matrix(0.07222222222222222,0,0,0.07222222222222222,62.038888888888884,0)" xlink:href="#M"/><use transform="matrix(0.07222222222222222,0,0,0.07222222222222222,75.03888888888888,0)" xlink:href="#K"/></g><path d="M212-179c-10-28-35-45-73-45-59 0-87 40-87 99 0 60 29 101 89 101 43 0 62-24 78-52l27 14C228-24 195 4 139 4 59 4 22-46 18-125c-6-104 99-153 187-111 19 9 31 26 39 46" id="N"/><path d="M210-169c-67 3-38 105-44 169h-31v-121c0-29-5-50-35-48C34-165 62-65 56 0H25l-1-190h30c1 10-1 24 2 32 10-44 99-50 107 0 11-21 27-35 58-36 85-2 47 119 55 194h-31v-121c0-29-5-49-35-48" id="O"/><path d="M115-194c55 1 70 41 70 98S169 2 115 4C84 4 66-9 55-30l1 105H24l-1-265h31l2 30c10-21 28-34 59-34zm-8 174c40 0 45-34 45-75s-6-73-45-74c-42 0-51 32-51 76 0 43 10 73 51 73" id="P"/><path d="M24 0v-261h32V0H24" id="Q"/><path d="M24-231v-30h32v30H24zM24 0v-190h32V0H24" id="R"/><path d="M141-36C126-15 110 5 73 4 37 3 15-17 15-53c-1-64 63-63 125-63 3-35-9-54-41-54-24 1-41 7-42 31l-33-3c5-37 33-52 76-52 45 0 72 20 72 64v82c-1 20 7 32 28 27v20c-31 9-61-2-59-35zM48-53c0 20 12 33 32 33 41-3 63-29 60-74-43 2-92-5-92 41" id="S"/><path d="M117-194c89-4 53 116 60 194h-32v-121c0-31-8-49-39-48C34-167 62-67 57 0H25l-1-190h30c1 10-1 24 2 32 11-22 29-35 61-36" id="T"/><g id="i"><use transform="matrix(0.07222222222222222,0,0,0.07222222222222222,0,0)" xlink:href="#N"/><use transform="matrix(0.07222222222222222,0,0,0.07222222222222222,18.705555555555552,0)" xlink:href="#J"/><use transform="matrix(0.07222222222222222,0,0,0.07222222222222222,33.14999999999999,0)" xlink:href="#O"/><use transform="matrix(0.07222222222222222,0,0,0.07222222222222222,54.74444444444443,0)" xlink:href="#P"/><use transform="matrix(0.07222222222222222,0,0,0.07222222222222222,69.18888888888887,0)" xlink:href="#Q"/><use transform="matrix(0.07222222222222222,0,0,0.07222222222222222,74.89444444444442,0)" xlink:href="#R"/><use transform="matrix(0.07222222222222222,0,0,0.07222222222222222,80.59999999999997,0)" xlink:href="#S"/><use transform="matrix(0.07222222222222222,0,0,0.07222222222222222,95.04444444444441,0)" xlink:href="#T"/><use transform="matrix(0.07222222222222222,0,0,0.07222222222222222,109.48888888888885,0)" xlink:href="#M"/><use transform="matrix(0.07222222222222222,0,0,0.07222222222222222,122.48888888888885,0)" xlink:href="#L"/></g><path d="M33 0v-248h34V0H33" id="U"/><path d="M108 0H70L1-190h34L89-25l56-165h34" id="V"/><path d="M135-143c-3-34-86-38-87 0 15 53 115 12 119 90S17 21 10-45l28-5c4 36 97 45 98 0-10-56-113-15-118-90-4-57 82-63 122-42 12 7 21 19 24 35" id="W"/><path d="M177-190C167-65 218 103 67 71c-23-6-38-20-44-43l32-5c15 47 100 32 89-28v-30C133-14 115 1 83 1 29 1 15-40 15-95c0-56 16-97 71-98 29-1 48 16 59 35 1-10 0-23 2-32h30zM94-22c36 0 50-32 50-73 0-42-14-75-50-75-39 0-46 34-46 75s6 73 46 73" id="X"/><g id="j"><use transform="matrix(0.07222222222222222,0,0,0.07222222222222222,0,0)" xlink:href="#U"/><use transform="matrix(0.07222222222222222,0,0,0.07222222222222222,7.222222222222221,0)" xlink:href="#T"/><use transform="matrix(0.07222222222222222,0,0,0.07222222222222222,21.666666666666664,0)" xlink:href="#V"/><use transform="matrix(0.07222222222222222,0,0,0.07222222222222222,34.666666666666664,0)" xlink:href="#L"/><use transform="matrix(0.07222222222222222,0,0,0.07222222222222222,49.11111111111111,0)" xlink:href="#W"/><use transform="matrix(0.07222222222222222,0,0,0.07222222222222222,62.11111111111111,0)" xlink:href="#K"/><use transform="matrix(0.07222222222222222,0,0,0.07222222222222222,69.33333333333333,0)" xlink:href="#R"/><use transform="matrix(0.07222222222222222,0,0,0.07222222222222222,75.03888888888888,0)" xlink:href="#X"/><use transform="matrix(0.07222222222222222,0,0,0.07222222222222222,89.48333333333332,0)" xlink:href="#S"/><use transform="matrix(0.07222222222222222,0,0,0.07222222222222222,103.92777777777776,0)" xlink:href="#K"/><use transform="matrix(0.07222222222222222,0,0,0.07222222222222222,111.14999999999998,0)" xlink:href="#R"/><use transform="matrix(0.07222222222222222,0,0,0.07222222222222222,116.85555555555553,0)" xlink:href="#V"/><use transform="matrix(0.07222222222222222,0,0,0.07222222222222222,129.85555555555553,0)" xlink:href="#L"/></g><g id="k"><use transform="matrix(0.07222222222222222,0,0,0.07222222222222222,0,0)" xlink:href="#H"/><use transform="matrix(0.07222222222222222,0,0,0.07222222222222222,17.333333333333332,0)" xlink:href="#I"/><use transform="matrix(0.07222222222222222,0,0,0.07222222222222222,25.927777777777774,0)" xlink:href="#J"/><use transform="matrix(0.07222222222222222,0,0,0.07222222222222222,40.37222222222222,0)" xlink:href="#S"/><use transform="matrix(0.07222222222222222,0,0,0.07222222222222222,54.81666666666666,0)" xlink:href="#M"/><use transform="matrix(0.07222222222222222,0,0,0.07222222222222222,67.81666666666666,0)" xlink:href="#K"/><use transform="matrix(0.07222222222222222,0,0,0.07222222222222222,75.03888888888889,0)" xlink:href="#R"/><use transform="matrix(0.07222222222222222,0,0,0.07222222222222222,80.74444444444444,0)" xlink:href="#V"/><use transform="matrix(0.07222222222222222,0,0,0.07222222222222222,93.74444444444444,0)" xlink:href="#L"/></g><path d="M233-177c-1 41-23 64-60 70L243 0h-38l-65-103H63V0H30v-248c88 3 205-21 203 71zM63-129c60-2 137 13 137-47 0-61-80-42-137-45v92" id="Y"/><g id="l"><use transform="matrix(0.07222222222222222,0,0,0.07222222222222222,0,0)" xlink:href="#Y"/><use transform="matrix(0.07222222222222222,0,0,0.07222222222222222,18.705555555555552,0)" xlink:href="#L"/><use transform="matrix(0.07222222222222222,0,0,0.07222222222222222,33.14999999999999,0)" xlink:href="#S"/><use transform="matrix(0.07222222222222222,0,0,0.07222222222222222,47.594444444444434,0)" xlink:href="#M"/><use transform="matrix(0.07222222222222222,0,0,0.07222222222222222,60.59444444444443,0)" xlink:href="#K"/><use transform="matrix(0.07222222222222222,0,0,0.07222222222222222,67.81666666666666,0)" xlink:href="#R"/><use transform="matrix(0.07222222222222222,0,0,0.07222222222222222,73.52222222222221,0)" xlink:href="#V"/><use transform="matrix(0.07222222222222222,0,0,0.07222222222222222,86.52222222222221,0)" xlink:href="#L"/></g></defs></g></svg>