<svg xmlns="http://www.w3.org/2000/svg" width="302" height="199" fill="none">
  <g clip-path="url(#a)">
    <path fill="#BF63F3" d="M4.096 3.174 207.32-.545l-6 124.5L7.5 108.07 4.096 3.174Z"></path>
    <path fill="#0C66E4" d="m166 14.07 122.81-6.908V118.57L171 115.07l-5-101Z"></path>
    <path fill="#164B35" fill-rule="evenodd" d="m176.183 13.674 7.118 101.783-54.801-1.387 25.5-99.5 22.183-.896Z" clip-rule="evenodd"></path>
    <rect width="262" height="79" x="18.5" y="21.57" fill="#fff" rx="3"></rect>
    <rect width="262" height="79" x="18.5" y="21.57" stroke="#091E42" stroke-opacity=".13" stroke-width="2" rx="3"></rect>
    <rect width="16" height="16" x="28.5" y="75.57" fill="#C3F8DE" rx="4"></rect>
    <rect width="97" height="6" x="28.5" y="40.57" fill="#091E42" fill-opacity=".48" rx="3"></rect>
    <path fill="#172B4D" d="M51.927 88.57V78.275h1.19V88.57h-1.19Zm4.641 0-2.878-3.61.875-.758 3.5 4.368h-1.497Zm-3.602-2.652-.055-1.497h.315l3.185-3.22h1.442l-3.5 3.377-.287.28-1.1 1.06Zm8.312 2.782c-.465 0-.884-.089-1.258-.266a2.166 2.166 0 0 1-.881-.76c-.215-.327-.322-.715-.322-1.161v-.014c0-.438.105-.811.315-1.121.21-.314.515-.56.916-.738.4-.178.886-.283 1.456-.315l2.707-.164v.95l-2.563.164c-.561.032-.971.148-1.231.349-.255.2-.383.483-.383.848v.013c0 .374.142.666.424.875.283.205.638.308 1.066.308.406 0 .766-.08 1.08-.24.315-.163.561-.384.739-.662.182-.278.273-.593.273-.944v-2.297c0-.455-.139-.802-.417-1.039-.273-.241-.686-.362-1.237-.362-.442 0-.804.08-1.087.24a1.156 1.156 0 0 0-.567.662l-.007.02h-1.19l.007-.04c.064-.388.224-.725.479-1.012a2.56 2.56 0 0 1 1.005-.677c.41-.164.877-.246 1.4-.246.602 0 1.11.098 1.525.294.42.196.736.479.95.848.22.365.329.802.329 1.312v5.045h-1.19v-1.087h-.11c-.154.26-.343.481-.566.663a2.346 2.346 0 0 1-.746.418 2.928 2.928 0 0 1-.916.136Zm5.702-.13v-7.369h1.189v1.108h.11a2.09 2.09 0 0 1 .806-.91c.35-.218.797-.328 1.34-.328.83 0 1.465.237 1.907.711.447.47.67 1.142.67 2.017v4.771h-1.19v-4.484c0-.665-.14-1.158-.423-1.477-.278-.323-.711-.485-1.3-.485-.391 0-.73.084-1.018.253-.287.169-.51.408-.67.718-.155.31-.232.681-.232 1.114v4.361h-1.19Zm8.073-3.418v-1.107h4.594v1.107h-4.594Zm6.699 3.418v-.847l3.336-3.61c.42-.455.747-.831.984-1.128.237-.3.404-.572.5-.813.095-.242.143-.506.143-.793v-.014c0-.346-.075-.656-.226-.93a1.66 1.66 0 0 0-.642-.649c-.278-.16-.611-.24-.998-.24-.392 0-.736.083-1.033.247-.296.16-.526.385-.69.677a2.004 2.004 0 0 0-.246 1.011l-.007.014-1.176-.007-.013-.007c.004-.583.145-1.1.423-1.551.278-.456.661-.812 1.149-1.067.487-.26 1.046-.39 1.675-.39.574 0 1.091.121 1.551.363.46.237.823.563 1.087.978.27.414.404.888.404 1.421v.014c0 .374-.066.734-.199 1.08-.127.347-.355.732-.683 1.155-.328.42-.79.937-1.388 1.552l-2.55 2.632.308-.567v.567l-.3-.205h4.976v1.107h-6.385Zm11.69.233c-.611 0-1.156-.121-1.634-.363a3.082 3.082 0 0 1-1.156-.984 2.96 2.96 0 0 1-.505-1.415l-.007-.075h1.182l.007.055c.041.314.155.601.342.86.191.256.44.459.745.61.31.15.656.225 1.04.225.437 0 .822-.096 1.154-.287.333-.196.593-.465.78-.807.186-.342.28-.734.28-1.176v-.013c0-.438-.096-.825-.287-1.163a2.038 2.038 0 0 0-.773-.8 2.21 2.21 0 0 0-1.134-.286c-.329 0-.632.05-.91.15-.273.1-.517.25-.731.451-.087.082-.169.171-.246.267a2.436 2.436 0 0 0-.205.321h-1.067l.52-5.667h5.49v1.1h-4.52l-.334 3.337h.109c.146-.224.326-.41.54-.561.214-.15.454-.264.718-.342a2.89 2.89 0 0 1 .847-.123c.62 0 1.17.144 1.648.43.479.283.855.673 1.128 1.17.273.492.41 1.057.41 1.695v.014c0 .66-.148 1.246-.444 1.757a3.13 3.13 0 0 1-1.21 1.19c-.515.286-1.108.43-1.778.43Zm7.827-.233v-8.497h-.11l-2.509 1.819v-1.3l2.625-1.886h1.224v9.864h-1.23Z"></path>
    <path fill="#DDDEE1" d="M267.003 78.128c.224-1.36.33-2.803.308-4.33a24.7 24.7 0 0 0-.435-4.376c-1.581-8.154-7.33-13.115-15.311-14.3a26.41 26.41 0 0 0-4.271-.275 26.9 26.9 0 0 0-4.437.42c-7.949 1.437-13.546 6.54-14.907 14.69a24.691 24.691 0 0 0-.317 4.387c.021 1.526.168 2.965.43 4.318 1.572 8.1 7.314 13.055 15.315 14.277 1.415.217 2.9.32 4.447.298a26.6 26.6 0 0 0 4.26-.393c7.958-1.406 13.574-6.532 14.918-14.716Z"></path>
    <path fill="#B7B9BE" d="M258.997 88.903c.166-9.059-4.421-12.43-11.428-12.308-6.575.115-10.932 3.64-10.775 12.693l.026 1.542c1.948 1.03 4.148 1.743 6.557 2.11 1.415.216 2.901.319 4.448.298a26.622 26.622 0 0 0 4.26-.394c2.583-.457 4.913-1.31 6.937-2.528l-.025-1.413ZM254.236 70.178c.078-.474.115-.977.108-1.51a8.77 8.77 0 0 0-.152-1.527c-.552-2.846-2.556-4.577-5.342-4.99a9.262 9.262 0 0 0-1.489-.096 9.42 9.42 0 0 0-1.547.146c-2.773.503-4.728 2.283-5.201 5.127a8.73 8.73 0 0 0-.111 1.53c.007.534.058 1.036.15 1.507.549 2.827 2.553 4.555 5.344 4.98a9.404 9.404 0 0 0 1.55.105 9.165 9.165 0 0 0 1.488-.138c2.776-.49 4.734-2.28 5.204-5.134h-.002Z"></path>
    <path fill="#1868DB" fill-rule="evenodd" d="M205.75 70.07a.75.75 0 1 0 0 1.5.75.75 0 0 0 0-1.5Zm-2.25.75a2.25 2.25 0 1 1 3 2.122v3.628H205v-3.628a2.25 2.25 0 0 1-1.5-2.122Zm9.75-.75a.75.75 0 1 0 0 1.5.75.75 0 0 0 0-1.5Zm-2.25.75a2.25 2.25 0 1 1 3 2.122v4.878a3.25 3.25 0 0 1-3.25 3.25h-2.878a2.25 2.25 0 1 1 0-1.5h2.878a1.75 1.75 0 0 0 1.75-1.75v-4.878a2.25 2.25 0 0 1-1.5-2.122Zm-5.25 8.75a.75.75 0 1 0 0 1.5.75.75 0 0 0 0-1.5Z" clip-rule="evenodd"></path>
    <path fill="#BF63F3" d="M202.141 56.59c.134-.193-.432-3.372-.911-2.47-.216.305-.193.587.129.68-.623.097.209.696.006.987-.435-.1.473.765.021.6-.465 3.443 3.766 10.34 1.215 1.91-.194.84-.367.05-.272-.328.558.536.072-1.037-.12-1.326.012.488-.4-.315-.069-.051l.001-.002ZM196.88 62.833c-.028-.448-3.086-2.318-3.377-2.553-.716-.387-.772.645-.161.811.104.084.973.374.601.584.192.878 1.745.995 1.842 1.736.204-.12.448.142.585.082-.024.22.272.343.298.29.766.94 1.669-.23.569-.734.047-.038-.147-.294-.354-.216h-.003ZM191.155 74.268c.507.402-.028.375-.274.177.455-.363-.607-.36-.879-.238.111.022.128.213-.101.18.212-.458-2.692-.833-1.425.284.05.003.114-.369.159-.247-.16.557.341.206.475.175-.035.294.118.032.137.157-.202.381.616-.21.394.165.601.666 2.009-.001 2.459.595.425-.627 2.452.568 1.767-.776-.889-.375-1.626-.608-2.712-.472ZM186.352 66.972c-.331.887 1.697.883 2.201 1.307.601.596 7.486 3.121 5.842 1.156-2.091-.747-3.674-1.725-6.323-2.31-.423-.126-1.708-.793-1.72-.153ZM208.604 60.972c.688.591-.316 1.251.243 1.804 1.094.855 2.199-5.836.973-5.733-1.042.23-.725 3.491-1.216 3.93Z"></path>
    <rect width="266" height="59" x="24.5" y="130.57" fill="#1D2125" rx="7"></rect>
    <circle cx="39" cy="145.07" r="2.5" fill="#F15B50"></circle>
    <circle cx="47" cy="145.07" r="2.5" fill="#F38A3F"></circle>
    <circle cx="55" cy="145.07" r="2.5" fill="#2ABB7F"></circle>
    <path fill="#7EE2B8" d="M37.533 169.338h.938c.094.844.75 1.418 1.71 1.529v-3.211l-.122-.029c-1.594-.393-2.315-1.125-2.315-2.344 0-1.324.95-2.221 2.438-2.338v-.656h.697v.656c1.4.129 2.344 1.008 2.414 2.297h-.926c-.1-.785-.656-1.306-1.488-1.424v3.041l.193.053c1.682.416 2.367 1.113 2.367 2.373 0 1.395-.996 2.332-2.56 2.455v.656h-.697v-.65c-1.553-.117-2.56-1.019-2.649-2.408Zm1.172-4.084c0 .726.416 1.131 1.477 1.43v-2.866c-.92.1-1.477.633-1.477 1.436Zm3.78 4.078c0-.762-.475-1.207-1.606-1.5v3.035c.967-.111 1.605-.703 1.605-1.535Zm12.603 4.623c-1.47 0-2.455-.644-2.584-1.699h.984c.13.527.768.873 1.617.873 1.114 0 1.729-.563 1.729-1.582v-.99h-.106c-.28.668-.984 1.072-1.91 1.072-1.47 0-2.437-1.061-2.437-2.69v-1.142c0-1.635.972-2.69 2.46-2.69.92 0 1.618.405 1.893 1.09h.112v-.984h.984v6.357c0 1.494-1.02 2.385-2.742 2.385Zm-1.705-5.156c0 1.166.68 1.928 1.734 1.928 1.049 0 1.723-.756 1.723-1.928v-.873c0-1.172-.674-1.922-1.723-1.922-1.054 0-1.734.756-1.734 1.922v.873Zm9.422-5.145a.805.805 0 0 1-.827-.82c0-.463.358-.814.827-.814.468 0 .826.351.826.814 0 .469-.358.82-.826.82Zm2.666 7.916h-5.268v-.826h2.18v-4.705H60.22v-.826h3.146v5.531h2.104v.826Zm3.556-8.062h.985v1.722h2.578v.85h-2.567v3.586c0 .691.487 1.066 1.383 1.066.358 0 .996-.017 1.166-.035v.844c-.158.029-.931.059-1.236.059-1.576 0-2.309-.598-2.309-1.922v-3.598h-1.693v-.85h1.693v-1.722Zm18.569 3.685h-.985c-.123-.744-.744-1.213-1.564-1.213-1.108 0-1.723.756-1.723 2.122v.574c0 1.365.615 2.115 1.723 2.115.82 0 1.441-.463 1.564-1.189h.985c-.159 1.294-1.125 2.086-2.532 2.086-1.728 0-2.736-1.061-2.736-2.883v-.832c0-1.823 1.008-2.883 2.736-2.883 1.407 0 2.368.797 2.532 2.103Zm4.77 4.495c-1.682 0-2.755-1.096-2.755-2.813v-.961c0-1.717 1.073-2.812 2.754-2.812 1.682 0 2.754 1.095 2.754 2.812v.961c0 1.717-1.072 2.813-2.754 2.813Zm0-5.708c-1.09 0-1.77.774-1.77 2.022v.779c0 1.254.68 2.022 1.77 2.022 1.09 0 1.769-.768 1.769-2.022v-.779c0-1.248-.68-2.022-1.77-2.022Zm10.482.909v4.681h-.897v-4.388c0-.774-.281-1.178-.814-1.178-.557 0-.897.486-.897 1.277v4.289h-.89v-4.394c0-.768-.282-1.172-.82-1.172-.563 0-.915.486-.915 1.277v4.289h-.896v-6.357h.89v.896h.106c.158-.638.615-1.013 1.213-1.013.597 0 1.02.369 1.154.996h.106c.164-.61.673-.996 1.312-.996.885 0 1.348.615 1.348 1.793Zm7.418 0v4.681h-.897v-4.388c0-.774-.281-1.178-.814-1.178-.557 0-.897.486-.897 1.277v4.289h-.89v-4.394c0-.768-.282-1.172-.821-1.172-.562 0-.914.486-.914 1.277v4.289h-.896v-6.357h.89v.896h.106c.158-.638.615-1.013 1.213-1.013.597 0 1.019.369 1.154.996h.105c.165-.61.674-.996 1.313-.996.885 0 1.348.615 1.348 1.793Zm4.464-3.235a.806.806 0 0 1-.826-.82c0-.463.358-.814.826-.814.469 0 .827.351.827.814 0 .469-.358.82-.827.82Zm2.666 7.916h-5.267v-.826h2.18v-4.705h-2.163v-.826h3.147v5.531h2.103v.826Zm3.557-8.062h.985v1.722h2.578v.85h-2.567v3.586c0 .691.487 1.066 1.383 1.066.357 0 .996-.017 1.166-.035v.844c-.158.029-.932.059-1.236.059-1.576 0-2.309-.598-2.309-1.922v-3.598h-1.693v-.85h1.693v-1.722Zm19.02 4.775h-6.2v-.926h6.2v.926Zm7.382-1.394v4.681h-.896v-4.388c0-.774-.281-1.178-.814-1.178-.557 0-.897.486-.897 1.277v4.289h-.891v-4.394c0-.768-.281-1.172-.82-1.172-.562 0-.914.486-.914 1.277v4.289h-.896v-6.357h.89v.896h.106c.158-.638.615-1.013 1.213-1.013.597 0 1.019.369 1.154.996h.105c.164-.61.674-.996 1.313-.996.885 0 1.347.615 1.347 1.793Zm12.991-3.774h.884l-.714 3.815h-1.213l1.043-3.815Zm-2.262 0h.885l-.715 3.815h-1.213l1.043-3.815Zm7.031 8.455h-1.013v-8.455h1.013v4.207h.076l3.422-4.207h1.207l-3.129 3.739 3.434 4.716h-1.283l-2.848-3.92-.879 1.043v2.877Zm8.203.112c-1.213 0-2.021-.762-2.021-1.916 0-1.125.808-1.793 2.256-1.87l1.746-.087v-.575c0-.796-.487-1.236-1.371-1.236-.733 0-1.248.311-1.412.856h-.979c.117-1.02 1.102-1.717 2.402-1.717 1.495 0 2.35.761 2.35 2.086v4.353h-.949v-.955h-.1c-.304.68-.996 1.061-1.922 1.061Zm.287-.873c.961 0 1.694-.639 1.694-1.489v-.75l-1.635.076c-.891.042-1.359.422-1.359 1.084 0 .668.498 1.079 1.3 1.079Zm5.174.761v-6.357h.955v1.119h.082c.34-.791 1.067-1.236 2.034-1.236 1.382 0 2.132.826 2.132 2.349v4.125h-.996v-3.873c0-1.148-.468-1.687-1.459-1.687-1.048 0-1.752.732-1.752 1.816v3.744h-.996Zm13.119-3.287h-6.199v-.926h6.199v.926Zm7.512 3.287h-5.894v-.908h2.496v-6.375h-.094l-2.42 1.565v-1.102l2.52-1.635h1.013v7.547h2.379v.908Zm11.643-.802c1.23 0 1.945-.809 1.945-2.198v-5.455h1.031v5.52c0 1.945-1.113 3.111-2.976 3.111-1.864 0-2.977-1.166-2.977-3.111v-5.52h1.031v5.455c0 1.389.715 2.198 1.946 2.198Zm7.816-5.661c1.471 0 2.432 1.061 2.432 2.696v1.183c0 1.629-.961 2.69-2.432 2.69-.92 0-1.594-.393-1.869-1.09h-.111v3.129h-1.014v-8.502h.984v.973h.106c.334-.704.996-1.079 1.904-1.079Zm-.287.914c-1.049 0-1.717.75-1.717 1.922v.914c0 1.178.668 1.928 1.717 1.928s1.717-.756 1.717-1.928v-.914c0-1.172-.668-1.922-1.717-1.922Zm6.908 5.655c-1.47 0-2.431-1.061-2.431-2.696v-1.183c0-1.629.961-2.69 2.431-2.69.92 0 1.6.393 1.875 1.09h.106v-3.48h1.013v8.853h-.978v-.972h-.111c-.329.703-.997 1.078-1.905 1.078Zm.293-.908c1.043 0 1.717-.75 1.717-1.928v-.914c0-1.172-.674-1.922-1.717-1.922-1.049 0-1.722.75-1.722 1.922v.914c0 1.172.673 1.928 1.722 1.928Zm6.879.914c-1.213 0-2.021-.762-2.021-1.916 0-1.125.808-1.793 2.255-1.87l1.747-.087v-.575c0-.796-.487-1.236-1.372-1.236-.732 0-1.248.311-1.412.856h-.978c.117-1.02 1.101-1.717 2.402-1.717 1.494 0 2.35.761 2.35 2.086v4.353h-.949v-.955h-.1c-.305.68-.996 1.061-1.922 1.061Zm.287-.873c.961 0 1.694-.639 1.694-1.489v-.75l-1.635.076c-.891.042-1.36.422-1.36 1.084 0 .668.498 1.079 1.301 1.079Zm6.692-7.301h.984v1.722h2.578v.85h-2.566v3.586c0 .691.486 1.066 1.383 1.066.357 0 .996-.017 1.166-.035v.844c-.159.029-.932.059-1.237.059-1.576 0-2.308-.598-2.308-1.922v-3.598h-1.694v-.85h1.694v-1.722Zm10.218 6.422h.967c-.193 1.049-1.201 1.758-2.537 1.758-1.746 0-2.76-1.049-2.76-2.86v-.955c0-1.676 1.073-2.777 2.69-2.777 1.652 0 2.625 1.095 2.625 2.935v.621h-4.33v.258c0 1.166.691 1.916 1.775 1.916.803 0 1.395-.34 1.57-.896Zm-1.646-3.979c-1.061 0-1.699.727-1.699 1.945h3.345c0-1.212-.621-1.945-1.646-1.945Zm6.082.867h-.885l.715-3.814h1.207l-1.037 3.814Zm2.262 0h-.885l.715-3.814h1.207l-1.037 3.814Z"></path>
    <path fill="#BF63F3" d="M27.749 122.779s.07.182.11.117l-.11-.117Z"></path>
  </g>
  <defs>
    <clipPath id="a">
      <path fill="#fff" d="M0 .57h302v198H0z"></path>
    </clipPath>
  </defs>
</svg>
