<svg width="96" height="96" viewBox="0 0 96 96" fill="none" xmlns="http://www.w3.org/2000/svg">
<path d="M22.7054 8.24023L12.5405 72.0374L81.2883 82.9999L91.4531 19.2291L22.7054 8.24023Z" fill="#C8C6C4" />
<path
d="M77.1091 10.1254C76.7988 10.0709 76.4806 10.0791 76.1735 10.1496C75.8663 10.2201 75.5764 10.3514 75.3208 10.5357C75.0652 10.72 74.8491 10.9536 74.6853 11.2228C74.5214 11.492 74.4132 11.7913 74.3669 12.103L72.9694 20.7516C72.8747 21.3779 73.0314 22.0163 73.4055 22.5275C73.7795 23.0387 74.3405 23.3812 74.9661 23.4804C75.5917 23.5796 76.2312 23.4274 76.745 23.057C77.2588 22.6866 77.6054 22.128 77.709 21.5031L79.0999 12.8545C79.1966 12.2287 79.0415 11.5902 78.6683 11.0787C78.2952 10.5672 77.7345 10.2243 77.1091 10.1254Z"
fill="#FFD566"
/>
<path
d="M64.3931 8.09501C64.0828 8.04146 63.7649 8.0504 63.4581 8.12124C63.1514 8.19209 62.8618 8.3234 62.6064 8.50757C62.351 8.69174 62.135 8.92508 61.9709 9.19381C61.8068 9.46254 61.698 9.76129 61.6508 10.0726L60.2599 18.7279C60.1652 19.3542 60.3219 19.9925 60.696 20.5037C61.07 21.0148 61.631 21.3574 62.2566 21.4566C62.8822 21.5557 63.5217 21.4035 64.0355 21.0331C64.5494 20.6627 64.8959 20.1042 64.9995 19.4794L66.3904 10.8307C66.4872 10.2032 66.3313 9.563 65.9569 9.05025C65.5825 8.5375 65.0202 8.19399 64.3931 8.09501Z"
fill="#FFD566"
/>
<path
d="M51.6834 6.06483C51.373 6.01035 51.0548 6.01858 50.7477 6.08905C50.4405 6.15952 50.1506 6.29074 49.895 6.47506C49.6394 6.65938 49.4233 6.89307 49.2595 7.16226C49.0957 7.43144 48.9874 7.73072 48.9411 8.04242L47.5436 16.6977C47.4489 17.324 47.6056 17.9623 47.9797 18.4735C48.3537 18.9846 48.9147 19.3272 49.5403 19.4264C50.1659 19.5256 50.8054 19.3734 51.3192 19.003C51.833 18.6326 52.1796 18.074 52.2832 17.4491L53.6741 8.79392C53.7238 8.48386 53.7117 8.16702 53.6384 7.86169C53.565 7.55636 53.432 7.26853 53.247 7.01484C53.0619 6.76115 52.8285 6.54662 52.5601 6.38356C52.2918 6.22051 51.9938 6.11219 51.6834 6.06483Z"
fill="#FFD566"
/>
<path
d="M38.9744 4.03452C38.6637 3.98093 38.3455 3.98982 38.0383 4.06059C37.7311 4.13136 37.441 4.26265 37.1851 4.44676C36.9292 4.63087 36.7125 4.86406 36.5478 5.13283C36.383 5.40161 36.2735 5.70053 36.2255 6.01211L34.8346 14.6872C34.7399 15.3135 34.8967 15.9518 35.2707 16.463C35.6448 16.9741 36.2058 17.3167 36.8314 17.4159C37.457 17.5151 38.0964 17.3628 38.6102 16.9924C39.1241 16.622 39.4706 16.0635 39.5742 15.4387L40.9652 6.7834C41.0168 6.47198 41.0061 6.15338 40.9338 5.84611C40.8615 5.53883 40.7288 5.24897 40.5437 4.9933C40.3585 4.73763 40.1245 4.52129 39.8551 4.35671C39.5857 4.19214 39.2864 4.08259 38.9744 4.03452Z"
fill="#FFD566"
/>
<path
d="M89.258 33.0718C89.258 33.0718 86.0821 70.384 74.5 78.9998C74.5 78.9998 61.8024 71.9117 48.9019 72.4457C21.9737 73.54 9.78513 67.2974 2 61.8392C2 61.8392 16.1398 50.033 20.5037 22.1226L89.258 33.0718Z"
fill="#F7F7F7"
/>
<path d="M91.4661 19.1829L22.7183 8.22705L20.5034 22.1164L89.2512 33.0723L91.4661 19.1829Z" fill="#FFD566" />
<path
d="M78.4275 17.0867L77.709 21.5231C77.6054 22.1479 77.2588 22.7065 76.745 23.0769C76.2312 23.4473 75.5917 23.5994 74.9661 23.5002C74.3405 23.4011 73.7795 23.0586 73.4055 22.5474C73.0314 22.0362 72.8747 21.3979 72.9694 20.7716L73.6879 16.3682L78.4275 17.0867Z"
fill="#FAB120"
/>
<path
d="M65.7115 15.0559L64.9995 19.4923C64.8959 20.1172 64.5494 20.6757 64.0355 21.0461C63.5217 21.4165 62.8822 21.5687 62.2566 21.4695C61.631 21.3703 61.07 21.0278 60.696 20.5166C60.3219 20.0054 60.1652 19.3671 60.2599 18.7408L60.9718 14.2979L65.7115 15.0559Z"
fill="#FAB120"
/>
<path
d="M53.002 13.0591L52.2835 17.4625C52.2372 17.7742 52.1289 18.0735 51.9651 18.3426C51.8013 18.6118 51.5852 18.8455 51.3296 19.0298C51.074 19.2142 50.7841 19.3454 50.4769 19.4159C50.1698 19.4863 49.8516 19.4946 49.5413 19.4401C48.9156 19.3381 48.356 18.9921 47.9853 18.478C47.6145 17.9639 47.4629 17.3237 47.5637 16.6979L48.2822 12.2549L53.002 13.0591Z"
fill="#FAB120"
/>
<path
d="M40.2862 10.9888L39.5742 15.4318C39.4706 16.0567 39.1241 16.6152 38.6102 16.9856C38.0964 17.356 37.457 17.5082 36.8314 17.409C36.2058 17.3098 35.6448 16.9672 35.2707 16.4561C34.8967 15.9449 34.7399 15.3066 34.8346 14.6803L35.5466 10.2373L40.2862 10.9888Z"
fill="#FAB120"
/>
<path
d="M38.9981 33.9926C37.6551 33.7804 36.3941 34.6967 36.1812 36.0396C35.9682 37.3835 36.8853 38.6455 38.2293 38.8579L75.078 44.681C76.4211 44.8933 77.682 43.977 77.8949 42.634C78.1079 41.2902 77.1908 40.0281 75.8469 39.8158L38.9981 33.9926Z"
fill="#E0DEDC"
/>
<path
d="M34.2066 50.3839C32.8645 50.1718 31.6042 51.0864 31.3896 52.428C31.1746 53.7732 32.092 55.0375 33.4375 55.2501L70.2826 61.0726C71.6256 61.2849 72.8866 60.3685 73.0995 59.0256C73.3125 57.6817 72.3955 56.4197 71.0515 56.2073L34.2066 50.3839Z"
fill="#E0DEDC"
/>
<ellipse cx="69.7606" cy="68.7875" rx="20.7865" ry="20.7909" fill="white" />
<path
d="M62.4139 52.4752C63.8237 51.9002 65.3051 51.5196 66.8175 51.3439C71.1028 50.8043 75.4378 51.8451 79.0113 54.2715C82.5848 56.6979 85.1519 60.3435 86.2322 64.5263C87.3124 68.709 86.8319 73.142 84.8804 76.996C82.9289 80.8499 79.6402 83.8605 75.6298 85.4644C74.2202 86.0411 72.7388 86.4234 71.2263 86.6009C66.9426 87.135 62.6111 86.0909 59.041 83.6636C55.4709 81.2363 52.9065 77.5919 51.827 73.4114C50.7474 69.2308 51.2266 64.8002 53.1749 60.9473C55.1233 57.0944 58.4075 54.0827 62.4139 52.4752ZM60.4608 47.6307C55.2689 49.7076 51.011 53.605 48.4837 58.5941C45.9563 63.5831 45.3324 69.3222 46.7287 74.738C48.1251 80.1538 51.446 84.8754 56.0704 88.0198C60.6948 91.1641 66.306 92.5159 71.8546 91.8224C73.7946 91.5714 75.6969 91.086 77.5201 90.3769C82.7171 88.3034 86.9803 84.4064 89.5115 79.4154C92.0428 74.4245 92.6685 68.6818 91.2714 63.2627C89.8744 57.8435 86.5505 53.1195 81.9219 49.975C77.2934 46.8306 71.6777 45.4814 66.1263 46.18C64.176 46.3779 62.2663 46.8669 60.4608 47.6307Z"
fill="url(#paint0_linear_8255_606561)"
/>
<path
d="M67.9489 76.9013L60.3916 71.2346C59.9575 70.9006 59.6739 70.4077 59.6032 69.8646C59.5325 69.3215 59.6805 68.7725 60.0145 68.3384C60.3486 67.9044 60.8414 67.6208 61.3845 67.55C61.9276 67.4793 62.4766 67.6273 62.9107 67.9614L67.2523 71.2346L74.4326 62.038C74.7666 61.604 75.2594 61.3204 75.8026 61.2497C76.3457 61.179 76.8947 61.3269 77.3287 61.661C77.7628 61.995 78.0464 62.4878 78.1171 63.031C78.1878 63.5741 78.0399 64.1231 77.7058 64.5572L67.9489 76.9013Z"
fill="#4977EB"
/>
<circle cx="28.5" cy="33.5" r="4.5" fill="#E0DEDC" />
<circle cx="23.5" cy="50.5" r="4.5" fill="#E0DEDC" />
<defs>
<linearGradient id="paint0_linear_8255_606561" x1="38.4515" y1="41.5203" x2="54.732" y2="114.921" gradientUnits="userSpaceOnUse">
<stop stop-color="#7DA4FA" />
<stop offset="0.364583" stop-color="#6893F7" />
<stop offset="0.760417" stop-color="#4977EB" />
<stop offset="1" stop-color="#3E69DE" />
</linearGradient>
</defs>
</svg>