<svg xmlns="http://www.w3.org/2000/svg" fill="none" viewBox="0 0 260 140">
  <path fill="url(#a)" d="M260 140h260v140H260z" transform="rotate(-180 260 140)"/>
  <g filter="url(#b)" opacity=".9">
    <rect width="124.3" height="85.6" x="68.9" y="29.3" fill="#fff" rx="3.7"/>
  </g>
  <rect width="124.3" height="80.9" x="68.9" y="29.3" fill="#454872" rx="3.7"/>
  <path fill="url(#c)" d="M68.9 40.3H131v37.6H68.9z"/>
  <path fill="url(#d)" d="M131 40.3h62.1v37.6H131z"/>
  <path fill="url(#e)" d="M69 77.9h62v37H71a2 2 0 0 1-2-2v-35Z"/>
  <path fill="url(#f)" d="M131 77.9h62.1V115H131z"/>
  <g opacity=".7">
    <mask id="g" width="58" height="32" x="70" y="46" maskUnits="userSpaceOnUse" style="mask-type:alpha">
      <rect width="56.9" height="31.9" x="70.5" y="46" fill="#fff" rx="1.1"/>
    </mask>
    <g mask="url(#g)">
      <path fill="#fff" fill-opacity=".8" d="M105.2 70h1.2c2 .2 10.5 1.9 13.2 8.7-3.2 5-14.6 1.3-21 1.3-6 0-16.2 2.4-19.5-2.1 2.6-4.2 7.5-6.3 8-6.5 1.3-.4 4.2-1.2 6.3-1.4h.5c.5-.3.8-.8.8-1.3v-2a5.2 5.2 0 0 1-1.8-3.8v-.8c-.8 0-1.6-.7-1.9-1.5-.4-1.1.2-2.3 1.4-2.7v-3.4c-3-1.2-2-4.9-.5-5.2 2.3-.6 2 1.4 3.5 1.4.6 0 1-1.5 2.5-1.4 1.5 0 .8 1.1 4.4.6 2-.3 3.2 1 3.6 2.6.7.4 1.2 1.3 1.2 2.1v3.5a2.2 2.2 0 0 1-1.2 4v.8c0 1.2-.5 2.4-1.3 3.4v2c0 .7.3 1.4.6 1.7Z"/>
    </g>
  </g>
  <mask id="h" width="58" height="32" x="132" y="46" maskUnits="userSpaceOnUse" style="mask-type:alpha">
    <rect width="56.9" height="31.9" x="132.1" y="46" fill="#fff" rx="1.1"/>
  </mask>
  <g mask="url(#h)">
    <path fill="#fff" fill-opacity=".5" d="m169.2 76 1.5 1.4.8 1c-5.5 3.7-15 3-20.6-.5 2-3.7 5-3.4 7-4.3 1.2-.5 1.3-.9 1.4-2v-2.3c-.7-.4-1.3-1-1.8-1.6a1.6 1.6 0 0 1-3-1c0-.8.7-1.6 1.6-1.5V65a1.8 1.8 0 0 1-1.5-2.7 9 9 0 0 1-.6-3c-1.6 0-3-1-3.4-3-.5-2.8 1.8-5 1.8-5 .9 2 2.6-.8 5.5-2 3-1 7.2-.5 8.8 2.5 2.4 1.6 3.1 4.5 3 7.7a9 9 0 0 1-.8 3.2c.2.3.2.5.2.8 0 1-.8 1.8-1.8 1.8h-.1l-.1.1a1.6 1.6 0 0 1 0 3.3c-.7 0-1.2-.4-1.5-1-.4.5-.8 1-1.4 1.3v2.7c-.2 1.2.3 1.6 1 2a8.4 8.4 0 0 1 2 .8l.7.4.3.2.2.2.5.4c.1 0 .2 0 .3.2Z"/>
  </g>
  <g opacity=".7">
    <mask id="i" width="57" height="32" x="131" y="83" maskUnits="userSpaceOnUse" style="mask-type:alpha">
      <rect width="56.9" height="31.9" x="131" y="83.1" fill="#fff" rx="1.1"/>
    </mask>
    <g mask="url(#i)">
      <path fill="#fff" fill-opacity=".5" d="M151.1 93c-.2-1.3.5-2.4 1.7-2.7a2.2 2.2 0 0 1 2.8-3 2.2 2.2 0 0 1 4-.5 2.2 2.2 0 0 1 4 .8 2.2 2.2 0 0 1 2.8 3.2 2.2 2.2 0 0 1 .8 3.8 2 2 0 0 1-.8 3.1v.4c.7.4 1.2 1.2 1.2 2a2 2 0 0 1-2.2 2.1v.8a5 5 0 0 1-2.4 4.1v3c0 .6.4 1 1 1.1 1.6.3 3.3.9 5 1.6.5.3 2 .8 3 2.7-3.1 2.5-8.5 2.4-12.9 2.4-4 0-8.6-.4-11.6-2.7a16 16 0 0 1 7.8-3.9c.4-.2 1-.5 1-1v-3a5 5 0 0 1-2.6-4.4v-.7c-1.2 0-2.1-1-2.1-2.3 0-.7.4-1.5 1.1-1.8v-.5a2 2 0 0 1-.6-3.3 2 2 0 0 1-1-1.4Z"/>
    </g>
  </g>
  <path fill="#DBDCF0" d="M103.7 105a.7.7 0 0 1-.1-.5v-.8l5.2-.2s.2-6.4.5-9c.4-3.2-.5-6.8-3-8.8-2.4-2-6.3-2.3-9.6.3-3.8.2-5.5 4.2-4.7 8.2 1 4.8 1.4 10 1.4 10l4.1-.3v1.3c-5.1 1.2-9.1 5-10.8 9.8h28.7c-1.8-5.2-6.2-9-11.7-10Z"/>
  <g filter="url(#j)" style="mix-blend-mode:multiply">
    <rect width="4.2" height="4.2" x="171.5" y="33" fill="#fff" rx="2.1"/>
  </g>
  <rect width="4.2" height="4.2" x="171.5" y="33" fill="#fff" fill-opacity=".7" rx="2.1"/>
  <g filter="url(#k)" style="mix-blend-mode:multiply">
    <rect width="4.2" height="4.2" x="164.2" y="33" fill="#fff" rx="2.1"/>
  </g>
  <rect width="4.2" height="4.2" x="164.2" y="33" fill="#fff" fill-opacity=".7" rx="2.1"/>
  <g filter="url(#l)">
    <rect width="10.4" height="4.2" x="178.8" y="33" fill="#E73550" rx=".8"/>
  </g>
  <g filter="url(#m)">
    <rect width="25.3" height="25.3" x="58.7" y="21" fill="#8D90DF" rx="12.7"/>
  </g>
  <g filter="url(#n)">
    <path fill="#F8F8F8" d="M74 31c0-1.2-1-2-2.2-2h-5.3c-1.3 0-2.2.8-2.2 2v5.7c0 1.2 1 2.1 2.2 2.1h5.3c1.2 0 2.2-1 2.2-2V31Zm1.8.5c-.5.4-.9 1-.9 1.8v1.1c0 .8.4 1.4 1 1.9l1.5 1.2c.4.4 1.1 0 1.1-.5v-6.3c0-.5-.7-.8-1.1-.5l-1.6 1.3Z"/>
  </g>
  <rect width="23.4" height="23.4" fill="#EF9095" rx="5.3" transform="matrix(-1 0 0 1 202 95.6)"/>
  <path stroke="#fff" stroke-linecap="round" stroke-width="2.6" d="M196.6 107.3h-12.7m6.3-6.3v12.7"/>
  <defs>
    <filter id="b" width="136.9" height="98.3" x="62.6" y="25.1" color-interpolation-filters="sRGB" filterUnits="userSpaceOnUse">
      <feFlood flood-opacity="0" result="BackgroundImageFix"/>
      <feColorMatrix in="SourceAlpha" result="hardAlpha" values="0 0 0 0 0 0 0 0 0 0 0 0 0 0 0 0 0 0 127 0"/>
      <feOffset dy="2.1"/>
      <feGaussianBlur stdDeviation="3.2"/>
      <feColorMatrix values="0 0 0 0 0 0 0 0 0 0 0 0 0 0 0 0 0 0 0.12 0"/>
      <feBlend in2="BackgroundImageFix" result="effect1_dropShadow_551_18546"/>
      <feBlend in="SourceGraphic" in2="effect1_dropShadow_551_18546" result="shape"/>
    </filter>
    <filter id="j" width="8.4" height="8.4" x="169.4" y="31.9" color-interpolation-filters="sRGB" filterUnits="userSpaceOnUse">
      <feFlood flood-opacity="0" result="BackgroundImageFix"/>
      <feColorMatrix in="SourceAlpha" result="hardAlpha" values="0 0 0 0 0 0 0 0 0 0 0 0 0 0 0 0 0 0 127 0"/>
      <feOffset dy="1.1"/>
      <feGaussianBlur stdDeviation="1.1"/>
      <feColorMatrix values="0 0 0 0 0 0 0 0 0 0 0 0 0 0 0 0 0 0 0.1 0"/>
      <feBlend in2="BackgroundImageFix" result="effect1_dropShadow_551_18546"/>
      <feBlend in="SourceGraphic" in2="effect1_dropShadow_551_18546" result="shape"/>
    </filter>
    <filter id="k" width="8.4" height="8.4" x="162.1" y="31.9" color-interpolation-filters="sRGB" filterUnits="userSpaceOnUse">
      <feFlood flood-opacity="0" result="BackgroundImageFix"/>
      <feColorMatrix in="SourceAlpha" result="hardAlpha" values="0 0 0 0 0 0 0 0 0 0 0 0 0 0 0 0 0 0 127 0"/>
      <feOffset dy="1.1"/>
      <feGaussianBlur stdDeviation="1.1"/>
      <feColorMatrix values="0 0 0 0 0 0 0 0 0 0 0 0 0 0 0 0 0 0 0.1 0"/>
      <feBlend in2="BackgroundImageFix" result="effect1_dropShadow_551_18546"/>
      <feBlend in="SourceGraphic" in2="effect1_dropShadow_551_18546" result="shape"/>
    </filter>
    <filter id="l" width="14.7" height="8.4" x="176.7" y="31.9" color-interpolation-filters="sRGB" filterUnits="userSpaceOnUse">
      <feFlood flood-opacity="0" result="BackgroundImageFix"/>
      <feColorMatrix in="SourceAlpha" result="hardAlpha" values="0 0 0 0 0 0 0 0 0 0 0 0 0 0 0 0 0 0 127 0"/>
      <feOffset dy="1.1"/>
      <feGaussianBlur stdDeviation="1.1"/>
      <feColorMatrix values="0 0 0 0 0 0 0 0 0 0 0 0 0 0 0 0 0 0 0.1 0"/>
      <feBlend in2="BackgroundImageFix" result="effect1_dropShadow_551_18546"/>
      <feBlend in="SourceGraphic" in2="effect1_dropShadow_551_18546" result="shape"/>
    </filter>
    <filter id="m" width="33.8" height="33.8" x="54.5" y="17.4" color-interpolation-filters="sRGB" filterUnits="userSpaceOnUse">
      <feFlood flood-opacity="0" result="BackgroundImageFix"/>
      <feColorMatrix in="SourceAlpha" result="hardAlpha" values="0 0 0 0 0 0 0 0 0 0 0 0 0 0 0 0 0 0 127 0"/>
      <feOffset dy=".6"/>
      <feGaussianBlur stdDeviation="2.1"/>
      <feColorMatrix values="0 0 0 0 0 0 0 0 0 0 0 0 0 0 0 0 0 0 0.12 0"/>
      <feBlend in2="BackgroundImageFix" result="effect1_dropShadow_551_18546"/>
      <feColorMatrix in="SourceAlpha" result="hardAlpha" values="0 0 0 0 0 0 0 0 0 0 0 0 0 0 0 0 0 0 127 0"/>
      <feOffset dy=".2"/>
      <feGaussianBlur stdDeviation=".5"/>
      <feColorMatrix values="0 0 0 0 0 0 0 0 0 0 0 0 0 0 0 0 0 0 0.12 0"/>
      <feBlend in2="effect1_dropShadow_551_18546" result="effect2_dropShadow_551_18546"/>
      <feBlend in="SourceGraphic" in2="effect2_dropShadow_551_18546" result="shape"/>
    </filter>
    <filter id="n" width="16.6" height="12.2" x="63.1" y="28" color-interpolation-filters="sRGB" filterUnits="userSpaceOnUse">
      <feFlood flood-opacity="0" result="BackgroundImageFix"/>
      <feColorMatrix in="SourceAlpha" result="hardAlpha" values="0 0 0 0 0 0 0 0 0 0 0 0 0 0 0 0 0 0 127 0"/>
      <feOffset dy=".2"/>
      <feGaussianBlur stdDeviation=".6"/>
      <feColorMatrix values="0 0 0 0 0 0 0 0 0 0 0 0 0 0 0 0 0 0 0.16 0"/>
      <feBlend in2="BackgroundImageFix" result="effect1_dropShadow_551_18546"/>
      <feBlend in="SourceGraphic" in2="effect1_dropShadow_551_18546" result="shape"/>
    </filter>
    <linearGradient id="a" x1="773.6" x2="-310.4" y1="474" y2="-223.2" gradientUnits="userSpaceOnUse">
      <stop stop-color="#fff" stop-opacity=".6"/>
      <stop offset="1" stop-color="#A6A7DC" stop-opacity=".6"/>
    </linearGradient>
    <linearGradient id="c" x1="100" x2="100.3" y1="40.3" y2="93" gradientUnits="userSpaceOnUse">
      <stop stop-color="#DDDAD8"/>
      <stop offset="1" stop-color="#C1BEBB"/>
    </linearGradient>
    <linearGradient id="d" x1="162.1" x2="162.1" y1="40.3" y2="77.9" gradientUnits="userSpaceOnUse">
      <stop stop-color="#CDCEF3"/>
      <stop offset="1" stop-color="#C2C4F7"/>
    </linearGradient>
    <linearGradient id="e" x1="100" x2="100" y1="77.9" y2="124.1" gradientUnits="userSpaceOnUse">
      <stop stop-color="#CBCCF1"/>
      <stop offset="1" stop-color="#C6C7E9"/>
    </linearGradient>
    <linearGradient id="f" x1="162.1" x2="162.1" y1="77.9" y2="115" gradientUnits="userSpaceOnUse">
      <stop stop-color="#D7D3D0"/>
      <stop offset="1" stop-color="#CDC8C4"/>
    </linearGradient>
  </defs>
</svg>