<svg xmlns="http://www.w3.org/2000/svg" fill="none" viewBox="0 0 260 140">
  <path fill="url(#a)" d="M260 140h260v140H260z" transform="rotate(-180 260 140)"/>
  <g clip-path="url(#b)">
    <path fill="#C8C6C4" d="M103.8 120a27.8 27.8 0 1 0 0-55.5 27.8 27.8 0 0 0 0 55.5Z" opacity=".5"/>
    <path fill="#8B8CC4" d="M103.8 120c10.9 0 20.4-6.3 24.9-15.5a37.4 37.4 0 0 0-13.2-4.1c-1.8 0-2.8.8-3.3 2a33 33 0 0 0-8-1 44.7 44.7 0 0 0-15.5 3.2l-.2-2.3s-4 .7-9 3.4a27.7 27.7 0 0 0 24.3 14.3Z"/>
    <path fill="#33312D" d="M102.4 80.5c.5 0 .7-.8.6-1.6s-.6-1.5-1-1.4c-.6 0-.8.8-.7 1.6.1.9.6 1.5 1 1.4Zm9-1.4c.4 0 .7-.8.6-1.6-.1-.9-.6-1.5-1.1-1.4-.5 0-.7.8-.6 1.6.1.9.6 1.5 1 1.4Z"/>
    <path fill="#BBB0D6" d="M115.7 93.2h-.1.1Z"/>
    <path fill="#E0BB95" d="M89 81.3s2.8 16.6-.2 22c9.4 8.5 22.3 5.4 22.3 1 0 0 4.4-15-2.1-22.9-3.7-4.5-20-.1-20-.1Z"/>
    <path fill="#E0BB95" d="m95 67.8 9.8-1.5c4.2-.6 8.1 1.6 8.7 4.9l2.4 15.7c.5 3.3-2.6 6.5-6.9 7.2l-9.8 1.5c-4.3.7-8.2-1.5-8.7-4.8L88.1 75c-.5-3.4 2.6-6.6 6.8-7.3Z"/>
    <path fill="#9C96AE" d="M115.1 82.7Z"/>
    <path fill="#E0BB95" d="M101.4 81.3a9.5 9.5 0 0 1 7-5 9.4 9.4 0 0 1 6 1.1 9.6 9.6 0 0 1 3.3 3 9.5 9.5 0 0 1 1.5 3.9 9.5 9.5 0 0 1-8 10.8 9.4 9.4 0 0 1-5-.6 9.5 9.5 0 0 1-5.8-7.3 9.4 9.4 0 0 1 1-5.9ZM89 86.4c2.2-.2 3.6-2.3 3.4-4.6-.3-2.4-2.3-4-4.4-3.7-2.1.2-3.6 2.3-3.3 4.6.3 2.3 2.2 4 4.4 3.7Z"/>
    <path fill="#767677" d="M107.4 83.5a.1.1 0 0 1 .1.2 2.7 2.7 0 0 1-1 .8c-.5.2-1 .2-1.5.2-1-.2-1.8-.9-2-1.7a.1.1 0 0 1 .1-.1l1 .6a3.4 3.4 0 0 0 1 .3h1.1l1.2-.3Z"/>
    <path fill="#BF8F68" d="m87.1 76.2.3 2c1.4.3 1.7 3.4 1.7 3.4l.7 5c1 6.3 7.6 10.6 14 9.7L111 95a9.4 9.4 0 0 0 8.1-10.7 9.5 9.5 0 0 0-1.5-4L99 83.2a3.8 3.8 0 0 1-4.4-3.1s-1.7-3.1 0-5.4c1.7-2.3 1.2-3.9.8-4.9l8.8-1.3 3-.4 3.4-.5h.5s1.7-1.2 1.1-3.8a8 8 0 0 0-1.3-3c-.5-.7-1-1-1-1s-.1.6-.8 1.3a6 6 0 0 1-3 1.7l-10.2 1.5c-1.2.2-3.1.9-3.9 1.4a10.5 10.5 0 0 0-4.6 6.2 10.4 10.4 0 0 0-.4 3.6l.1.7Z"/>
    <path fill="#943838" d="M105.2 88.6a4.4 4.4 0 0 1-4.2-4.5.6.6 0 0 1 .6-.7l7.6.3a.6.6 0 0 1 .6.7 4.4 4.4 0 0 1-4.4 4.2h-.2Z"/>
    <path fill="#BF8F68" d="m101.6 84 7.6.3a3.8 3.8 0 0 1-4 3.7 3.8 3.8 0 0 1-3.6-4Zm0-1.2a1.3 1.3 0 0 0-1.3 1.2 5 5 0 0 0 5 5.3 5 5 0 0 0 5.1-5 1.3 1.3 0 0 0-1.2-1.2l-7.5-.3Z"/>
    <path fill="#F3F2F1" d="M101.6 84v.7a13 13 0 0 0 7.5.2v-.6l-7.5-.2Z"/>
    <path fill="url(#c)" d="M100.7 64.1c2.7.5 3 4.5 3 4.5l-8.3 1.2c-1.3-2.7-4.8-3-4.8-3s2.7-3.2 10-2.7Z"/>
    <path fill="url(#d)" d="m105.3 69.5 3.8 23.8 7.5-1.3-3.7-23.8-7.6 1.3Z"/>
    <path fill="#231F20" d="M109.7 78c.1-.7.6-1.3 1.5-1.5.3 0 .7 0 1 .2.4.2.6.6.7 1a.2.2 0 0 1-.4.2c-.5-.4-.8-.4-1.2-.3-.3 0-.6.3-1 .6h-.1a.3.3 0 0 1-.5-.2Zm-9.8 1.2c0-.7.6-1.3 1.4-1.5.4 0 .8 0 1.1.2.4.2.6.6.6 1a.2.2 0 0 1-.3.2h-.1c-.4-.4-.7-.4-1.1-.3-.4 0-.7.3-1.1.6a.3.3 0 0 1-.5-.2Z"/>
    <path fill="#E3646A" d="M108.4 81.1a5 5 0 0 1-2-3.3 5 5 0 0 1 1-3.8 5 5 0 0 1 3.2-2 5 5 0 0 1 3.8.9 5 5 0 0 1 2 3.3 5 5 0 0 1-.9 3.8 5 5 0 0 1-3.3 2 5 5 0 0 1-3.8-.9Zm2.4-8a3.9 3.9 0 0 0-3.2 4.5A3.8 3.8 0 0 0 109 80a3.9 3.9 0 0 0 2.9.7 3.8 3.8 0 0 0 2.5-1.5 3.8 3.8 0 0 0 .7-2.9 3.8 3.8 0 0 0-1.5-2.5 3.8 3.8 0 0 0-2.8-.7Z"/>
    <path fill="#E0BB95" d="M104.2 80c-.2-1.4 0-3.7 1.3-3.9 0 0 .1.5.8 1 .4.2 2.4.4 2.9 2 .4 1.7-1 2.5-1.3 2.6a2.5 2.5 0 0 1-.8.3 2.5 2.5 0 0 1-2.9-2Z"/>
    <path fill="#E3646A" d="m89 81 7.2-1.2a5 5 0 0 0 1.9 2.9 5 5 0 0 0 3.7 1 5 5 0 0 0 4.3-5.9 5.1 5.1 0 0 0-5.8-4.3 5 5 0 0 0-3.3 2 5 5 0 0 0-1 3.1l-7.2 1.1.2 1.2Zm8.3-1.8a3.8 3.8 0 0 1 .7-3 3.8 3.8 0 0 1 2.5-1.5A3.9 3.9 0 0 1 105 78a3.9 3.9 0 0 1-3.2 4.4 3.8 3.8 0 0 1-2.9-.7 3.8 3.8 0 0 1-1.5-2.5Z"/>
    <path fill="#8B8CC4" d="M88.3 111.3v-13c0-.7.6-1.3 1.3-1.3h14.6c.3 0 .5 0 .8.2l1.6 1.2 1.3-1.2.8-.2h7.7c.7 0 1.3.6 1.3 1.3v13H88.3Z"/>
    <path fill="#E1DFDD" d="M153.3 120a26.1 26.1 0 1 0 0-52.3 26.1 26.1 0 0 0 0 52.3Z"/>
    <path fill="#EE8F94" d="M153.3 120a26 26 0 0 0 20.1-9.4 43.5 43.5 0 0 0-7.5-5.9c-3-1.6-5.7-2.7-9.1-2.7-3.2 0-6 .8-8.5 2.5s-5.1 2.8-10.3 10.5a26 26 0 0 0 15.3 5Z"/>
    <path fill="url(#e)" d="M162.6 76a7 7 0 1 0 0-13.8 7 7 0 0 0 0 13.8Z"/>
    <path fill="url(#f)" d="M167 70a8.8 8.8 0 1 0 0-17.7 8.8 8.8 0 0 0 0 17.7Z"/>
    <path fill="url(#g)" d="M173 82.6a9 9 0 0 0 9-9 9 9 0 1 0-9 9Z"/>
    <path fill="url(#h)" d="M176 72.1a8 8 0 1 0 0-16 8 8 0 0 0 0 16Z"/>
    <path fill="#33312D" d="M139.8 80.9c-.8-12.6 8.4-17 17-15 6.6 1.7 10.8 6.2 10.4 12.7-.4 6.6-7.8 13.6-15.3 12.7l-1-.1c-7.3-1-10.8-4-11.1-10.3Z"/>
    <path fill="url(#i)" d="M160.8 99c-1.7-4-1.5-9.7-1.5-9.7l-8.8.7s1.6 4.5 2.2 8c.7 4.4-1.7 4.5-4.4 6.5 1.7 2 3.8 4 7.5 4.2 6.4 0 10-4 10-4s-3.4-1.7-5-5.6Z"/>
    <path fill="#9B643D" d="M139.2 86.6c.3-1.7.6-7 .6-7 1-5.7 5-9.8 9.8-8.6-.6 10.5 10.6 6.5 11 14.2l1.1 2.5c-.8 6.9-8 11.2-14 10.7-4-.3-9.2-5.8-8.5-11.8Z"/>
    <path fill="url(#j)" d="m149 76.5-2.7 18.3-7-5.3 1.2-12.1 8.6-1Z"/>
    <path fill="#9B643D" d="M160.3 90.5s1.6.1 2.5-.2c2.1-.6 3.2-2.8 2.5-4.5-.6-1.7-3-2.6-5.3-1.8l.2 6.5Zm-12-8.3s-.7 1.4-1.6 1.8c-.7.4-1.5.6-2 1.4-.7 1 0 2.7 1.2 3.2 1.1.3 1.2 1.5 1.2 1.5s2.4-2.9 2.6-3.7c.7-2-1.5-4.2-1.5-4.2Z"/>
    <path fill="#752A2A" d="M151 90.5c.5 0 .8.3.8.7a3.3 3.3 0 0 1-6.5.7c-.1-.4.2-.8.6-.9l5.2-.5Z"/>
    <path fill="#fff" d="m145.9 91 5.2-.5.5.2c-.6.5-1.5.9-2.5 1-1.5.3-3 0-3.6-.5a.7.7 0 0 1 .4-.2Z"/>
    <path fill="#231F20" d="M153.3 83.7c0-1-.3-1.9-.8-2-.5 0-1 .8-1.1 1.8-.1 1 .2 2 .8 2 .5 0 1-.7 1-1.8Zm-8.8-1c0-1-.3-2-.8-2s-1 .8-1.1 1.8c-.1 1 .2 2 .8 2 .5 0 1-.8 1-1.8Z"/>
    <path fill="#D1D1D1" d="M129.9 82.7a26 26 0 0 0-2.6 11.3c0 3.5.7 6.8 1.9 9.8a27.7 27.7 0 0 0 2.4-11.4c0-3.4-.6-6.6-1.7-9.7Z"/>
    <path fill="#EDEBE9" d="m115.8 20.5 3.3 18.4 26.3-4.7-3.4-18.4-26.2 4.7Z" opacity=".3"/>
    <path fill="#33312D" d="m116.5 20.8 3.2 17.6 25-4.5-3.3-17.5-24.9 4.4Z" opacity=".1"/>
    <path fill="#FCFCFB" d="M140.8 16.5 117 20.8l3 16.6 23.6-4.3-3-16.6Z"/>
    <path fill="#EE8F94" d="M140.8 16.5 117 20.8l3 16.6 23.6-4.3-3-16.6Z" opacity=".5"/>
    <path fill="#EE8F94" d="m140 33.3-10.4-6.7a.5.5 0 0 0-.7.2l-4.7 9.6 15.8-3Z"/>
    <path fill="#EE8F94" d="m143.8 33.1-.7-3.4-7.7-6.2c-.2-.2-.5-.1-.6.1l-5.6 12.1 14.6-2.6Z"/>
    <path fill="#fff" d="M125 27.9a2.5 2.5 0 1 0 0-5 2.5 2.5 0 0 0 0 5Z"/>
    <path fill="#fff" d="m139.4 18.5 2.4 13.3-20.3 3.6-2.3-13.2 20.2-3.7Zm-22.3 2.3 3 16.6 23.7-4.3-3-16.6-23.7 4.3Z"/>
    <path fill="#E2E2F6" d="M101.1 42.7c0 3 1 6.3 3.3 9 1.6 2 .5 5.8.5 5.8s2.6-3.4 4.2-3.3c2.5.3 4.4 1 6.9 1 9.6-.1 16.3-4.9 16.3-11.7 0-4.2-2-13.6-19-12.8-8 .4-12.2 5.9-12.2 12Z"/>
    <path fill="#BDBDE6" d="M101.1 42.7c0 3 1 6.3 3.3 9 1.6 2 .5 5.8.5 5.8s2.6-3.4 4.2-3.3c2.5.3 4.4 1 6.9 1 9.6-.1 16.3-4.9 16.3-11.7 0-4.2-2-13.6-19-12.8-8 .4-12.2 5.9-12.2 12Z" opacity=".5"/>
    <path fill="#8B8CC7" d="M120.8 38.6h-11.7v3h11.7v-3Zm2.3 6.5h-14v3h14v-3Z"/>
    <path fill="#33312D" d="m152 59.5-.8-3.4a.4.4 0 0 0-.3-.3.4.4 0 0 0-.2 0c-2.3 1-5 1.4-7.7 1.4-9.4 0-17-5.7-17-12.7 0-7 7.6-12.8 17-12.8 9.3 0 17 5.8 17 12.8 0 2.9-1.3 5.6-3.6 7.9a3.5 3.5 0 0 0-1 1.5l-1.6 5.6H152Z" opacity=".1"/>
    <path fill="#33312D" d="m152.4 58.3-.7-3a.9.9 0 0 0-.8-.6.9.9 0 0 0-.4 0c-2.3 1-4.9 1.4-7.5 1.4-9.1 0-16.5-5.5-16.5-12.2 0-6.8 7.4-12.3 16.5-12.3 9 0 16.5 5.5 16.5 12.3 0 2.7-1.2 5.3-3.5 7.5a4 4 0 0 0-1.1 1.7l-1.5 5.3h-1Z" opacity=".1"/>
    <path fill="#FCFCFB" d="M159 43.5a10 10 0 0 1-3.4 7.2 4.5 4.5 0 0 0-1.2 2l-1.5 5.2-.7-3a1.4 1.4 0 0 0-1.8-1c-2.3.9-4.8 1.3-7.4 1.3-8.9 0-16-5.2-16-11.7 0-6.4 7.1-11.7 16-11.7 8.8 0 16 5.3 16 11.7Z"/>
    <path fill="#C8C6C4" d="M147.2 38.6h-11v3h11v-3ZM150 45h-14v3h14v-3Z"/>
    <path fill="#C8C6C4" d="M127 43.5c0 2.5 1 4.7 2.7 6.6 1.7-1.8 2.6-4 2.6-6.6 0-1.8-.3-4.5-2-7a9.7 9.7 0 0 0-3.3 7Z" opacity=".3"/>
    <path fill="#BDBDE6" d="M152.8 30a1.7 1.7 0 0 1 1.8.6l.3.7v.6a2.5 2.5 0 0 1-.2.7 14.7 14.7 0 0 1-.6 1.4l-.8 1.2a7 7 0 0 0-.2.4l-.4.7a3 3 0 0 1-.2.4l-.2.1a.5.5 0 0 1-.3.1.6.6 0 0 1-.2 0 .5.5 0 0 1-.3-.4.6.6 0 0 1 0-.4l2.3-4a.7.7 0 0 0 0-.6.6.6 0 0 0 0-.2.7.7 0 0 0-.3-.2.7.7 0 0 0-.7 0 .6.6 0 0 0-.2.3L150 36a1.6 1.6 0 0 0-.1 1.2 1.4 1.4 0 0 0 .7.9 1.5 1.5 0 0 0 1 .1 1.5 1.5 0 0 0 1-.7l1.9-3.1a.5.5 0 0 1 .7-.2.6.6 0 0 1 .3.3v.2a.5.5 0 0 1 0 .2l-2 3.2a2.5 2.5 0 0 1-.6.8 2.6 2.6 0 0 1-2 .4 2.6 2.6 0 0 1-.9-.3 2.6 2.6 0 0 1-1.2-1.6 2.6 2.6 0 0 1 0-1 2.6 2.6 0 0 1 .3-1l2.6-4.6a1.6 1.6 0 0 1 .4-.5 1.9 1.9 0 0 1 .7-.3Z"/>
  </g>
  <defs>
    <radialGradient id="c" cx="0" cy="0" r="1" gradientTransform="matrix(-5 0 0 -5 93.4 71.5)" gradientUnits="userSpaceOnUse">
      <stop stop-color="#9B643D"/>
      <stop offset="1" stop-color="#BF8F68"/>
    </radialGradient>
    <radialGradient id="d" cx="0" cy="0" r="1" gradientTransform="matrix(5.4 -1 .7 4 105.9 80.2)" gradientUnits="userSpaceOnUse">
      <stop offset=".3" stop-color="#9B643D"/>
      <stop offset=".9" stop-color="#BA8A63" stop-opacity=".1"/>
      <stop offset="1" stop-color="#BF8F68" stop-opacity="0"/>
    </radialGradient>
    <radialGradient id="e" cx="0" cy="0" r="1" gradientTransform="matrix(-16 0 0 -16 161.4 79.4)" gradientUnits="userSpaceOnUse">
      <stop stop-color="#0C0A05"/>
      <stop offset="1" stop-color="#33312D"/>
    </radialGradient>
    <radialGradient id="f" cx="0" cy="0" r="1" gradientTransform="matrix(-16 0 0 -16 161.4 79.4)" gradientUnits="userSpaceOnUse">
      <stop stop-color="#0C0A05"/>
      <stop offset="1" stop-color="#33312D"/>
    </radialGradient>
    <radialGradient id="g" cx="0" cy="0" r="1" gradientTransform="rotate(178 80 39.7) scale(16)" gradientUnits="userSpaceOnUse">
      <stop stop-color="#0C0A05"/>
      <stop offset="1" stop-color="#33312D"/>
    </radialGradient>
    <radialGradient id="h" cx="0" cy="0" r="1" gradientTransform="rotate(178 80 39.7) scale(16)" gradientUnits="userSpaceOnUse">
      <stop stop-color="#0C0A05"/>
      <stop offset="1" stop-color="#33312D"/>
    </radialGradient>
    <radialGradient id="i" cx="0" cy="0" r="1" gradientTransform="matrix(-10.5 -.7 .7 -11 148.3 90.7)" gradientUnits="userSpaceOnUse">
      <stop stop-color="#591C17"/>
      <stop offset=".3" stop-color="#743926"/>
      <stop offset=".8" stop-color="#905837"/>
      <stop offset="1" stop-color="#9B643D"/>
    </radialGradient>
    <radialGradient id="j" cx="0" cy="0" r="1" gradientTransform="matrix(-7 -1 1 -6.6 147.7 86.7)" gradientUnits="userSpaceOnUse">
      <stop stop-color="#591C17"/>
      <stop offset="1" stop-color="#9B643D" stop-opacity="0"/>
    </radialGradient>
    <linearGradient id="a" x1="773.6" x2="-310.4" y1="474" y2="-223.2" gradientUnits="userSpaceOnUse">
      <stop stop-color="#fff" stop-opacity=".6"/>
      <stop offset="1" stop-color="#A6A7DC" stop-opacity=".6"/>
    </linearGradient>
    <clipPath id="b">
      <path fill="#fff" d="M76 12h108v108H76z"/>
    </clipPath>
  </defs>
</svg>