<svg xmlns="http://www.w3.org/2000/svg" xmlns:xlink="http://www.w3.org/1999/xlink" fill="none" viewBox="0 0 260 140">
  <defs>
    <path id="b" fill="#E2E2F6" d="M162.7 80a21.3 21.3 0 1 0 0-42.7 21.3 21.3 0 0 0 0 42.7Z"/>
  </defs>
  <path fill="url(#a)" d="M260 140h260v140H260z" transform="rotate(-180 260 140)"/>
  <path fill="#fff" d="M141.6 116.4a12.7 12.7 0 1 0 0-25.4 12.7 12.7 0 0 0 0 25.4Z"/>
  <path fill="#E1DFDD" d="M108 124a32 32 0 1 0 0-64 32 32 0 0 0 0 64Z"/>
  <path fill="#F3F2F1" d="M139.9 91.1v1c0 7.7-2.9 14.9-7.5 20.5a12.7 12.7 0 0 1 7.5-21.4Z"/>
  <use xlink:href="#b"/>
  <use xlink:href="#b"/>
  <path fill="#BDBDE6" d="M162.7 80c5.3 0 10-2 13.8-5.1a14 14 0 0 0-27.6 0c3.6 3.1 8.5 5 13.8 5Zm0-19.4a7.9 7.9 0 1 0 0-15.7 7.9 7.9 0 0 0 0 15.7Z"/>
  <path fill="#8B8CC7" d="M139.4 49.3a12.9 12.9 0 1 0 0-25.7 12.9 12.9 0 0 0 0 25.7Z"/>
  <path fill="#fff" d="M145.6 34.8H141v-4.6c0-.8-.8-1.6-1.7-1.6-1 0-1.7.7-1.7 1.6v4.6h-4.5a1.6 1.6 0 0 0 0 3.2h4.5v4.6c0 .8.7 1.6 1.7 1.6.9 0 1.7-.7 1.7-1.6V38h4.5a1.6 1.6 0 0 0 0-3.2Z"/>
  <path fill="url(#c)" d="M103.6 48.1a5.4 5.4 0 1 1-1.9 10.8c-3-.5-7.4-3-6.9-6s5.8-5.3 8.8-4.8Z"/>
  <path fill="url(#d)" d="M95 55.3a8 8 0 1 0 0-16 8 8 0 0 0 0 16Z"/>
  <path fill="url(#e)" d="M90.4 68.9a8.1 8.1 0 1 0 0-16.3 8.1 8.1 0 0 0 0 16.3Z"/>
  <path fill="url(#f)" d="M85.7 58.8a7.3 7.3 0 1 0 0-14.6 7.3 7.3 0 0 0 0 14.6Z"/>
  <path fill="#33312D" d="m109.6 79.3-1 .1c-7.4 1-15.9-6.1-16.3-12.7-.5-6.5 4.9-11.7 11.4-13.3 8.6-2 17.8 3 17 15.6-.3 6.3-3.8 9.4-11 10.3Z"/>
  <path fill="#EE8F94" d="M108 124a32 32 0 0 0 24.2-11.1c-8.2-14.3-18.4-19.4-18.4-19.4a16.1 16.1 0 0 0-8.6-3 17 17 0 0 0-8.7 2c-.6.3-8.7 4.9-15.5 16.6 5.6 9 15.6 14.9 27 14.9Z"/>
  <path fill="url(#g)" d="M96 92.8s4.3 3.9 10.7 4.3a8 8 0 0 0 7-3.6c-3.1-2.2-5-3-5.2-7.2L108 79l-8.7-1.2s1.3 5.7.4 9.5a8.3 8.3 0 0 1-3.9 5.5Z"/>
  <path fill="#9B643D" d="M112.8 86.5c-5.9.5-13.1-3.8-14-10.6l1.2-2.6c.3-7.7 10.1-3.2 9.6-13.7 5.3-2.2 10.1 2.4 11.1 8.2l.6 6.9c.8 6-4.4 11.5-8.5 11.8Z"/>
  <path fill="#7A412D" d="M109 79.8c.2.6.6 1 1 1.3a3.2 3.2 0 0 0 3.4.6 3 3 0 0 0 1.4-1c.2-.2.2-.5 0-.7l-.4-.1H112c-.4 0-.7 0-1-.3-.4 0-.8-.3-1.2-.5h-.1c-.3-.1-.6 0-.7.3v.4Z"/>
  <path fill="url(#h)" d="m119.6 65.5 1.2 12-7 5.4-2.8-18.3 8.6.9Z"/>
  <path fill="#9B643D" d="M100.5 72.1c-2.3-.8-4.6 0-5.3 1.8-.7 1.7.4 4 2.5 4.6 1 .3 2.5.2 2.5.2l.3-6.6Zm9.9 2.4a31 31 0 0 0 2.6 3.8s0-1.2 1.2-1.6c1.1-.4 1.8-2 1.2-3.2-.5-.8-1.3-1-2-1.3-1-.5-1.5-1.9-1.5-1.9s-2.3 2.2-1.5 4.2Z"/>
  <path fill="#231F20" d="M107.5 73.6c.5 0 .8-1 .7-2 0-1-.6-1.8-1-1.8-.6.1-1 1-.8 2 0 1 .6 1.9 1 1.8Zm9.2-1c.5 0 .9-1 .8-2-.1-1-.6-1.9-1.1-1.8-.6 0-.9 1-.8 2 .1 1 .6 1.8 1.1 1.8Z"/>
  <defs>
    <radialGradient id="c" cx="0" cy="0" r="1" gradientTransform="matrix(18.2 0 0 18.2 103.1 62.5)" gradientUnits="userSpaceOnUse">
      <stop stop-color="#0C0A05"/>
      <stop offset="1" stop-color="#33312D"/>
    </radialGradient>
    <radialGradient id="d" cx="0" cy="0" r="1" gradientTransform="matrix(16 0 0 16 101.3 61.9)" gradientUnits="userSpaceOnUse">
      <stop stop-color="#0C0A05"/>
      <stop offset="1" stop-color="#33312D"/>
    </radialGradient>
    <radialGradient id="e" cx="0" cy="0" r="1" gradientTransform="matrix(16 0 0 16 102.3 61.9)" gradientUnits="userSpaceOnUse">
      <stop stop-color="#0C0A05"/>
      <stop offset="1" stop-color="#33312D"/>
    </radialGradient>
    <radialGradient id="f" cx="0" cy="0" r="1" gradientTransform="matrix(16 0 0 16 101.6 61.9)" gradientUnits="userSpaceOnUse">
      <stop stop-color="#0C0A05"/>
      <stop offset="1" stop-color="#33312D"/>
    </radialGradient>
    <radialGradient id="g" cx="0" cy="0" r="1" gradientTransform="matrix(10.3 0 0 11 110.9 79.8)" gradientUnits="userSpaceOnUse">
      <stop stop-color="#591C17"/>
      <stop offset=".3" stop-color="#743926"/>
      <stop offset=".8" stop-color="#905837"/>
      <stop offset="1" stop-color="#9B643D"/>
    </radialGradient>
    <radialGradient id="h" cx="0" cy="0" r="1" gradientTransform="matrix(7 -1 1 6.6 112.4 74.8)" gradientUnits="userSpaceOnUse">
      <stop stop-color="#591C17"/>
      <stop offset="1" stop-color="#9B643D" stop-opacity="0"/>
    </radialGradient>
    <linearGradient id="a" x1="773.6" x2="-310.4" y1="474" y2="-223.2" gradientUnits="userSpaceOnUse">
      <stop stop-color="#fff" stop-opacity=".6"/>
      <stop offset="1" stop-color="#A6A7DC" stop-opacity=".6"/>
    </linearGradient>
  </defs>
</svg>