<svg width="200" height="200" viewBox="0 0 200 200" fill="none" xmlns="http://www.w3.org/2000/svg">
<g clip-path="url(#clip0)">
<path d="M90.9564 192.051L88.1985 193.655C88.9965 193.189 89.4933 192.203 89.4973 190.799L92.2552 189.195C92.2513 190.599 91.7584 191.585 90.9564 192.051Z" fill="#D2D2D2"/>
<path d="M89.6029 154.191L89.4973 190.799C89.4895 193.627 87.4905 194.766 85.0298 193.346L24.5588 158.427C22.102 157.007 20.1109 153.565 20.1187 150.74L20.2243 114.132L89.6029 154.191Z" fill="#FAFAFA"/>
<path d="M89.6029 154.191L92.3609 152.587L92.2552 189.195L89.4973 190.795L89.6029 154.191Z" fill="#D2D2D2"/>
<path d="M20.2244 114.132L22.9823 112.532L92.3609 152.587L89.603 154.191L20.2244 114.132Z" fill="#D2D2D2"/>
<path d="M21.5229 102.416L24.2809 100.812C25.0907 100.342 26.2134 100.405 27.4496 101.121L24.6916 102.725C23.4555 102.013 22.3327 101.946 21.5229 102.416Z" fill="#E3008C"/>
<path d="M89.6028 145.33L92.3608 143.726L92.3334 152.442L89.5793 154.042L89.6028 145.33Z" fill="#B00A70"/>
<path d="M24.6917 102.729L27.4496 101.125L87.9207 136.039L85.1627 137.643L24.6917 102.729Z" fill="#E3008C"/>
<path d="M85.1627 137.643C87.6233 139.063 89.6106 142.505 89.6028 145.33L89.5793 154.042L20.1968 113.987L20.2202 105.275C20.2281 102.451 22.231 101.309 24.6877 102.729L85.1627 137.643Z" fill="#0078D4"/>
<path d="M85.1627 137.643C87.6233 139.063 89.6106 142.505 89.6028 145.33L89.5793 154.042L20.1968 113.987L20.2202 105.275C20.2281 102.451 22.231 101.309 24.6877 102.729L85.1627 137.643Z" fill="#FF40B6"/>
<path d="M85.1626 137.643L87.9205 136.039C90.3811 137.459 92.3684 140.902 92.3606 143.726L89.6027 145.33C89.6105 142.506 87.6232 139.063 85.1626 137.643Z" fill="#E3008C"/>
<path d="M163.198 142.539L160.44 144.143C161.238 143.678 161.735 142.692 161.739 141.288L164.497 139.684C164.493 141.088 164 142.074 163.198 142.539Z" fill="#D2D2D2"/>
<path d="M161.845 104.679L161.739 141.288C161.731 144.116 159.732 145.254 157.272 143.834L96.8007 108.916C94.344 107.496 92.3528 104.054 92.3606 101.229L92.4662 64.6209L161.845 104.679Z" fill="#FAFAFA"/>
<path d="M161.845 104.679L164.603 103.075L164.497 139.684L161.739 141.284L161.845 104.679Z" fill="#D2D2D2"/>
<path d="M92.4663 64.621L95.2242 63.021L164.603 103.076L161.845 104.68L92.4663 64.621Z" fill="#D2D2D2"/>
<path d="M93.7651 52.9049L96.5231 51.301C97.3328 50.8315 98.4556 50.8941 99.6918 51.61L96.9338 53.2139C95.6976 52.5019 94.5749 52.4354 93.7651 52.9049Z" fill="#0078D4"/>
<path d="M161.845 95.8193L164.603 94.2154L164.576 102.931L161.822 104.531L161.845 95.8193Z" fill="#005DB7"/>
<path d="M96.9338 53.2178L99.6918 51.6139L160.163 86.5281L157.405 88.132L96.9338 53.2178Z" fill="#0078D4"/>
<path d="M157.405 88.1319C159.866 89.552 161.853 92.9945 161.845 95.8189L161.822 104.531L92.439 64.4763L92.4624 55.7644C92.4703 52.9399 94.4732 51.7976 96.9299 53.2177L157.405 88.1319Z" fill="#0078D4"/>
<path d="M157.405 88.1319C159.866 89.552 161.853 92.9945 161.845 95.8189L161.822 104.531L92.439 64.4763L92.4624 55.7644C92.4703 52.9399 94.4732 51.7976 96.9299 53.2177L157.405 88.1319Z" fill="url(#paint0_linear)"/>
<path d="M157.405 88.132L160.163 86.5281C162.624 87.9482 164.611 91.3907 164.603 94.2151L161.845 95.819C161.853 92.9946 159.866 89.5521 157.405 88.132Z" fill="#0078D4"/>
<path d="M194.597 191.983L191.841 193.586C192.638 193.12 193.135 192.135 193.139 190.732L195.895 189.129C195.891 190.533 195.398 191.518 194.597 191.983Z" fill="#D2D2D2"/>
<path d="M193.244 154.151L193.139 190.732C193.131 193.558 191.133 194.696 188.675 193.277L128.248 158.384C125.793 156.965 123.803 153.525 123.811 150.703L123.917 114.122L193.244 154.151Z" fill="#FAFAFA"/>
<path d="M193.244 154.151L196 152.548L195.895 189.129L193.139 190.728L193.244 154.151Z" fill="#D2D2D2"/>
<path d="M123.917 114.122L126.673 112.523L196 152.548L193.244 154.151L123.917 114.122Z" fill="#E7E7E7"/>
<path d="M125.215 102.414L127.97 100.812C128.78 100.343 129.902 100.405 131.137 101.12L128.381 102.723C127.146 102.012 126.024 101.945 125.215 102.414Z" fill="#19EDDD"/>
<path d="M193.244 145.297L196 143.694L195.973 152.404L193.221 154.003L193.244 145.297Z" fill="#09C2B5"/>
<path d="M128.381 102.727L131.137 101.124L191.563 136.013L188.808 137.616L128.381 102.727Z" fill="#19EDDD"/>
<path d="M188.807 137.615C191.266 139.034 193.252 142.474 193.244 145.297L193.221 154.002L123.889 113.977L123.913 105.272C123.921 102.449 125.922 101.308 128.377 102.727L188.807 137.615Z" fill="#68FFF4"/>
<path d="M188.807 137.616L191.563 136.013C194.022 137.432 196.008 140.872 196 143.694L193.244 145.297C193.252 142.475 191.266 139.035 188.807 137.616Z" fill="#19EDDD"/>
<path d="M15.5482 179.373C15.7468 178.316 16.1614 177.18 16.7979 176.075C17.4334 174.969 18.2046 174.039 19.0183 173.336C20.567 171.998 22.2693 171.486 23.4873 172.173L47.9023 186.204L46.321 186.891C44.9897 187.468 43.4616 187.383 42.2041 186.66L41.9287 186.502C43.5964 187.459 44.1705 189.588 43.2126 191.254C42.2546 192.92 40.1263 193.496 38.4604 192.538L38.7254 192.69C39.9894 193.417 40.8366 194.698 41.0093 196.147L41.2112 197.849L16.7945 183.82C15.5891 183.114 15.1729 181.385 15.5482 179.373Z" fill="#FBA919"/>
<path d="M4.3269 176.655C2.47337 175.59 2.46898 172.12 4.31618 168.902C6.16439 165.687 9.16524 163.942 11.0198 165.008C11.0263 165.012 11.0322 165.018 11.0387 165.021L17.2531 168.592L10.5602 180.239L4.3269 176.655Z" fill="#F48789"/>
<path d="M10.5613 180.236C8.70775 179.172 8.70336 175.701 10.5506 172.483C12.3988 169.268 15.3996 167.523 17.2541 168.59C17.2607 168.593 17.2665 168.599 17.2731 168.602L23.4874 172.173L16.7946 183.82L10.5613 180.236Z" fill="#C8C8C8"/>
<path d="M41.2191 187.066C42.4689 185.624 46.0479 185.137 47.9024 186.204L56.4696 198.873L41.2085 197.849C39.9124 197.103 37.9862 194.748 38.4992 192.561C38.7197 191.62 40.4881 187.91 41.2191 187.066Z" fill="#FFF5CF"/>
<path d="M52.4332 196.553C52.9208 195.702 53.7156 195.242 54.2042 195.523L56.4685 198.871L52.4344 198.6C51.9468 198.321 51.9455 197.404 52.4332 196.553Z" fill="black"/>
<path d="M42.2031 186.658L19.0183 173.336C20.5671 171.998 22.2694 171.486 23.4873 172.173L47.9023 186.204L46.321 186.891C44.9897 187.468 43.4616 187.383 42.2031 186.658Z" fill="#E29626"/>
<path d="M15.5482 179.373L38.7237 192.691C39.9877 193.418 40.8349 194.699 41.0076 196.148L41.2095 197.85L16.7945 183.82C15.5892 183.114 15.1729 181.385 15.5482 179.373Z" fill="#D08829"/>
<path d="M43.2127 191.254C42.2547 192.92 40.1264 193.496 38.4605 192.538L15.5483 179.373C15.7469 178.316 16.1615 177.18 16.798 176.075C17.4335 174.969 18.2047 174.039 19.0184 173.336L41.9278 186.5C43.5965 187.459 44.1696 189.586 43.2127 191.254Z" fill="#FBA919"/>
</g>
<defs>
<linearGradient id="paint0_linear" x1="127.142" y1="52.6072" x2="127.142" y2="104.531" gradientUnits="userSpaceOnUse">
<stop stop-color="#69E2FF"/>
<stop offset="1" stop-color="white" stop-opacity="0"/>
</linearGradient>
<clipPath id="clip0">
<rect width="200" height="200" fill="white"/>
</clipPath>
</defs>
</svg>
