<svg width="192" height="192" viewBox="0 0 192 192" fill="none" xmlns="http://www.w3.org/2000/svg">
<path d="M28.5 40.125C28.5 33.9118 33.5368 28.875 39.75 28.875H53.25V90.75L32.1127 77.9395C29.8699 76.5802 28.5 74.1481 28.5 71.5256V40.125Z" fill="url(#paint0_linear_896_6175)"/>
<path d="M28.5 40.125C28.5 33.9118 33.5368 28.875 39.75 28.875H53.25V90.75L32.1127 77.9395C29.8699 76.5802 28.5 74.1481 28.5 71.5256V40.125Z" fill="url(#paint1_radial_896_6175)"/>
<path d="M28.5 40.125C28.5 33.9118 33.5368 28.875 39.75 28.875H53.25V90.75L32.1127 77.9395C29.8699 76.5802 28.5 74.1481 28.5 71.5256V40.125Z" fill="url(#paint2_radial_896_6175)"/>
<path d="M163.125 38.25C163.125 33.0723 158.928 28.875 153.75 28.875H138.375V90.75L159.512 77.9395C161.755 76.5802 163.125 74.1481 163.125 71.5256V38.25Z" fill="url(#paint3_linear_896_6175)"/>
<path d="M163.125 38.25C163.125 33.0723 158.928 28.875 153.75 28.875H138.375V90.75L159.512 77.9395C161.755 76.5802 163.125 74.1481 163.125 71.5256V38.25Z" fill="url(#paint4_radial_896_6175)"/>
<path d="M163.125 38.25C163.125 33.0723 158.928 28.875 153.75 28.875H138.375V90.75L159.512 77.9395C161.755 76.5802 163.125 74.1481 163.125 71.5256V38.25Z" fill="url(#paint5_radial_896_6175)"/>
<path d="M67.125 28.875H124.5V99L110.156 107.625H81.4687L67.125 99V28.875Z" fill="url(#paint6_linear_896_6175)"/>
<path d="M67.125 28.875H124.5V99L110.156 107.625H81.4687L67.125 99V28.875Z" fill="url(#paint7_radial_896_6175)"/>
<path d="M67.125 28.875H124.5V99L110.156 107.625H81.4687L67.125 99V28.875Z" fill="url(#paint8_radial_896_6175)"/>
<path d="M67.125 28.875H53.25V90.75L67.125 99V28.875Z" fill="url(#paint9_linear_896_6175)"/>
<path d="M67.125 28.875H53.25V90.75L67.125 99V28.875Z" fill="url(#paint10_linear_896_6175)"/>
<path d="M124.5 28.875H138.375V90.75L124.5 99V28.875Z" fill="url(#paint11_linear_896_6175)"/>
<path d="M124.5 28.875H138.375V90.75L124.5 99V28.875Z" fill="url(#paint12_linear_896_6175)"/>
<path d="M132.188 126.843C132.188 146.207 116.489 161.905 97.125 161.905C77.7605 161.905 62.0625 146.207 62.0625 126.843C62.0625 107.478 77.7605 91.7803 97.125 91.7803C116.489 91.7803 132.188 107.478 132.188 126.843Z" fill="url(#paint13_radial_896_6175)"/>
<path d="M132.188 126.843C132.188 146.207 116.489 161.905 97.125 161.905C77.7605 161.905 62.0625 146.207 62.0625 126.843C62.0625 107.478 77.7605 91.7803 97.125 91.7803C116.489 91.7803 132.188 107.478 132.188 126.843Z" fill="url(#paint14_radial_896_6175)"/>
<path fill-rule="evenodd" clip-rule="evenodd" d="M97.125 157.23C113.908 157.23 127.513 143.625 127.513 126.843C127.513 110.06 113.908 96.4553 97.125 96.4553C80.3424 96.4553 66.7375 110.06 66.7375 126.843C66.7375 143.625 80.3424 157.23 97.125 157.23ZM97.125 161.905C116.489 161.905 132.188 146.207 132.188 126.843C132.188 107.478 116.489 91.7803 97.125 91.7803C77.7605 91.7803 62.0625 107.478 62.0625 126.843C62.0625 146.207 77.7605 161.905 97.125 161.905Z" fill="url(#paint15_radial_896_6175)"/>
<path fill-rule="evenodd" clip-rule="evenodd" d="M97.125 157.23C113.908 157.23 127.513 143.625 127.513 126.843C127.513 110.06 113.908 96.4553 97.125 96.4553C80.3424 96.4553 66.7375 110.06 66.7375 126.843C66.7375 143.625 80.3424 157.23 97.125 157.23ZM97.125 161.905C116.489 161.905 132.188 146.207 132.188 126.843C132.188 107.478 116.489 91.7803 97.125 91.7803C77.7605 91.7803 62.0625 107.478 62.0625 126.843C62.0625 146.207 77.7605 161.905 97.125 161.905Z" fill="url(#paint16_radial_896_6175)"/>
<path d="M93.454 106.48C94.9554 103.438 99.2937 103.438 100.795 106.48L105.012 115.024C105.548 116.111 106.586 116.865 107.786 117.039L117.214 118.409C120.572 118.897 121.912 123.023 119.483 125.391L112.66 132.042C111.792 132.888 111.396 134.108 111.601 135.303L113.211 144.693C113.785 148.037 110.275 150.587 107.272 149.008L98.8389 144.575C97.7657 144.01 96.4835 144.01 95.4103 144.575L86.977 149.008C83.974 150.587 80.4643 148.037 81.0378 144.693L82.6484 135.303C82.8534 134.108 82.4572 132.888 81.5889 132.042L74.7662 125.391C72.3368 123.023 73.6774 118.897 77.0348 118.409L86.4635 117.039C87.6634 116.865 88.7007 116.111 89.2373 115.024L93.454 106.48Z" fill="url(#paint17_radial_896_6175)"/>
<path fill-rule="evenodd" clip-rule="evenodd" d="M101.844 105.963L106.06 114.507C106.427 115.249 107.135 115.764 107.954 115.883L117.383 117.253C121.699 117.88 123.422 123.184 120.299 126.228L113.476 132.879C112.884 133.456 112.613 134.289 112.753 135.105L114.364 144.495C115.101 148.794 110.589 152.072 106.729 150.043L98.2954 145.609C97.5626 145.224 96.6873 145.224 95.9545 145.609L87.5212 150.043C83.6608 152.072 79.1489 148.794 79.8862 144.495L81.4968 135.105C81.6368 134.289 81.3663 133.456 80.7734 132.879L73.9508 126.228C70.8277 123.184 72.5511 117.88 76.8671 117.253L86.2958 115.883C87.115 115.764 87.8232 115.249 88.1896 114.507L92.4062 105.963C94.3364 102.052 99.9134 102.052 101.844 105.963ZM100.796 106.48C99.2941 103.438 94.9558 103.438 93.4543 106.48L89.2377 115.024C88.7011 116.111 87.6638 116.865 86.4639 117.039L77.0352 118.409C73.6777 118.897 72.3371 123.023 74.7666 125.391L81.5893 132.042C82.4575 132.888 82.8537 134.107 82.6488 135.302L81.0381 144.693C80.4646 148.037 83.9744 150.587 86.9774 149.008L95.4106 144.575C96.4839 144.01 97.766 144.01 98.8393 144.575L107.273 149.008C110.276 150.587 113.785 148.037 113.212 144.693L111.601 135.302C111.396 134.107 111.792 132.888 112.661 132.042L119.483 125.391C121.913 123.023 120.572 118.897 117.215 118.409L107.786 117.039C106.586 116.865 105.549 116.111 105.012 115.024L100.796 106.48Z" fill="url(#paint18_radial_896_6175)"/>
<defs>
<linearGradient id="paint0_linear_896_6175" x1="154.966" y1="23.8908" x2="91.1188" y2="189.118" gradientUnits="userSpaceOnUse">
<stop offset="0.297463" stop-color="#E7E7E7"/>
<stop offset="0.65893" stop-color="#C5B4E3"/>
</linearGradient>
<radialGradient id="paint1_radial_896_6175" cx="0" cy="0" r="1" gradientUnits="userSpaceOnUse" gradientTransform="translate(54.6437 54.2851) rotate(90) scale(80.6979 12.1682)">
<stop stop-color="#9B8FA4"/>
<stop offset="0.429066" stop-color="#B3ACB8" stop-opacity="0.5"/>
<stop offset="0.937986" stop-color="#DCDCDC" stop-opacity="0"/>
</radialGradient>
<radialGradient id="paint2_radial_896_6175" cx="0" cy="0" r="1" gradientUnits="userSpaceOnUse" gradientTransform="translate(127.065 59.032) rotate(90) scale(77.6263 11.705)">
<stop stop-color="#A8A8A8"/>
<stop offset="0.503597" stop-color="#B8B8B8" stop-opacity="0.5"/>
<stop offset="0.937986" stop-color="#DCDCDC" stop-opacity="0"/>
</radialGradient>
<linearGradient id="paint3_linear_896_6175" x1="154.966" y1="23.8908" x2="91.1188" y2="189.118" gradientUnits="userSpaceOnUse">
<stop offset="0.297463" stop-color="#E7E7E7"/>
<stop offset="0.65893" stop-color="#C5B4E3"/>
</linearGradient>
<radialGradient id="paint4_radial_896_6175" cx="0" cy="0" r="1" gradientUnits="userSpaceOnUse" gradientTransform="translate(54.6437 54.2851) rotate(90) scale(80.6979 12.1682)">
<stop stop-color="#9B8FA4"/>
<stop offset="0.429066" stop-color="#B3ACB8" stop-opacity="0.5"/>
<stop offset="0.937986" stop-color="#DCDCDC" stop-opacity="0"/>
</radialGradient>
<radialGradient id="paint5_radial_896_6175" cx="0" cy="0" r="1" gradientUnits="userSpaceOnUse" gradientTransform="translate(127.065 59.032) rotate(90) scale(77.6263 11.705)">
<stop stop-color="#A8A8A8"/>
<stop offset="0.503597" stop-color="#B8B8B8" stop-opacity="0.5"/>
<stop offset="0.937986" stop-color="#DCDCDC" stop-opacity="0"/>
</radialGradient>
<linearGradient id="paint6_linear_896_6175" x1="154.966" y1="23.8908" x2="91.1188" y2="189.118" gradientUnits="userSpaceOnUse">
<stop offset="0.297463" stop-color="#E7E7E7"/>
<stop offset="0.65893" stop-color="#C5B4E3"/>
</linearGradient>
<radialGradient id="paint7_radial_896_6175" cx="0" cy="0" r="1" gradientUnits="userSpaceOnUse" gradientTransform="translate(54.6437 54.2851) rotate(90) scale(80.6979 12.1682)">
<stop stop-color="#9B8FA4"/>
<stop offset="0.429066" stop-color="#B3ACB8" stop-opacity="0.5"/>
<stop offset="0.937986" stop-color="#DCDCDC" stop-opacity="0"/>
</radialGradient>
<radialGradient id="paint8_radial_896_6175" cx="0" cy="0" r="1" gradientUnits="userSpaceOnUse" gradientTransform="translate(127.065 59.032) rotate(90) scale(77.6263 11.705)">
<stop stop-color="#A8A8A8"/>
<stop offset="0.503597" stop-color="#B8B8B8" stop-opacity="0.5"/>
<stop offset="0.937986" stop-color="#DCDCDC" stop-opacity="0"/>
</radialGradient>
<linearGradient id="paint9_linear_896_6175" x1="60.1874" y1="20.8921" x2="60.1874" y2="113.033" gradientUnits="userSpaceOnUse">
<stop offset="0.0915749" stop-color="#FEF3CF" stop-opacity="0.996078"/>
<stop offset="0.12284" stop-color="#FFDF78"/>
<stop offset="0.708654" stop-color="#FFB900"/>
</linearGradient>
<linearGradient id="paint10_linear_896_6175" x1="67.7754" y1="51.5424" x2="52.5273" y2="51.4735" gradientUnits="userSpaceOnUse">
<stop offset="0.03125" stop-color="#FEF3CF" stop-opacity="0.996078"/>
<stop offset="0.197917" stop-color="#FFDF78" stop-opacity="0"/>
<stop offset="0.852657" stop-color="#DB8300" stop-opacity="0"/>
<stop offset="1" stop-color="#DB8300"/>
</linearGradient>
<linearGradient id="paint11_linear_896_6175" x1="131.437" y1="20.8921" x2="131.437" y2="113.033" gradientUnits="userSpaceOnUse">
<stop offset="0.0915749" stop-color="#FEF3CF" stop-opacity="0.996078"/>
<stop offset="0.12284" stop-color="#FFDF78"/>
<stop offset="0.708654" stop-color="#FFB900"/>
</linearGradient>
<linearGradient id="paint12_linear_896_6175" x1="139.025" y1="51.5424" x2="123.777" y2="51.4735" gradientUnits="userSpaceOnUse">
<stop offset="0.03125" stop-color="#FEF3CF" stop-opacity="0.996078"/>
<stop offset="0.197917" stop-color="#FFDF78" stop-opacity="0"/>
<stop offset="0.852657" stop-color="#DB8300" stop-opacity="0"/>
<stop offset="1" stop-color="#DB8300"/>
</linearGradient>
<radialGradient id="paint13_radial_896_6175" cx="0" cy="0" r="1" gradientUnits="userSpaceOnUse" gradientTransform="translate(117.263 102.299) rotate(113.009) scale(92.693 88.9443)">
<stop offset="0.132187" stop-color="#FFDF78"/>
<stop offset="0.748993" stop-color="#FFB900"/>
</radialGradient>
<radialGradient id="paint14_radial_896_6175" cx="0" cy="0" r="1" gradientUnits="userSpaceOnUse" gradientTransform="translate(121.938 150.218) rotate(137.564) scale(55.4264 53.1848)">
<stop offset="0.147177" stop-color="#FFBAE4"/>
<stop offset="0.748993" stop-color="#FFBBE4" stop-opacity="0"/>
</radialGradient>
<radialGradient id="paint15_radial_896_6175" cx="0" cy="0" r="1" gradientUnits="userSpaceOnUse" gradientTransform="translate(117.263 102.299) rotate(113.009) scale(92.693 88.9443)">
<stop offset="0.132187" stop-color="#FFEDB1"/>
<stop offset="0.748993" stop-color="#FAA500"/>
</radialGradient>
<radialGradient id="paint16_radial_896_6175" cx="0" cy="0" r="1" gradientUnits="userSpaceOnUse" gradientTransform="translate(121.938 150.218) rotate(137.564) scale(55.4264 53.1848)">
<stop offset="0.147177" stop-color="#FF97D6"/>
<stop offset="0.748993" stop-color="#FFBBE4" stop-opacity="0"/>
</radialGradient>
<radialGradient id="paint17_radial_896_6175" cx="0" cy="0" r="1" gradientUnits="userSpaceOnUse" gradientTransform="translate(97.1241 139.699) rotate(90) scale(43.0977)">
<stop offset="0.284746" stop-color="#F4A100"/>
<stop offset="0.762712" stop-color="#CE7C00"/>
</radialGradient>
<radialGradient id="paint18_radial_896_6175" cx="0" cy="0" r="1" gradientUnits="userSpaceOnUse" gradientTransform="translate(110.679 110.992) rotate(113.872) scale(60.2567 59.4746)">
<stop offset="0.205091" stop-color="#FEE699"/>
<stop offset="0.484221" stop-color="#FFBF00"/>
<stop offset="1" stop-color="#FEE699"/>
</radialGradient>
</defs>
</svg>
