<svg width="332" height="282" viewBox="0 0 332 282" fill="none" xmlns="http://www.w3.org/2000/svg">
<path d="M317.948 110.213L317.589 246.028L140.844 143.977L141.203 8.16199L317.948 110.213Z" fill="#EDEDED"/>
<path d="M317.948 110.213L332 102.041L331.641 237.856L317.589 246.029L317.948 110.213Z" fill="#ACACAC"/>
<path d="M141.203 8.16207L155.255 0L332 102.041L317.948 110.213L141.203 8.16207Z" fill="#D9D9D9"/>
<g opacity="0.15">
<path d="M150.102 25.3934L308.699 117.658V230.94L150.102 139.383V25.3934Z" fill="#0078D4"/>
<path d="M150.102 25.3934L308.699 117.658V230.94L150.102 139.383V25.3934Z" fill="url(#paint0_linear_1763_237936)"/>
</g>
<path d="M171.769 191.694L197.59 176.735L256.907 210.729L230.507 225.677L171.769 191.694Z" fill="#D9D9D9"/>
<path d="M189.846 181.22L197.59 176.735L256.907 210.729L249.213 215.084L189.846 181.22Z" fill="#ACACAC"/>
<path d="M230.507 228.996V225.677L171.769 191.694V195.55L230.507 228.996Z" fill="#EDEDED"/>
<path d="M259.707 212.602L230.507 228.996V225.677L256.907 210.729L259.707 212.602Z" fill="#949494"/>
<path d="M255.205 263.151L255.2 265.108C255.197 265.675 254.825 266.242 254.081 266.676L254.085 264.719C254.83 264.284 255.205 263.718 255.205 263.151Z" fill="#09C2B5"/>
<path d="M254.067 261.561C255.577 262.432 255.585 263.847 254.084 264.716L249.458 267.404L206.866 242.814L211.492 240.127C212.99 239.255 215.433 239.255 216.941 240.127L254.067 261.561Z" fill="#0078D4"/>
<path d="M254.067 261.561C255.577 262.432 255.585 263.847 254.084 264.716L249.458 267.404L206.866 242.814L211.492 240.127C212.99 239.255 215.433 239.255 216.941 240.127L254.067 261.561Z" fill="#68FFF4"/>
<path d="M254.085 264.719L254.08 266.676L249.455 269.364L249.459 267.406L254.085 264.719Z" fill="#09C2B5"/>
<path d="M249.46 267.406L249.455 269.364L206.863 244.771L206.868 242.814L249.46 267.406Z" fill="#0078D4"/>
<path d="M186.313 257.632L186.318 255.675C186.315 256.249 186.695 256.825 187.454 257.265L187.449 259.222C186.69 258.783 186.31 258.206 186.313 257.632Z" fill="#D2D2D2"/>
<path d="M249.46 267.407L249.455 269.364L230.024 280.656L230.031 278.699L249.46 267.407Z" fill="#D2D2D2"/>
<path d="M224.58 278.699L224.575 280.656L187.449 259.222L187.456 257.265L224.58 278.699Z" fill="#D2D2D2"/>
<path d="M249.459 267.406L230.028 278.698C228.53 279.57 226.09 279.57 224.579 278.698L187.455 257.264C185.947 256.393 185.938 254.978 187.439 254.106L206.867 242.814L249.459 267.406Z" fill="#FAFAFA"/>
<path d="M230.031 278.699L230.026 280.656C228.528 281.528 226.088 281.528 224.577 280.656L224.582 278.699C226.09 279.57 228.53 279.568 230.031 278.699Z" fill="#D2D2D2"/>
<path d="M200.378 99.109L198.685 100.094C199.175 99.8078 199.48 99.2026 199.482 98.3405L201.175 97.3558C201.173 98.218 200.87 98.8232 200.378 99.109Z" fill="#D2D2D2"/>
<path d="M199.547 75.867L199.482 98.341C199.478 100.077 198.25 100.776 196.74 99.9044L159.616 78.4679C158.108 77.5962 156.886 75.4828 156.891 73.7488L156.955 51.2749L199.547 75.867Z" fill="#FAFAFA"/>
<path d="M199.548 75.8666L201.241 74.882L201.176 97.3559L199.483 98.3381L199.548 75.8666Z" fill="#D2D2D2"/>
<path d="M156.957 51.2746L158.651 50.2924L201.242 74.8821L199.549 75.8667L156.957 51.2746Z" fill="#D2D2D2"/>
<path d="M157.752 44.0821L159.445 43.0975C159.942 42.8093 160.631 42.8477 161.39 43.2872L159.697 44.2718C158.938 43.8348 158.249 43.7939 157.752 44.0821Z" fill="#19EDDD"/>
<path d="M199.546 70.4275L201.24 69.4429L201.223 74.7936L199.532 75.7758L199.546 70.4275Z" fill="#09C2B5"/>
<path d="M159.697 44.2746L161.391 43.2899L198.514 64.724L196.821 65.7086L159.697 44.2746Z" fill="#19EDDD"/>
<path d="M196.821 65.7082C198.331 66.58 199.551 68.6934 199.546 70.4273L199.532 75.7756L156.938 51.1859L156.952 45.8376C156.957 44.1037 158.186 43.4024 159.695 44.2742L196.821 65.7082Z" fill="#0078D4"/>
<path d="M196.821 65.7082C198.331 66.58 199.551 68.6934 199.546 70.4273L199.532 75.7756L156.938 51.1859L156.952 45.8376C156.957 44.1037 158.186 43.4024 159.695 44.2742L196.821 65.7082Z" fill="#68FFF4"/>
<path d="M196.82 65.7086L198.513 64.724C200.024 65.5958 201.244 67.7092 201.239 69.4431L199.546 70.4277C199.551 68.6938 198.331 66.5804 196.82 65.7086Z" fill="#19EDDD"/>
<path d="M248.555 171.121L246.862 172.105C247.352 171.819 247.657 171.214 247.659 170.352L249.352 169.367C249.35 170.23 249.047 170.835 248.555 171.121Z" fill="#D2D2D2"/>
<path d="M247.724 147.879L247.66 170.353C247.655 172.089 246.428 172.788 244.917 171.916L207.793 150.48C206.285 149.608 205.063 147.494 205.068 145.76L205.133 123.286L247.724 147.879Z" fill="#FAFAFA"/>
<path d="M247.725 147.878L249.418 146.894L249.353 169.368L247.66 170.35L247.725 147.878Z" fill="#D2D2D2"/>
<path d="M205.134 123.286L206.827 122.304L249.419 146.894L247.726 147.878L205.134 123.286Z" fill="#D2D2D2"/>
<path d="M205.93 116.094L207.623 115.109C208.12 114.821 208.809 114.859 209.568 115.299L207.875 116.284C207.116 115.846 206.427 115.806 205.93 116.094Z" fill="#E3008C"/>
<path d="M247.724 142.439L249.418 141.454L249.401 146.805L247.71 147.787L247.724 142.439Z" fill="#B00A70"/>
<path d="M207.875 116.286L209.569 115.302L246.692 136.736L244.999 137.72L207.875 116.286Z" fill="#E3008C"/>
<path d="M244.999 137.72C246.509 138.592 247.729 140.705 247.724 142.439L247.71 147.787L205.116 123.198L205.13 117.849C205.135 116.115 206.364 115.414 207.873 116.286L244.999 137.72Z" fill="#0078D4"/>
<path d="M244.999 137.72C246.509 138.592 247.729 140.705 247.724 142.439L247.71 147.787L205.116 123.198L205.13 117.849C205.135 116.115 206.364 115.414 207.873 116.286L244.999 137.72Z" fill="#FF40B6"/>
<path d="M244.998 137.72L246.691 136.736C248.202 137.607 249.422 139.721 249.417 141.455L247.724 142.439C247.729 140.706 246.509 138.592 244.998 137.72Z" fill="#E3008C"/>
<path d="M164.266 257.088L164.261 259.045C164.259 259.612 163.886 260.179 163.142 260.613L163.147 258.656C163.891 258.221 164.266 257.655 164.266 257.088Z" fill="#B4B4B4"/>
<path d="M163.129 255.498C164.64 256.37 164.647 257.784 163.146 258.654L158.521 261.341L115.929 236.751L120.554 234.064C122.053 233.192 124.495 233.192 126.003 234.064L163.129 255.498Z" fill="#D2D2D2"/>
<path d="M163.146 258.656L163.142 260.613L158.516 263.301L158.521 261.343L163.146 258.656Z" fill="#B4B4B4"/>
<path d="M158.521 261.343L158.516 263.301L115.924 238.708L115.929 236.751L158.521 261.343Z" fill="#B4B4B4"/>
<path d="M95.3741 251.569L95.3789 249.612C95.3765 250.186 95.756 250.762 96.5149 251.202L96.5101 253.159C95.7512 252.72 95.3717 252.143 95.3741 251.569Z" fill="#D2D2D2"/>
<path d="M158.521 261.344L158.516 263.301L139.085 274.593L139.093 272.636L158.521 261.344Z" fill="#D2D2D2"/>
<path d="M133.641 272.635L133.636 274.593L96.5101 253.159L96.5173 251.201L133.641 272.635Z" fill="#D2D2D2"/>
<path d="M158.52 261.343L139.089 272.636C137.59 273.507 135.15 273.507 133.64 272.636L96.516 251.201C95.0078 250.33 94.9982 248.915 96.4992 248.043L115.928 236.751L158.52 261.343Z" fill="#FAFAFA"/>
<path d="M139.093 272.635L139.088 274.593C137.589 275.465 135.149 275.465 133.639 274.593L133.643 272.635C135.152 273.507 137.592 273.505 139.093 272.635Z" fill="#D2D2D2"/>
<path d="M249.456 127.026L247.763 128.01C248.253 127.725 248.558 127.12 248.56 126.257L250.253 125.273C250.251 126.135 249.948 126.74 249.456 127.026Z" fill="#D2D2D2"/>
<path d="M248.626 103.783L248.561 126.257C248.556 127.993 247.329 128.692 245.818 127.821L208.695 106.384C207.186 105.512 205.964 103.399 205.969 101.665L206.034 79.191L248.626 103.783Z" fill="#FAFAFA"/>
<path d="M248.625 103.783L250.318 102.799L250.253 125.273L248.56 126.255L248.625 103.783Z" fill="#D2D2D2"/>
<path d="M206.035 79.1915L207.728 78.2092L250.32 102.799L248.627 103.784L206.035 79.1915Z" fill="#D2D2D2"/>
<path d="M206.83 71.9984L208.524 71.0137C209.021 70.7255 209.71 70.764 210.469 71.2035L208.776 72.1881C208.017 71.751 207.328 71.7102 206.83 71.9984Z" fill="#B4B4B4"/>
<path d="M248.625 98.3437L250.318 97.359L250.302 102.71L248.611 103.692L248.625 98.3437Z" fill="#B4B4B4"/>
<path d="M208.776 72.1907L210.469 71.2061L247.593 92.6401L245.9 93.6248L208.776 72.1907Z" fill="#B4B4B4"/>
<path d="M245.899 93.6245C247.41 94.4963 248.63 96.6097 248.625 98.3436L248.611 103.692L206.016 79.1022L206.031 73.7539C206.036 72.0199 207.265 71.3187 208.774 72.1904L245.899 93.6245Z" fill="#D2D2D2"/>
<path d="M245.899 93.6249L247.592 92.6403C249.103 93.512 250.323 95.6254 250.318 97.3594L248.625 98.344C248.63 96.6101 247.41 94.4967 245.899 93.6249Z" fill="#B4B4B4"/>
<path d="M121.788 194.818C119.892 178 105.638 165.037 88.2937 165.037C71.09 165.037 56.9056 177.86 54.8693 194.468C54.5884 195.659 54.5182 196.85 54.5884 198.112C55.0097 202.807 58.31 207.361 64.4893 210.935C77.6906 218.503 99.0373 218.503 112.168 210.935C118.277 207.361 121.508 202.807 121.929 198.182C122.139 196.99 121.999 195.939 121.788 194.818Z" fill="url(#paint1_radial_1763_237936)"/>
<path d="M88.2938 161.532C99.3885 161.532 108.447 152.563 108.447 141.421C108.447 130.279 99.4587 121.31 88.2938 121.31C77.1289 121.31 68.1408 130.279 68.1408 141.421C68.1408 152.493 77.1991 161.532 88.2938 161.532Z" fill="url(#paint2_radial_1763_237936)"/>
<path d="M67.2253 211.489C65.3294 194.672 51.0749 181.708 33.7307 181.708C16.5269 181.708 2.34258 194.531 0.306212 211.139C0.0253344 212.33 -0.0448851 213.522 0.0253344 214.783C0.446651 219.478 3.74696 224.033 9.92627 227.607C23.1275 235.175 44.4742 235.175 57.6053 227.607C63.7144 224.033 66.9445 219.478 67.3658 214.853C67.5764 213.662 67.436 212.611 67.2253 211.489Z" fill="url(#paint3_radial_1763_237936)"/>
<path d="M33.7307 178.204C44.8254 178.204 53.8837 169.235 53.8837 158.093C53.8837 146.951 44.8956 137.982 33.7307 137.982C22.5658 137.982 13.5777 146.951 13.5777 158.093C13.5777 169.165 22.636 178.204 33.7307 178.204Z" fill="url(#paint4_radial_1763_237936)"/>
<g clip-path="url(#clip0_1763_237936)">
<path d="M189.108 140.208L189.047 162.58C189.047 162.703 189.042 162.817 189.042 162.94C189.038 163.475 189.025 164.001 189.007 164.518C188.998 164.711 188.99 164.9 188.981 165.088C188.959 165.527 188.933 165.961 188.902 166.386C188.889 166.557 188.876 166.733 188.862 166.904C188.814 167.487 188.757 168.057 188.687 168.618C188.683 168.658 188.674 168.693 188.669 168.732C188.604 169.263 188.525 169.785 188.437 170.293C188.411 170.451 188.38 170.609 188.354 170.767C188.275 171.206 188.187 171.64 188.095 172.065C188.064 172.197 188.038 172.333 188.007 172.464C187.893 172.946 187.775 173.424 187.647 173.889C187.573 174.161 187.489 174.424 187.406 174.687C187.349 174.88 187.288 175.073 187.226 175.266C187.16 175.468 187.09 175.67 187.024 175.867C186.959 176.055 186.897 176.244 186.827 176.428C186.766 176.595 186.704 176.757 186.638 176.919C186.546 177.165 186.45 177.406 186.349 177.647C186.283 177.809 186.213 177.972 186.143 178.13C186.042 178.358 185.941 178.586 185.836 178.814C185.77 178.954 185.704 179.099 185.634 179.239C185.441 179.634 185.243 180.024 185.037 180.405C185.011 180.454 184.989 180.502 184.963 180.55C184.73 180.971 184.489 181.379 184.239 181.778C184.085 182.023 183.927 182.273 183.765 182.515C182.107 184.975 180.159 187.088 177.918 188.86C176.716 189.811 175.461 190.666 174.15 191.429L184.042 185.681C185.353 184.918 186.608 184.063 187.81 183.111C190.051 181.339 191.999 179.226 193.657 176.766C193.793 176.568 193.925 176.367 194.052 176.161C194.078 176.117 194.1 176.073 194.126 176.034C194.376 175.634 194.618 175.227 194.85 174.806C194.877 174.757 194.898 174.709 194.925 174.661C195.131 174.279 195.328 173.894 195.521 173.495C195.552 173.433 195.583 173.376 195.614 173.315C195.653 173.236 195.688 173.148 195.723 173.069C195.828 172.846 195.929 172.618 196.03 172.385C196.1 172.223 196.171 172.065 196.236 171.903C196.333 171.662 196.429 171.42 196.522 171.175C196.565 171.061 196.614 170.956 196.653 170.842C196.671 170.789 196.688 170.736 196.71 170.684C196.776 170.5 196.842 170.311 196.908 170.122C196.978 169.925 197.044 169.723 197.109 169.522C197.171 169.329 197.232 169.136 197.289 168.943C197.333 168.798 197.381 168.658 197.425 168.509C197.46 168.386 197.495 168.263 197.53 168.145C197.662 167.68 197.781 167.202 197.89 166.72C197.899 166.676 197.912 166.636 197.921 166.593C197.943 166.505 197.956 166.408 197.974 166.321C198.066 165.895 198.153 165.461 198.232 165.023C198.25 164.931 198.272 164.843 198.285 164.751C198.298 164.685 198.303 164.615 198.316 164.549C198.403 164.036 198.482 163.519 198.548 162.988C198.553 162.957 198.557 162.927 198.561 162.892C198.561 162.887 198.561 162.878 198.561 162.874C198.632 162.313 198.689 161.743 198.737 161.159C198.741 161.102 198.75 161.045 198.754 160.988C198.763 160.874 198.768 160.756 198.776 160.642C198.807 160.217 198.833 159.783 198.855 159.344C198.86 159.234 198.873 159.129 198.877 159.02C198.882 158.941 198.882 158.853 198.882 158.774C198.899 158.257 198.912 157.73 198.917 157.195C198.917 157.116 198.921 157.042 198.921 156.959C198.921 156.919 198.921 156.875 198.921 156.836L198.982 134.463L189.108 140.208Z" fill="#BFAF08"/>
<path d="M196.079 132.714C195.934 132.626 195.789 132.534 195.644 132.442C194.71 131.859 193.785 131.267 192.877 130.661C192.53 130.433 192.188 130.192 191.846 129.955C191.425 129.666 191.012 129.368 190.595 129.07C190.438 128.956 190.28 128.846 190.126 128.728C189.56 128.311 188.999 127.881 188.442 127.443C187.99 127.088 187.542 126.728 187.099 126.36C186.805 126.119 186.511 125.86 186.218 125.61C185.941 125.373 185.66 125.132 185.384 124.882C185.169 124.693 184.959 124.5 184.748 124.303C184.472 124.053 184.2 123.799 183.928 123.54C183.713 123.338 183.502 123.132 183.287 122.926C183.02 122.668 182.756 122.404 182.493 122.141C182.177 121.826 181.866 121.514 181.55 121.185C181.186 120.808 180.826 120.414 180.462 120.015C180.282 119.817 180.098 119.616 179.918 119.414C179.668 119.129 179.414 118.839 179.164 118.55C178.975 118.331 178.787 118.111 178.594 117.883C178.357 117.603 178.124 117.318 177.887 117.028C177.664 116.756 177.44 116.48 177.216 116.2C176.839 115.722 176.457 115.244 176.08 114.744C175.769 114.323 175.453 113.915 175.137 113.512C175.102 113.468 175.071 113.424 175.036 113.38C174.966 113.288 174.891 113.205 174.821 113.112C174.632 112.876 174.444 112.643 174.255 112.411C174.198 112.345 174.145 112.271 174.088 112.205C174.023 112.126 173.957 112.051 173.891 111.977C173.738 111.793 173.584 111.613 173.426 111.433C173.356 111.354 173.286 111.266 173.215 111.187C173.093 111.047 172.97 110.911 172.847 110.775C172.61 110.512 172.373 110.253 172.136 109.995C172.123 109.982 172.11 109.964 172.093 109.951C171.737 109.569 171.382 109.197 171.027 108.833C170.991 108.798 170.956 108.758 170.921 108.723C170.869 108.67 170.816 108.622 170.763 108.57C170.456 108.258 170.145 107.951 169.838 107.653C169.794 107.609 169.75 107.565 169.702 107.522C169.662 107.482 169.618 107.443 169.579 107.403C169.346 107.184 169.114 106.965 168.877 106.754C168.855 106.737 168.838 106.719 168.816 106.702C168.675 106.574 168.531 106.452 168.386 106.329C168.267 106.228 168.153 106.123 168.035 106.022C168.017 106.004 167.995 105.991 167.973 105.974C167.837 105.86 167.697 105.75 167.561 105.636C167.438 105.535 167.315 105.43 167.188 105.333C167.166 105.316 167.144 105.303 167.122 105.285C166.995 105.184 166.864 105.088 166.732 104.987C166.605 104.891 166.473 104.79 166.346 104.693C166.293 104.654 166.245 104.619 166.192 104.579C165.881 104.351 165.565 104.128 165.245 103.908C165.034 103.764 164.815 103.623 164.596 103.483C164.49 103.413 164.385 103.343 164.275 103.272C164.21 103.229 164.144 103.185 164.078 103.141C163.661 102.878 163.24 102.619 162.81 102.365C162.705 102.303 162.604 102.242 162.499 102.185C162.275 102.058 162.051 101.935 161.832 101.817C161.793 101.795 161.749 101.777 161.709 101.751C161.407 101.589 161.108 101.435 160.814 101.286C160.762 101.26 160.709 101.233 160.661 101.207C160.652 101.203 160.643 101.198 160.635 101.194C160.292 101.027 159.959 100.869 159.626 100.716C159.608 100.707 159.591 100.698 159.577 100.694C159.494 100.655 159.411 100.624 159.327 100.589C159.104 100.492 158.884 100.396 158.665 100.308C158.63 100.295 158.595 100.277 158.56 100.264C158.468 100.229 158.38 100.199 158.288 100.163C158.103 100.093 157.924 100.023 157.739 99.9573C157.691 99.9398 157.643 99.9223 157.595 99.9047C157.511 99.874 157.428 99.8521 157.349 99.8258C157.182 99.7688 157.016 99.7118 156.849 99.6635C156.792 99.646 156.735 99.6241 156.678 99.6065C156.603 99.5846 156.533 99.5671 156.458 99.5451C156.301 99.4969 156.138 99.4531 155.98 99.4136C155.915 99.3961 155.849 99.3741 155.787 99.361C155.651 99.3259 155.515 99.2952 155.384 99.2645C155.213 99.225 155.042 99.19 154.87 99.1549C154.827 99.1461 154.787 99.1417 154.743 99.133C154.528 99.0935 154.309 99.0584 154.094 99.0277C154.028 99.0189 153.958 99.0014 153.892 98.9926C153.875 98.9882 153.857 98.9882 153.84 98.9882C153.519 98.9444 153.195 98.9137 152.875 98.8874C152.857 98.8874 152.835 98.883 152.818 98.883C152.774 98.8786 152.725 98.883 152.682 98.8786C152.37 98.8611 152.063 98.8479 151.752 98.8479C151.699 98.8479 151.651 98.8435 151.598 98.8435C151.55 98.8435 151.502 98.8479 151.453 98.8479C151.348 98.8479 151.247 98.8523 151.142 98.8567C150.988 98.8611 150.835 98.8698 150.681 98.8786C150.576 98.883 150.471 98.8918 150.365 98.9005C150.3 98.9049 150.234 98.9093 150.168 98.9137C150.12 98.9181 150.076 98.9269 150.028 98.9312C149.65 98.9663 149.277 99.0146 148.9 99.0759C148.444 99.1461 147.988 99.2031 147.532 99.2426C147.527 99.2426 147.518 99.2426 147.514 99.2426C147.11 99.2777 146.707 99.2996 146.308 99.3084C146.216 99.3127 146.128 99.3127 146.04 99.3171C145.65 99.3215 145.259 99.3171 144.869 99.304C144.803 99.2996 144.742 99.2952 144.676 99.2952C144.255 99.2733 143.834 99.2426 143.417 99.1943C143.11 99.1593 142.803 99.111 142.5 99.0628C142.233 99.0233 141.961 98.9795 141.689 98.9269C141.469 98.8874 141.25 98.8435 141.031 98.7997C140.785 98.7471 140.539 98.6944 140.294 98.6374C140.066 98.5848 139.833 98.5278 139.605 98.4664C139.377 98.405 139.144 98.3436 138.916 98.2779C138.565 98.177 138.21 98.0762 137.859 97.9578C137.504 97.8394 137.144 97.7122 136.789 97.585C136.451 97.4622 136.109 97.3307 135.762 97.1991C135.578 97.1246 135.389 97.0588 135.205 96.9799C134.784 96.8089 134.363 96.6291 133.937 96.4405C133.823 96.3923 133.714 96.3484 133.604 96.2958C133.099 96.0678 132.591 95.831 132.077 95.5811C131.792 95.4407 131.503 95.296 131.218 95.1513C130.932 95.0066 130.652 94.8663 130.362 94.7172C130.13 94.5988 129.893 94.4716 129.656 94.3489C129.371 94.1998 129.086 94.0507 128.801 93.8972C128.489 93.7306 128.178 93.5596 127.866 93.3885C127.713 93.3052 127.559 93.2219 127.406 93.1342C126.923 92.8667 126.441 92.5948 125.954 92.3098L116.062 98.0542C116.549 98.3349 117.036 98.6111 117.514 98.8786C117.667 98.9663 117.821 99.0453 117.974 99.133C118.202 99.2601 118.435 99.3873 118.663 99.5145C118.746 99.5583 118.825 99.6022 118.909 99.646C119.194 99.7995 119.479 99.9486 119.764 100.098C120.001 100.22 120.233 100.348 120.47 100.466C120.755 100.615 121.041 100.755 121.326 100.9C121.497 100.988 121.672 101.08 121.843 101.163C121.957 101.22 122.071 101.277 122.185 101.33C122.699 101.58 123.208 101.817 123.712 102.045C123.73 102.053 123.743 102.058 123.76 102.067C123.857 102.11 123.949 102.145 124.045 102.189C124.471 102.378 124.896 102.558 125.318 102.729C125.37 102.751 125.427 102.777 125.48 102.799C125.611 102.851 125.743 102.895 125.875 102.948C126.217 103.084 126.563 103.211 126.901 103.334C126.989 103.365 127.077 103.404 127.164 103.435C127.432 103.531 127.704 103.619 127.971 103.711C128.208 103.79 128.445 103.864 128.682 103.935C128.801 103.97 128.915 103.996 129.029 104.031C129.257 104.097 129.489 104.163 129.717 104.22C129.836 104.25 129.95 104.285 130.068 104.316C130.182 104.342 130.292 104.364 130.406 104.391C130.652 104.448 130.897 104.505 131.143 104.553C131.261 104.579 131.38 104.61 131.498 104.632C131.599 104.654 131.7 104.662 131.801 104.68C132.073 104.728 132.341 104.772 132.608 104.812C132.735 104.829 132.863 104.855 132.99 104.873C133.17 104.899 133.35 104.921 133.529 104.939C133.823 104.974 134.122 105 134.415 105.022C134.538 105.031 134.666 105.035 134.788 105.04C134.854 105.044 134.916 105.048 134.981 105.048C135.293 105.062 135.604 105.07 135.911 105.07C135.99 105.07 136.069 105.066 136.148 105.066C136.24 105.066 136.328 105.062 136.42 105.057C136.824 105.044 137.223 105.026 137.627 104.991C137.631 104.991 137.64 104.991 137.644 104.991H137.648C138.105 104.952 138.557 104.895 139.013 104.825C139.39 104.763 139.763 104.72 140.14 104.68C140.254 104.667 140.364 104.658 140.478 104.649C140.583 104.641 140.688 104.636 140.794 104.627C140.947 104.619 141.101 104.61 141.254 104.605C141.36 104.601 141.46 104.601 141.566 104.597C141.667 104.597 141.763 104.597 141.864 104.597C142.175 104.597 142.483 104.61 142.79 104.627C142.855 104.632 142.921 104.632 142.983 104.636C143.303 104.658 143.627 104.693 143.948 104.737C144.035 104.75 144.119 104.763 144.207 104.777C144.421 104.807 144.636 104.842 144.851 104.882C145.066 104.921 145.277 104.961 145.492 105.009C145.689 105.053 145.891 105.105 146.093 105.158C146.251 105.197 146.409 105.241 146.567 105.29C146.698 105.329 146.825 105.364 146.957 105.408C147.124 105.461 147.286 105.513 147.453 105.57C147.584 105.614 147.711 105.658 147.847 105.706C148.027 105.772 148.212 105.842 148.391 105.912C148.519 105.96 148.641 106.009 148.769 106.057C148.988 106.145 149.207 106.241 149.431 106.338C149.532 106.381 149.633 106.421 149.734 106.469C150.067 106.618 150.405 106.776 150.743 106.947C150.804 106.978 150.865 107.008 150.922 107.039C151.216 107.188 151.515 107.342 151.817 107.504C152.081 107.644 152.339 107.785 152.607 107.938C153.212 108.289 153.805 108.653 154.384 109.026C154.489 109.096 154.594 109.166 154.699 109.236C155.243 109.591 155.779 109.955 156.296 110.332C156.476 110.464 156.656 110.604 156.836 110.74C156.967 110.841 157.095 110.938 157.226 111.038C157.375 111.152 157.52 111.275 157.665 111.394C157.801 111.503 157.941 111.617 158.077 111.731C158.213 111.845 158.353 111.968 158.489 112.086C158.634 112.209 158.779 112.332 158.919 112.459C159.174 112.687 159.428 112.924 159.683 113.161C159.77 113.244 159.854 113.327 159.941 113.411C160.253 113.709 160.56 114.016 160.871 114.327C160.959 114.415 161.047 114.503 161.135 114.595C161.49 114.959 161.845 115.331 162.201 115.713C162.451 115.985 162.701 116.257 162.955 116.537C163.148 116.752 163.341 116.976 163.53 117.195C163.683 117.375 163.841 117.555 163.995 117.739C164.118 117.883 164.236 118.028 164.359 118.173C164.547 118.401 164.736 118.638 164.925 118.874C165.03 119.006 165.135 119.138 165.241 119.269C165.556 119.673 165.872 120.08 166.184 120.501C166.486 120.896 166.785 121.286 167.087 121.668C167.166 121.769 167.245 121.861 167.32 121.957C167.544 122.238 167.767 122.51 167.991 122.786C168.14 122.97 168.294 123.163 168.443 123.343C168.526 123.444 168.614 123.54 168.697 123.641C168.886 123.865 169.074 124.084 169.263 124.303C169.408 124.47 169.553 124.645 169.693 124.807C169.803 124.93 169.908 125.044 170.018 125.167C170.197 125.369 170.382 125.57 170.562 125.772C170.68 125.899 170.794 126.035 170.913 126.162C171.158 126.425 171.404 126.684 171.649 126.943C171.838 127.14 172.031 127.338 172.22 127.531C172.343 127.653 172.465 127.772 172.588 127.894C172.851 128.162 173.119 128.425 173.382 128.679C173.487 128.78 173.593 128.89 173.698 128.991C173.808 129.096 173.913 129.192 174.023 129.293C174.295 129.552 174.571 129.806 174.843 130.056C174.966 130.166 175.084 130.284 175.207 130.394C175.299 130.477 175.391 130.552 175.483 130.635C175.76 130.881 176.036 131.122 176.317 131.359C176.453 131.477 176.593 131.6 176.729 131.718C176.887 131.85 177.041 131.981 177.199 132.109C177.624 132.459 178.054 132.806 178.484 133.148C178.501 133.161 178.519 133.174 178.541 133.192C179.098 133.63 179.66 134.055 180.225 134.476C180.269 134.507 180.309 134.542 180.353 134.573C180.467 134.656 180.581 134.735 180.695 134.818C181.111 135.121 181.528 135.415 181.945 135.709C182.041 135.774 182.134 135.845 182.226 135.91C182.476 136.081 182.726 136.248 182.976 136.415C183.625 136.844 184.279 137.27 184.941 137.691C185.209 137.862 185.476 138.024 185.748 138.191C185.893 138.283 186.038 138.37 186.182 138.462C186.884 138.897 187.591 139.326 188.31 139.747C188.573 139.901 188.841 140.059 189.108 140.212L199 134.463C198.013 133.889 197.039 133.306 196.079 132.714Z" fill="#E1CD05"/>
<path d="M152.615 107.942C153.91 108.688 155.138 109.486 156.305 110.337C157.471 111.183 158.599 112.13 159.687 113.161C160.775 114.2 161.867 115.323 162.955 116.533C164.047 117.747 165.117 119.067 166.183 120.497C168.004 122.891 169.829 125.035 171.654 126.939C173.478 128.837 175.325 130.561 177.203 132.108C179.076 133.656 181.006 135.09 182.98 136.406C184.958 137.721 187.002 138.989 189.104 140.203L189.042 162.576C189.029 166.829 188.564 170.6 187.639 173.889C186.713 177.178 185.423 180.05 183.765 182.506C182.107 184.966 180.159 187.079 177.918 188.851C175.676 190.623 173.25 192.065 170.627 193.179C168.008 194.293 165.249 195.196 162.349 195.885C159.454 196.577 156.515 197.012 153.545 197.196L152.361 197.297L151.185 195.832C148.251 192.184 145.342 188.373 142.456 184.4C139.574 180.432 136.815 176.358 134.183 172.188C131.551 168.013 129.138 163.764 126.94 159.432C124.743 155.099 122.826 150.767 121.185 146.434C119.544 142.102 118.277 137.739 117.373 133.336C116.474 128.938 116.018 124.636 116 120.422L116.061 98.0498C118.167 99.2645 120.211 100.352 122.19 101.321C124.172 102.29 126.098 103.079 127.976 103.698C129.853 104.316 131.709 104.728 133.533 104.939C135.363 105.145 137.192 105.11 139.021 104.82C141.184 104.461 143.342 104.527 145.5 105.013C147.659 105.5 150.032 106.478 152.615 107.942Z" fill="#FFE84B"/>
</g>
<defs>
<linearGradient id="paint0_linear_1763_237936" x1="229.4" y1="25.3934" x2="229.4" y2="230.94" gradientUnits="userSpaceOnUse">
<stop stop-color="#69E2FF"/>
<stop offset="1" stop-color="white" stop-opacity="0"/>
</linearGradient>
<radialGradient id="paint1_radial_1763_237936" cx="0" cy="0" r="1" gradientUnits="userSpaceOnUse" gradientTransform="translate(75.9629 146.034) scale(95.7895 95.5915)">
<stop stop-color="#68FFF4"/>
<stop offset="1" stop-color="#19EDDD"/>
</radialGradient>
<radialGradient id="paint2_radial_1763_237936" cx="0" cy="0" r="1" gradientUnits="userSpaceOnUse" gradientTransform="translate(92.9852 113.731) scale(47.1491 47.0516)">
<stop stop-color="#F0F0F0"/>
<stop offset="1" stop-color="#DCDCDC"/>
</radialGradient>
<radialGradient id="paint3_radial_1763_237936" cx="0" cy="0" r="1" gradientUnits="userSpaceOnUse" gradientTransform="translate(21.3998 162.705) scale(95.7895 95.5915)">
<stop stop-color="#FF40B6"/>
<stop offset="1" stop-color="#B00A70"/>
</radialGradient>
<radialGradient id="paint4_radial_1763_237936" cx="0" cy="0" r="1" gradientUnits="userSpaceOnUse" gradientTransform="translate(38.4221 130.403) scale(47.1491 47.0516)">
<stop stop-color="#F0F0F0"/>
<stop offset="1" stop-color="#DCDCDC"/>
</radialGradient>
<clipPath id="clip0_1763_237936">
<rect width="83" height="105" fill="white" transform="translate(116 92.3097)"/>
</clipPath>
</defs>
</svg>
