<svg width="96" height="96" viewBox="0 0 96 96" fill="none" xmlns="http://www.w3.org/2000/svg">
<path d="M89.0549 55.4904L39.8405 67.7608C38.895 67.9841 37.8999 67.8319 37.0643 67.3363C36.2288 66.8407 35.6181 66.0404 35.3606 65.1037L28.1068 35.8758C27.8751 34.9299 28.0237 33.9309 28.5205 33.0932C29.0173 32.2556 29.8227 31.6463 30.7639 31.396L79.9517 19.1256C80.8984 18.8924 81.8988 19.0401 82.7376 19.537C83.5764 20.0339 84.1866 20.8404 84.4369 21.7827L91.6907 51.0106C91.8268 51.478 91.8658 51.9682 91.8054 52.4512C91.7451 52.9342 91.5866 53.3998 91.3398 53.8194C91.0929 54.2389 90.7629 54.6036 90.37 54.891C89.9771 55.1783 89.5295 55.3823 89.0549 55.4904Z" fill="url(#paint0_radial_8255_606683)"/>
<path d="M61.6287 49.1986L82.7524 19.535C82.3419 19.2824 81.8849 19.1147 81.4085 19.0416C80.932 18.9686 80.4458 18.9918 79.9785 19.1098L30.8065 31.3749C30.3305 31.4775 29.8829 31.6834 29.4954 31.9782C29.1078 32.273 28.7899 32.6494 28.564 33.0808L61.6287 49.1986Z" fill="#B2CBFF"/>
<circle cx="27" cy="27" r="23" fill="white"/>
<path fill-rule="evenodd" clip-rule="evenodd" d="M50 27C50 39.7026 39.7026 50 27 50C14.2975 50 4 39.7026 4 27C4 14.2975 14.2975 4 27 4C39.7026 4 50 14.2975 50 27ZM43.8758 27C43.8758 36.3202 36.3202 43.8758 27 43.8758C23.6385 43.8758 20.5066 42.8929 17.8759 41.199L41.199 17.8759C42.8929 20.5066 43.8758 23.6385 43.8758 27ZM13.4087 37.0052L37.0052 13.4087C34.2056 11.3443 30.7453 10.1242 27 10.1242C17.6798 10.1242 10.1242 17.6798 10.1242 27C10.1242 30.7453 11.3443 34.2056 13.4087 37.0052Z" fill="#E3646A"/>
<path d="M64.9972 75.9316C62.3581 85.9747 50.6661 92.2432 38.9377 89.8766C38.3699 89.754 37.8021 89.6359 37.2298 89.486C36.1132 89.1876 34.928 89.2822 33.873 89.754C32.5103 90.3263 26.5235 93.2652 26.5235 93.2652C26.5235 93.2652 30.0347 87.2057 27.123 83.6672C23.2257 78.9613 20.9182 73.3833 22.508 67.4465C25.1471 57.3988 36.8391 51.1303 48.5675 53.5014C60.2959 55.8725 67.6954 65.8839 64.9972 75.9316Z" fill="#FFE192"/>
<path d="M37.5493 81.3892C35.606 80.143 34.076 78.3484 33.1526 76.2326C32.2292 74.1168 31.9538 71.7748 32.3615 69.5026C32.7692 67.2303 33.8417 65.1299 35.4431 63.4671C37.0445 61.8043 39.103 60.6537 41.3583 60.1608C43.6136 59.6679 45.9644 59.8549 48.1134 60.6981C50.2625 61.5413 52.113 63.0028 53.4315 64.8978C54.7499 66.7928 55.4769 69.0362 55.5203 71.3443C55.5638 73.6524 54.9219 75.9215 53.6756 77.8648C52.8482 79.155 51.7745 80.2698 50.5163 81.1452C49.258 82.0206 47.8399 82.6395 46.3424 82.9668C44.8449 83.294 43.2976 83.3231 41.7889 83.0524C40.2802 82.7817 38.8396 82.2167 37.5493 81.3892Z" fill="url(#paint1_linear_8255_606683)"/>
<path d="M40.0712 73.5863C40.4772 74.6496 41.2836 75.5115 42.3175 75.9874C43.3514 76.4633 44.5307 76.5154 45.6025 76.1323C46.6742 75.7493 47.5532 74.9617 48.0513 73.9383C48.5493 72.9148 48.6266 71.7369 48.2666 70.6571" fill="white"/>
<path d="M47.0393 68.8732C47.3654 68.6641 47.6221 68.3629 47.7771 68.0079C47.932 67.6529 47.9782 67.2601 47.9098 66.8788C47.8414 66.4976 47.6615 66.1451 47.3929 65.8661C47.1242 65.5872 46.7787 65.394 46.4003 65.3113C46.0219 65.2286 45.6274 65.26 45.2669 65.4014C44.9063 65.5429 44.5958 65.7883 44.3746 66.1063C44.1534 66.4242 44.0315 66.8006 44.0242 67.1878C44.0169 67.5751 44.1245 67.9558 44.3336 68.2819C44.614 68.7191 45.0567 69.0271 45.5641 69.138C46.0715 69.2489 46.6021 69.1536 47.0393 68.8732Z" fill="#797673"/>
<path d="M40.6009 71.2292C40.927 71.0201 41.1836 70.719 41.3385 70.364C41.4934 70.009 41.5397 69.6161 41.4713 69.2348C41.4029 68.8536 41.2229 68.501 40.9542 68.222C40.6855 67.943 40.3402 67.7501 39.9618 67.6674C39.5833 67.5847 39.1889 67.616 38.8283 67.7575C38.4677 67.899 38.1572 68.1441 37.936 68.4621C37.7148 68.78 37.5928 69.1564 37.5855 69.5437C37.5782 69.931 37.6861 70.3118 37.8952 70.6379C38.1755 71.0751 38.6181 71.3829 39.1255 71.4938C39.6329 71.6047 40.1637 71.5096 40.6009 71.2292Z" fill="#797673"/>
<defs>
<radialGradient id="paint0_radial_8255_606683" cx="0" cy="0" r="1" gradientUnits="userSpaceOnUse" gradientTransform="translate(55.4528 25.6173) rotate(22.551) scale(43.6274 43.6275)">
<stop offset="0.13" stop-color="#2063FF"/>
<stop offset="0.86" stop-color="#B2CBFF"/>
</radialGradient>
<linearGradient id="paint1_linear_8255_606683" x1="58.4999" y1="81.9999" x2="34.0291" y2="65.2656" gradientUnits="userSpaceOnUse">
<stop stop-color="#FDD88E"/>
<stop offset="0.02" stop-color="#FDD689"/>
<stop offset="0.23" stop-color="#FCC962"/>
<stop offset="0.43" stop-color="#FBBE43"/>
<stop offset="0.63" stop-color="#FAB62E"/>
<stop offset="0.83" stop-color="#FAB220"/>
<stop offset="1" stop-color="#FAB01C"/>
</linearGradient>
</defs>
</svg>
