<?xml version="1.0" encoding="UTF-8"?>
<svg xmlns="http://www.w3.org/2000/svg" id="Layer_2" viewBox="0 0 42.02 57.75" height="96" width="96">
    <defs>
        <style>
            .cls-1 {
            fill: #003253
            }

            .cls-2 {
            fill: #930bde
            }
        </style>
    </defs>
    <g id="Layer_1-2">
        <path class="cls-1" d="m42.02 35-.11 8.91c-.01.75-.41 1.44-1.06 1.82L21.49 57.01s-.02.01-.03.02c-.08.05-.17.1-.25.14-1.6.83-3.53.75-5.1-.13-9.57-5.4-12.34-6.94-13.3-7.52l26.1-15.35c.48-.28 1.03-.43 1.59-.43h10.21c.35-.02.68.11.93.35s.39.57.38.92Z"></path>
        <path class="cls-2" d="M38.74 1.42c0-.69-.55-1.25-1.24-1.26L26.08 0c-.57 0-1.13.14-1.62.43L8.29 9.89l-5.18 3.02C1.19 14.03 0 16.11 0 18.33v25.53c0 1.94.77 3.8 2.14 5.17.51.45-.04.08 13.97 7.99 1.57.89 3.5.97 5.1.13.09-.05.17-.09.25-.14-1.43.82-3.35.42-4.31-1.2-.28-.46-.38-1.01-.38-1.55V27.9c0-2.23 1.18-4.29 3.1-5.41l2.96-1.74h.01l3.46-2.04 9.49-5.57-.03-.03 1.94-1.15c.65-.38 1.05-1.09 1.05-1.84s-.02-8.71-.02-8.71Z"></path>
    </g>
</svg>
