<svg width="20" height="20" viewBox="0 0 20 20" fill="none" xmlns="http://www.w3.org/2000/svg">
<path d="M12.8579 10.1578C13.4178 10.7312 13.7346 11.4258 13.9641 12.3864L14.0635 12.8425L14.2425 13.7889C14.3316 14.2337 14.4005 14.4807 14.4968 14.6966C14.7975 15.3704 15.3269 16.0609 16.0923 16.7626C16.3976 17.0425 16.4182 17.5169 16.1383 17.8222C15.8584 18.1276 15.384 18.1482 15.0786 17.8683C14.1713 17.0365 13.5183 16.1848 13.127 15.3079C12.9781 14.9743 12.8875 14.6574 12.7805 14.128L12.5702 13.0274L12.5575 12.9672C12.3768 12.1182 12.1535 11.5835 11.7847 11.2057C11.072 10.4758 9.42798 10.6687 8.98803 11.3644C8.42622 12.2527 8.28289 13.7603 8.72901 15.28C9.07368 16.4541 9.53101 17.6096 10.1014 18.7467C10.2871 19.1169 10.1375 19.5676 9.76726 19.7533C9.39701 19.9391 8.94632 19.7895 8.7606 19.4192C8.15035 18.2026 7.65994 16.9636 7.28974 15.7025C6.72825 13.7898 6.91382 11.8378 7.72028 10.5626C8.67335 9.05565 11.4622 8.72839 12.8579 10.1578ZM10.4923 12.4731C10.9062 12.4594 11.253 12.7838 11.2668 13.1978C11.3182 14.745 11.8215 16.2407 12.7108 17.5019L12.9073 17.7685L13.2075 18.1585C13.4602 18.4868 13.3989 18.9577 13.0706 19.2103C12.7722 19.44 12.3559 19.4102 12.0929 19.1563L12.0188 19.0734L11.7186 18.6834C10.5155 17.1203 9.83315 15.2191 9.76758 13.2477C9.75383 12.8337 10.0783 12.4869 10.4923 12.4731ZM6.78294 7.39052C8.89478 5.82691 11.6572 5.91177 13.5155 7.10619C14.4454 7.70393 15.1496 8.40094 15.6178 9.19956C15.8273 9.55689 15.7075 10.0164 15.3501 10.2259C14.9928 10.4354 14.5333 10.3155 14.3238 9.95819C13.9821 9.3754 13.4458 8.84457 12.7044 8.36801C11.3419 7.49222 9.25304 7.42805 7.67552 8.59605C6.03695 9.80926 5.34709 11.8873 5.55253 14.0779C5.66758 15.3048 6.03731 16.5452 6.66573 17.8018C6.85099 18.1722 6.70086 18.6228 6.33039 18.808C5.95991 18.9933 5.5094 18.8431 5.32413 18.4727C4.61505 17.0548 4.19203 15.6356 4.05908 14.218C3.80876 11.5488 4.6698 8.9551 6.78294 7.39052ZM15.9627 11.6916C16.3764 11.6703 16.729 11.9884 16.7502 12.402C16.7813 13.0051 16.9303 13.4982 17.1917 13.8949C17.4112 14.228 17.6062 14.4204 17.7551 14.4946L17.8161 14.5193C18.2125 14.6391 18.4368 15.0577 18.3169 15.4542C18.197 15.8507 17.7784 16.0749 17.3819 15.9551C16.8354 15.7898 16.3653 15.367 15.9391 14.7202C15.5235 14.0895 15.2964 13.338 15.2522 12.4791C15.2309 12.0654 15.549 11.7128 15.9627 11.6916ZM8.51056 4.10211C8.68056 4.47983 8.51218 4.92385 8.13446 5.09386C6.29429 5.9221 4.94027 7.10239 4.05079 8.64253C2.93755 10.5701 2.63726 12.8235 2.8865 14.7226C2.9404 15.1333 2.65116 15.5099 2.24047 15.5638C1.82978 15.6177 1.45315 15.3285 1.39925 14.9178C1.11045 12.7171 1.45391 10.1398 2.75185 7.89236C3.80367 6.07113 5.39986 4.67974 7.51881 3.72602C7.89653 3.55601 8.34055 3.7244 8.51056 4.10211ZM10.8542 3.31502C12.6842 3.35252 14.5057 4.19338 16.3129 5.80138C18.1359 7.4233 19.2344 9.62798 19.6073 12.3816C19.6629 12.792 19.3752 13.1699 18.9647 13.2254C18.5542 13.281 18.1764 12.9933 18.1208 12.5829C17.7943 10.1713 16.8597 8.29561 15.3159 6.92203C13.7564 5.53453 12.2609 4.84416 10.8235 4.8147C10.4094 4.80622 10.0805 4.46362 10.089 4.04949C10.0975 3.63537 10.4401 3.30653 10.8542 3.31502ZM3.98275 3.32942C4.25824 3.63874 4.23081 4.11282 3.92149 4.38831C3.65336 4.62711 3.37201 4.91215 3.07823 5.24332C2.80189 5.55483 2.5188 5.95921 2.23191 6.45591C2.02474 6.81459 1.56603 6.93741 1.20734 6.73024C0.848663 6.52307 0.725839 6.06435 0.93301 5.70567C1.26748 5.1266 1.60753 4.64085 1.95612 4.2479C2.28727 3.87461 2.60958 3.54807 2.92386 3.26816C3.23318 2.99267 3.70726 3.0201 3.98275 3.32942ZM10.5683 0.363493C12.761 0.466202 14.5975 1.0657 16.098 2.22441C16.4259 2.47758 16.4864 2.94857 16.2333 3.27642C15.9801 3.60426 15.5091 3.6648 15.1812 3.41164C13.9359 2.45001 12.3958 1.95074 10.4981 1.86185C8.59495 1.7727 7.0365 2.14593 5.78349 2.84088C5.39953 3.05384 4.96867 2.94727 4.75189 2.59432C4.53511 2.24136 4.63254 1.77795 4.99846 1.56271C6.53418 0.659367 8.38115 0.261043 10.5683 0.363493Z" fill="#242424"/>
</svg>
