<svg width="18" height="21" viewBox="0 0 18 21" fill="none" xmlns="http://www.w3.org/2000/svg">
<path d="M16.5 18C16.5 18.275 16.276 18.5 16 18.5H10V19.5C10 19.6712 9.98279 19.8384 9.94999 20H16C17.104 20 18 19.104 18 18V7.828C18 7.298 17.789 6.789 17.414 6.414L11.585 0.586C11.57 0.571048 11.5531 0.55808 11.5363 0.545195C11.5238 0.535674 11.5115 0.526198 11.5 0.516C11.429 0.452 11.359 0.389 11.281 0.336C11.2557 0.318941 11.2281 0.305475 11.2005 0.292071C11.1845 0.284259 11.1685 0.276469 11.153 0.268C11.1363 0.258594 11.1197 0.248967 11.103 0.239326C11.0488 0.20797 10.9944 0.176475 10.937 0.152C10.74 0.0699999 10.528 0.0289999 10.313 0.0139999C10.2933 0.0127423 10.2738 0.0100789 10.2542 0.00740928C10.2271 0.00371057 10.1999 0 10.172 0H4C2.896 0 2 0.896 2 2V9.55051C2.40986 9.13225 2.92384 8.81641 3.5 8.64494V2C3.5 1.725 3.724 1.5 4 1.5H10V6C10 7.104 10.896 8 12 8H16.5V18ZM11.5 2.621L15.378 6.5H12C11.724 6.5 11.5 6.275 11.5 6V2.621ZM2 13H1.5C0.671573 13 0 13.6716 0 14.5V19.5C0 20.3284 0.671573 21 1.5 21H7.5C8.32843 21 9 20.3284 9 19.5V14.5C9 13.6716 8.32843 13 7.5 13H7V12C7 10.6193 5.88071 9.5 4.5 9.5C3.11929 9.5 2 10.6193 2 12V13ZM3.5 12C3.5 11.4477 3.94772 11 4.5 11C5.05228 11 5.5 11.4477 5.5 12V13H3.5V12ZM5.5 17C5.5 17.5523 5.05228 18 4.5 18C3.94772 18 3.5 17.5523 3.5 17C3.5 16.4477 3.94772 16 4.5 16C5.05228 16 5.5 16.4477 5.5 17Z" fill="#242424"/>
</svg>
