<svg width="20" height="16" viewBox="0 0 20 16" fill="none" xmlns="http://www.w3.org/2000/svg">
<path d="M2.01843 0.789842C3.13327 0.292672 4.62983 0 6.25 0C7.86958 0 9.36609 0.290599 10.4811 0.786829C11.0379 1.0346 11.5272 1.34594 11.8857 1.72349C12.2474 2.10433 12.5 2.58095 12.5 3.13076L12.5 7.86002H14.3717L15.7265 5.24225C15.2775 4.78947 15 4.16568 15 3.47696C15 2.0937 16.1193 0.972351 17.5 0.972351C18.8807 0.972351 20 2.0937 20 3.47696C20 4.86022 18.8807 5.98157 17.5 5.98157C17.2581 5.98157 17.0242 5.94715 16.803 5.88293L15.4556 8.48628L16.8029 11.0894C17.0242 11.0252 17.2581 10.9908 17.5 10.9908C18.8807 10.9908 20 12.1121 20 13.4954C20 14.8786 18.8807 16 17.5 16C16.1193 16 15 14.8786 15 13.4954C15 12.8067 15.2774 12.1829 15.7265 11.7302L14.3716 9.11233H12.5V13.0181H12.4938C12.4529 13.5054 12.2144 13.9305 11.8857 14.2765C11.5272 14.6541 11.0379 14.9654 10.4811 15.2132C9.36609 15.7094 7.86958 16 6.25 16C4.63032 16 3.13381 15.7091 2.0188 15.2127C1.46208 14.9648 0.972838 14.6535 0.614315 14.276C0.285742 13.9301 0.0470781 13.5051 0.00621735 13.018H9.53674e-07L0 3.2873H0.00692248C0.00235084 3.23581 0 3.18362 0 3.13076C0 2.58198 0.253337 2.10626 0.614525 1.72639C0.972849 1.34954 1.46183 1.03806 2.01843 0.789842ZM11.25 5.06012C11.0153 5.21407 10.7565 5.35216 10.4811 5.47469C9.36609 5.97092 7.86958 6.26152 6.25 6.26152C4.62983 6.26152 3.13327 5.96885 2.01843 5.47168C1.74321 5.34894 1.48453 5.21074 1.25 5.05682L1.25 12.8692C1.25 13.0115 1.31212 13.1941 1.51982 13.4127C1.73061 13.6346 2.06517 13.8629 2.5264 14.0683C3.44729 14.4782 4.76328 14.7477 6.25 14.7477C7.73683 14.7477 9.05282 14.4785 9.97368 14.0687C10.4349 13.8634 10.7694 13.6352 10.9801 13.4133C11.1878 13.1947 11.25 13.0119 11.25 12.8692L11.25 5.06012ZM11.25 3.13076C11.25 2.98805 11.1878 2.80533 10.9801 2.58671C10.7694 2.3648 10.4349 2.13655 9.97368 1.9313C9.05282 1.52148 7.73682 1.2523 6.25 1.2523C4.76377 1.2523 3.44782 1.52317 2.52676 1.93392C2.06542 2.13966 1.7306 2.36824 1.51961 2.59014C1.31149 2.80903 1.25 2.99077 1.25 3.13076C1.25 3.27075 1.31149 3.45249 1.51961 3.67138C1.7306 3.89328 2.06542 4.12186 2.52676 4.3276C3.44782 4.73835 4.76377 5.00922 6.25 5.00922C7.73682 5.00922 9.05282 4.74004 9.97368 4.33022C10.4349 4.12497 10.7694 3.89673 10.9801 3.67481C11.1878 3.45619 11.25 3.27347 11.25 3.13076ZM18.75 3.47696C18.75 2.78533 18.1904 2.22465 17.5 2.22465C16.8096 2.22465 16.25 2.78533 16.25 3.47696C16.25 4.16859 16.8096 4.72926 17.5 4.72926C18.1904 4.72926 18.75 4.16859 18.75 3.47696ZM17.5 14.7477C18.1904 14.7477 18.75 14.187 18.75 13.4954C18.75 12.8038 18.1904 12.2431 17.5 12.2431C16.8096 12.2431 16.25 12.8038 16.25 13.4954C16.25 14.187 16.8096 14.7477 17.5 14.7477Z" fill="#242424"/>
</svg>
