<svg width="24" height="15" viewBox="0 0 24 15" fill="none" xmlns="http://www.w3.org/2000/svg">
<path d="M12 0C4.5 0 0 7.5 0 7.5C0 7.5 4.5 15 12 15C19.5 15 24 7.5 24 7.5C24 7.5 19.5 0 12 0ZM15.12 2.0265C13.8984 2.09832 12.7075 2.43771 11.6315 3.02066C10.5555 3.60361 9.62084 4.41588 8.8935 5.4V5.4105C8.58915 5.85246 8.38697 6.35661 8.30161 6.88639C8.21625 7.41618 8.24986 7.95832 8.4 8.4735C6.92178 7.33954 5.80626 5.79918 5.19 4.041C7.11307 2.45819 9.51013 1.56378 12 1.5C13.0617 1.50445 14.1156 1.68229 15.12 2.0265ZM9.75 7.5C9.75 7.05499 9.88196 6.61998 10.1292 6.24997C10.3764 5.87996 10.7278 5.59157 11.139 5.42127C11.5501 5.25097 12.0025 5.20642 12.439 5.29323C12.8754 5.38005 13.2763 5.59434 13.591 5.90901C13.9057 6.22368 14.12 6.62459 14.2068 7.06105C14.2936 7.4975 14.249 7.9499 14.0787 8.36104C13.9084 8.77217 13.62 9.12357 13.25 9.37081C12.88 9.61804 12.445 9.75 12 9.75C11.4033 9.75 10.831 9.51295 10.409 9.09099C9.98705 8.66903 9.75 8.09674 9.75 7.5ZM1.8195 7.5C2.47223 6.62396 3.20106 5.80729 3.9975 5.0595C6.5235 10.926 11.0835 11.25 12 11.25C12.9946 11.25 13.9484 10.8549 14.6517 10.1517C15.3549 9.44839 15.75 8.49456 15.75 7.5C15.75 7.4415 15.735 7.3875 15.7335 7.3305C16.7877 8.57765 17.4931 10.0816 17.778 11.6895C16.0677 12.8393 14.0606 13.4683 12 13.5C6.8115 13.5 3.135 9.276 1.8195 7.5ZM19.095 10.7355C18.8031 9.18614 18.1056 7.74186 17.0738 6.5498C16.0419 5.35774 14.7125 4.4605 13.221 3.9495C14.8757 3.39424 16.652 3.30857 18.3525 3.702C19.8137 4.76654 21.1045 6.0472 22.1805 7.5C21.2882 8.70063 20.252 9.78725 19.095 10.7355Z" fill="black"/>
</svg>
