<svg width="19" height="21" viewBox="0 0 19 21" fill="none" xmlns="http://www.w3.org/2000/svg">
<path d="M12.1571 10.8277L8.16021 18.8279C7.66154 19.826 8.38736 21 9.5031 21H17.4969C18.6126 21 19.3385 19.826 18.8398 18.8279L14.8429 10.8277C14.2899 9.72072 12.7102 9.72072 12.1571 10.8277ZM14.0004 13.4939V16.4963C14.0004 16.7727 13.7764 16.9967 13.5 16.9967C13.2237 16.9967 12.9996 16.7727 12.9996 16.4963V13.4939C12.9996 13.2176 13.2237 12.9935 13.5 12.9935C13.7764 12.9935 14.0004 13.2176 14.0004 13.4939ZM13.5 18.9983C13.2237 18.9983 12.9996 18.7743 12.9996 18.4979C12.9996 18.2216 13.2237 17.9975 13.5 17.9975C13.7764 17.9975 14.0004 18.2216 14.0004 18.4979C14.0004 18.7743 13.7764 18.9983 13.5 18.9983Z" fill="#242424"/>
<path d="M10.4536 11.9999L9.70421 13.4999H2.25242C1.83882 13.4999 1.50354 13.8352 1.50354 14.2488V14.8265C1.50354 15.3622 1.69465 15.8802 2.04251 16.2876C3.17326 17.6118 4.88405 18.3483 7.21881 18.4797C6.99676 18.9747 6.95075 19.4915 7.04482 19.9718C4.36754 19.8031 2.30551 18.9055 0.90182 17.2617C0.322059 16.5828 0.00354004 15.7193 0.00354004 14.8265V14.2488C0.00354004 13.0068 1.0104 11.9999 2.25242 11.9999H10.4536Z" fill="#242424"/>
<path fill-rule="evenodd" clip-rule="evenodd" d="M13 5.00464C13 2.24321 10.7614 0.00463867 8 0.00463867C5.23857 0.00463867 3 2.24321 3 5.00464C3 7.76606 5.23857 10.0046 8 10.0046C10.7614 10.0046 13 7.76606 13 5.00464ZM4.5 5.00464C4.5 3.07164 6.067 1.50464 8 1.50464C9.93299 1.50464 11.5 3.07164 11.5 5.00464C11.5 6.93764 9.93299 8.50464 8 8.50464C6.067 8.50464 4.5 6.93764 4.5 5.00464Z" fill="#242424"/>
</svg>
