<svg width="20" height="16" viewBox="0 0 20 16" fill="none" xmlns="http://www.w3.org/2000/svg">
<path d="M6.06562 14.9432L12.5656 0.443211C12.7351 0.0652372 13.1788 -0.103816 13.5568 0.0656207C13.9033 0.220938 14.0742 0.606766 13.9698 0.961128L13.9344 1.05679L7.43438 15.5568C7.26495 15.9348 6.82118 16.1038 6.44321 15.9344C6.09673 15.7791 5.92581 15.3932 6.03024 15.0389L6.06562 14.9432L12.5656 0.443211L6.06562 14.9432ZM0.21967 7.46967L4.46967 3.21967C4.76256 2.92678 5.23744 2.92678 5.53033 3.21967C5.7966 3.48594 5.8208 3.9026 5.60295 4.19621L5.53033 4.28033L1.81066 8L5.53033 11.7197C5.82322 12.0126 5.82322 12.4874 5.53033 12.7803C5.26406 13.0466 4.8474 13.0708 4.55379 12.853L4.46967 12.7803L0.21967 8.53033C-0.0465967 8.26407 -0.0708026 7.8474 0.147052 7.55379L0.21967 7.46967L4.46967 3.21967L0.21967 7.46967ZM14.4697 3.21967C14.7359 2.95341 15.1526 2.9292 15.4462 3.14705L15.5303 3.21967L19.7803 7.46967C20.0466 7.73594 20.0708 8.1526 19.8529 8.44621L19.7803 8.53033L15.5303 12.7803C15.2374 13.0732 14.7626 13.0732 14.4697 12.7803C14.2034 12.5141 14.1792 12.0974 14.3971 11.8038L14.4697 11.7197L18.1893 8L14.4697 4.28033C14.1768 3.98744 14.1768 3.51257 14.4697 3.21967Z" fill="#212121"/>
</svg>
