<svg width="19" height="21" viewBox="0 0 19 21" fill="none" xmlns="http://www.w3.org/2000/svg">
<path d="M0 4C0 3.30945 0.315303 2.70664 0.774234 2.22025C1.2294 1.73784 1.85301 1.33745 2.56668 1.01752C3.99575 0.376905 5.91738 0 8 0C10.0826 0 12.0042 0.376905 13.4333 1.01752C14.147 1.33745 14.7706 1.73784 15.2258 2.22025C15.6847 2.70664 16 3.30945 16 4V9.49816C15.5258 9.30042 15.0232 9.15724 14.5 9.07645V6.39242C14.1791 6.61282 13.8194 6.80942 13.4333 6.98248C12.0042 7.6231 10.0826 8 8 8C5.91738 8 3.99575 7.6231 2.56668 6.98248C2.18063 6.80942 1.82094 6.61282 1.5 6.39242V16C1.5 16.2069 1.59044 16.4591 1.86525 16.7503C2.14382 17.0456 2.58195 17.3455 3.18027 17.6137C4.31912 18.1242 5.91984 18.4667 7.73102 18.4977C8.01445 19.042 8.37267 19.5412 8.79205 19.9817C8.53114 19.9938 8.26689 20 8 20C5.91738 20 3.99575 19.6231 2.56668 18.9825C1.85301 18.6626 1.2294 18.2622 0.774234 17.7798C0.315303 17.2934 0 16.6906 0 16V4ZM1.5 4C1.5 4.20691 1.59044 4.45909 1.86525 4.75034C2.14382 5.04559 2.58195 5.3455 3.18027 5.61372C4.37519 6.14937 6.07856 6.5 8 6.5C9.92144 6.5 11.6248 6.14937 12.8197 5.61372C13.418 5.3455 13.8562 5.04559 14.1348 4.75034C14.4096 4.45909 14.5 4.20691 14.5 4C14.5 3.79309 14.4096 3.54091 14.1348 3.24966C13.8562 2.95441 13.418 2.65449 12.8197 2.38628C11.6248 1.85063 9.92144 1.5 8 1.5C6.07856 1.5 4.37519 1.85063 3.18027 2.38628C2.58195 2.65449 2.14382 2.95441 1.86525 3.24966C1.59044 3.54091 1.5 3.79309 1.5 4ZM13.5 10C16.5376 10 19 12.4624 19 15.5C19 18.5376 16.5376 21 13.5 21C10.4624 21 8 18.5376 8 15.5C8 12.4624 10.4624 10 13.5 10ZM10.5 15C10.2239 15 10 15.2239 10 15.5C10 15.7761 10.2239 16 10.5 16H15.2929L13.6464 17.6464C13.4512 17.8417 13.4512 18.1583 13.6464 18.3536C13.8417 18.5488 14.1583 18.5488 14.3536 18.3536L16.8536 15.8536C17.0488 15.6583 17.0488 15.3417 16.8536 15.1464L14.3536 12.6464C14.1583 12.4512 13.8417 12.4512 13.6464 12.6464C13.4512 12.8417 13.4512 13.1583 13.6464 13.3536L15.2929 15H10.5Z" fill="#212121"/>
</svg>
