<svg width="21" height="19" viewBox="0 0 21 19" fill="none" xmlns="http://www.w3.org/2000/svg">
<path d="M0 3.25C0 1.45507 1.45507 0 3.25 0H16.75C18.5449 0 20 1.45507 20 3.25V7.75777C19.5506 7.45696 19.044 7.23495 18.5 7.11151V3.25C18.5 2.2835 17.7165 1.5 16.75 1.5H7.5V14.5H10.5858L9.51256 15.5732C9.38585 15.6999 9.28058 15.8441 9.19908 16H3.25C1.45508 16 0 14.5449 0 12.75V3.25ZM6 1.5H3.25C2.2835 1.5 1.5 2.2835 1.5 3.25V12.75C1.5 13.7165 2.2835 14.5 3.25 14.5H6V1.5ZM21 11.5C21 13.433 19.433 15 17.5 15H16V16C16 16.2761 15.7761 16.5 15.5 16.5H14.5V17.5C14.5 17.7761 14.2761 18 14 18H13V18.5C13 18.7761 12.7761 19 12.5 19H10.75C10.3358 19 10 18.6642 10 18.25V16.8107C10 16.6117 10.079 16.421 10.2197 16.2803L13.9697 12.5303C14.0159 12.4841 14.0666 12.4452 14.1204 12.4136C14.0419 12.1223 14 11.8161 14 11.5C14 9.567 15.567 8 17.5 8C19.433 8 21 9.567 21 11.5ZM18 12C18.5523 12 19 11.5523 19 11C19 10.4477 18.5523 10 18 10C17.4477 10 17 10.4477 17 11C17 11.5523 17.4477 12 18 12Z" fill="#212121"/>
</svg>
