<svg width="192" height="192" viewBox="0 0 192 192" fill="none" xmlns="http://www.w3.org/2000/svg">
<path d="M33.029 107.069C33.1509 107.071 33.273 107.072 33.3954 107.072C43.1618 107.072 51.079 99.1551 51.079 89.3887C51.079 79.6223 43.1618 71.7051 33.3954 71.7051C31.4626 71.7051 29.6023 72.0152 27.8613 72.5883C28.2023 83.4491 29.666 95.3716 33.029 107.069Z" fill="#F5858F"/>
<path d="M30.0771 41.4861C26.8128 59.8274 25.3021 96.6163 40.8868 126.426C56.4632 156.221 80.9461 172.333 93.627 177.594C95.1808 178.239 96.9175 178.239 98.4716 177.595C110.826 172.474 135.297 156.809 151.16 126.426C166.77 96.5281 165.255 59.8433 161.985 41.4869C161.5 38.7633 159.427 36.6477 156.756 35.9264L98.0054 20.0606C96.7251 19.7149 95.3761 19.7148 94.0958 20.0603L35.3051 35.9273C32.6345 36.648 30.5618 38.7628 30.0771 41.4861Z" fill="url(#paint0_linear_896_5857)"/>
<path d="M30.0771 41.4861C26.8128 59.8274 25.3021 96.6163 40.8868 126.426C56.4632 156.221 80.9461 172.333 93.627 177.594C95.1808 178.239 96.9175 178.239 98.4716 177.595C110.826 172.474 135.297 156.809 151.16 126.426C166.77 96.5281 165.255 59.8433 161.985 41.4869C161.5 38.7633 159.427 36.6477 156.756 35.9264L98.0054 20.0606C96.7251 19.7149 95.3761 19.7148 94.0958 20.0603L35.3051 35.9273C32.6345 36.648 30.5618 38.7628 30.0771 41.4861Z" fill="url(#paint1_radial_896_5857)" fill-opacity="0.6"/>
<path d="M30.0771 41.4861C26.8128 59.8274 25.3021 96.6163 40.8868 126.426C56.4632 156.221 80.9461 172.333 93.627 177.594C95.1808 178.239 96.9175 178.239 98.4716 177.595C110.826 172.474 135.297 156.809 151.16 126.426C166.77 96.5281 165.255 59.8433 161.985 41.4869C161.5 38.7633 159.427 36.6477 156.756 35.9264L98.0054 20.0606C96.7251 19.7149 95.3761 19.7148 94.0958 20.0603L35.3051 35.9273C32.6345 36.648 30.5618 38.7628 30.0771 41.4861Z" fill="url(#paint2_radial_896_5857)" fill-opacity="0.4"/>
<path d="M30.0771 41.4861C26.8128 59.8274 25.3021 96.6163 40.8868 126.426C56.4632 156.221 80.9461 172.333 93.627 177.594C95.1808 178.239 96.9175 178.239 98.4716 177.595C110.826 172.474 135.297 156.809 151.16 126.426C166.77 96.5281 165.255 59.8433 161.985 41.4869C161.5 38.7633 159.427 36.6477 156.756 35.9264L98.0054 20.0606C96.7251 19.7149 95.3761 19.7148 94.0958 20.0603L35.3051 35.9273C32.6345 36.648 30.5618 38.7628 30.0771 41.4861Z" fill="url(#paint3_radial_896_5857)" fill-opacity="0.4"/>
<path d="M30.0771 41.4861C26.8128 59.8274 25.3021 96.6163 40.8868 126.426C56.4632 156.221 80.9461 172.333 93.627 177.594C95.1808 178.239 96.9175 178.239 98.4716 177.595C110.826 172.474 135.297 156.809 151.16 126.426C166.77 96.5281 165.255 59.8433 161.985 41.4869C161.5 38.7633 159.427 36.6477 156.756 35.9264L98.0054 20.0606C96.7251 19.7149 95.3761 19.7148 94.0958 20.0603L35.3051 35.9273C32.6345 36.648 30.5618 38.7628 30.0771 41.4861Z" fill="url(#paint4_radial_896_5857)" fill-opacity="0.4"/>
<path d="M30.0771 41.4861C26.8128 59.8274 25.3021 96.6163 40.8868 126.426C56.4632 156.221 80.9461 172.333 93.627 177.594C95.1808 178.239 96.9175 178.239 98.4716 177.595C110.826 172.474 135.297 156.809 151.16 126.426C166.77 96.5281 165.255 59.8433 161.985 41.4869C161.5 38.7633 159.427 36.6477 156.756 35.9264L98.0054 20.0606C96.7251 19.7149 95.3761 19.7148 94.0958 20.0603L35.3051 35.9273C32.6345 36.648 30.5618 38.7628 30.0771 41.4861Z" fill="url(#paint5_radial_896_5857)" fill-opacity="0.6"/>
<path d="M30.0771 41.4861C26.8128 59.8274 25.3021 96.6163 40.8868 126.426C56.4632 156.221 80.9461 172.333 93.627 177.594C95.1808 178.239 96.9175 178.239 98.4716 177.595C110.826 172.474 135.297 156.809 151.16 126.426C166.77 96.5281 165.255 59.8433 161.985 41.4869C161.5 38.7633 159.427 36.6477 156.756 35.9264L98.0054 20.0606C96.7251 19.7149 95.3761 19.7148 94.0958 20.0603L35.3051 35.9273C32.6345 36.648 30.5618 38.7628 30.0771 41.4861Z" fill="url(#paint6_linear_896_5857)"/>
<path d="M30.0771 41.4861C26.8128 59.8274 25.3021 96.6163 40.8868 126.426C56.4632 156.221 80.9461 172.333 93.627 177.594C95.1808 178.239 96.9175 178.239 98.4716 177.595C110.826 172.474 135.297 156.809 151.16 126.426C166.77 96.5281 165.255 59.8433 161.985 41.4869C161.5 38.7633 159.427 36.6477 156.756 35.9264L98.0054 20.0606C96.7251 19.7149 95.3761 19.7148 94.0958 20.0603L35.3051 35.9273C32.6345 36.648 30.5618 38.7628 30.0771 41.4861Z" fill="url(#paint7_radial_896_5857)" fill-opacity="0.6"/>
<path d="M30.0771 41.4861C26.8128 59.8274 25.3021 96.6163 40.8868 126.426C56.4632 156.221 80.9461 172.333 93.627 177.594C95.1808 178.239 96.9175 178.239 98.4716 177.595C110.826 172.474 135.297 156.809 151.16 126.426C166.77 96.5281 165.255 59.8433 161.985 41.4869C161.5 38.7633 159.427 36.6477 156.756 35.9264L98.0054 20.0606C96.7251 19.7149 95.3761 19.7148 94.0958 20.0603L35.3051 35.9273C32.6345 36.648 30.5618 38.7628 30.0771 41.4861Z" fill="url(#paint8_radial_896_5857)" fill-opacity="0.4"/>
<path d="M30.0771 41.4861C26.8128 59.8274 25.3021 96.6163 40.8868 126.426C56.4632 156.221 80.9461 172.333 93.627 177.594C95.1808 178.239 96.9175 178.239 98.4716 177.595C110.826 172.474 135.297 156.809 151.16 126.426C166.77 96.5281 165.255 59.8433 161.985 41.4869C161.5 38.7633 159.427 36.6477 156.756 35.9264L98.0054 20.0606C96.7251 19.7149 95.3761 19.7148 94.0958 20.0603L35.3051 35.9273C32.6345 36.648 30.5618 38.7628 30.0771 41.4861Z" fill="url(#paint9_radial_896_5857)" fill-opacity="0.4"/>
<path d="M30.0771 41.4861C26.8128 59.8274 25.3021 96.6163 40.8868 126.426C56.4632 156.221 80.9461 172.333 93.627 177.594C95.1808 178.239 96.9175 178.239 98.4716 177.595C110.826 172.474 135.297 156.809 151.16 126.426C166.77 96.5281 165.255 59.8433 161.985 41.4869C161.5 38.7633 159.427 36.6477 156.756 35.9264L98.0054 20.0606C96.7251 19.7149 95.3761 19.7148 94.0958 20.0603L35.3051 35.9273C32.6345 36.648 30.5618 38.7628 30.0771 41.4861Z" fill="url(#paint10_radial_896_5857)" fill-opacity="0.4"/>
<path d="M30.0771 41.4861C26.8128 59.8274 25.3021 96.6163 40.8868 126.426C56.4632 156.221 80.9461 172.333 93.627 177.594C95.1808 178.239 96.9175 178.239 98.4716 177.595C110.826 172.474 135.297 156.809 151.16 126.426C166.77 96.5281 165.255 59.8433 161.985 41.4869C161.5 38.7633 159.427 36.6477 156.756 35.9264L98.0054 20.0606C96.7251 19.7149 95.3761 19.7148 94.0958 20.0603L35.3051 35.9273C32.6345 36.648 30.5618 38.7628 30.0771 41.4861Z" fill="url(#paint11_radial_896_5857)" fill-opacity="0.6"/>
<circle cx="33.3955" cy="89.3887" r="17.6836" fill="url(#paint12_linear_896_5857)"/>
<circle cx="33.3955" cy="89.3887" r="17.6836" fill="url(#paint13_linear_896_5857)"/>
<circle cx="33.3955" cy="89.3887" r="17.6836" fill="url(#paint14_linear_896_5857)"/>
<path d="M54.6689 57.9964C52.5327 69.392 51.3739 93.1427 61.4031 112.326C71.932 132.466 88.8919 142.726 96.3102 145.291C103.454 142.814 120.439 132.905 131.183 112.326C141.228 93.0862 140.066 69.4051 137.926 57.9969C137.671 56.6373 136.636 55.575 135.3 55.2144L97.2875 44.949C96.6474 44.7762 95.9729 44.7761 95.3327 44.9489L57.295 55.2148C55.9597 55.5752 54.9237 56.637 54.6689 57.9964Z" fill="url(#paint15_radial_896_5857)"/>
<path d="M54.6689 57.9964C52.5327 69.392 51.3739 93.1427 61.4031 112.326C71.932 132.466 88.8919 142.726 96.3102 145.291C103.454 142.814 120.439 132.905 131.183 112.326C141.228 93.0862 140.066 69.4051 137.926 57.9969C137.671 56.6373 136.636 55.575 135.3 55.2144L97.2875 44.949C96.6474 44.7762 95.9729 44.7761 95.3327 44.9489L57.295 55.2148C55.9597 55.5752 54.9237 56.637 54.6689 57.9964Z" fill="url(#paint16_radial_896_5857)" fill-opacity="0.6"/>
<path d="M54.6689 57.9964C52.5327 69.392 51.3739 93.1427 61.4031 112.326C71.932 132.466 88.8919 142.726 96.3102 145.291C103.454 142.814 120.439 132.905 131.183 112.326C141.228 93.0862 140.066 69.4051 137.926 57.9969C137.671 56.6373 136.636 55.575 135.3 55.2144L97.2875 44.949C96.6474 44.7762 95.9729 44.7761 95.3327 44.9489L57.295 55.2148C55.9597 55.5752 54.9237 56.637 54.6689 57.9964Z" fill="url(#paint17_radial_896_5857)" fill-opacity="0.6"/>
<path d="M54.6689 57.9964C52.5327 69.392 51.3739 93.1427 61.4031 112.326C71.932 132.466 88.8919 142.726 96.3102 145.291C103.454 142.814 120.439 132.905 131.183 112.326C141.228 93.0862 140.066 69.4051 137.926 57.9969C137.671 56.6373 136.636 55.575 135.3 55.2144L97.2875 44.949C96.6474 44.7762 95.9729 44.7761 95.3327 44.9489L57.295 55.2148C55.9597 55.5752 54.9237 56.637 54.6689 57.9964Z" fill="url(#paint18_radial_896_5857)"/>
<path d="M54.6689 57.9964C52.5327 69.392 51.3739 93.1427 61.4031 112.326C71.932 132.466 88.8919 142.726 96.3102 145.291C103.454 142.814 120.439 132.905 131.183 112.326C141.228 93.0862 140.066 69.4051 137.926 57.9969C137.671 56.6373 136.636 55.575 135.3 55.2144L97.2875 44.949C96.6474 44.7762 95.9729 44.7761 95.3327 44.9489L57.295 55.2148C55.9597 55.5752 54.9237 56.637 54.6689 57.9964Z" fill="url(#paint19_radial_896_5857)"/>
<path fill-rule="evenodd" clip-rule="evenodd" d="M96.3104 146.085L96.065 146C88.4827 143.378 71.3638 132.998 60.7384 112.674C50.5977 93.277 51.7811 69.3304 53.9316 57.8582C54.2427 56.1985 55.5034 54.9215 57.0995 54.4907L95.1372 44.2248L95.3322 44.9474L95.1372 44.2248C95.9054 44.0175 96.7148 44.0175 97.483 44.225L135.496 54.4903C137.092 54.9214 138.352 56.199 138.664 57.8586C140.818 69.3439 142.004 93.2205 131.847 112.673C121.005 133.441 103.858 143.467 96.5558 146L96.3104 146.085ZM96.3101 145.291C88.8918 142.726 71.9319 132.466 61.403 112.326C51.3739 93.1427 52.5326 69.392 54.6688 57.9964C54.9236 56.637 55.9596 55.5752 57.295 55.2148L95.3326 44.9489C95.9728 44.7761 96.6473 44.7762 97.2874 44.949L135.3 55.2144C136.635 55.575 137.671 56.6373 137.926 57.9969C140.066 69.4051 141.228 93.0862 131.183 112.326C120.438 132.905 103.454 142.814 96.3101 145.291Z" fill="#F2F1F3"/>
<path d="M115.568 74.1178C113.113 71.6634 109.134 71.6634 106.679 74.1178L97.1982 83.5988L87.7173 74.1178C85.2629 71.6634 81.2834 71.6634 78.8289 74.1178C76.3745 76.5723 76.3745 80.5518 78.8289 83.0062L88.3099 92.4872L78.8289 101.968C76.3745 104.423 76.3745 108.402 78.8289 110.856C81.2834 113.311 85.2629 113.311 87.7173 110.856L97.1982 101.376L106.679 110.856C109.134 113.311 113.113 113.311 115.568 110.856C118.022 108.402 118.022 104.423 115.568 101.968L106.087 92.4872L115.568 83.0062C118.022 80.5518 118.022 76.5723 115.568 74.1178Z" fill="#C668FF"/>
<path d="M115.568 74.1178C113.113 71.6634 109.134 71.6634 106.679 74.1178L97.1982 83.5988L87.7173 74.1178C85.2629 71.6634 81.2834 71.6634 78.8289 74.1178C76.3745 76.5723 76.3745 80.5518 78.8289 83.0062L88.3099 92.4872L78.8289 101.968C76.3745 104.423 76.3745 108.402 78.8289 110.856C81.2834 113.311 85.2629 113.311 87.7173 110.856L97.1982 101.376L106.679 110.856C109.134 113.311 113.113 113.311 115.568 110.856C118.022 108.402 118.022 104.423 115.568 101.968L106.087 92.4872L115.568 83.0062C118.022 80.5518 118.022 76.5723 115.568 74.1178Z" fill="url(#paint20_linear_896_5857)"/>
<path d="M115.568 74.1178C113.113 71.6634 109.134 71.6634 106.679 74.1178L97.1982 83.5988L87.7173 74.1178C85.2629 71.6634 81.2834 71.6634 78.8289 74.1178C76.3745 76.5723 76.3745 80.5518 78.8289 83.0062L88.3099 92.4872L78.8289 101.968C76.3745 104.423 76.3745 108.402 78.8289 110.856C81.2834 113.311 85.2629 113.311 87.7173 110.856L97.1982 101.376L106.679 110.856C109.134 113.311 113.113 113.311 115.568 110.856C118.022 108.402 118.022 104.423 115.568 101.968L106.087 92.4872L115.568 83.0062C118.022 80.5518 118.022 76.5723 115.568 74.1178Z" fill="url(#paint21_linear_896_5857)"/>
<path d="M115.568 74.1178C113.113 71.6634 109.134 71.6634 106.679 74.1178L97.1982 83.5988L87.7173 74.1178C85.2629 71.6634 81.2834 71.6634 78.8289 74.1178C76.3745 76.5723 76.3745 80.5518 78.8289 83.0062L88.3099 92.4872L78.8289 101.968C76.3745 104.423 76.3745 108.402 78.8289 110.856C81.2834 113.311 85.2629 113.311 87.7173 110.856L97.1982 101.376L106.679 110.856C109.134 113.311 113.113 113.311 115.568 110.856C118.022 108.402 118.022 104.423 115.568 101.968L106.087 92.4872L115.568 83.0062C118.022 80.5518 118.022 76.5723 115.568 74.1178Z" fill="url(#paint22_linear_896_5857)"/>
<path d="M115.568 74.1178C113.113 71.6634 109.134 71.6634 106.679 74.1178L97.1982 83.5988L87.7173 74.1178C85.2629 71.6634 81.2834 71.6634 78.8289 74.1178C76.3745 76.5723 76.3745 80.5518 78.8289 83.0062L88.3099 92.4872L78.8289 101.968C76.3745 104.423 76.3745 108.402 78.8289 110.856C81.2834 113.311 85.2629 113.311 87.7173 110.856L97.1982 101.376L106.679 110.856C109.134 113.311 113.113 113.311 115.568 110.856C118.022 108.402 118.022 104.423 115.568 101.968L106.087 92.4872L115.568 83.0062C118.022 80.5518 118.022 76.5723 115.568 74.1178Z" fill="url(#paint23_linear_896_5857)"/>
<path d="M115.568 74.1178C113.113 71.6634 109.134 71.6634 106.679 74.1178L97.1982 83.5988L87.7173 74.1178C85.2629 71.6634 81.2834 71.6634 78.8289 74.1178C76.3745 76.5723 76.3745 80.5518 78.8289 83.0062L88.3099 92.4872L78.8289 101.968C76.3745 104.423 76.3745 108.402 78.8289 110.856C81.2834 113.311 85.2629 113.311 87.7173 110.856L97.1982 101.376L106.679 110.856C109.134 113.311 113.113 113.311 115.568 110.856C118.022 108.402 118.022 104.423 115.568 101.968L106.087 92.4872L115.568 83.0062C118.022 80.5518 118.022 76.5723 115.568 74.1178Z" fill="url(#paint24_radial_896_5857)"/>
<path d="M115.568 74.1178C113.113 71.6634 109.134 71.6634 106.679 74.1178L97.1982 83.5988L87.7173 74.1178C85.2629 71.6634 81.2834 71.6634 78.8289 74.1178C76.3745 76.5723 76.3745 80.5518 78.8289 83.0062L88.3099 92.4872L78.8289 101.968C76.3745 104.423 76.3745 108.402 78.8289 110.856C81.2834 113.311 85.2629 113.311 87.7173 110.856L97.1982 101.376L106.679 110.856C109.134 113.311 113.113 113.311 115.568 110.856C118.022 108.402 118.022 104.423 115.568 101.968L106.087 92.4872L115.568 83.0062C118.022 80.5518 118.022 76.5723 115.568 74.1178Z" fill="url(#paint25_radial_896_5857)" fill-opacity="0.62"/>
<path d="M115.568 74.1178C113.113 71.6634 109.134 71.6634 106.679 74.1178L97.1982 83.5988L87.7173 74.1178C85.2629 71.6634 81.2834 71.6634 78.8289 74.1178C76.3745 76.5723 76.3745 80.5518 78.8289 83.0062L88.3099 92.4872L78.8289 101.968C76.3745 104.423 76.3745 108.402 78.8289 110.856C81.2834 113.311 85.2629 113.311 87.7173 110.856L97.1982 101.376L106.679 110.856C109.134 113.311 113.113 113.311 115.568 110.856C118.022 108.402 118.022 104.423 115.568 101.968L106.087 92.4872L115.568 83.0062C118.022 80.5518 118.022 76.5723 115.568 74.1178Z" fill="url(#paint26_radial_896_5857)" fill-opacity="0.6"/>
<path d="M115.568 74.1178C113.113 71.6634 109.134 71.6634 106.679 74.1178L97.1982 83.5988L87.7173 74.1178C85.2629 71.6634 81.2834 71.6634 78.8289 74.1178C76.3745 76.5723 76.3745 80.5518 78.8289 83.0062L88.3099 92.4872L78.8289 101.968C76.3745 104.423 76.3745 108.402 78.8289 110.856C81.2834 113.311 85.2629 113.311 87.7173 110.856L97.1982 101.376L106.679 110.856C109.134 113.311 113.113 113.311 115.568 110.856C118.022 108.402 118.022 104.423 115.568 101.968L106.087 92.4872L115.568 83.0062C118.022 80.5518 118.022 76.5723 115.568 74.1178Z" fill="url(#paint27_radial_896_5857)" fill-opacity="0.7"/>
<path d="M115.568 74.1178C113.113 71.6634 109.134 71.6634 106.679 74.1178L97.1982 83.5988L87.7173 74.1178C85.2629 71.6634 81.2834 71.6634 78.8289 74.1178C76.3745 76.5723 76.3745 80.5518 78.8289 83.0062L88.3099 92.4872L78.8289 101.968C76.3745 104.423 76.3745 108.402 78.8289 110.856C81.2834 113.311 85.2629 113.311 87.7173 110.856L97.1982 101.376L106.679 110.856C109.134 113.311 113.113 113.311 115.568 110.856C118.022 108.402 118.022 104.423 115.568 101.968L106.087 92.4872L115.568 83.0062C118.022 80.5518 118.022 76.5723 115.568 74.1178Z" fill="url(#paint28_radial_896_5857)"/>
<path d="M115.568 74.1178C113.113 71.6634 109.134 71.6634 106.679 74.1178L97.1982 83.5988L87.7173 74.1178C85.2629 71.6634 81.2834 71.6634 78.8289 74.1178C76.3745 76.5723 76.3745 80.5518 78.8289 83.0062L88.3099 92.4872L78.8289 101.968C76.3745 104.423 76.3745 108.402 78.8289 110.856C81.2834 113.311 85.2629 113.311 87.7173 110.856L97.1982 101.376L106.679 110.856C109.134 113.311 113.113 113.311 115.568 110.856C118.022 108.402 118.022 104.423 115.568 101.968L106.087 92.4872L115.568 83.0062C118.022 80.5518 118.022 76.5723 115.568 74.1178Z" fill="url(#paint29_radial_896_5857)"/>
<circle cx="132.021" cy="31.2637" r="17.6836" fill="url(#paint30_linear_896_5857)"/>
<circle cx="132.021" cy="31.2637" r="17.6836" fill="url(#paint31_linear_896_5857)"/>
<path d="M149.48 34.0853C148.13 42.5109 140.827 48.948 132.021 48.948C122.254 48.948 114.337 41.0308 114.337 31.2644C114.337 29.0254 114.753 26.8836 115.512 24.9121L149.48 34.0853Z" fill="url(#paint32_radial_896_5857)"/>
<path d="M149.48 34.0853C148.13 42.5109 140.827 48.948 132.021 48.948C122.254 48.948 114.337 41.0308 114.337 31.2644C114.337 29.0254 114.753 26.8836 115.512 24.9121L149.48 34.0853Z" fill="url(#paint33_radial_896_5857)" fill-opacity="0.6"/>
<path d="M149.48 34.0853C148.13 42.5109 140.827 48.948 132.021 48.948C122.254 48.948 114.337 41.0308 114.337 31.2644C114.337 29.0254 114.753 26.8836 115.512 24.9121L149.48 34.0853Z" fill="url(#paint34_radial_896_5857)" fill-opacity="0.9"/>
<path d="M33.029 107.069C33.1509 107.071 33.273 107.072 33.3954 107.072C43.1618 107.072 51.079 99.1551 51.079 89.3887C51.079 79.6223 43.1618 71.7051 33.3954 71.7051C31.4626 71.7051 29.6023 72.0152 27.8613 72.5883C28.2023 83.4491 29.666 95.3716 33.029 107.069Z" fill="url(#paint35_radial_896_5857)"/>
<path d="M33.029 107.069C33.1509 107.071 33.273 107.072 33.3954 107.072C43.1618 107.072 51.079 99.1551 51.079 89.3887C51.079 79.6223 43.1618 71.7051 33.3954 71.7051C31.4626 71.7051 29.6023 72.0152 27.8613 72.5883C28.2023 83.4491 29.666 95.3716 33.029 107.069Z" fill="url(#paint36_radial_896_5857)" fill-opacity="0.8"/>
<path d="M33.029 107.069C33.1509 107.071 33.273 107.072 33.3954 107.072C43.1618 107.072 51.079 99.1551 51.079 89.3887C51.079 79.6223 43.1618 71.7051 33.3954 71.7051C31.4626 71.7051 29.6023 72.0152 27.8613 72.5883C28.2023 83.4491 29.666 95.3716 33.029 107.069Z" fill="url(#paint37_radial_896_5857)" fill-opacity="0.4"/>
<circle cx="146.265" cy="134.907" r="17.6836" fill="url(#paint38_linear_896_5857)"/>
<path d="M154.417 119.211C151.978 117.941 149.205 117.224 146.265 117.224C136.498 117.224 128.581 125.141 128.581 134.907C128.581 140.72 131.386 145.879 135.717 149.102C141.19 142.713 146.444 135.213 150.991 126.504C152.24 124.112 153.38 121.677 154.417 119.211Z" fill="url(#paint39_radial_896_5857)"/>
<path d="M154.417 119.211C151.978 117.941 149.205 117.224 146.265 117.224C136.498 117.224 128.581 125.141 128.581 134.907C128.581 140.72 131.386 145.879 135.717 149.102C141.19 142.713 146.444 135.213 150.991 126.504C152.24 124.112 153.38 121.677 154.417 119.211Z" fill="url(#paint40_radial_896_5857)" fill-opacity="0.8"/>
<path d="M154.417 119.211C151.978 117.941 149.205 117.224 146.265 117.224C136.498 117.224 128.581 125.141 128.581 134.907C128.581 140.72 131.386 145.879 135.717 149.102C141.19 142.713 146.444 135.213 150.991 126.504C152.24 124.112 153.38 121.677 154.417 119.211Z" fill="url(#paint41_radial_896_5857)" fill-opacity="0.4"/>
<path fill-rule="evenodd" clip-rule="evenodd" d="M154.819 118.574L154.763 118.546C152.22 117.222 149.328 116.474 146.265 116.474C136.084 116.474 127.831 124.727 127.831 134.907C127.831 140.968 130.756 146.345 135.269 149.703L135.287 149.717C140.975 143.179 146.447 135.452 151.16 126.427C152.503 123.854 153.719 121.231 154.819 118.574ZM128.581 134.907C128.581 140.72 131.386 145.879 135.717 149.102C141.19 142.713 146.444 135.213 150.991 126.504C152.24 124.112 153.38 121.677 154.417 119.211C151.978 117.941 149.205 117.224 146.265 117.224C136.498 117.224 128.581 125.141 128.581 134.907Z" fill="#F2F1F3"/>
<path d="M155.078 119.573C154.041 122.033 152.903 124.463 151.656 126.851C147.093 135.591 141.822 143.121 136.33 149.539C136.122 149.397 135.918 149.252 135.717 149.102C141.19 142.713 146.444 135.213 150.991 126.504C152.24 124.112 153.38 121.677 154.417 119.211C154.64 119.327 154.861 119.448 155.078 119.573Z" fill="#F2F1F3"/>
<path d="M97.4427 58.126C97.4427 58.5637 97.0882 58.9185 96.6502 58.9185C96.2122 58.9185 95.8577 58.5637 95.8577 58.126C95.8577 57.6883 96.2122 57.3335 96.6502 57.3335C97.0882 57.3335 97.4427 57.6883 97.4427 58.126Z" fill="#D6A5FF"/>
<path d="M126.29 70.2133C126.29 70.651 125.935 71.0058 125.497 71.0058C125.059 71.0058 124.705 70.651 124.705 70.2133C124.705 69.7757 125.059 69.4208 125.497 69.4208C125.935 69.4208 126.29 69.7757 126.29 70.2133Z" fill="#D6A5FF"/>
<path d="M127.027 61.8128C127.465 61.8128 127.819 61.458 127.819 61.0203C127.819 60.5826 127.465 60.2278 127.027 60.2278C126.589 60.2278 126.234 60.5826 126.234 61.0203C126.234 61.458 126.589 61.8128 127.027 61.8128Z" fill="#D6A5FF"/>
<path d="M106.104 62.3826C106.104 62.6973 105.849 62.9524 105.535 62.9524C105.22 62.9524 104.965 62.6973 104.965 62.3826C104.965 62.0679 105.22 61.8128 105.535 61.8128C105.849 61.8128 106.104 62.0679 106.104 62.3826Z" fill="#D6A5FF"/>
<path d="M99.2371 71.0058C99.5521 71.0058 99.807 70.7507 99.807 70.436C99.807 70.1213 99.5521 69.8662 99.2371 69.8662C98.9222 69.8662 98.6673 70.1213 98.6673 70.436C98.6673 70.7507 98.9222 71.0058 99.2371 71.0058Z" fill="#D6A5FF"/>
<path d="M123.271 85.9717C123.271 86.2864 123.016 86.5415 122.701 86.5415C122.387 86.5415 122.132 86.2864 122.132 85.9717C122.132 85.657 122.387 85.4018 122.701 85.4018C123.016 85.4018 123.271 85.657 123.271 85.9717Z" fill="#D6A5FF"/>
<path d="M97.3944 74.9997C97.7093 74.9997 97.9642 74.7446 97.9642 74.4299C97.9642 74.1152 97.7093 73.86 97.3944 73.86C97.0794 73.86 96.8245 74.1152 96.8245 74.4299C96.8245 74.7446 97.0794 74.9997 97.3944 74.9997Z" fill="#D6A5FF"/>
<path d="M128.389 65.6949C128.704 65.6949 128.959 65.4398 128.959 65.1251C128.959 64.8104 128.704 64.5553 128.389 64.5553C128.074 64.5553 127.819 64.8104 127.819 65.1251C127.819 65.4398 128.074 65.6949 128.389 65.6949Z" fill="#D6A5FF"/>
<path d="M133.936 68.851C133.936 69.1657 133.681 69.4208 133.367 69.4208C133.052 69.4208 132.797 69.1657 132.797 68.851C132.797 68.5363 133.052 68.2812 133.367 68.2812C133.681 68.2812 133.936 68.5363 133.936 68.851Z" fill="#D6A5FF"/>
<path d="M104.308 58.5223C104.575 58.5223 104.792 58.306 104.792 58.0392C104.792 57.7724 104.575 57.5562 104.308 57.5562C104.042 57.5562 103.825 57.7724 103.825 58.0392C103.825 58.306 104.042 58.5223 104.308 58.5223Z" fill="#D6A5FF"/>
<path d="M96.3411 73.86C96.6077 73.86 96.8245 73.6438 96.8245 73.377C96.8245 73.1102 96.6077 72.8939 96.3411 72.8939C96.0745 72.8939 95.8577 73.1102 95.8577 73.377C95.8577 73.6438 96.0745 73.86 96.3411 73.86Z" fill="#D6A5FF"/>
<path d="M118.605 58.126C118.605 58.3928 118.389 58.6091 118.122 58.6091C117.855 58.6091 117.639 58.3928 117.639 58.126C117.639 57.8592 117.855 57.6429 118.122 57.6429C118.389 57.6429 118.605 57.8592 118.605 58.126Z" fill="#D6A5FF"/>
<path d="M131.326 78.0098C131.593 78.0098 131.809 77.7935 131.809 77.5267C131.809 77.2599 131.593 77.0436 131.326 77.0436C131.059 77.0436 130.843 77.2599 130.843 77.5267C130.843 77.7935 131.059 78.0098 131.326 78.0098Z" fill="#D6A5FF"/>
<path d="M76.989 66.7478C76.989 67.0625 76.7341 67.3177 76.4191 67.3177C76.1042 67.3177 75.8493 67.0625 75.8493 66.7478C75.8493 66.4331 76.1042 66.178 76.4191 66.178C76.7341 66.178 76.989 66.4331 76.989 66.7478Z" fill="#D6A5FF"/>
<path d="M75.2795 66.178C75.2795 66.4448 75.0627 66.6611 74.7961 66.6611C74.5295 66.6611 74.3127 66.4448 74.3127 66.178C74.3127 65.9112 74.5295 65.6949 74.7961 65.6949C75.0627 65.6949 75.2795 65.9112 75.2795 66.178Z" fill="#D6A5FF"/>
<path d="M93.1024 136.026C93.1024 136.464 92.7479 136.818 92.3099 136.818C91.8719 136.818 91.5174 136.464 91.5174 136.026C91.5174 135.588 91.8719 135.233 92.3099 135.233C92.7479 135.233 93.1024 135.588 93.1024 136.026Z" fill="#D6A5FF"/>
<path d="M93.8392 127.625C94.2772 127.625 94.6317 127.27 94.6317 126.833C94.6317 126.395 94.2772 126.04 93.8392 126.04C93.4012 126.04 93.0467 126.395 93.0467 126.833C93.0467 127.27 93.4012 127.625 93.8392 127.625Z" fill="#D6A5FF"/>
<path d="M95.2015 131.507C95.5164 131.507 95.7713 131.252 95.7713 130.938C95.7713 130.623 95.5164 130.368 95.2015 130.368C94.8866 130.368 94.6317 130.623 94.6317 130.938C94.6317 131.252 94.8866 131.507 95.2015 131.507Z" fill="#D6A5FF"/>
<path d="M100.749 134.664C100.749 134.978 100.494 135.233 100.179 135.233C99.8641 135.233 99.6092 134.978 99.6092 134.664C99.6092 134.349 99.8641 134.094 100.179 134.094C100.494 134.094 100.749 134.349 100.749 134.664Z" fill="#D6A5FF"/>
<path d="M85.4178 123.938C85.4178 124.205 85.201 124.422 84.9344 124.422C84.6678 124.422 84.451 124.205 84.451 123.938C84.451 123.672 84.6678 123.455 84.9344 123.455C85.201 123.455 85.4178 123.672 85.4178 123.938Z" fill="#D6A5FF"/>
<path d="M58.5839 80.8558C58.5839 81.1705 58.329 81.4256 58.014 81.4256C57.6991 81.4256 57.4442 81.1705 57.4442 80.8558C57.4442 80.5411 57.6991 80.286 58.014 80.286C58.329 80.286 58.5839 80.5411 58.5839 80.8558Z" fill="#D6A5FF"/>
<path d="M66.6386 72.8939C66.9052 72.8939 67.122 72.6776 67.122 72.4108C67.122 72.144 66.9052 71.9277 66.6386 71.9277C66.372 71.9277 66.1552 72.144 66.1552 72.4108C66.1552 72.6776 66.372 72.8939 66.6386 72.8939Z" fill="#D6A5FF"/>
<path d="M119.727 96.9385C119.727 97.3762 119.373 97.731 118.935 97.731C118.497 97.731 118.142 97.3762 118.142 96.9385C118.142 96.5008 118.497 96.146 118.935 96.146C119.373 96.146 119.727 96.5008 119.727 96.9385Z" fill="#D6A5FF"/>
<path d="M128.389 101.195C128.389 101.51 128.134 101.765 127.819 101.765C127.504 101.765 127.249 101.51 127.249 101.195C127.249 100.88 127.504 100.625 127.819 100.625C128.134 100.625 128.389 100.88 128.389 101.195Z" fill="#D6A5FF"/>
<path d="M126.593 97.3348C126.86 97.3348 127.076 97.1185 127.076 96.8517C127.076 96.5849 126.86 96.3687 126.593 96.3687C126.326 96.3687 126.11 96.5849 126.11 96.8517C126.11 97.1185 126.326 97.3348 126.593 97.3348Z" fill="#D6A5FF"/>
<path d="M61.6961 100.313C61.6961 100.751 61.3416 101.106 60.9036 101.106C60.4657 101.106 60.1112 100.751 60.1112 100.313C60.1112 99.8758 60.4657 99.521 60.9036 99.521C61.3416 99.521 61.6961 99.8758 61.6961 100.313Z" fill="#D6A5FF"/>
<path d="M70.3577 104.57C70.3577 104.885 70.1029 105.14 69.7879 105.14C69.473 105.14 69.2181 104.885 69.2181 104.57C69.2181 104.255 69.473 104 69.7879 104C70.1029 104 70.3577 104.255 70.3577 104.57Z" fill="#D6A5FF"/>
<path d="M68.5619 100.71C68.8285 100.71 69.0452 100.494 69.0452 100.227C69.0452 99.9599 68.8285 99.7437 68.5619 99.7437C68.2952 99.7437 68.0785 99.9599 68.0785 100.227C68.0785 100.494 68.2952 100.71 68.5619 100.71Z" fill="#D6A5FF"/>
<path d="M109.925 125.561C110.24 125.561 110.494 125.306 110.494 124.991C110.494 124.677 110.24 124.422 109.925 124.422C109.61 124.422 109.355 124.677 109.355 124.991C109.355 125.306 109.61 125.561 109.925 125.561Z" fill="#D6A5FF"/>
<path d="M108.082 129.555C108.397 129.555 108.652 129.3 108.652 128.985C108.652 128.671 108.397 128.415 108.082 128.415C107.767 128.415 107.512 128.671 107.512 128.985C107.512 129.3 107.767 129.555 108.082 129.555Z" fill="#D6A5FF"/>
<path d="M107.029 128.415C107.295 128.415 107.512 128.199 107.512 127.932C107.512 127.666 107.295 127.449 107.029 127.449C106.762 127.449 106.545 127.666 106.545 127.932C106.545 128.199 106.762 128.415 107.029 128.415Z" fill="#D6A5FF"/>
<path d="M121.909 113.563C122.347 113.563 122.701 113.208 122.701 112.77C122.701 112.333 122.347 111.978 121.909 111.978C121.471 111.978 121.117 112.333 121.117 112.77C121.117 113.208 121.471 113.563 121.909 113.563Z" fill="#D6A5FF"/>
<path d="M123.271 117.445C123.586 117.445 123.841 117.19 123.841 116.875C123.841 116.56 123.586 116.305 123.271 116.305C122.956 116.305 122.701 116.56 122.701 116.875C122.701 117.19 122.956 117.445 123.271 117.445Z" fill="#D6A5FF"/>
<path d="M71.1502 116.75C71.5882 116.75 71.9427 116.395 71.9427 115.958C71.9427 115.52 71.5882 115.165 71.1502 115.165C70.7122 115.165 70.3577 115.52 70.3577 115.958C70.3577 116.395 70.7122 116.75 71.1502 116.75Z" fill="#D6A5FF"/>
<path d="M72.5125 120.632C72.8275 120.632 73.0824 120.377 73.0824 120.063C73.0824 119.748 72.8275 119.493 72.5125 119.493C72.1976 119.493 71.9427 119.748 71.9427 120.063C71.9427 120.377 72.1976 120.632 72.5125 120.632Z" fill="#D6A5FF"/>
<path d="M64.119 87.5566C64.557 87.5566 64.9115 87.2018 64.9115 86.7641C64.9115 86.3265 64.557 85.9717 64.119 85.9717C63.681 85.9717 63.3265 86.3265 63.3265 86.7641C63.3265 87.2018 63.681 87.5566 64.119 87.5566Z" fill="#D6A5FF"/>
<path d="M65.4813 91.4388C65.7962 91.4388 66.0511 91.1837 66.0511 90.8689C66.0511 90.5542 65.7962 90.2991 65.4813 90.2991C65.1663 90.2991 64.9115 90.5542 64.9115 90.8689C64.9115 91.1837 65.1663 91.4388 65.4813 91.4388Z" fill="#D6A5FF"/>
<path d="M83.619 57.3335C84.057 57.3335 84.4115 56.9787 84.4115 56.541C84.4115 56.1033 84.057 55.7485 83.619 55.7485C83.181 55.7485 82.8265 56.1033 82.8265 56.541C82.8265 56.9787 83.181 57.3335 83.619 57.3335Z" fill="#D6A5FF"/>
<path d="M84.9813 61.2157C85.2962 61.2157 85.5511 60.9605 85.5511 60.6458C85.5511 60.3311 85.2962 60.076 84.9813 60.076C84.6663 60.076 84.4115 60.3311 84.4115 60.6458C84.4115 60.9605 84.6663 61.2157 84.9813 61.2157Z" fill="#D6A5FF"/>
<path d="M60.3338 64.399C60.7718 64.399 61.1263 64.0442 61.1263 63.6066C61.1263 63.1689 60.7718 62.8141 60.3338 62.8141C59.8958 62.8141 59.5413 63.1689 59.5413 63.6066C59.5413 64.0442 59.8958 64.399 60.3338 64.399Z" fill="#D6A5FF"/>
<path d="M61.6961 68.2812C62.0111 68.2812 62.266 68.0261 62.266 67.7114C62.266 67.3967 62.0111 67.1416 61.6961 67.1416C61.3812 67.1416 61.1263 67.3967 61.1263 67.7114C61.1263 68.0261 61.3812 68.2812 61.6961 68.2812Z" fill="#D6A5FF"/>
<path d="M115.799 24.2119L149.584 33.3357C149.555 33.5869 149.52 33.8366 149.48 34.0845L115.512 24.9114C114.805 26.7485 114.395 28.7334 114.343 30.8071C114.402 28.4674 114.916 26.2407 115.799 24.2119Z" fill="#F2F1F3"/>
<path fill-rule="evenodd" clip-rule="evenodd" d="M114.827 24.603L114.812 24.6417C114.021 26.6978 113.587 28.9309 113.587 31.2635C113.587 41.4441 121.84 49.6971 132.021 49.6971C141.201 49.6971 148.813 42.9866 150.221 34.2031L150.227 34.1629L114.827 24.603ZM115.512 24.9114L149.48 34.0845C148.13 42.5101 140.827 48.9471 132.021 48.9471C122.254 48.9471 114.337 41.0299 114.337 31.2635C114.337 29.0245 114.753 26.8829 115.512 24.9114Z" fill="#F2F1F3"/>
<path d="M32.2393 107.035C28.9289 95.4292 27.4733 83.621 27.1194 72.8512C27.3641 72.7583 27.6115 72.6706 27.8613 72.5884C28.2023 83.4492 29.666 95.3717 33.029 107.069C32.7643 107.063 32.501 107.052 32.2393 107.035Z" fill="#F2F1F3"/>
<path d="M33.3955 107.072C33.3955 107.072 33.3955 107.072 33.3955 107.072V107.072Z" fill="#F2F1F3"/>
<path d="M33.4398 107.822C43.5999 107.798 51.829 99.5545 51.829 89.3887C51.829 79.2081 43.576 70.9551 33.3954 70.9551C31.5221 70.9551 29.7129 71.2347 28.0078 71.7551C28.0147 72.0139 28.0223 72.2734 28.0305 72.5335C29.7226 71.9954 31.5251 71.7051 33.3954 71.7051C43.1618 71.7051 51.0791 79.6224 51.0791 89.3888C51.0791 99.1551 43.1619 107.072 33.3955 107.072C33.3372 107.072 33.2788 107.072 33.2206 107.071C33.2928 107.322 33.3658 107.572 33.4398 107.822Z" fill="#F2F1F3"/>
<defs>
<linearGradient id="paint0_linear_896_5857" x1="67.186" y1="88.9775" x2="17.563" y2="238.975" gradientUnits="userSpaceOnUse">
<stop offset="0.270833" stop-color="#E7E7E7"/>
<stop offset="0.640974" stop-color="#C5B4E3"/>
</linearGradient>
<radialGradient id="paint1_radial_896_5857" cx="0" cy="0" r="1" gradientUnits="userSpaceOnUse" gradientTransform="translate(108.971 131.277) rotate(-139.559) scale(40.0376 81.8667)">
<stop offset="0.327302" stop-color="#AFB3B7"/>
<stop offset="0.478215" stop-color="#AFB3B7" stop-opacity="0"/>
</radialGradient>
<radialGradient id="paint2_radial_896_5857" cx="0" cy="0" r="1" gradientUnits="userSpaceOnUse" gradientTransform="translate(32.625 96.241) rotate(49.5503) scale(38.4375 36.2177)">
<stop offset="0.355757" stop-color="#AFB3B7"/>
<stop offset="0.478215" stop-color="#AFB3B7" stop-opacity="0"/>
</radialGradient>
<radialGradient id="paint3_radial_896_5857" cx="0" cy="0" r="1" gradientUnits="userSpaceOnUse" gradientTransform="translate(128.25 33.241) rotate(101.129) scale(46.6268 43.9341)">
<stop offset="0.355757" stop-color="#AFB3B7"/>
<stop offset="0.478215" stop-color="#AFB3B7" stop-opacity="0"/>
</radialGradient>
<radialGradient id="paint4_radial_896_5857" cx="0" cy="0" r="1" gradientUnits="userSpaceOnUse" gradientTransform="translate(142.5 140.116) rotate(110.788) scale(43.3202 40.8184)">
<stop offset="0.355757" stop-color="#AFB3B7"/>
<stop offset="0.478215" stop-color="#AFB3B7" stop-opacity="0"/>
</radialGradient>
<radialGradient id="paint5_radial_896_5857" cx="0" cy="0" r="1" gradientUnits="userSpaceOnUse" gradientTransform="translate(71.6273 109.561) rotate(-22.1094) scale(50.335 127.671)">
<stop offset="0.302083" stop-color="#AFB3B7"/>
<stop offset="0.423716" stop-color="#AFB3B7" stop-opacity="0"/>
</radialGradient>
<linearGradient id="paint6_linear_896_5857" x1="67.186" y1="88.9775" x2="17.563" y2="238.975" gradientUnits="userSpaceOnUse">
<stop offset="0.270833" stop-color="#E7E7E7"/>
<stop offset="0.640974" stop-color="#C5B4E3"/>
</linearGradient>
<radialGradient id="paint7_radial_896_5857" cx="0" cy="0" r="1" gradientUnits="userSpaceOnUse" gradientTransform="translate(108.971 131.277) rotate(-139.559) scale(40.0376 81.8667)">
<stop offset="0.327302" stop-color="#AFB3B7"/>
<stop offset="0.478215" stop-color="#AFB3B7" stop-opacity="0"/>
</radialGradient>
<radialGradient id="paint8_radial_896_5857" cx="0" cy="0" r="1" gradientUnits="userSpaceOnUse" gradientTransform="translate(32.625 96.241) rotate(49.5503) scale(38.4375 36.2177)">
<stop offset="0.355757" stop-color="#AFB3B7"/>
<stop offset="0.478215" stop-color="#AFB3B7" stop-opacity="0"/>
</radialGradient>
<radialGradient id="paint9_radial_896_5857" cx="0" cy="0" r="1" gradientUnits="userSpaceOnUse" gradientTransform="translate(128.25 33.241) rotate(101.129) scale(46.6268 43.9341)">
<stop offset="0.355757" stop-color="#AFB3B7"/>
<stop offset="0.478215" stop-color="#AFB3B7" stop-opacity="0"/>
</radialGradient>
<radialGradient id="paint10_radial_896_5857" cx="0" cy="0" r="1" gradientUnits="userSpaceOnUse" gradientTransform="translate(142.5 140.116) rotate(110.788) scale(43.3202 40.8184)">
<stop offset="0.355757" stop-color="#AFB3B7"/>
<stop offset="0.478215" stop-color="#AFB3B7" stop-opacity="0"/>
</radialGradient>
<radialGradient id="paint11_radial_896_5857" cx="0" cy="0" r="1" gradientUnits="userSpaceOnUse" gradientTransform="translate(71.6273 109.561) rotate(-22.1094) scale(50.335 127.671)">
<stop offset="0.302083" stop-color="#AFB3B7"/>
<stop offset="0.423716" stop-color="#AFB3B7" stop-opacity="0"/>
</radialGradient>
<linearGradient id="paint12_linear_896_5857" x1="48.9356" y1="69.4666" x2="9.71297" y2="128.842" gradientUnits="userSpaceOnUse">
<stop offset="0.367698" stop-color="#E7E7E7"/>
<stop offset="0.788937" stop-color="#C5B4E3"/>
</linearGradient>
<linearGradient id="paint13_linear_896_5857" x1="48.9356" y1="69.4666" x2="9.71297" y2="128.842" gradientUnits="userSpaceOnUse">
<stop offset="0.367698" stop-color="#E7E7E7"/>
<stop offset="0.788937" stop-color="#C5B4E3"/>
</linearGradient>
<linearGradient id="paint14_linear_896_5857" x1="48.9356" y1="69.4666" x2="9.71297" y2="128.842" gradientUnits="userSpaceOnUse">
<stop offset="0.367698" stop-color="#E7E7E7"/>
<stop offset="0.788937" stop-color="#C5B4E3"/>
</linearGradient>
<radialGradient id="paint15_radial_896_5857" cx="0" cy="0" r="1" gradientUnits="userSpaceOnUse" gradientTransform="translate(114.988 94.988) rotate(-180) scale(118.597 184.479)">
<stop offset="0.435763" stop-color="#FFF1E4"/>
<stop offset="1" stop-color="#FFF1E4"/>
</radialGradient>
<radialGradient id="paint16_radial_896_5857" cx="0" cy="0" r="1" gradientUnits="userSpaceOnUse" gradientTransform="translate(71.4149 44.6851) rotate(77.2582) scale(62.8821 155.929)">
<stop offset="0.135417" stop-color="#DFC0A7"/>
<stop offset="0.371058" stop-color="#DFC0A7" stop-opacity="0"/>
</radialGradient>
<radialGradient id="paint17_radial_896_5857" cx="0" cy="0" r="1" gradientUnits="userSpaceOnUse" gradientTransform="translate(123.637 41.2941) rotate(101.162) scale(29.4412 96.1243)">
<stop offset="0.4375" stop-color="#DFC0A7"/>
<stop offset="1" stop-color="#DFC0A7" stop-opacity="0"/>
</radialGradient>
<radialGradient id="paint18_radial_896_5857" cx="0" cy="0" r="1" gradientUnits="userSpaceOnUse" gradientTransform="translate(98.6772 98.5109) rotate(45) scale(11.1503 29.5183)">
<stop offset="0.572917" stop-color="#DFC0A7"/>
<stop offset="1" stop-color="#DFC0A7" stop-opacity="0"/>
</radialGradient>
<radialGradient id="paint19_radial_896_5857" cx="0" cy="0" r="1" gradientUnits="userSpaceOnUse" gradientTransform="translate(90.4691 98.6827) rotate(43.9391) scale(29.9945 11.8581)">
<stop stop-color="#DFC0A7"/>
<stop offset="0.473958" stop-color="#DFC0A7"/>
<stop offset="1" stop-color="#DFC0A7" stop-opacity="0"/>
</radialGradient>
<linearGradient id="paint20_linear_896_5857" x1="99.4268" y1="104.219" x2="89.0373" y2="93.5156" gradientUnits="userSpaceOnUse">
<stop offset="0.153563" stop-color="#C668FF"/>
<stop offset="0.240222" stop-color="#EAC8FF"/>
<stop offset="0.385417" stop-color="#9126D0"/>
<stop offset="0.55281" stop-color="#9126D0" stop-opacity="0.315315"/>
<stop offset="0.77314" stop-color="#C668FF" stop-opacity="0"/>
</linearGradient>
<linearGradient id="paint21_linear_896_5857" x1="96.4938" y1="107.571" x2="110.111" y2="93.4855" gradientUnits="userSpaceOnUse">
<stop offset="0.153563" stop-color="#C668FF" stop-opacity="0"/>
<stop offset="0.240222" stop-color="#EAC8FF"/>
<stop offset="0.385417" stop-color="#9126D0"/>
<stop offset="0.55281" stop-color="#9126D0" stop-opacity="0.315315"/>
<stop offset="0.77314" stop-color="#C668FF" stop-opacity="0"/>
</linearGradient>
<linearGradient id="paint22_linear_896_5857" x1="76.978" y1="77.6984" x2="79.6537" y2="84.5298" gradientUnits="userSpaceOnUse">
<stop stop-color="#A427F0"/>
<stop offset="1" stop-color="#BC4FFF" stop-opacity="0"/>
</linearGradient>
<linearGradient id="paint23_linear_896_5857" x1="85.1808" y1="114.694" x2="85.8804" y2="96.2422" gradientUnits="userSpaceOnUse">
<stop stop-color="#8215C2"/>
<stop offset="0.390625" stop-color="#9126D0" stop-opacity="0.428977"/>
<stop offset="0.526042" stop-color="#9126D0" stop-opacity="0.236848"/>
<stop offset="0.820896" stop-color="#9126D0" stop-opacity="0"/>
</linearGradient>
<radialGradient id="paint24_radial_896_5857" cx="0" cy="0" r="1" gradientUnits="userSpaceOnUse" gradientTransform="translate(97.1982 92.4872) rotate(146.901) scale(15.3456 17.3348)">
<stop offset="0.497328" stop-color="#C668FF"/>
<stop offset="0.776728" stop-color="#C668FF" stop-opacity="0"/>
</radialGradient>
<radialGradient id="paint25_radial_896_5857" cx="0" cy="0" r="1" gradientUnits="userSpaceOnUse" gradientTransform="translate(105.293 78.6601) rotate(135) scale(21.3321 4.07384)">
<stop stop-color="white"/>
<stop offset="0.395833" stop-color="white" stop-opacity="0.458333"/>
<stop offset="0.98096" stop-color="white" stop-opacity="0"/>
</radialGradient>
<radialGradient id="paint26_radial_896_5857" cx="0" cy="0" r="1" gradientUnits="userSpaceOnUse" gradientTransform="translate(90.2088 80.7551) rotate(-139.185) scale(12.1799 4.7375)">
<stop stop-color="white"/>
<stop offset="0.447917" stop-color="white" stop-opacity="0.442708"/>
<stop offset="1" stop-color="white" stop-opacity="0"/>
</radialGradient>
<radialGradient id="paint27_radial_896_5857" cx="0" cy="0" r="1" gradientUnits="userSpaceOnUse" gradientTransform="translate(84.7618 99.1911) rotate(-43.5312) scale(11.5587 4.07221)">
<stop stop-color="white"/>
<stop offset="0.395558" stop-color="white" stop-opacity="0.458333"/>
<stop offset="1" stop-color="white" stop-opacity="0"/>
</radialGradient>
<radialGradient id="paint28_radial_896_5857" cx="0" cy="0" r="1" gradientUnits="userSpaceOnUse" gradientTransform="translate(97.7508 103.8) rotate(157.62) scale(7.70326)">
<stop offset="0.163934" stop-color="#9126D0"/>
<stop offset="1" stop-color="#9126D0" stop-opacity="0"/>
</radialGradient>
<radialGradient id="paint29_radial_896_5857" cx="0" cy="0" r="1" gradientUnits="userSpaceOnUse" gradientTransform="translate(85.1808 90.3921) rotate(171.87) scale(5.92558)">
<stop offset="0.163934" stop-color="#9126D0"/>
<stop offset="1" stop-color="#9126D0" stop-opacity="0"/>
</radialGradient>
<linearGradient id="paint30_linear_896_5857" x1="147.561" y1="11.3416" x2="108.338" y2="70.7166" gradientUnits="userSpaceOnUse">
<stop offset="0.367698" stop-color="#E7E7E7"/>
<stop offset="0.788937" stop-color="#C5B4E3"/>
</linearGradient>
<linearGradient id="paint31_linear_896_5857" x1="147.561" y1="11.3416" x2="108.338" y2="70.7166" gradientUnits="userSpaceOnUse">
<stop offset="0.367698" stop-color="#E7E7E7"/>
<stop offset="0.788937" stop-color="#C5B4E3"/>
</linearGradient>
<radialGradient id="paint32_radial_896_5857" cx="0" cy="0" r="1" gradientUnits="userSpaceOnUse" gradientTransform="translate(114.337 30.8424) rotate(45.8573) scale(25.2305 36.8897)">
<stop stop-color="#FA56D0"/>
<stop offset="1" stop-color="#FF5C39"/>
</radialGradient>
<radialGradient id="paint33_radial_896_5857" cx="0" cy="0" r="1" gradientUnits="userSpaceOnUse" gradientTransform="translate(133.125 29.3037) rotate(104.47) scale(12.0059 19.4036)">
<stop offset="0.743527" stop-color="#B5293F"/>
<stop offset="1" stop-color="#B5293F" stop-opacity="0"/>
</radialGradient>
<radialGradient id="paint34_radial_896_5857" cx="0" cy="0" r="1" gradientUnits="userSpaceOnUse" gradientTransform="translate(128.927 50.4516) rotate(104.036) scale(12.6006 109.238)">
<stop stop-color="white"/>
<stop offset="1" stop-color="white" stop-opacity="0"/>
</radialGradient>
<radialGradient id="paint35_radial_896_5857" cx="0" cy="0" r="1" gradientUnits="userSpaceOnUse" gradientTransform="translate(27.8613 80.4311) rotate(66.4548) scale(29.0605 31.1346)">
<stop stop-color="#FA56D0"/>
<stop offset="1" stop-color="#FF5C39"/>
</radialGradient>
<radialGradient id="paint36_radial_896_5857" cx="0" cy="0" r="1" gradientUnits="userSpaceOnUse" gradientTransform="translate(35.25 95.1155) rotate(109.799) scale(54.802 62.6208)">
<stop offset="0.236029" stop-color="#B5293F" stop-opacity="0"/>
<stop offset="0.428148" stop-color="#B5293F"/>
</radialGradient>
<radialGradient id="paint37_radial_896_5857" cx="0" cy="0" r="1" gradientUnits="userSpaceOnUse" gradientTransform="translate(36.5682 102.992) rotate(95.1282) scale(16.4216 43.5398)">
<stop stop-color="white"/>
<stop offset="1" stop-color="white" stop-opacity="0"/>
</radialGradient>
<linearGradient id="paint38_linear_896_5857" x1="161.805" y1="114.985" x2="122.582" y2="174.36" gradientUnits="userSpaceOnUse">
<stop offset="0.367698" stop-color="#E7E7E7"/>
<stop offset="0.788937" stop-color="#C5B4E3"/>
</linearGradient>
<radialGradient id="paint39_radial_896_5857" cx="0" cy="0" r="1" gradientUnits="userSpaceOnUse" gradientTransform="translate(128.581 125.089) rotate(61.7214) scale(27.2672 33.2818)">
<stop stop-color="#FA56D0"/>
<stop offset="1" stop-color="#FF5C39"/>
</radialGradient>
<radialGradient id="paint40_radial_896_5857" cx="0" cy="0" r="1" gradientUnits="userSpaceOnUse" gradientTransform="translate(141.499 108.85) rotate(77.8059) scale(18.943 29.1547)">
<stop offset="0.657007" stop-color="#9C172C"/>
<stop offset="1" stop-color="#B5293F" stop-opacity="0"/>
</radialGradient>
<radialGradient id="paint41_radial_896_5857" cx="0" cy="0" r="1" gradientUnits="userSpaceOnUse" gradientTransform="translate(139.382 144.674) rotate(118.393) scale(16.5575 87.6324)">
<stop stop-color="white"/>
<stop offset="1" stop-color="white" stop-opacity="0"/>
</radialGradient>
</defs>
</svg>
