<svg width="513" height="514" viewBox="0 0 513 514" fill="none" xmlns="http://www.w3.org/2000/svg">
<path d="M423.636 240.688L277.63 84.466C265.417 71.323 243.894 71.0338 231.959 84.466C220.034 97.8883 83.636 239.625 83.636 239.625L251.582 378.5L423.636 240.688Z" fill="url(#paint0_radial_3484_125)"/>
<path d="M423.636 240.688L277.63 84.466C265.417 71.323 243.894 71.0338 231.959 84.466C220.034 97.8883 83.636 239.625 83.636 239.625L251.582 378.5L423.636 240.688Z" fill="url(#paint1_radial_3484_125)" fill-opacity="0.5"/>
<path d="M423.636 240.688L277.63 84.466C265.417 71.323 243.894 71.0338 231.959 84.466C220.034 97.8883 83.636 239.625 83.636 239.625L251.582 378.5L423.636 240.688Z" fill="url(#paint2_radial_3484_125)"/>
<path d="M379.636 375.49V192.47L318.148 127.5H158.49C144.765 127.5 133.636 138.723 133.636 152.572V375.5L379.636 375.49Z" fill="url(#paint3_linear_3484_125)"/>
<path d="M379.636 375.49V192.47L318.148 127.5H158.49C144.765 127.5 133.636 138.723 133.636 152.572V375.5L379.636 375.49Z" fill="url(#paint4_radial_3484_125)" fill-opacity="0.2"/>
<path d="M379.636 375.49V192.47L318.148 127.5H158.49C144.765 127.5 133.636 138.723 133.636 152.572V375.5L379.636 375.49Z" fill="url(#paint5_radial_3484_125)"/>
<path d="M379.636 375.49V192.47L318.148 127.5H158.49C144.765 127.5 133.636 138.723 133.636 152.572V375.5L379.636 375.49Z" fill="url(#paint6_radial_3484_125)"/>
<path d="M379.636 375.49V192.47L318.148 127.5H158.49C144.765 127.5 133.636 138.723 133.636 152.572V375.5L379.636 375.49Z" fill="url(#paint7_radial_3484_125)"/>
<path d="M379.636 375.49V192.47L318.148 127.5H158.49C144.765 127.5 133.636 138.723 133.636 152.572V375.5L379.636 375.49Z" fill="url(#paint8_linear_3484_125)"/>
<path d="M333.803 192.5L380.636 191.759L318.636 126.5V177.814C318.636 185.918 325.583 192.5 333.793 192.5H333.803Z" fill="url(#paint9_linear_3484_125)"/>
<path fill-rule="evenodd" clip-rule="evenodd" d="M424.636 239.5C424.556 293.748 424.446 348.476 424.416 402.714C424.433 421.065 408.894 436.516 390.701 436.5C316.768 436.41 180.731 436.3 117.82 436.26C99.4974 436.244 84.2286 420.915 84.1745 402.614L83.6359 239.5L248.201 358.512C251.639 360.995 256.409 360.999 259.851 358.522L424.636 239.5Z" fill="url(#paint10_linear_3484_125)"/>
<path fill-rule="evenodd" clip-rule="evenodd" d="M424.636 239.5C424.556 293.748 424.446 348.476 424.416 402.714C424.433 421.065 408.894 436.516 390.701 436.5C316.768 436.41 180.731 436.3 117.82 436.26C99.4974 436.244 84.2286 420.915 84.1745 402.614L83.6359 239.5L248.201 358.512C251.639 360.995 256.409 360.999 259.851 358.522L424.636 239.5Z" fill="url(#paint11_linear_3484_125)"/>
<path fill-rule="evenodd" clip-rule="evenodd" d="M424.636 239.5C424.556 293.748 424.446 348.476 424.416 402.714C424.433 421.065 408.894 436.516 390.701 436.5C316.768 436.41 180.731 436.3 117.82 436.26C99.4974 436.244 84.2286 420.915 84.1745 402.614L83.6359 239.5L248.201 358.512C251.639 360.995 256.409 360.999 259.851 358.522L424.636 239.5Z" fill="url(#paint12_linear_3484_125)"/>
<path fill-rule="evenodd" clip-rule="evenodd" d="M424.636 239.5C424.556 293.748 424.446 348.476 424.416 402.714C424.433 421.065 408.894 436.516 390.701 436.5C316.768 436.41 180.731 436.3 117.82 436.26C99.4974 436.244 84.2286 420.915 84.1745 402.614L83.6359 239.5L248.201 358.512C251.639 360.995 256.409 360.999 259.851 358.522L424.636 239.5Z" fill="url(#paint13_linear_3484_125)"/>
<path fill-rule="evenodd" clip-rule="evenodd" d="M424.636 239.5C424.556 293.748 424.446 348.476 424.416 402.714C424.433 421.065 408.894 436.516 390.701 436.5C316.768 436.41 180.731 436.3 117.82 436.26C99.4974 436.244 84.2286 420.915 84.1745 402.614L83.6359 239.5L248.201 358.512C251.639 360.995 256.409 360.999 259.851 358.522L424.636 239.5Z" fill="url(#paint14_linear_3484_125)" fill-opacity="0.8"/>
<path fill-rule="evenodd" clip-rule="evenodd" d="M424.636 239.5C424.556 293.748 424.446 348.476 424.416 402.714C424.433 421.065 408.894 436.516 390.701 436.5C316.768 436.41 180.731 436.3 117.82 436.26C99.4974 436.244 84.2286 420.915 84.1745 402.614L83.6359 239.5L248.201 358.512C251.639 360.995 256.409 360.999 259.851 358.522L424.636 239.5Z" fill="url(#paint15_linear_3484_125)"/>
<path fill-rule="evenodd" clip-rule="evenodd" d="M301.738 219.414C306.178 213.17 304.716 204.508 298.472 200.068C292.228 195.628 283.566 197.09 279.126 203.334L250.305 243.865C249.385 245.158 247.513 245.291 246.42 244.14L236.168 233.348C230.891 227.794 222.11 227.568 216.555 232.846C211.001 238.123 210.775 246.904 216.053 252.458L239.873 277.533C240.103 277.781 240.343 278.022 240.593 278.256C242.024 279.598 243.675 280.581 245.427 281.202C247.296 281.867 249.259 282.111 251.183 281.956C252.968 281.813 254.733 281.327 256.369 280.493C258.1 279.614 259.668 278.358 260.943 276.749C261.135 276.508 261.318 276.261 261.492 276.009L301.738 219.414Z" fill="#4ECBFF"/>
<path fill-rule="evenodd" clip-rule="evenodd" d="M301.738 219.414C306.178 213.17 304.716 204.508 298.472 200.068C292.228 195.628 283.566 197.09 279.126 203.334L250.305 243.865C249.385 245.158 247.513 245.291 246.42 244.14L236.168 233.348C230.891 227.794 222.11 227.568 216.555 232.846C211.001 238.123 210.775 246.904 216.053 252.458L239.873 277.533C240.103 277.781 240.343 278.022 240.593 278.256C242.024 279.598 243.675 280.581 245.427 281.202C247.296 281.867 249.259 282.111 251.183 281.956C252.968 281.813 254.733 281.327 256.369 280.493C258.1 279.614 259.668 278.358 260.943 276.749C261.135 276.508 261.318 276.261 261.492 276.009L301.738 219.414Z" fill="url(#paint16_linear_3484_125)"/>
<path fill-rule="evenodd" clip-rule="evenodd" d="M301.738 219.414C306.178 213.17 304.716 204.508 298.472 200.068C292.228 195.628 283.566 197.09 279.126 203.334L250.305 243.865C249.385 245.158 247.513 245.291 246.42 244.14L236.168 233.348C230.891 227.794 222.11 227.568 216.555 232.846C211.001 238.123 210.775 246.904 216.053 252.458L239.873 277.533C240.103 277.781 240.343 278.022 240.593 278.256C242.024 279.598 243.675 280.581 245.427 281.202C247.296 281.867 249.259 282.111 251.183 281.956C252.968 281.813 254.733 281.327 256.369 280.493C258.1 279.614 259.668 278.358 260.943 276.749C261.135 276.508 261.318 276.261 261.492 276.009L301.738 219.414Z" fill="url(#paint17_linear_3484_125)"/>
<path fill-rule="evenodd" clip-rule="evenodd" d="M301.738 219.414C306.178 213.17 304.716 204.508 298.472 200.068C292.228 195.628 283.566 197.09 279.126 203.334L250.305 243.865C249.385 245.158 247.513 245.291 246.42 244.14L236.168 233.348C230.891 227.794 222.11 227.568 216.555 232.846C211.001 238.123 210.775 246.904 216.053 252.458L239.873 277.533C240.103 277.781 240.343 278.022 240.593 278.256C242.024 279.598 243.675 280.581 245.427 281.202C247.296 281.867 249.259 282.111 251.183 281.956C252.968 281.813 254.733 281.327 256.369 280.493C258.1 279.614 259.668 278.358 260.943 276.749C261.135 276.508 261.318 276.261 261.492 276.009L301.738 219.414Z" fill="url(#paint18_linear_3484_125)"/>
<path fill-rule="evenodd" clip-rule="evenodd" d="M301.738 219.414C306.178 213.17 304.716 204.508 298.472 200.068C292.228 195.628 283.566 197.09 279.126 203.334L250.305 243.865C249.385 245.158 247.513 245.291 246.42 244.14L236.168 233.348C230.891 227.794 222.11 227.568 216.555 232.846C211.001 238.123 210.775 246.904 216.053 252.458L239.873 277.533C240.103 277.781 240.343 278.022 240.593 278.256C242.024 279.598 243.675 280.581 245.427 281.202C247.296 281.867 249.259 282.111 251.183 281.956C252.968 281.813 254.733 281.327 256.369 280.493C258.1 279.614 259.668 278.358 260.943 276.749C261.135 276.508 261.318 276.261 261.492 276.009L301.738 219.414Z" fill="url(#paint19_radial_3484_125)" fill-opacity="0.62"/>
<path fill-rule="evenodd" clip-rule="evenodd" d="M301.738 219.414C306.178 213.17 304.716 204.508 298.472 200.068C292.228 195.628 283.566 197.09 279.126 203.334L250.305 243.865C249.385 245.158 247.513 245.291 246.42 244.14L236.168 233.348C230.891 227.794 222.11 227.568 216.555 232.846C211.001 238.123 210.775 246.904 216.053 252.458L239.873 277.533C240.103 277.781 240.343 278.022 240.593 278.256C242.024 279.598 243.675 280.581 245.427 281.202C247.296 281.867 249.259 282.111 251.183 281.956C252.968 281.813 254.733 281.327 256.369 280.493C258.1 279.614 259.668 278.358 260.943 276.749C261.135 276.508 261.318 276.261 261.492 276.009L301.738 219.414Z" fill="url(#paint20_radial_3484_125)" fill-opacity="0.6"/>
<path fill-rule="evenodd" clip-rule="evenodd" d="M301.738 219.414C306.178 213.17 304.716 204.508 298.472 200.068C292.228 195.628 283.566 197.09 279.126 203.334L250.305 243.865C249.385 245.158 247.513 245.291 246.42 244.14L236.168 233.348C230.891 227.794 222.11 227.568 216.555 232.846C211.001 238.123 210.775 246.904 216.053 252.458L239.873 277.533C240.103 277.781 240.343 278.022 240.593 278.256C242.024 279.598 243.675 280.581 245.427 281.202C247.296 281.867 249.259 282.111 251.183 281.956C252.968 281.813 254.733 281.327 256.369 280.493C258.1 279.614 259.668 278.358 260.943 276.749C261.135 276.508 261.318 276.261 261.492 276.009L301.738 219.414Z" fill="url(#paint21_radial_3484_125)" fill-opacity="0.8"/>
<defs>
<radialGradient id="paint0_radial_3484_125" cx="0" cy="0" r="1" gradientUnits="userSpaceOnUse" gradientTransform="translate(276.076 97.5) rotate(46.1998) scale(471.072 141.396)">
<stop offset="0.03" stop-color="#A0D03F"/>
<stop offset="0.15" stop-color="#B4E159"/>
<stop offset="0.331843" stop-color="#B4E159"/>
<stop offset="0.497027" stop-color="#4ECBFF"/>
</radialGradient>
<radialGradient id="paint1_radial_3484_125" cx="0" cy="0" r="1" gradientUnits="userSpaceOnUse" gradientTransform="translate(151.119 258.826) rotate(1.83276) scale(93.5392 205.301)">
<stop offset="0.22" stop-color="#0070DB"/>
<stop offset="0.4" stop-color="#0070DB" stop-opacity="0"/>
</radialGradient>
<radialGradient id="paint2_radial_3484_125" cx="0" cy="0" r="1" gradientUnits="userSpaceOnUse" gradientTransform="translate(334.406 144.5) rotate(136.567) scale(85.8173 525.83)">
<stop offset="0.187512" stop-color="#799F2A"/>
<stop offset="0.383397" stop-color="#B5E25B" stop-opacity="0"/>
</radialGradient>
<linearGradient id="paint3_linear_3484_125" x1="379.635" y1="302.481" x2="133.636" y2="301.483" gradientUnits="userSpaceOnUse">
<stop offset="0.00879377" stop-color="#FFFCF9"/>
<stop offset="0.0260391" stop-color="#FFF6EF"/>
<stop offset="0.98123" stop-color="#FFF6EF"/>
<stop offset="1" stop-color="#E3D8CE"/>
</linearGradient>
<radialGradient id="paint4_radial_3484_125" cx="0" cy="0" r="1" gradientUnits="userSpaceOnUse" gradientTransform="translate(368.669 119.621) rotate(109.945) scale(143.393 67.204)">
<stop offset="0.75" stop-color="#B6A698"/>
<stop offset="1" stop-color="white" stop-opacity="0"/>
</radialGradient>
<radialGradient id="paint5_radial_3484_125" cx="0" cy="0" r="1" gradientUnits="userSpaceOnUse" gradientTransform="translate(290.848 296.221) rotate(-30.9712) scale(34.9246 23.5456)">
<stop offset="0.63" stop-color="#FFF8F0"/>
<stop offset="1" stop-color="#FFF8F0" stop-opacity="0"/>
</radialGradient>
<radialGradient id="paint6_radial_3484_125" cx="0" cy="0" r="1" gradientUnits="userSpaceOnUse" gradientTransform="translate(234.136 270.25) rotate(-130.022) scale(50.927 25.1194)">
<stop stop-color="#B6A698"/>
<stop offset="1" stop-color="white" stop-opacity="0"/>
</radialGradient>
<radialGradient id="paint7_radial_3484_125" cx="0" cy="0" r="1" gradientUnits="userSpaceOnUse" gradientTransform="translate(277.136 251.5) rotate(35.5377) scale(30.1081 82.8479)">
<stop stop-color="#B6A698"/>
<stop offset="1" stop-color="white" stop-opacity="0"/>
</radialGradient>
<linearGradient id="paint8_linear_3484_125" x1="256.636" y1="363.496" x2="256.636" y2="127.5" gradientUnits="userSpaceOnUse">
<stop offset="0.658769" stop-color="#FFF7F0" stop-opacity="0"/>
<stop offset="0.976892" stop-color="#FBECDF"/>
</linearGradient>
<linearGradient id="paint9_linear_3484_125" x1="358.193" y1="165.39" x2="320.184" y2="200.333" gradientUnits="userSpaceOnUse">
<stop stop-color="#FAF1EB"/>
<stop offset="0.18" stop-color="#CDBAAB"/>
<stop offset="0.73" stop-color="#E8DAD0"/>
</linearGradient>
<linearGradient id="paint10_linear_3484_125" x1="254.136" y1="239.5" x2="254.136" y2="445.239" gradientUnits="userSpaceOnUse">
<stop offset="0.336" stop-color="#E7E7E7"/>
<stop offset="0.741" stop-color="#E7E7E7"/>
<stop offset="0.865" stop-color="#D7D7D7"/>
<stop offset="0.917" stop-color="#C7C7C7"/>
<stop offset="0.975" stop-color="#F2F2F2"/>
</linearGradient>
<linearGradient id="paint11_linear_3484_125" x1="241.099" y1="299.572" x2="183.083" y2="378.424" gradientUnits="userSpaceOnUse">
<stop offset="0.416" stop-color="#DEDEDE" stop-opacity="0"/>
<stop offset="0.444" stop-color="white"/>
<stop offset="0.622" stop-color="white" stop-opacity="0"/>
</linearGradient>
<linearGradient id="paint12_linear_3484_125" x1="254.136" y1="239.5" x2="254.136" y2="445.239" gradientUnits="userSpaceOnUse">
<stop offset="0.503" stop-color="#E7E7E7" stop-opacity="0"/>
<stop offset="0.627" stop-color="#E7E7E7"/>
<stop offset="0.775" stop-color="#E7E7E7"/>
<stop offset="0.865" stop-color="#D7D7D7"/>
<stop offset="0.917" stop-color="#C7C7C7"/>
<stop offset="0.975" stop-color="#F2F2F2"/>
</linearGradient>
<linearGradient id="paint13_linear_3484_125" x1="195.214" y1="343.555" x2="263.233" y2="436.361" gradientUnits="userSpaceOnUse">
<stop offset="0.416" stop-color="#DEDEDE" stop-opacity="0"/>
<stop offset="0.444" stop-color="white"/>
<stop offset="0.588" stop-color="white" stop-opacity="0"/>
</linearGradient>
<linearGradient id="paint14_linear_3484_125" x1="220.359" y1="338.019" x2="76.2325" y2="338.019" gradientUnits="userSpaceOnUse">
<stop offset="0.835" stop-color="#D7D7D7" stop-opacity="0"/>
<stop offset="0.912" stop-color="#BCBCBC"/>
<stop offset="1" stop-color="#F2F2F2"/>
</linearGradient>
<linearGradient id="paint15_linear_3484_125" x1="254.136" y1="239.5" x2="254.136" y2="445.239" gradientUnits="userSpaceOnUse">
<stop offset="0.79" stop-color="#DFDFDF" stop-opacity="0"/>
<stop offset="0.917" stop-color="#C7C7C7"/>
<stop offset="0.975" stop-color="#F2F2F2"/>
</linearGradient>
<linearGradient id="paint16_linear_3484_125" x1="230.982" y1="273.781" x2="250.043" y2="254.178" gradientUnits="userSpaceOnUse">
<stop stop-color="#4ECBFF"/>
<stop offset="0.276128" stop-color="#0070DB"/>
<stop offset="0.529185" stop-color="#0083F5" stop-opacity="0.315315"/>
<stop offset="0.77314" stop-color="#4ECBFF" stop-opacity="0"/>
</linearGradient>
<linearGradient id="paint17_linear_3484_125" x1="214.405" y1="245.997" x2="225.97" y2="251.505" gradientUnits="userSpaceOnUse">
<stop stop-color="#007EEC"/>
<stop offset="1" stop-color="#2F9EFF" stop-opacity="0"/>
</linearGradient>
<linearGradient id="paint18_linear_3484_125" x1="266.212" y1="265.993" x2="251.038" y2="255.307" gradientUnits="userSpaceOnUse">
<stop stop-color="#0070DB"/>
<stop offset="0.484391" stop-color="#0083F5" stop-opacity="0.428977"/>
<stop offset="0.592846" stop-color="#0083F5" stop-opacity="0.236848"/>
<stop offset="1" stop-color="#4ECBFF" stop-opacity="0"/>
</linearGradient>
<radialGradient id="paint19_radial_3484_125" cx="0" cy="0" r="1" gradientUnits="userSpaceOnUse" gradientTransform="translate(232.974 239.751) rotate(38.5233) scale(17.8247 6.46742)">
<stop stop-color="white"/>
<stop offset="0.395833" stop-color="white" stop-opacity="0.458333"/>
<stop offset="0.98096" stop-color="white" stop-opacity="0"/>
</radialGradient>
<radialGradient id="paint20_radial_3484_125" cx="0" cy="0" r="1" gradientUnits="userSpaceOnUse" gradientTransform="translate(240.943 249.047) rotate(-136.745) scale(22.1314 8.42719)">
<stop stop-color="#BCF2FF"/>
<stop offset="0.447917" stop-color="#BCF2FF" stop-opacity="0.442708"/>
<stop offset="1" stop-color="#BCF2FF" stop-opacity="0"/>
</radialGradient>
<radialGradient id="paint21_radial_3484_125" cx="0" cy="0" r="1" gradientUnits="userSpaceOnUse" gradientTransform="translate(276.952 214.69) rotate(128.74) scale(26.5529 10.3478)">
<stop stop-color="#BCF2FF"/>
<stop offset="0.541007" stop-color="#BCF2FF" stop-opacity="0.458333"/>
<stop offset="1" stop-color="#BCF2FF" stop-opacity="0"/>
</radialGradient>
</defs>
</svg>
