<svg width="512" height="513" viewBox="0 0 512 513" fill="none" xmlns="http://www.w3.org/2000/svg"><path d="M110.206 82.531C89.658 82.531 73 99.19 73 119.738V372.64c0 20.548 16.658 37.206 37.206 37.206h287.092c20.548 0 37.206-16.658 37.206-37.206V179.569c0-20.548-16.658-37.206-37.206-37.206H248.906l-37.028-45.966a37.207 37.207 0 0 0-28.975-13.866h-72.697Z" fill="url(#a)"/><path d="M110.206 82.531C89.658 82.531 73 99.19 73 119.738V372.64c0 20.548 16.658 37.206 37.206 37.206h287.092c20.548 0 37.206-16.658 37.206-37.206V179.569c0-20.548-16.658-37.206-37.206-37.206H248.906l-37.028-45.966a37.207 37.207 0 0 0-28.975-13.866h-72.697Z" fill="url(#b)"/><path d="M110.206 82.531C89.658 82.531 73 99.19 73 119.738V372.64c0 20.548 16.658 37.206 37.206 37.206h287.092c20.548 0 37.206-16.658 37.206-37.206V179.569c0-20.548-16.658-37.206-37.206-37.206H248.906l-37.028-45.966a37.207 37.207 0 0 0-28.975-13.866h-72.697Z" fill="url(#c)"/><path d="M110.206 82.531C89.658 82.531 73 99.19 73 119.738V372.64c0 20.548 16.658 37.206 37.206 37.206h287.092c20.548 0 37.206-16.658 37.206-37.206V179.569c0-20.548-16.658-37.206-37.206-37.206H248.906l-37.028-45.966a37.207 37.207 0 0 0-28.975-13.866h-72.697Z" fill="url(#d)"/><path d="M110.206 82.531C89.658 82.531 73 99.19 73 119.738V372.64c0 20.548 16.658 37.206 37.206 37.206h287.092c20.548 0 37.206-16.658 37.206-37.206V179.569c0-20.548-16.658-37.206-37.206-37.206H248.906l-37.028-45.966a37.207 37.207 0 0 0-28.975-13.866h-72.697Z" fill="url(#e)"/><path d="m304.534 409.846 67.775-58.622c7.701-6.66 7.386-18.699-.653-24.948l-98.978-76.936c-11.072-8.606-26.602-8.494-37.549.271l-99.454 79.627c-7.949 6.364-8.089 18.409-.291 24.957l66.274 55.651h10.039l-72.162-60.595c-4.679-3.929-4.594-11.156.175-14.974l99.454-79.627a23.858 23.858 0 0 1 29.552-.213l98.978 76.936c4.823 3.749 5.013 10.973.392 14.969l-73.42 63.504h9.868Z" fill="url(#f)"/><path d="M237.146 252.13c9.781-7.831 23.657-7.931 33.55-.241l98.979 76.935c6.43 4.999 6.683 14.631.522 19.959l-98.913 85.553c-10.06 8.701-24.949 8.81-35.135.257l-98.69-82.87c-6.238-5.238-6.126-14.874.233-19.966l99.454-79.627Z" fill="url(#g)"/><path d="M237.146 252.13c9.781-7.831 23.657-7.931 33.55-.241l98.979 76.935c6.43 4.999 6.683 14.631.522 19.959l-98.913 85.553c-10.06 8.701-24.949 8.81-35.135.257l-98.69-82.87c-6.238-5.238-6.126-14.874.233-19.966l99.454-79.627Z" fill="url(#h)" fill-opacity=".75"/><path d="m310.75 335.185-44.2 34.334a21.21 21.21 0 0 1-25.683.076l-45.679-34.41H310.75Z" fill="url(#i)"/><path d="m310.75 335.185-44.2 34.334a21.21 21.21 0 0 1-25.683.076l-45.679-34.41H310.75Z" fill="url(#j)" fill-opacity=".4"/><path d="M223.027 342.361a.726.726 0 1 1-1.452.002.726.726 0 0 1 1.452-.002Zm50.162 1.761a.726.726 0 1 0 .002-1.452.726.726 0 0 0-.002 1.452Zm11.616 4.19a1.136 1.136 0 1 0 0-2.272 1.136 1.136 0 0 0 0 2.272Zm-16.425 4.996a1.92 1.92 0 1 1-3.841 0 1.92 1.92 0 0 1 3.841 0Zm-14.233 3.836a1.137 1.137 0 1 1-2.274 0 1.137 1.137 0 0 1 2.274 0Zm9.572 7.61a.726.726 0 1 1-1.452 0 .726.726 0 0 1 1.452 0Zm-35.207-20.213a.727.727 0 1 0 0-1.454.727.727 0 0 0 0 1.454Zm-4.578 3.007a1.18 1.18 0 1 1-2.36 0 1.18 1.18 0 0 1 2.36 0Zm24.541 19.889a.727.727 0 1 0 0-1.454.727.727 0 0 0 0 1.454Z" fill="#D6A5FF"/><path d="M270.696 186.885c-9.893-7.69-23.769-7.59-33.55.242l-99.454 79.627c-6.359 5.091-6.471 14.727-.233 19.966l59.636 50.076h111.807l61.295-53.016c6.161-5.329 5.908-14.96-.522-19.959l-98.979-76.936Z" fill="url(#k)"/><path d="M270.696 186.885c-9.893-7.69-23.769-7.59-33.55.242l-99.454 79.627c-6.359 5.091-6.471 14.727-.233 19.966l59.636 50.076h111.807l61.295-53.016c6.161-5.329 5.908-14.96-.522-19.959l-98.979-76.936Z" fill="url(#l)" fill-opacity=".8"/><path d="M234.893 306.433c10.088-8.078 24.401-8.18 34.605-.249l39.382 30.612H196.97l37.923-30.363Z" fill="url(#m)"/><path d="M234.893 306.433c10.088-8.078 24.401-8.18 34.605-.249l39.382 30.612H196.97l37.923-30.363Z" fill="url(#n)"/><path d="m197.326 336.796 43.541 32.799a21.21 21.21 0 0 0 25.683-.076l42.126-32.723h-3.26l-40.082 31.135-.005.005a19.211 19.211 0 0 1-23.256.064l-41.423-31.204h-3.324Z" fill="#F3F3F3"/><defs><radialGradient id="b" cx="0" cy="0" r="1" gradientUnits="userSpaceOnUse" gradientTransform="matrix(-164.61372 -64.5545 18.75892 -47.83516 211.792 387.252)"><stop offset=".228" stop-color="#9EB06B"/><stop offset=".511" stop-color="#D8EBA3"/><stop offset=".624" stop-color="#E6EFCC" stop-opacity="0"/></radialGradient><radialGradient id="c" cx="0" cy="0" r="1" gradientUnits="userSpaceOnUse" gradientTransform="rotate(-155.881 145.983 144.276) scale(194.505 56.5215)"><stop offset=".228" stop-color="#9EB06B"/><stop offset=".525" stop-color="#D8EBA3"/><stop offset=".624" stop-color="#E6EFCC" stop-opacity="0"/></radialGradient><radialGradient id="d" cx="0" cy="0" r="1" gradientUnits="userSpaceOnUse" gradientTransform="matrix(162.99866 -62.94171 18.29034 47.36606 286.845 387.26)"><stop offset=".228" stop-color="#9EB06B"/><stop offset=".524" stop-color="#D9E2BE"/><stop offset=".624" stop-color="#E8E9E3" stop-opacity="0"/></radialGradient><radialGradient id="e" cx="0" cy="0" r="1" gradientUnits="userSpaceOnUse" gradientTransform="matrix(165.4205 -83.51715 24.00372 47.54362 288.853 332.784)"><stop offset=".228" stop-color="#A0A0A0"/><stop offset=".482" stop-color="#D7D7D7"/><stop offset=".681" stop-color="#E8E8E8" stop-opacity="0"/></radialGradient><radialGradient id="g" cx="0" cy="0" r="1" gradientUnits="userSpaceOnUse" gradientTransform="rotate(-167.412 218.297 178.03) scale(340.643 2454.79)"><stop stop-color="#C8F057"/><stop offset=".179" stop-color="#9AFD83"/><stop offset=".465" stop-color="#5ADEC9"/><stop offset=".792" stop-color="#03A5FF"/><stop offset="1" stop-color="#8763C2"/></radialGradient><radialGradient id="h" cx="0" cy="0" r="1" gradientUnits="userSpaceOnUse" gradientTransform="rotate(87.714 -6.452 252.485) scale(192.226 214.814)"><stop offset=".458" stop-color="#00278A"/><stop offset=".582" stop-color="#004CBF"/><stop offset=".805" stop-color="#34C2DB" stop-opacity="0"/></radialGradient><radialGradient id="j" cx="0" cy="0" r="1" gradientUnits="userSpaceOnUse" gradientTransform="matrix(-75.5 -1.49977 .46425 -23.37109 249 328.935)"><stop offset=".666" stop-color="#B6A698"/><stop offset="1" stop-color="#fff" stop-opacity="0"/></radialGradient><radialGradient id="l" cx="0" cy="0" r="1" gradientUnits="userSpaceOnUse" gradientTransform="matrix(181.242 0 0 98 253.757 357.935)"><stop offset=".559" stop-color="#fff"/><stop offset="1" stop-color="#fff" stop-opacity="0"/></radialGradient><linearGradient id="a" x1="412.595" y1="61.815" x2="64.894" y2="643.142" gradientUnits="userSpaceOnUse"><stop offset=".368" stop-color="#E7E7E7"/><stop offset=".789" stop-color="#DFFF87"/></linearGradient><linearGradient id="f" x1="253.757" y1="246.188" x2="253.757" y2="409.039" gradientUnits="userSpaceOnUse"><stop stop-color="#E7E7E7"/><stop offset=".703" stop-color="#E7E7E7"/></linearGradient><linearGradient id="i" x1="287" y1="308.935" x2="260.554" y2="374.112" gradientUnits="userSpaceOnUse"><stop offset=".084" stop-color="#E7CAB1"/><stop offset=".688" stop-color="#FFF7F0"/></linearGradient><linearGradient id="k" x1="295.749" y1="170.39" x2="247.08" y2="452.883" gradientUnits="userSpaceOnUse"><stop stop-color="#FFF6EF"/><stop offset=".447" stop-color="#FFF7F0"/></linearGradient><linearGradient id="m" x1="252.925" y1="268.633" x2="252.925" y2="392.092" gradientUnits="userSpaceOnUse"><stop offset=".392" stop-color="#F9FDFF"/><stop offset=".954" stop-color="#89D0E6"/></linearGradient><linearGradient id="n" x1="246.001" y1="336.796" x2="246.001" y2="276.935" gradientUnits="userSpaceOnUse"><stop stop-color="#EAE3DD"/><stop offset=".115" stop-color="#CABAAD"/><stop offset=".516" stop-color="#EAE3DD"/></linearGradient></defs></svg>