<svg xmlns="http://www.w3.org/2000/svg" width="200" height="166.852" viewBox="0 0 200 166.852">
  <g id="Group_100510" data-name="Group 100510" transform="translate(-1211.587 -320.292)">
    <g id="Group_100519" data-name="Group 100519" transform="translate(1211.587 320.292)">
      <path id="Path_31702" data-name="Path 31702" d="M1091.08,236.47a8.163,8.163,0,0,0-3.516.794,15.186,15.186,0,0,0-29.9-3.363,10.515,10.515,0,1,0-6.309,18.927h39.724a8.179,8.179,0,0,0,0-16.358" transform="translate(-899.258 -187.093)" fill="#459bdd"/>
      <path id="Path_31703" data-name="Path 31703" d="M1055.144,250.638a4.423,4.423,0,0,0-2.141.548,16.485,16.485,0,1,0-30.83-8.121c0,.528.026,1.055.073,1.572a7.716,7.716,0,1,0-2.784,14.911h35.682a4.455,4.455,0,0,0,0-8.91" transform="translate(-1011.743 -171.025)" fill="#459bdd"/>
      <path id="Path_31704" data-name="Path 31704" d="M1172.837,287.694a16.841,16.841,0,0,0-6.117,1.149,50.022,50.022,0,0,0,1.2-10.858c0-26.072-19.965-47.2-44.591-47.2-19.7,0-36.4,13.527-42.3,32.287h-11.159v5.207a26,26,0,0,0-6.749-.9c-14.76,0-26.778,12.4-27.286,27.895a14.363,14.363,0,0,0-7.281-1.985c-8.327,0-15.076,7.145-15.076,15.955s6.749,15.955,15.076,15.955h144.281c9.783,0,17.711-8.393,17.711-18.75s-7.928-18.75-17.711-18.75" transform="translate(-1004.408 -158.341)" fill="#ebebeb"/>
      <path id="Path_31705" data-name="Path 31705" d="M1044.967,219.41l-1.667,2.514-3.338-1.055-1.212-4.158,5.005-1.459Z" transform="translate(-904.88 -215.252)" fill="#fec94e"/>
      <path id="Path_31706" data-name="Path 31706" d="M1087.179,220.882l-.976-3.348-5,1.457-.961-3.3-25.654,7.479.257.893-24.307,7.087-.005-.016a.625.625,0,0,0-.773-.428l-.318.094a.63.63,0,0,0-.429.778l1.055,3.6a.617.617,0,0,0,.773.423l.319-.089a.635.635,0,0,0,.429-.778l-.006-.016,24.271-7.072.266.951,25.686-7.542.376,1.28Z" transform="translate(-945.086 -213.375)" fill="#c58d1f"/>
      <rect id="Rectangle_25245" data-name="Rectangle 25245" width="23.089" height="1.379" transform="translate(86.53 17.778) rotate(-16.247)" fill="#fec94e"/>
      <rect id="Rectangle_25246" data-name="Rectangle 25246" width="24.672" height="2.068" transform="translate(109.192 9.799) rotate(-16.248)" fill="#fec94e"/>
      <path id="Path_31707" data-name="Path 31707" d="M1030.855,234.34l.773-1.948-1.567-9.693a1.529,1.529,0,0,1,.815-1.614l1.974-1.018a.933.933,0,0,1,1.107.2l.5.548,2.528-1.755,3.113-.1.1.784-2.037,1.327-.882,2.371,3.786-5.51a1.191,1.191,0,0,1,2.026,1.248l-2.5,4.549,2.815-1.3a1.065,1.065,0,0,1,1.091,1.812l-4.3,3.285-1.948,6.81-2.627,3.891-4.863-2.042Z" transform="translate(-939.559 -206.099)" fill="#f0beb4"/>
      <path id="Path_31708" data-name="Path 31708" d="M1049.615,228.571l-1.107-.543a1.954,1.954,0,0,1-1.086-1.363,11.75,11.75,0,0,0-13.151-9.333,11.561,11.561,0,0,0-10.033,10.294,11.75,11.75,0,0,0,6.675,11.965l.7.987-1.321,4.878,8.842.815,1.076-3.353a3.5,3.5,0,0,1,2.758-2.387l2.109-.36a3.021,3.021,0,0,0,2.768-3.108c-.052-1.6-.115-3.624-.152-5.343l1.813-.689a1.342,1.342,0,0,0,.11-2.46" transform="translate(-962.954 -206.937)" fill="#f0beb4"/>
      <path id="Path_31709" data-name="Path 31709" d="M1040.115,216.948a12.912,12.912,0,0,0-7.62,2.653,4.206,4.206,0,0,0-1.593-1.938,4.281,4.281,0,0,0-5.913,1.217l-1.509,2.288a4.28,4.28,0,0,0,1.217,5.912,4.228,4.228,0,0,0,3.3.585,11.859,11.859,0,0,0,.956,5.943l.606,1.363a11.858,11.858,0,0,0,6.633,6.278l1.264.48s3.254-1.624,3.964-4.57a12.045,12.045,0,0,0,.047-4.246,3.229,3.229,0,0,1-4.2-1.588l-.2-.423a1.94,1.94,0,0,1,3.515-1.645l1.734,3.055,1.342,2.3s1.222-5.181-.407-7.824a3.085,3.085,0,0,1,2.241-4.977,2.878,2.878,0,0,0,2.538-1.525c-1.677-2.643-4.826-3.342-7.907-3.342" transform="translate(-968.368 -208.088)" fill="#704322"/>
      <path id="Path_31710" data-name="Path 31710" d="M1029.818,219.95a.966.966,0,1,1-.966-.961.964.964,0,0,1,.966.961" transform="translate(-947.778 -199.47)" fill="#0078d7"/>
      <path id="Path_31711" data-name="Path 31711" d="M1027.907,220.871a.377.377,0,0,1-.178-.047.4.4,0,0,1-.183-.543,3.047,3.047,0,0,1,3.212-1.64.406.406,0,1,1-.141.8,2.3,2.3,0,0,0-2.345,1.2.407.407,0,0,1-.365.23" transform="translate(-949.326 -201.148)" fill="#704322"/>
      <path id="Path_31712" data-name="Path 31712" d="M1031.142,220.477l-.047-.037a.934.934,0,0,0-1.086-.016l-1.917,1.337,1.468.282a2.353,2.353,0,0,0,1.593-.256l.037-.021Z" transform="translate(-946.99 -194.111)" fill="#eb4f5d"/>
      <path id="Path_31713" data-name="Path 31713" d="M1028.255,247.87l21.716-4.653,18.416-18.482-8.531-4.653-13.762,14.992-19.9.575Z" transform="translate(-955.398 -194.856)" fill="#939393"/>
      <path id="Path_31714" data-name="Path 31714" d="M1022.934,314.972a38.574,38.574,0,0,1,12.952,3.327,38.621,38.621,0,0,1,20.923-11.835c.344-8.8.318-19.11-.966-27.059a21.2,21.2,0,0,0,2.637-1.233c-.475-2.167-3.045-13.887-4.183-19.528a11.676,11.676,0,0,1,.282-5.708l.235-.778a5.829,5.829,0,0,0-.726-4.951c-.475-.71-1.013-1.53-1.551-2.382l7.134.026a3.515,3.515,0,0,0,3.421-2.653l4.674-18.353-7.4-3.41-5.448,16.055-6.878-.705c-.188-.235-.376-.47-.585-.684-.256-.261-.538-.5-.815-.731l.5-.992-.282-.465a7.376,7.376,0,0,0-4.837-3.431l-7.97-1.6-1.457,4.424.867.057a4.4,4.4,0,0,0-.36.46l-2.841,4.246c-2.538,4.215.773,23.105,2.089,29.127a48.012,48.012,0,0,0-5.192,13.715l1.739-.225a55.592,55.592,0,0,0-5.254,21.006Z" transform="translate(-968.155 -196.386)" fill="#b2b2b2"/>
      <path id="Path_31715" data-name="Path 31715" d="M1023.793,241.809s4.136-2.068,8.544-4.455a25.011,25.011,0,0,0,3.39.434c4.539.256,10.529-1.8,14.091-3.228a116.7,116.7,0,0,1-1.322,25.8,38.274,38.274,0,0,1,5.417-1.384c.115-8.821-.126-19.079-1.41-27.033a20.394,20.394,0,0,1-12.049,1.076l-4.126-.9a20.4,20.4,0,0,0-6.92-.3l-4.486.569c-.2.684-.382,1.311-.481,1.776a14.433,14.433,0,0,0,4.842,2.392,13.437,13.437,0,0,0-5.489,5.259" transform="translate(-964.487 -151.069)" fill="#939393"/>
      <path id="Path_31716" data-name="Path 31716" d="M1042.762,225.329l-16.1-.057a4.854,4.854,0,0,1-1.41-.219,71.773,71.773,0,0,0,6.79,6.6c4.152,3.5,12.425,7.281,12.425,7.281l.016-.026a11.618,11.618,0,0,1,.319-5.468l.235-.778a5.829,5.829,0,0,0-.726-4.951c-.475-.71-1.014-1.53-1.546-2.382" transform="translate(-958.558 -176.613)" fill="#939393"/>
      <path id="Path_31717" data-name="Path 31717" d="M1025.681,241.259l14.53-8.435s-3.63,10.247-14.53,8.435" transform="translate(-956.749 -145.816)" fill="#939393"/>
      <path id="Path_31718" data-name="Path 31718" d="M1029.4,234.832l-6.1,3.76s.261-4.93,6.1-3.76" transform="translate(-966.027 -138.447)" fill="#939393"/>
      <path id="Path_31719" data-name="Path 31719" d="M1033.521,226.008a15.754,15.754,0,0,0-7.489-2.042,21.663,21.663,0,0,1,4.914-1.556s2.429,1.363,2.574,3.6" transform="translate(-955.227 -186.909)" fill="#939393"/>
      <path id="Path_31720" data-name="Path 31720" d="M1029.3,223.509l2.063,3.959s-3.348.387-2.063-3.959" transform="translate(-943.362 -182.563)" fill="#939393"/>
      <path id="Path_31721" data-name="Path 31721" d="M1024.911,233.8l6.356-5.708s-6.095-.909-6.356,5.708" transform="translate(-959.641 -164.633)" fill="#939393"/>
      <path id="Path_31722" data-name="Path 31722" d="M1030.437,228.9a1.037,1.037,0,1,1-1.04-1.039,1.039,1.039,0,0,1,1.04,1.039" transform="translate(-945.887 -165.317)" fill="#939393"/>
      <path id="Path_31723" data-name="Path 31723" d="M1030.965,230.747a1.1,1.1,0,1,1-1.1-1.1,1.1,1.1,0,0,1,1.1,1.1" transform="translate(-944.318 -158.233)" fill="#939393"/>
      <path id="Path_31724" data-name="Path 31724" d="M1040.314,221.23l-.261-.893-1,.287-.287-2.23a1.109,1.109,0,0,0-2.209.1l-.157,4.137-.094,4.382-3.572,4.8,5.708,3.05,2.162-3.238a5.574,5.574,0,0,0,.58-1.123l2.784-3.588a13.057,13.057,0,0,0,1.99-3.625l1.473-4.136Z" transform="translate(-928.922 -206.067)" fill="#db9c94"/>
      <path id="Path_31725" data-name="Path 31725" d="M1042.69,216.3a.915.915,0,0,0-.955.533l-.852,1.849a1.584,1.584,0,0,0-2.319-.094l-.1.1-.167-.1a1.6,1.6,0,0,0-2.183.59l-.047.094a1.588,1.588,0,0,0-2.225.794l-.015.2.219.58a1.107,1.107,0,0,0,2.089-.037l.188-.564.115.162a1.105,1.105,0,0,0,1.98-.36l.177-.71.262.167a1.53,1.53,0,0,0,2.157-.533l.047-.089-.126-.157-.041-.042,2.36-.684.178-.433a.922.922,0,0,0-.736-1.269" transform="translate(-924.48 -210.852)" fill="#db9c94"/>
    </g>
  </g>
</svg>
