<svg width="192" height="193" viewBox="0 0 192 193" fill="none" xmlns="http://www.w3.org/2000/svg">
<path d="M88.7659 151.938C123.456 151.938 151.578 123.816 151.578 89.1255C151.578 54.4351 123.456 26.313 88.7659 26.313C54.0755 26.313 25.9534 54.4351 25.9534 89.1255C25.9534 104.751 31.6591 119.044 41.1007 130.035C41.47 130.465 41.6345 131.035 41.5398 131.594L38.4341 149.924C37.922 152.946 41.0557 155.273 43.8007 153.908L60.0401 145.836C60.5655 145.575 61.1821 145.576 61.7115 145.829C69.9046 149.745 79.0792 151.938 88.7659 151.938Z" fill="url(#paint0_radial_896_6164)"/>
<path d="M88.7659 151.938C123.456 151.938 151.578 123.816 151.578 89.1255C151.578 54.4351 123.456 26.313 88.7659 26.313C54.0755 26.313 25.9534 54.4351 25.9534 89.1255C25.9534 104.751 31.6591 119.044 41.1007 130.035C41.47 130.465 41.6345 131.035 41.5398 131.594L38.4341 149.924C37.922 152.946 41.0557 155.273 43.8007 153.908L60.0401 145.836C60.5655 145.575 61.1821 145.576 61.7115 145.829C69.9046 149.745 79.0792 151.938 88.7659 151.938Z" fill="url(#paint1_radial_896_6164)" fill-opacity="0.5"/>
<path d="M154.707 152.186C154.592 151.611 154.754 151.017 155.133 150.57C161.805 142.695 165.828 132.505 165.828 121.375C165.828 96.4191 145.597 76.188 120.641 76.188C95.6845 76.188 75.4534 96.4191 75.4534 121.375C75.4534 146.332 95.6845 166.563 120.641 166.563C127.576 166.563 134.147 165.001 140.02 162.208C140.538 161.962 141.141 161.952 141.66 162.196L153.567 167.792C155.518 168.709 157.681 167.014 157.257 164.9L154.707 152.186Z" fill="url(#paint2_radial_896_6164)"/>
<path d="M151.578 89.1255C151.578 123.816 123.456 151.938 88.7659 151.938C88.2899 151.938 87.8152 151.933 87.3417 151.922C79.9595 143.879 75.4534 133.153 75.4534 121.375C75.4534 96.4191 95.6845 76.188 120.641 76.188C132.609 76.188 143.49 80.8406 151.575 88.4358C151.577 88.6654 151.578 88.8953 151.578 89.1255Z" fill="url(#paint3_radial_896_6164)"/>
<path d="M151.578 89.1255C151.578 123.816 123.456 151.938 88.7659 151.938C88.2899 151.938 87.8152 151.933 87.3417 151.922C79.9595 143.879 75.4534 133.153 75.4534 121.375C75.4534 96.4191 95.6845 76.188 120.641 76.188C132.609 76.188 143.49 80.8406 151.575 88.4358C151.577 88.6654 151.578 88.8953 151.578 89.1255Z" fill="url(#paint4_radial_896_6164)" fill-opacity="0.7"/>
<path d="M151.578 89.1255C151.578 123.816 123.456 151.938 88.7659 151.938C88.2899 151.938 87.8152 151.933 87.3417 151.922C79.9595 143.879 75.4534 133.153 75.4534 121.375C75.4534 96.4191 95.6845 76.188 120.641 76.188C132.609 76.188 143.49 80.8406 151.575 88.4358C151.577 88.6654 151.578 88.8953 151.578 89.1255Z" fill="url(#paint5_radial_896_6164)" fill-opacity="0.7"/>
<path d="M151.578 89.1255C151.578 123.816 123.456 151.938 88.7659 151.938C88.2899 151.938 87.8152 151.933 87.3417 151.922C79.9595 143.879 75.4534 133.153 75.4534 121.375C75.4534 96.4191 95.6845 76.188 120.641 76.188C132.609 76.188 143.49 80.8406 151.575 88.4358C151.577 88.6654 151.578 88.8953 151.578 89.1255Z" fill="url(#paint6_radial_896_6164)" fill-opacity="0.7"/>
<path fill-rule="evenodd" clip-rule="evenodd" d="M88.7659 150.438C122.628 150.438 150.078 122.987 150.078 89.1255C150.078 89.1152 150.078 89.1049 150.078 89.0946C142.312 82.0078 131.982 77.688 120.641 77.688C96.5129 77.688 76.9534 97.2475 76.9534 121.375C76.9534 132.533 81.1344 142.711 88.0177 150.434C88.2667 150.436 88.5161 150.438 88.7659 150.438ZM87.3417 151.922C79.9595 143.879 75.4534 133.153 75.4534 121.375C75.4534 96.4191 95.6845 76.188 120.641 76.188C132.609 76.188 143.49 80.8406 151.575 88.4358C151.577 88.6654 151.578 88.8953 151.578 89.1255C151.578 123.816 123.456 151.938 88.7659 151.938C88.2899 151.938 87.8152 151.933 87.3417 151.922Z" fill="#F2F1F3"/>
<path d="M129.537 87.9893C129.537 88.4493 129.164 88.8222 128.704 88.8222C128.244 88.8222 127.871 88.4493 127.871 87.9893C127.871 87.5293 128.244 87.1565 128.704 87.1565C129.164 87.1565 129.537 87.5293 129.537 87.9893Z" fill="#D6A5FF"/>
<path d="M138.837 100.815C139.282 100.815 139.642 100.455 139.642 100.01C139.642 99.5653 139.282 99.2048 138.837 99.2048C138.392 99.2048 138.032 99.5653 138.032 100.01C138.032 100.455 138.392 100.815 138.837 100.815Z" fill="#D6A5FF"/>
<path d="M143.836 108.671C143.836 109.116 143.476 109.476 143.031 109.476C142.587 109.476 142.226 109.116 142.226 108.671C142.226 108.227 142.587 107.866 143.031 107.866C143.476 107.866 143.836 108.227 143.836 108.671Z" fill="#D6A5FF"/>
<path d="M121.712 102.425C122.157 102.425 122.517 102.065 122.517 101.62C122.517 101.175 122.157 100.815 121.712 100.815C121.267 100.815 120.907 101.175 120.907 101.62C120.907 102.065 121.267 102.425 121.712 102.425Z" fill="#D6A5FF"/>
<path d="M84.4528 133.256C84.4528 133.7 84.0924 134.061 83.6477 134.061C83.2031 134.061 82.8427 133.7 82.8427 133.256C82.8427 132.811 83.2031 132.451 83.6477 132.451C84.0924 132.451 84.4528 132.811 84.4528 133.256Z" fill="#D6A5FF"/>
<path d="M83.3981 107.478C83.7047 107.478 83.9533 107.229 83.9533 106.922C83.9533 106.616 83.7047 106.367 83.3981 106.367C83.0914 106.367 82.8428 106.616 82.8428 106.922C82.8428 107.229 83.0914 107.478 83.3981 107.478Z" fill="#D6A5FF"/>
<path d="M119.857 138.147C119.857 138.389 119.66 138.586 119.417 138.586C119.175 138.586 118.978 138.389 118.978 138.147C118.978 137.904 119.175 137.707 119.417 137.707C119.66 137.707 119.857 137.904 119.857 138.147Z" fill="#D6A5FF"/>
<path d="M114.772 137.707C115.179 137.707 115.508 137.378 115.508 136.972C115.508 136.565 115.179 136.236 114.772 136.236C114.366 136.236 114.037 136.565 114.037 136.972C114.037 137.378 114.366 137.707 114.772 137.707Z" fill="#D6A5FF"/>
<path d="M98.4962 141.985C98.4962 142.253 98.2787 142.47 98.0104 142.47C97.7421 142.47 97.5246 142.253 97.5246 141.985C97.5246 141.716 97.7421 141.499 98.0104 141.499C98.2787 141.499 98.4962 141.716 98.4962 141.985Z" fill="#D6A5FF"/>
<path d="M96.7195 145.253C96.7195 145.698 96.3591 146.058 95.9144 146.058C95.4698 146.058 95.1094 145.698 95.1094 145.253C95.1094 144.808 95.4698 144.448 95.9144 144.448C96.3591 144.448 96.7195 144.808 96.7195 145.253Z" fill="#D6A5FF"/>
<path d="M105.135 96.7619C105.58 96.7619 105.94 96.4014 105.94 95.9568C105.94 95.5122 105.58 95.1517 105.135 95.1517C104.69 95.1517 104.33 95.5122 104.33 95.9568C104.33 96.4014 104.69 96.7619 105.135 96.7619Z" fill="#D6A5FF"/>
<path d="M109.993 98.372C110.3 98.372 110.548 98.1234 110.548 97.8168C110.548 97.5101 110.3 97.2616 109.993 97.2616C109.687 97.2616 109.438 97.5101 109.438 97.8168C109.438 98.1234 109.687 98.372 109.993 98.372Z" fill="#D6A5FF"/>
<path d="M94.5541 131.961C94.8608 131.961 95.1094 131.712 95.1094 131.406C95.1094 131.099 94.8608 130.85 94.5541 130.85C94.2475 130.85 93.9989 131.099 93.9989 131.406C93.9989 131.712 94.2475 131.961 94.5541 131.961Z" fill="#D6A5FF"/>
<path d="M89.9085 136.236C89.9085 136.479 89.7118 136.675 89.4691 136.675C89.2264 136.675 89.0297 136.479 89.0297 136.236C89.0297 135.993 89.2264 135.797 89.4691 135.797C89.7118 135.797 89.9085 135.993 89.9085 136.236Z" fill="#D6A5FF"/>
<circle cx="112.103" cy="113.798" r="8.49967" fill="url(#paint7_radial_896_6164)"/>
<circle cx="112.103" cy="113.798" r="8.49967" fill="url(#paint8_radial_896_6164)" fill-opacity="0.5"/>
<circle cx="112.103" cy="113.798" r="8.49967" fill="url(#paint9_radial_896_6164)" fill-opacity="0.8"/>
<circle cx="93.2592" cy="113.798" r="8.49967" fill="url(#paint10_radial_896_6164)"/>
<circle cx="93.2592" cy="113.798" r="8.49967" fill="url(#paint11_radial_896_6164)" fill-opacity="0.5"/>
<circle cx="93.2592" cy="113.798" r="8.49967" fill="url(#paint12_radial_896_6164)" fill-opacity="0.8"/>
<circle cx="130.478" cy="113.798" r="8.49967" fill="url(#paint13_radial_896_6164)"/>
<circle cx="130.478" cy="113.798" r="8.49967" fill="url(#paint14_radial_896_6164)" fill-opacity="0.5"/>
<circle cx="130.478" cy="113.798" r="8.49967" fill="url(#paint15_radial_896_6164)" fill-opacity="0.8"/>
<defs>
<radialGradient id="paint0_radial_896_6164" cx="0" cy="0" r="1" gradientUnits="userSpaceOnUse" gradientTransform="translate(9.72244 214.297) rotate(-57.9727) scale(207.892 204.042)">
<stop offset="0.180555" stop-color="#C5B4E3"/>
<stop offset="0.654227" stop-color="#E7E7E7"/>
</radialGradient>
<radialGradient id="paint1_radial_896_6164" cx="0" cy="0" r="1" gradientUnits="userSpaceOnUse" gradientTransform="translate(110.625 124.937) rotate(122.764) scale(45.0406 44.2065)">
<stop offset="0.834038" stop-color="#9891A5"/>
<stop offset="1" stop-color="#A296B6" stop-opacity="0"/>
</radialGradient>
<radialGradient id="paint2_radial_896_6164" cx="0" cy="0" r="1" gradientUnits="userSpaceOnUse" gradientTransform="translate(63.7768 211.1) rotate(-57.9107) scale(149.3 146.689)">
<stop offset="0.0943736" stop-color="#C5B4E3"/>
<stop offset="0.599444" stop-color="#E7E7E7"/>
</radialGradient>
<radialGradient id="paint3_radial_896_6164" cx="0" cy="0" r="1" gradientUnits="userSpaceOnUse" gradientTransform="translate(116.478 140.5) rotate(127.005) scale(111.525 127.32)">
<stop offset="0.252567" stop-color="#FFF3E6"/>
<stop offset="0.37893" stop-color="#FFF1E4"/>
<stop offset="0.757676" stop-color="#BCA58D"/>
</radialGradient>
<radialGradient id="paint4_radial_896_6164" cx="0" cy="0" r="1" gradientUnits="userSpaceOnUse" gradientTransform="translate(128.437 119.312) rotate(115.105) scale(14.8048 8.17296)">
<stop offset="0.560664" stop-color="#B59174"/>
<stop offset="1" stop-color="#E7C0A8" stop-opacity="0"/>
</radialGradient>
<radialGradient id="paint5_radial_896_6164" cx="0" cy="0" r="1" gradientUnits="userSpaceOnUse" gradientTransform="translate(109.406 120.437) rotate(111.926) scale(16.0685 10.1491)">
<stop offset="0.560664" stop-color="#B59174"/>
<stop offset="1" stop-color="#E7C0A8" stop-opacity="0"/>
</radialGradient>
<radialGradient id="paint6_radial_896_6164" cx="0" cy="0" r="1" gradientUnits="userSpaceOnUse" gradientTransform="translate(91.9687 117.25) rotate(109.142) scale(12.0077 7.61817)">
<stop offset="0.606218" stop-color="#B59174"/>
<stop offset="1" stop-color="#E7C0A8" stop-opacity="0"/>
</radialGradient>
<radialGradient id="paint7_radial_896_6164" cx="0" cy="0" r="1" gradientUnits="userSpaceOnUse" gradientTransform="translate(113.71 109.903) rotate(108.435) scale(15.6258)">
<stop stop-color="#BCF2FF"/>
<stop offset="0.25" stop-color="#4ECBFF"/>
<stop offset="0.645065" stop-color="#0083F5"/>
<stop offset="1" stop-color="#C955FF"/>
</radialGradient>
<radialGradient id="paint8_radial_896_6164" cx="0" cy="0" r="1" gradientUnits="userSpaceOnUse" gradientTransform="translate(111.81 122.298) rotate(-90) scale(6.15493 12.1633)">
<stop stop-color="#DEB3FF"/>
<stop offset="1" stop-color="#CC99FF" stop-opacity="0"/>
</radialGradient>
<radialGradient id="paint9_radial_896_6164" cx="0" cy="0" r="1" gradientUnits="userSpaceOnUse" gradientTransform="translate(112.103 113.798) rotate(97.8153) scale(15.0878)">
<stop offset="0.446038" stop-color="white" stop-opacity="0"/>
<stop offset="0.841379" stop-color="white"/>
</radialGradient>
<radialGradient id="paint10_radial_896_6164" cx="0" cy="0" r="1" gradientUnits="userSpaceOnUse" gradientTransform="translate(94.8667 109.903) rotate(108.435) scale(15.6258)">
<stop offset="0.0677083" stop-color="#FFC56D"/>
<stop offset="0.25" stop-color="#FF9B04"/>
<stop offset="0.645065" stop-color="#E66000"/>
<stop offset="1" stop-color="#CBFBB5"/>
</radialGradient>
<radialGradient id="paint11_radial_896_6164" cx="0" cy="0" r="1" gradientUnits="userSpaceOnUse" gradientTransform="translate(92.9661 122.298) rotate(-90) scale(6.15493 12.1633)">
<stop stop-color="#CBFBB5"/>
<stop offset="1" stop-color="#CBFBB5" stop-opacity="0"/>
</radialGradient>
<radialGradient id="paint12_radial_896_6164" cx="0" cy="0" r="1" gradientUnits="userSpaceOnUse" gradientTransform="translate(93.2592 113.798) rotate(97.8153) scale(15.0878)">
<stop offset="0.446038" stop-color="white" stop-opacity="0"/>
<stop offset="0.841379" stop-color="white"/>
</radialGradient>
<radialGradient id="paint13_radial_896_6164" cx="0" cy="0" r="1" gradientUnits="userSpaceOnUse" gradientTransform="translate(132.085 109.903) rotate(108.435) scale(15.6258)">
<stop stop-color="#F1FFB7"/>
<stop offset="0.25" stop-color="#B9DC4E"/>
<stop offset="0.645065" stop-color="#6FB12F"/>
<stop offset="1" stop-color="#FF7C03"/>
</radialGradient>
<radialGradient id="paint14_radial_896_6164" cx="0" cy="0" r="1" gradientUnits="userSpaceOnUse" gradientTransform="translate(130.185 122.298) rotate(-90) scale(6.15493 12.1633)">
<stop stop-color="#FFAB5D"/>
<stop offset="1" stop-color="#FFC499" stop-opacity="0"/>
</radialGradient>
<radialGradient id="paint15_radial_896_6164" cx="0" cy="0" r="1" gradientUnits="userSpaceOnUse" gradientTransform="translate(130.478 113.798) rotate(97.8153) scale(15.0878)">
<stop offset="0.446038" stop-color="white" stop-opacity="0"/>
<stop offset="0.841379" stop-color="white"/>
</radialGradient>
</defs>
</svg>
