<svg xmlns="http://www.w3.org/2000/svg" width="200" height="201" viewBox="0 0 200 201" fill="none">
<g clip-path="url(#clip0_1991_24415)">
<path d="M75.8577 129.079C75.8537 129.079 75.8496 129.079 75.8456 129.079C56.5779 129.072 40.9604 112.873 40.9604 92.8924C40.9604 72.9074 56.5845 56.7063 75.8577 56.7063C76.9507 56.7063 77.9757 56.1535 78.5622 55.2312C86.1476 43.303 99.1847 35.4316 113.995 35.4316C133.287 35.4316 149.57 48.7882 154.714 67.07C155.09 68.4038 156.275 69.3581 157.653 69.4956C172.248 70.9506 183.66 83.7023 183.66 99.2179C183.66 115.165 171.604 128.193 156.427 129.035C156.416 129.036 156.407 129.045 156.407 129.057C156.407 129.069 156.397 129.079 156.385 129.079H75.8577Z" fill="url(#paint0_linear_1991_24415)"/>
<path d="M75.8577 129.079C75.8537 129.079 75.8496 129.079 75.8456 129.079C56.5779 129.072 40.9604 112.873 40.9604 92.8924C40.9604 72.9074 56.5845 56.7063 75.8577 56.7063C76.9507 56.7063 77.9757 56.1535 78.5622 55.2312C86.1476 43.303 99.1847 35.4316 113.995 35.4316C133.287 35.4316 149.57 48.7882 154.714 67.07C155.09 68.4038 156.275 69.3581 157.653 69.4956C172.248 70.9506 183.66 83.7023 183.66 99.2179C183.66 115.165 171.604 128.193 156.427 129.035C156.416 129.036 156.407 129.045 156.407 129.057C156.407 129.069 156.397 129.079 156.385 129.079H75.8577Z" fill="url(#paint1_radial_1991_24415)" fill-opacity="0.3"/>
<path d="M75.8577 129.079C75.8537 129.079 75.8496 129.079 75.8456 129.079C56.5779 129.072 40.9604 112.873 40.9604 92.8924C40.9604 72.9074 56.5845 56.7063 75.8577 56.7063C76.9507 56.7063 77.9757 56.1535 78.5622 55.2312C86.1476 43.303 99.1847 35.4316 113.995 35.4316C133.287 35.4316 149.57 48.7882 154.714 67.07C155.09 68.4038 156.275 69.3581 157.653 69.4956C172.248 70.9506 183.66 83.7023 183.66 99.2179C183.66 115.165 171.604 128.193 156.427 129.035C156.416 129.036 156.407 129.045 156.407 129.057C156.407 129.069 156.397 129.079 156.385 129.079H75.8577Z" fill="url(#paint2_radial_1991_24415)" fill-opacity="0.3"/>
<path d="M94.959 164.544C94.962 164.544 94.9649 164.544 94.9679 164.544C109.019 164.539 120.408 152.726 120.408 138.155C120.408 123.581 109.014 111.766 94.959 111.766C94.162 111.766 93.4145 111.363 92.9868 110.69C87.455 101.991 77.9476 96.251 67.1473 96.251C53.2952 96.251 41.5699 105.693 37.6313 118.71C37.23 120.036 36.0477 120.985 34.6739 121.166C24.3361 122.526 16.3428 131.679 16.3428 142.768C16.3428 154.398 25.135 163.898 36.203 164.512C36.2113 164.513 36.218 164.52 36.218 164.528C36.218 164.537 36.225 164.544 36.2337 164.544H94.959Z" fill="url(#paint3_radial_1991_24415)"/>
<path d="M94.959 164.544C94.962 164.544 94.9649 164.544 94.9679 164.544C109.019 164.539 120.408 152.726 120.408 138.155C120.408 123.581 109.014 111.766 94.959 111.766C94.162 111.766 93.4145 111.363 92.9868 110.69C87.455 101.991 77.9476 96.251 67.1473 96.251C53.2952 96.251 41.5699 105.693 37.6313 118.71C37.23 120.036 36.0477 120.985 34.6739 121.166C24.3361 122.526 16.3428 131.679 16.3428 142.768C16.3428 154.398 25.135 163.898 36.203 164.512C36.2113 164.513 36.218 164.52 36.218 164.528C36.218 164.537 36.225 164.544 36.2337 164.544H94.959Z" fill="url(#paint4_radial_1991_24415)" fill-opacity="0.15"/>
<path fill-rule="evenodd" clip-rule="evenodd" d="M75.8455 129.078H75.8576H118.863C115.294 118.975 105.938 111.766 94.9589 111.766C94.1619 111.766 93.4144 111.363 92.9867 110.69C87.4549 101.991 77.9475 96.251 67.1472 96.251C57.8386 96.251 49.4905 100.515 43.8203 107.262C49.1807 120.095 61.5016 129.073 75.8455 129.078Z" fill="url(#paint5_radial_1991_24415)"/>
</g>
<defs>
<linearGradient id="paint0_linear_1991_24415" x1="175.012" y1="29.5046" x2="92.6025" y2="219.601" gradientUnits="userSpaceOnUse">
<stop offset="0.334814" stop-color="#E7E7E7"/>
<stop offset="0.65181" stop-color="#C5B4E3"/>
</linearGradient>
<radialGradient id="paint1_radial_1991_24415" cx="0" cy="0" r="1" gradientUnits="userSpaceOnUse" gradientTransform="translate(68.9506 117.975) rotate(111.978) scale(28.8359 30.7815)">
<stop offset="0.635417" stop-color="#7A888B"/>
<stop offset="1" stop-color="#7A888B" stop-opacity="0"/>
</radialGradient>
<radialGradient id="paint2_radial_1991_24415" cx="0" cy="0" r="1" gradientUnits="userSpaceOnUse" gradientTransform="translate(104.632 129.079) rotate(141.412) scale(17.1588 26.1467)">
<stop offset="0.557292" stop-color="#7A888B"/>
<stop offset="1" stop-color="#7A888B" stop-opacity="0"/>
</radialGradient>
<radialGradient id="paint3_radial_1991_24415" cx="0" cy="0" r="1" gradientUnits="userSpaceOnUse" gradientTransform="translate(21.5649 83.4461) rotate(43.796) scale(125.401 145.697)">
<stop offset="0.323637" stop-color="#3FAEFF"/>
<stop offset="0.891427" stop-color="#0069E3"/>
</radialGradient>
<radialGradient id="paint4_radial_1991_24415" cx="0" cy="0" r="1" gradientUnits="userSpaceOnUse" gradientTransform="translate(75.2797 110.623) rotate(105.619) scale(25.6437 55.0393)">
<stop offset="0.645833" stop-color="#041A33"/>
<stop offset="0.875" stop-color="#020E1B" stop-opacity="0"/>
</radialGradient>
<radialGradient id="paint5_radial_1991_24415" cx="0" cy="0" r="1" gradientUnits="userSpaceOnUse" gradientTransform="translate(115.884 123.754) rotate(-165.915) scale(77.8123 380.801)">
<stop offset="0.303448" stop-color="#8C46FF"/>
<stop offset="0.70057" stop-color="#D957DD"/>
</radialGradient>
<clipPath id="clip0_1991_24415">
<rect width="200" height="200" fill="white" transform="translate(0 0.458008)"/>
</clipPath>
</defs>
</svg>