<svg width="192" height="193" viewBox="0 0 192 193" fill="none" xmlns="http://www.w3.org/2000/svg">
<path d="M84.3565 55.0391C82.5665 67.8388 82.4097 90.0432 91.9488 108.29C101.645 126.835 116.565 137.356 125.262 141.416C127.25 142.343 129.526 142.341 131.515 141.416C140.039 137.449 154.931 127.172 164.79 108.29C174.345 89.9888 174.187 67.839 172.393 55.0398C171.893 51.4678 169.179 48.6961 165.696 47.7557L130.426 38.231C129.091 37.8704 127.684 37.8703 126.349 38.2307L91.0521 47.7568C87.5701 48.6965 84.8559 51.4673 84.3565 55.0391Z" fill="url(#paint0_radial_896_5198)"/>
<path d="M84.3565 55.0391C82.5665 67.8388 82.4097 90.0432 91.9488 108.29C101.645 126.835 116.565 137.356 125.262 141.416C127.25 142.343 129.526 142.341 131.515 141.416C140.039 137.449 154.931 127.172 164.79 108.29C174.345 89.9888 174.187 67.839 172.393 55.0398C171.893 51.4678 169.179 48.6961 165.696 47.7557L130.426 38.231C129.091 37.8704 127.684 37.8703 126.349 38.2307L91.0521 47.7568C87.5701 48.6965 84.8559 51.4673 84.3565 55.0391Z" fill="url(#paint1_radial_896_5198)" fill-opacity="0.4"/>
<path d="M84.3565 55.0391C82.5665 67.8388 82.4097 90.0432 91.9488 108.29C101.645 126.835 116.565 137.356 125.262 141.416C127.25 142.343 129.526 142.341 131.515 141.416C140.039 137.449 154.931 127.172 164.79 108.29C174.345 89.9888 174.187 67.839 172.393 55.0398C171.893 51.4678 169.179 48.6961 165.696 47.7557L130.426 38.231C129.091 37.8704 127.684 37.8703 126.349 38.2307L91.0521 47.7568C87.5701 48.6965 84.8559 51.4673 84.3565 55.0391Z" fill="url(#paint2_radial_896_5198)" fill-opacity="0.4"/>
<path d="M51.6378 155.034C51.6339 155.034 51.63 155.034 51.6262 155.034C33.2301 155.028 18.3191 139.562 18.3191 120.485C18.3191 101.404 33.2364 85.9358 51.6378 85.9358C51.9668 85.9358 52.2948 85.9408 52.6215 85.9506C53.0608 85.9638 53.4745 85.7399 53.7016 85.3637C60.8588 73.5081 73.5662 65.6235 88.0495 65.6235C106.919 65.6235 122.774 79.0067 127.268 97.1184C127.398 97.6437 127.864 98.0207 128.405 98.0475C142.969 98.7696 154.564 111.243 154.564 126.524C154.564 141.75 143.053 154.189 128.562 154.993C128.552 154.993 128.543 155.003 128.543 155.014C128.543 155.025 128.534 155.034 128.522 155.034H51.6378Z" fill="url(#paint3_linear_896_5198)"/>
<path d="M51.6378 155.034C51.6339 155.034 51.63 155.034 51.6262 155.034C33.2301 155.028 18.3191 139.562 18.3191 120.485C18.3191 101.404 33.2364 85.9358 51.6378 85.9358C51.9668 85.9358 52.2948 85.9408 52.6215 85.9506C53.0608 85.9638 53.4745 85.7399 53.7016 85.3637C60.8588 73.5081 73.5662 65.6235 88.0495 65.6235C106.919 65.6235 122.774 79.0067 127.268 97.1184C127.398 97.6437 127.864 98.0207 128.405 98.0475C142.969 98.7696 154.564 111.243 154.564 126.524C154.564 141.75 143.053 154.189 128.562 154.993C128.552 154.993 128.543 155.003 128.543 155.014C128.543 155.025 128.534 155.034 128.522 155.034H51.6378Z" fill="url(#paint4_radial_896_5198)" fill-opacity="0.3"/>
<path fill-rule="evenodd" clip-rule="evenodd" d="M154.416 123.546C152.994 109.339 141.509 98.231 127.481 98.0176C123.296 79.4514 107.23 65.6235 88.0495 65.6235C86.4961 65.6235 84.9631 65.7142 83.4551 65.8908C83.067 78.436 84.7367 94.4939 91.9488 108.289C101.645 126.835 116.565 137.355 125.262 141.415C127.25 142.343 129.526 142.341 131.515 141.415C137.374 138.689 146.242 132.981 154.416 123.546Z" fill="url(#paint5_linear_896_5198)"/>
<path fill-rule="evenodd" clip-rule="evenodd" d="M94.1001 77.1789C94.8878 77.1789 95.5264 76.5403 95.5264 75.7525C95.5264 74.9648 94.8878 74.3262 94.1001 74.3262C93.3123 74.3262 92.6737 74.9648 92.6737 75.7525C92.6737 76.5403 93.3123 77.1789 94.1001 77.1789ZM124.693 100.572C125.087 100.572 125.407 100.253 125.407 99.8589C125.407 99.465 125.087 99.1456 124.693 99.1456C124.299 99.1456 123.98 99.465 123.98 99.8589C123.98 100.253 124.299 100.572 124.693 100.572ZM148.247 124.646C148.247 125.04 147.928 125.36 147.534 125.36C147.14 125.36 146.821 125.04 146.821 124.646C146.821 124.253 147.14 123.933 147.534 123.933C147.928 123.933 148.247 124.253 148.247 124.646ZM105.629 90.7352C106.022 90.7352 106.342 90.4158 106.342 90.0219C106.342 89.628 106.022 89.3087 105.629 89.3087C105.235 89.3087 104.915 89.628 104.915 90.0219C104.915 90.4158 105.235 90.7352 105.629 90.7352ZM123.979 91.245C123.979 92.2932 123.129 93.1429 122.081 93.1429C121.033 93.1429 120.183 92.2932 120.183 91.245C120.183 90.1968 121.033 89.3471 122.081 89.3471C123.129 89.3471 123.979 90.1968 123.979 91.245ZM113.884 126.503C114.644 126.503 115.26 125.887 115.26 125.127C115.26 124.367 114.644 123.751 113.884 123.751C113.124 123.751 112.508 124.367 112.508 125.127C112.508 125.887 113.124 126.503 113.884 126.503Z" fill="#FFD439"/>
<defs>
<radialGradient id="paint0_radial_896_5198" cx="0" cy="0" r="1" gradientUnits="userSpaceOnUse" gradientTransform="translate(168.836 18.4323) rotate(120.587) scale(153.75 156.637)">
<stop offset="0.323637" stop-color="#3FAEFF"/>
<stop offset="0.891427" stop-color="#0069E3"/>
</radialGradient>
<radialGradient id="paint1_radial_896_5198" cx="0" cy="0" r="1" gradientUnits="userSpaceOnUse" gradientTransform="translate(132.945 124.079) rotate(68.7972) scale(28.6667 24.7572)">
<stop offset="0.65625" stop-color="#081C2C"/>
<stop offset="1" stop-color="#071A28" stop-opacity="0"/>
</radialGradient>
<radialGradient id="paint2_radial_896_5198" cx="0" cy="0" r="1" gradientUnits="userSpaceOnUse" gradientTransform="translate(91.4731 97.5828) rotate(97.5449) scale(35.0939 39.2965)">
<stop offset="0.75" stop-color="#0F3653"/>
<stop offset="1" stop-color="#0F3653" stop-opacity="0"/>
</radialGradient>
<linearGradient id="paint3_linear_896_5198" x1="146.307" y1="59.9646" x2="67.625" y2="241.462" gradientUnits="userSpaceOnUse">
<stop offset="0.334814" stop-color="#E7E7E7"/>
<stop offset="0.65181" stop-color="#C9F5FF"/>
</linearGradient>
<radialGradient id="paint4_radial_896_5198" cx="0" cy="0" r="1" gradientUnits="userSpaceOnUse" gradientTransform="translate(113.741 94.0603) rotate(-24.9739) scale(31.3934 47.8376)">
<stop/>
<stop offset="0.765625" stop-opacity="0.973958"/>
<stop offset="1" stop-opacity="0"/>
</radialGradient>
<linearGradient id="paint5_linear_896_5198" x1="179.923" y1="80.1892" x2="74.024" y2="30.6037" gradientUnits="userSpaceOnUse">
<stop stop-color="#0A8DE0"/>
<stop offset="0.25" stop-color="#6DCB98"/>
<stop offset="0.65625" stop-color="#A5E25C"/>
</linearGradient>
</defs>
</svg>
