<svg width="192" height="192" viewBox="0 0 192 192" fill="none" xmlns="http://www.w3.org/2000/svg">
<path fill-rule="evenodd" clip-rule="evenodd" d="M40.8541 124.654C26.226 96.6733 26.659 62.5447 29.4667 43.2935C30.1879 38.348 33.9469 34.5122 38.7721 33.21L92.486 18.7132C94.7992 18.0889 97.2366 18.0891 99.5497 18.7138L153.223 33.2085C158.049 34.5116 161.808 38.3488 162.531 43.2947C165.344 62.5473 165.78 96.59 151.127 124.654C136.047 153.538 113.186 169.121 100.352 174.987C97.5881 176.251 94.4468 176.253 91.6838 174.986C78.5776 168.978 55.6809 153.014 40.8541 124.654ZM61.076 110.481C51.9304 92.9878 52.0807 71.6994 53.7969 59.4277C54.2757 56.0034 56.878 53.3469 60.2162 52.4459L94.0566 43.3128C95.3369 42.9673 96.6859 42.9674 97.9661 43.3131L131.781 52.4449C135.12 53.3464 137.722 56.0038 138.202 59.4285C139.921 71.6996 140.073 92.9357 130.912 110.481C121.46 128.585 107.182 138.438 99.0096 142.241C97.1031 143.128 94.9208 143.13 93.0153 142.241C84.6764 138.348 70.3718 128.262 61.076 110.481Z" fill="url(#paint0_linear_1116_11713)"/>
<path fill-rule="evenodd" clip-rule="evenodd" d="M40.8541 124.654C26.226 96.6733 26.659 62.5447 29.4667 43.2935C30.1879 38.348 33.9469 34.5122 38.7721 33.21L92.486 18.7132C94.7992 18.0889 97.2366 18.0891 99.5497 18.7138L153.223 33.2085C158.049 34.5116 161.808 38.3488 162.531 43.2947C165.344 62.5473 165.78 96.59 151.127 124.654C136.047 153.538 113.186 169.121 100.352 174.987C97.5881 176.251 94.4468 176.253 91.6838 174.986C78.5776 168.978 55.6809 153.014 40.8541 124.654ZM61.076 110.481C51.9304 92.9878 52.0807 71.6994 53.7969 59.4277C54.2757 56.0034 56.878 53.3469 60.2162 52.4459L94.0566 43.3128C95.3369 42.9673 96.6859 42.9674 97.9661 43.3131L131.781 52.4449C135.12 53.3464 137.722 56.0038 138.202 59.4285C139.921 71.6996 140.073 92.9357 130.912 110.481C121.46 128.585 107.182 138.438 99.0096 142.241C97.1031 143.128 94.9208 143.13 93.0153 142.241C84.6764 138.348 70.3718 128.262 61.076 110.481Z" fill="url(#paint1_linear_1116_11713)"/>
<path fill-rule="evenodd" clip-rule="evenodd" d="M40.8541 124.654C26.226 96.6733 26.659 62.5447 29.4667 43.2935C30.1879 38.348 33.9469 34.5122 38.7721 33.21L92.486 18.7132C94.7992 18.0889 97.2366 18.0891 99.5497 18.7138L153.223 33.2085C158.049 34.5116 161.808 38.3488 162.531 43.2947C165.344 62.5473 165.78 96.59 151.127 124.654C136.047 153.538 113.186 169.121 100.352 174.987C97.5881 176.251 94.4468 176.253 91.6838 174.986C78.5776 168.978 55.6809 153.014 40.8541 124.654ZM61.076 110.481C51.9304 92.9878 52.0807 71.6994 53.7969 59.4277C54.2757 56.0034 56.878 53.3469 60.2162 52.4459L94.0566 43.3128C95.3369 42.9673 96.6859 42.9674 97.9661 43.3131L131.781 52.4449C135.12 53.3464 137.722 56.0038 138.202 59.4285C139.921 71.6996 140.073 92.9357 130.912 110.481C121.46 128.585 107.182 138.438 99.0096 142.241C97.1031 143.128 94.9208 143.13 93.0153 142.241C84.6764 138.348 70.3718 128.262 61.076 110.481Z" fill="url(#paint2_radial_1116_11713)" fill-opacity="0.9"/>
<path fill-rule="evenodd" clip-rule="evenodd" d="M40.8541 124.654C26.226 96.6733 26.659 62.5447 29.4667 43.2935C30.1879 38.348 33.9469 34.5122 38.7721 33.21L92.486 18.7132C94.7992 18.0889 97.2366 18.0891 99.5497 18.7138L153.223 33.2085C158.049 34.5116 161.808 38.3488 162.531 43.2947C165.344 62.5473 165.78 96.59 151.127 124.654C136.047 153.538 113.186 169.121 100.352 174.987C97.5881 176.251 94.4468 176.253 91.6838 174.986C78.5776 168.978 55.6809 153.014 40.8541 124.654ZM61.076 110.481C51.9304 92.9878 52.0807 71.6994 53.7969 59.4277C54.2757 56.0034 56.878 53.3469 60.2162 52.4459L94.0566 43.3128C95.3369 42.9673 96.6859 42.9674 97.9661 43.3131L131.781 52.4449C135.12 53.3464 137.722 56.0038 138.202 59.4285C139.921 71.6996 140.073 92.9357 130.912 110.481C121.46 128.585 107.182 138.438 99.0096 142.241C97.1031 143.128 94.9208 143.13 93.0153 142.241C84.6764 138.348 70.3718 128.262 61.076 110.481Z" fill="url(#paint3_radial_1116_11713)"/>
<path fill-rule="evenodd" clip-rule="evenodd" d="M40.8541 124.654C26.226 96.6733 26.659 62.5447 29.4667 43.2935C30.1879 38.348 33.9469 34.5122 38.7721 33.21L92.486 18.7132C94.7992 18.0889 97.2366 18.0891 99.5497 18.7138L153.223 33.2085C158.049 34.5116 161.808 38.3488 162.531 43.2947C165.344 62.5473 165.78 96.59 151.127 124.654C136.047 153.538 113.186 169.121 100.352 174.987C97.5881 176.251 94.4468 176.253 91.6838 174.986C78.5776 168.978 55.6809 153.014 40.8541 124.654ZM61.076 110.481C51.9304 92.9878 52.0807 71.6994 53.7969 59.4277C54.2757 56.0034 56.878 53.3469 60.2162 52.4459L94.0566 43.3128C95.3369 42.9673 96.6859 42.9674 97.9661 43.3131L131.781 52.4449C135.12 53.3464 137.722 56.0038 138.202 59.4285C139.921 71.6996 140.073 92.9357 130.912 110.481C121.46 128.585 107.182 138.438 99.0096 142.241C97.1031 143.128 94.9208 143.13 93.0153 142.241C84.6764 138.348 70.3718 128.262 61.076 110.481Z" fill="url(#paint4_radial_1116_11713)" fill-opacity="0.8"/>
<ellipse cx="146.766" cy="104.336" rx="12.6094" ry="12.8896" fill="url(#paint5_radial_1116_11713)"/>
<ellipse cx="146.766" cy="104.336" rx="12.6094" ry="12.8896" fill="url(#paint6_radial_1116_11713)"/>
<ellipse cx="146.766" cy="104.336" rx="12.6094" ry="12.8896" fill="url(#paint7_radial_1116_11713)"/>
<ellipse cx="146.766" cy="104.336" rx="12.6094" ry="12.8896" fill="url(#paint8_radial_1116_11713)" fill-opacity="0.8"/>
<ellipse cx="146.766" cy="104.336" rx="12.6094" ry="12.8896" fill="url(#paint9_radial_1116_11713)" fill-opacity="0.5"/>
<path d="M125.881 130.043C126.427 130.043 126.871 129.6 126.871 129.053C126.871 128.507 126.427 128.063 125.881 128.063C125.334 128.063 124.891 128.507 124.891 129.053C124.891 129.6 125.334 130.043 125.881 130.043Z" fill="#FFD600"/>
<path d="M129.51 137.467C130.057 137.467 130.5 137.024 130.5 136.477C130.5 135.93 130.057 135.487 129.51 135.487C128.964 135.487 128.52 135.93 128.52 136.477C128.52 137.024 128.964 137.467 129.51 137.467Z" fill="#FFD600"/>
<path d="M107.899 155.779C108.445 155.779 108.889 155.335 108.889 154.789C108.889 154.242 108.445 153.799 107.899 153.799C107.353 153.799 106.909 154.242 106.909 154.789C106.909 155.335 107.353 155.779 107.899 155.779Z" fill="#FFD600"/>
<path d="M89.9172 165.842C89.9172 166.388 89.4738 166.832 88.9273 166.832C88.3809 166.832 87.9375 166.388 87.9375 165.842C87.9375 165.295 88.3809 164.852 88.9273 164.852C89.4738 164.852 89.9172 165.295 89.9172 165.842Z" fill="#FFD600"/>
<path d="M94.0414 157.758C94.5879 157.758 95.0312 157.315 95.0312 156.768C95.0312 156.222 94.5879 155.779 94.0414 155.779C93.495 155.779 93.0516 156.222 93.0516 156.768C93.0516 157.315 93.495 157.758 94.0414 157.758Z" fill="#FFD600"/>
<path d="M112.518 144.396C112.518 144.942 112.075 145.385 111.528 145.385C110.982 145.385 110.539 144.942 110.539 144.396C110.539 143.849 110.982 143.406 111.528 143.406C112.075 143.406 112.518 143.849 112.518 144.396Z" fill="#FFD600"/>
<path d="M120.602 156.274C120.602 157.093 119.937 157.758 119.117 157.758C118.297 157.758 117.632 157.093 117.632 156.274C117.632 155.454 118.297 154.789 119.117 154.789C119.937 154.789 120.602 155.454 120.602 156.274Z" fill="#FFD600"/>
<path d="M106.909 165.842C107.729 165.842 108.394 165.177 108.394 164.357C108.394 163.537 107.729 162.872 106.909 162.872C106.089 162.872 105.424 163.537 105.424 164.357C105.424 165.177 106.089 165.842 106.909 165.842Z" fill="#FFD600"/>
<defs>
<linearGradient id="paint0_linear_1116_11713" x1="45.0002" y1="179.675" x2="156.75" y2="103.55" gradientUnits="userSpaceOnUse">
<stop offset="0.255208" stop-color="#E2FA98"/>
<stop offset="0.447917" stop-color="#93EF52"/>
<stop offset="0.630208" stop-color="#2EDCE2"/>
<stop offset="0.755208" stop-color="#00BBFF"/>
<stop offset="0.95591" stop-color="#0094FF"/>
<stop offset="0.985553" stop-color="#E7E7E7"/>
</linearGradient>
<linearGradient id="paint1_linear_1116_11713" x1="132.375" y1="107.675" x2="114.75" y2="31.1753" gradientUnits="userSpaceOnUse">
<stop stop-color="#E7E7E7" stop-opacity="0"/>
<stop offset="0.14243" stop-color="#E7E7E7"/>
</linearGradient>
<radialGradient id="paint2_radial_1116_11713" cx="0" cy="0" r="1" gradientUnits="userSpaceOnUse" gradientTransform="translate(103.875 109.55) rotate(-155.813) scale(48.5085 81.4456)">
<stop offset="0.475339" stop-color="#33B16A"/>
<stop offset="0.57642" stop-color="#56E4AB" stop-opacity="0"/>
</radialGradient>
<radialGradient id="paint3_radial_1116_11713" cx="0" cy="0" r="1" gradientUnits="userSpaceOnUse" gradientTransform="translate(51.0002 123.8) rotate(-53.3581) scale(56.5504 73.4253)">
<stop offset="0.371664" stop-color="#E7E7E7"/>
<stop offset="0.652489" stop-color="#E7E7E7" stop-opacity="0"/>
</radialGradient>
<radialGradient id="paint4_radial_1116_11713" cx="0" cy="0" r="1" gradientUnits="userSpaceOnUse" gradientTransform="translate(143.813 115.175) rotate(109.714) scale(23.9009 12.4986)">
<stop offset="0.0943054" stop-color="#00556C"/>
<stop offset="0.787125" stop-color="#006D8B"/>
<stop offset="1" stop-color="#006D8B" stop-opacity="0"/>
</radialGradient>
<radialGradient id="paint5_radial_1116_11713" cx="0" cy="0" r="1" gradientUnits="userSpaceOnUse" gradientTransform="translate(148.651 100.643) rotate(120.139) scale(24.2221 23.964)">
<stop offset="0.103226" stop-color="#C58FF1"/>
<stop offset="0.322917" stop-color="#9D50EE"/>
<stop offset="0.510417" stop-color="#7B30EA"/>
<stop offset="0.78125" stop-color="#CB5285"/>
</radialGradient>
<radialGradient id="paint6_radial_1116_11713" cx="0" cy="0" r="1" gradientUnits="userSpaceOnUse" gradientTransform="translate(148.817 98.7699) rotate(104.184) scale(19.0371 18.6735)">
<stop stop-color="#DAB0F2"/>
<stop offset="0.806053" stop-color="#D1A5EA" stop-opacity="0"/>
</radialGradient>
<radialGradient id="paint7_radial_1116_11713" cx="0" cy="0" r="1" gradientUnits="userSpaceOnUse" gradientTransform="translate(149.15 98.259) rotate(122.964) scale(9.03268 8.95388)">
<stop stop-color="#EDDAFD"/>
<stop offset="0.573279" stop-color="#D8BDEF" stop-opacity="0.57836"/>
<stop offset="1" stop-color="#BC95DC" stop-opacity="0"/>
</radialGradient>
<radialGradient id="paint8_radial_1116_11713" cx="0" cy="0" r="1" gradientUnits="userSpaceOnUse" gradientTransform="translate(146.766 104.336) rotate(97.6474) scale(22.8713 22.3919)">
<stop offset="0.446038" stop-color="white" stop-opacity="0"/>
<stop offset="0.841379" stop-color="white"/>
</radialGradient>
<radialGradient id="paint9_radial_1116_11713" cx="0" cy="0" r="1" gradientUnits="userSpaceOnUse" gradientTransform="translate(146.331 117.226) rotate(-90) scale(9.33384 18.0444)">
<stop stop-color="#FFB3BB"/>
<stop offset="1" stop-color="#FE625D" stop-opacity="0"/>
</radialGradient>
</defs>
</svg>
