<svg width="192" height="193" viewBox="0 0 192 193" fill="none" xmlns="http://www.w3.org/2000/svg">
<path d="M151.997 166.625H42.089C31.9021 166.625 25.5985 155.525 30.817 146.776L85.3899 55.287C90.4629 46.7824 102.768 46.7447 107.893 55.2182L163.227 146.707C168.518 155.454 162.219 166.625 151.997 166.625Z" fill="url(#paint0_linear_896_5928)"/>
<path d="M151.997 166.625H42.089C31.9021 166.625 25.5985 155.525 30.817 146.776L85.3899 55.287C90.4629 46.7824 102.768 46.7447 107.893 55.2182L163.227 146.707C168.518 155.454 162.219 166.625 151.997 166.625Z" fill="url(#paint1_radial_896_5928)" fill-opacity="0.8"/>
<path d="M151.997 166.625H42.089C31.9021 166.625 25.5985 155.525 30.817 146.776L85.3899 55.287C90.4629 46.7824 102.768 46.7447 107.893 55.2182L163.227 146.707C168.518 155.454 162.219 166.625 151.997 166.625Z" fill="url(#paint2_radial_896_5928)" fill-opacity="0.8"/>
<path fill-rule="evenodd" clip-rule="evenodd" d="M96.3483 106.883C88.8712 106.883 82.8098 101.023 82.8098 93.7935L82.8098 32.6157C82.8098 25.3863 88.8712 19.5258 96.3483 19.5258C103.825 19.5258 109.887 25.3863 109.887 32.6157L109.887 93.7935C109.887 101.023 103.825 106.883 96.3483 106.883Z" fill="url(#paint3_radial_896_5928)"/>
<path fill-rule="evenodd" clip-rule="evenodd" d="M96.3483 106.883C88.8712 106.883 82.8098 101.023 82.8098 93.7935L82.8098 32.6157C82.8098 25.3863 88.8712 19.5258 96.3483 19.5258C103.825 19.5258 109.887 25.3863 109.887 32.6157L109.887 93.7935C109.887 101.023 103.825 106.883 96.3483 106.883Z" fill="url(#paint4_radial_896_5928)" fill-opacity="0.8"/>
<path fill-rule="evenodd" clip-rule="evenodd" d="M96.3483 106.883C88.8712 106.883 82.8098 101.023 82.8098 93.7935L82.8098 32.6157C82.8098 25.3863 88.8712 19.5258 96.3483 19.5258C103.825 19.5258 109.887 25.3863 109.887 32.6157L109.887 93.7935C109.887 101.023 103.825 106.883 96.3483 106.883Z" fill="url(#paint5_radial_896_5928)" fill-opacity="0.8"/>
<path fill-rule="evenodd" clip-rule="evenodd" d="M96.3483 106.883C88.8712 106.883 82.8098 101.023 82.8098 93.7935L82.8098 32.6157C82.8098 25.3863 88.8712 19.5258 96.3483 19.5258C103.825 19.5258 109.887 25.3863 109.887 32.6157L109.887 93.7935C109.887 101.023 103.825 106.883 96.3483 106.883Z" fill="url(#paint6_radial_896_5928)" fill-opacity="0.3"/>
<circle cx="95.951" cy="130.031" r="14.4394" fill="url(#paint7_radial_896_5928)"/>
<circle cx="95.951" cy="130.031" r="14.4394" fill="url(#paint8_radial_896_5928)" fill-opacity="0.5"/>
<circle cx="95.951" cy="130.031" r="14.4394" fill="url(#paint9_radial_896_5928)" fill-opacity="0.8"/>
<path d="M90.0604 30.0421C90.3358 30.2827 90.8353 30.1619 91.1766 29.772C91.5165 29.3822 91.5707 28.8712 91.2953 28.6306C91.0199 28.39 90.5204 28.511 90.1805 28.9006C89.8392 29.2905 89.785 29.8015 90.0604 30.0421Z" fill="#FEE39E"/>
<path d="M92.3295 34.5842C92.4393 34.5335 92.5389 34.4625 92.6224 34.3759C92.788 34.2037 92.8905 33.9699 92.8905 33.7125C92.8905 33.1833 92.4613 32.7543 91.9325 32.7543C91.4037 32.7543 90.9745 33.1833 90.9745 33.7125C90.9745 34.0029 91.1034 34.2631 91.307 34.4388C91.4755 34.5833 91.6937 34.6707 91.9325 34.6707C92.0746 34.6707 92.2094 34.6397 92.3295 34.5842Z" fill="#FEE39E"/>
<path d="M106.833 63.7245C106.887 63.6495 106.931 63.5662 106.963 63.4766C106.998 63.377 107.017 63.2699 107.017 63.1584C107.017 62.6292 106.588 62.2002 106.059 62.2002C105.531 62.2002 105.101 62.6292 105.101 63.1584C105.101 63.6876 105.531 64.1166 106.059 64.1166C106.377 64.1166 106.659 63.9622 106.833 63.7245Z" fill="#FEE39E"/>
<path d="M107.975 90.4979C107.975 91.027 107.546 91.4561 107.017 91.4561C106.944 91.4561 106.872 91.4476 106.804 91.4319L106.736 91.4138L106.689 91.3984L106.653 91.3837L106.597 91.359L106.534 91.3255C106.25 91.1592 106.059 90.8509 106.059 90.4979C106.059 89.9687 106.489 89.5397 107.017 89.5397C107.546 89.5397 107.975 89.9687 107.975 90.4979Z" fill="#FEE39E"/>
<path d="M85.2675 81.4173C85.3627 81.2563 85.4198 81.0553 85.4198 80.8374C85.4198 80.3082 85.0858 79.8792 84.6727 79.8792C84.2596 79.8792 83.9257 80.3082 83.9257 80.8374C83.9257 81.3666 84.2596 81.7956 84.6727 81.7956C84.9159 81.7956 85.1312 81.6473 85.2675 81.4173Z" fill="#FEE39E"/>
<path d="M90.7181 38.9154C90.5966 39.0143 90.4413 39.0734 90.2728 39.0734C90.0546 39.0734 89.8597 38.9756 89.7294 38.8217C89.7001 38.7861 89.6737 38.7475 89.6503 38.7065C89.6371 38.6823 89.6254 38.6572 89.6151 38.6314L89.5961 38.5796C89.5741 38.5115 89.5624 38.439 89.5624 38.3637C89.5624 38.1063 89.7001 37.8809 89.9052 37.7563C89.974 37.7148 90.0502 37.6844 90.1322 37.6679C90.1776 37.6588 90.2245 37.6538 90.2728 37.6538C90.6639 37.6538 90.9818 37.9717 90.9818 38.3637C90.9818 38.4955 90.9467 38.6191 90.8837 38.725C90.8397 38.7979 90.7841 38.8623 90.7181 38.9154Z" fill="#FEE39E"/>
<path d="M101.923 41.7336C102.314 41.7336 102.632 41.4159 102.632 41.0239L102.63 40.97L102.617 40.8772C102.595 40.7712 102.55 40.6738 102.485 40.591C102.387 40.4645 102.248 40.3718 102.088 40.3334C102.036 40.3207 101.98 40.314 101.923 40.314C101.671 40.314 101.45 40.4449 101.324 40.6423C101.291 40.6939 101.265 40.7501 101.246 40.8096C101.224 40.8772 101.212 40.9492 101.212 41.0239C101.212 41.4159 101.53 41.7336 101.923 41.7336Z" fill="#FEE39E"/>
<path d="M103.341 58.3612C103.341 58.7532 103.023 59.0709 102.632 59.0709C102.239 59.0709 101.921 58.7532 101.921 58.3612C101.921 57.9692 102.239 57.6513 102.632 57.6513C102.705 57.6513 102.775 57.6623 102.841 57.6826C102.97 57.7224 103.083 57.7983 103.169 57.8987C103.224 57.9619 103.266 58.0345 103.295 58.1142C103.325 58.1911 103.341 58.2742 103.341 58.3612Z" fill="#FEE39E"/>
<path d="M91.6923 74.4818C92.0834 74.4818 92.4012 74.1641 92.4012 73.7721C92.4012 73.6805 92.3837 73.593 92.3529 73.5126C92.309 73.4 92.2357 73.3013 92.1449 73.2253C92.0219 73.1235 91.8636 73.0622 91.6923 73.0622C91.2997 73.0622 90.9818 73.3801 90.9818 73.7721C90.9818 74.016 91.1049 74.2311 91.2924 74.3588C91.4066 74.4364 91.5443 74.4818 91.6923 74.4818Z" fill="#FEE39E"/>
<path d="M102.687 92.6838C102.56 92.8028 102.39 92.8757 102.203 92.8757C102.006 92.8757 101.828 92.7957 101.699 92.6664C101.571 92.538 101.492 92.3613 101.492 92.166C101.492 91.7739 101.81 91.4561 102.203 91.4561C102.594 91.4561 102.911 91.7739 102.911 92.166C102.911 92.3701 102.825 92.5543 102.687 92.6838Z" fill="#FEE39E"/>
<defs>
<linearGradient id="paint0_linear_896_5928" x1="156.888" y1="41.4339" x2="34.6246" y2="255.532" gradientUnits="userSpaceOnUse">
<stop offset="0.367698" stop-color="#E7E7E7"/>
<stop offset="0.788937" stop-color="#FEE39E"/>
</linearGradient>
<radialGradient id="paint1_radial_896_5928" cx="0" cy="0" r="1" gradientUnits="userSpaceOnUse" gradientTransform="translate(90.514 73.7943) rotate(98.3977) scale(93.8364 21.6869)">
<stop stop-color="#939393"/>
<stop offset="0.234375" stop-color="#939393"/>
<stop offset="0.697243" stop-color="#939393" stop-opacity="0"/>
</radialGradient>
<radialGradient id="paint2_radial_896_5928" cx="0" cy="0" r="1" gradientUnits="userSpaceOnUse" gradientTransform="translate(92.8767 144.205) rotate(28.1786) scale(15.0106 20.2991)">
<stop stop-color="#939393"/>
<stop offset="1" stop-color="#939393" stop-opacity="0"/>
</radialGradient>
<radialGradient id="paint3_radial_896_5928" cx="0" cy="0" r="1" gradientUnits="userSpaceOnUse" gradientTransform="translate(104.348 73.1592) scale(36.9231 292.597)">
<stop stop-color="#FE983A"/>
<stop offset="0.0572917" stop-color="#FE983A"/>
<stop offset="0.189101" stop-color="#FE7A3A"/>
<stop offset="0.45303" stop-color="#E33812"/>
<stop offset="0.933333" stop-color="#FE7A3A"/>
</radialGradient>
<radialGradient id="paint4_radial_896_5928" cx="0" cy="0" r="1" gradientUnits="userSpaceOnUse" gradientTransform="translate(126.738 23.514) rotate(109.904) scale(113.311 48.6348)">
<stop offset="0.611939" stop-color="#F6EDE3" stop-opacity="0"/>
<stop offset="0.827781" stop-color="#E56F15"/>
<stop offset="0.887395" stop-color="#F15721"/>
<stop offset="1" stop-color="#F15721"/>
</radialGradient>
<radialGradient id="paint5_radial_896_5928" cx="0" cy="0" r="1" gradientUnits="userSpaceOnUse" gradientTransform="translate(119.733 115.999) rotate(-105.419) scale(111.097 47.4415)">
<stop offset="0.738935" stop-color="#FB7F2C" stop-opacity="0"/>
<stop offset="0.932709" stop-color="#FB7F2C"/>
</radialGradient>
<radialGradient id="paint6_radial_896_5928" cx="0" cy="0" r="1" gradientUnits="userSpaceOnUse" gradientTransform="translate(99.8422 28.7881) rotate(61.9784) scale(25.487 20.6251)">
<stop stop-color="#FFC56D"/>
<stop offset="0.109375" stop-color="white"/>
<stop offset="0.262522" stop-color="white" stop-opacity="0"/>
</radialGradient>
<radialGradient id="paint7_radial_896_5928" cx="0" cy="0" r="1" gradientUnits="userSpaceOnUse" gradientTransform="translate(98.6819 123.414) rotate(108.435) scale(26.5453)">
<stop offset="0.0677083" stop-color="#FFC56D"/>
<stop offset="0.25" stop-color="#FE7A3A"/>
<stop offset="0.645065" stop-color="#E33812"/>
<stop offset="1" stop-color="#A2311A"/>
</radialGradient>
<radialGradient id="paint8_radial_896_5928" cx="0" cy="0" r="1" gradientUnits="userSpaceOnUse" gradientTransform="translate(95.4531 144.471) rotate(-90) scale(10.4561 20.6632)">
<stop stop-color="#CD4E24"/>
<stop offset="1" stop-color="#FEE39E" stop-opacity="0"/>
</radialGradient>
<radialGradient id="paint9_radial_896_5928" cx="0" cy="0" r="1" gradientUnits="userSpaceOnUse" gradientTransform="translate(95.951 130.031) rotate(97.8153) scale(25.6315)">
<stop offset="0.446038" stop-color="white" stop-opacity="0"/>
<stop offset="0.841379" stop-color="white"/>
</radialGradient>
</defs>
</svg>
