<svg width="384" height="384" viewBox="0 0 384 384" fill="none" xmlns="http://www.w3.org/2000/svg">
<path d="M55.5488 154.183V294.786C55.5488 310.794 68.5258 323.771 84.5338 323.771H256.093C272.101 323.771 285.078 310.794 285.078 294.786V71.524C285.078 55.5161 272.101 42.5391 256.093 42.5391H161.493L55.5488 154.183Z" fill="url(#paint0_linear_2729_330660)"/>
<path d="M55.5488 154.183V294.786C55.5488 310.794 68.5258 323.771 84.5338 323.771H256.093C272.101 323.771 285.078 310.794 285.078 294.786V71.524C285.078 55.5161 272.101 42.5391 256.093 42.5391H161.493L55.5488 154.183Z" fill="url(#paint1_radial_2729_330660)" fill-opacity="0.6"/>
<path d="M55.5488 154.183V294.786C55.5488 310.794 68.5258 323.771 84.5338 323.771H256.093C272.101 323.771 285.078 310.794 285.078 294.786V71.524C285.078 55.5161 272.101 42.5391 256.093 42.5391H161.493L55.5488 154.183Z" fill="url(#paint2_radial_2729_330660)" fill-opacity="0.2"/>
<path d="M55.5488 154.183V294.786C55.5488 310.794 68.5258 323.771 84.5338 323.771H256.093C272.101 323.771 285.078 310.794 285.078 294.786V71.524C285.078 55.5161 272.101 42.5391 256.093 42.5391H161.493L55.5488 154.183Z" fill="url(#paint3_radial_2729_330660)" fill-opacity="0.3"/>
<path d="M55.5488 154.183V294.786C55.5488 310.794 68.5258 323.771 84.5338 323.771H256.093C272.101 323.771 285.078 310.794 285.078 294.786V71.524C285.078 55.5161 272.101 42.5391 256.093 42.5391H161.493L55.5488 154.183Z" fill="url(#paint4_radial_2729_330660)" fill-opacity="0.2"/>
<path d="M141.262 154.562L55.5488 154.064L161.499 42.5312L166.005 130.045C166.005 143.584 154.926 154.562 141.262 154.562Z" fill="url(#paint5_linear_2729_330660)"/>
<path d="M210.145 192.718C210.145 202.967 201.836 211.275 191.587 211.275L107.943 211.275C97.6943 211.275 89.3857 202.967 89.3857 192.718C89.3857 182.469 97.6943 174.16 107.943 174.16L191.587 174.16C201.836 174.16 210.145 182.469 210.145 192.718Z" fill="url(#paint6_linear_2729_330660)"/>
<path d="M210.145 192.718C210.145 202.967 201.836 211.275 191.587 211.275L107.943 211.275C97.6943 211.275 89.3857 202.967 89.3857 192.718C89.3857 182.469 97.6943 174.16 107.943 174.16L191.587 174.16C201.836 174.16 210.145 182.469 210.145 192.718Z" fill="url(#paint7_radial_2729_330660)"/>
<path fill-rule="evenodd" clip-rule="evenodd" d="M191.587 213.525L107.943 213.525C96.4516 213.525 87.1357 204.21 87.1357 192.718C87.1357 181.226 96.4516 171.91 107.943 171.91L191.587 171.91C203.079 171.91 212.395 181.226 212.395 192.718C212.395 204.21 203.079 213.525 191.587 213.525ZM191.587 211.275C201.836 211.275 210.145 202.967 210.145 192.718C210.145 182.469 201.836 174.16 191.587 174.16L107.943 174.16C97.6943 174.16 89.3857 182.469 89.3857 192.718C89.3857 202.967 97.6943 211.275 107.943 211.275L191.587 211.275Z" fill="url(#paint8_linear_2729_330660)"/>
<path d="M148.41 254.055C148.41 263.924 140.41 271.925 130.54 271.925L107.256 271.925C97.3863 271.925 89.3857 263.924 89.3857 254.055C89.3857 244.186 97.3863 236.185 107.256 236.185L130.54 236.185C140.41 236.185 148.41 244.186 148.41 254.055Z" fill="url(#paint9_linear_2729_330660)"/>
<path d="M148.41 254.055C148.41 263.924 140.41 271.925 130.54 271.925L107.256 271.925C97.3863 271.925 89.3857 263.924 89.3857 254.055C89.3857 244.186 97.3863 236.185 107.256 236.185L130.54 236.185C140.41 236.185 148.41 244.186 148.41 254.055Z" fill="url(#paint10_radial_2729_330660)"/>
<path fill-rule="evenodd" clip-rule="evenodd" d="M130.54 274.175L107.256 274.175C96.1437 274.175 87.1357 265.167 87.1357 254.055C87.1357 242.943 96.1437 233.935 107.256 233.935L130.54 233.935C141.652 233.935 150.66 242.943 150.66 254.055C150.66 265.167 141.652 274.175 130.54 274.175ZM130.54 271.925C140.41 271.925 148.41 263.924 148.41 254.055C148.41 244.186 140.41 236.185 130.54 236.185L107.256 236.185C97.3863 236.185 89.3857 244.186 89.3857 254.055C89.3857 263.924 97.3864 271.925 107.256 271.925L130.54 271.925Z" fill="url(#paint11_linear_2729_330660)"/>
<path d="M292.964 297.092C290.461 297.092 288.657 294.687 289.298 292.267C294.314 273.336 297.501 250.461 297.501 243.387C297.501 230.657 287.181 220.337 274.45 220.337C261.72 220.337 251.4 230.657 251.4 243.387C251.4 250.461 254.586 273.336 259.602 292.267C260.243 294.687 258.44 297.092 255.936 297.092H244.918C236.634 297.092 229.918 303.807 229.918 312.092V336.546C229.918 338.618 231.597 340.296 233.668 340.296H314.75C316.821 340.296 318.5 338.618 318.5 336.546V312.092C318.5 303.807 311.784 297.092 303.5 297.092H292.964Z" fill="url(#paint12_linear_2729_330660)"/>
<path d="M292.964 297.092C290.461 297.092 288.657 294.687 289.298 292.267C294.314 273.336 297.501 250.461 297.501 243.387C297.501 230.657 287.181 220.337 274.45 220.337C261.72 220.337 251.4 230.657 251.4 243.387C251.4 250.461 254.586 273.336 259.602 292.267C260.243 294.687 258.44 297.092 255.936 297.092H244.918C236.634 297.092 229.918 303.807 229.918 312.092V336.546C229.918 338.618 231.597 340.296 233.668 340.296H314.75C316.821 340.296 318.5 338.618 318.5 336.546V312.092C318.5 303.807 311.784 297.092 303.5 297.092H292.964Z" fill="url(#paint13_radial_2729_330660)" fill-opacity="0.7"/>
<path d="M292.964 297.092C290.461 297.092 288.657 294.687 289.298 292.267C294.314 273.336 297.501 250.461 297.501 243.387C297.501 230.657 287.181 220.337 274.45 220.337C261.72 220.337 251.4 230.657 251.4 243.387C251.4 250.461 254.586 273.336 259.602 292.267C260.243 294.687 258.44 297.092 255.936 297.092H244.918C236.634 297.092 229.918 303.807 229.918 312.092V336.546C229.918 338.618 231.597 340.296 233.668 340.296H314.75C316.821 340.296 318.5 338.618 318.5 336.546V312.092C318.5 303.807 311.784 297.092 303.5 297.092H292.964Z" fill="url(#paint14_radial_2729_330660)" fill-opacity="0.6"/>
<path d="M292.964 297.092C290.461 297.092 288.657 294.687 289.298 292.267C294.314 273.336 297.501 250.461 297.501 243.387C297.501 230.657 287.181 220.337 274.45 220.337C261.72 220.337 251.4 230.657 251.4 243.387C251.4 250.461 254.586 273.336 259.602 292.267C260.243 294.687 258.44 297.092 255.936 297.092H244.918C236.634 297.092 229.918 303.807 229.918 312.092V336.546C229.918 338.618 231.597 340.296 233.668 340.296H314.75C316.821 340.296 318.5 338.618 318.5 336.546V312.092C318.5 303.807 311.784 297.092 303.5 297.092H292.964Z" fill="url(#paint15_radial_2729_330660)" fill-opacity="0.4"/>
<rect x="215.193" y="339.813" width="118.27" height="14.4822" rx="7.24109" fill="url(#paint16_linear_2729_330660)"/>
<path d="M263.117 105.296C263.117 109.204 259.63 112.393 258.221 115.793C256.759 119.314 256.915 124.024 254.264 126.68C251.609 129.336 246.903 129.179 243.377 130.637C239.978 132.045 236.789 135.533 232.881 135.533C228.973 135.533 225.784 132.045 222.385 130.637C218.863 129.174 214.153 129.331 211.497 126.68C208.841 124.024 208.998 119.319 207.54 115.793C206.132 112.393 202.645 109.204 202.645 105.296C202.645 101.388 206.132 98.1995 207.54 94.8002C209.003 91.2787 208.846 86.5686 211.497 83.9128C214.153 81.257 218.858 81.4135 222.385 79.956C225.784 78.5474 228.973 75.0601 232.881 75.0601C236.789 75.0601 239.978 78.5474 243.377 79.956C246.899 81.4184 251.609 81.2619 254.264 83.9128C256.92 86.5686 256.764 91.2738 258.221 94.8002C259.63 98.1995 263.117 101.384 263.117 105.296Z" fill="url(#paint17_linear_2729_330660)"/>
<path d="M263.117 105.296C263.117 109.204 259.63 112.393 258.221 115.793C256.759 119.314 256.915 124.024 254.264 126.68C251.609 129.336 246.903 129.179 243.377 130.637C239.978 132.045 236.789 135.533 232.881 135.533C228.973 135.533 225.784 132.045 222.385 130.637C218.863 129.174 214.153 129.331 211.497 126.68C208.841 124.024 208.998 119.319 207.54 115.793C206.132 112.393 202.645 109.204 202.645 105.296C202.645 101.388 206.132 98.1995 207.54 94.8002C209.003 91.2787 208.846 86.5686 211.497 83.9128C214.153 81.257 218.858 81.4135 222.385 79.956C225.784 78.5474 228.973 75.0601 232.881 75.0601C236.789 75.0601 239.978 78.5474 243.377 79.956C246.899 81.4184 251.609 81.2619 254.264 83.9128C256.92 86.5686 256.764 91.2738 258.221 94.8002C259.63 98.1995 263.117 101.384 263.117 105.296Z" fill="url(#paint18_radial_2729_330660)"/>
<path d="M263.117 105.296C263.117 109.204 259.63 112.393 258.221 115.793C256.759 119.314 256.915 124.024 254.264 126.68C251.609 129.336 246.903 129.179 243.377 130.637C239.978 132.045 236.789 135.533 232.881 135.533C228.973 135.533 225.784 132.045 222.385 130.637C218.863 129.174 214.153 129.331 211.497 126.68C208.841 124.024 208.998 119.319 207.54 115.793C206.132 112.393 202.645 109.204 202.645 105.296C202.645 101.388 206.132 98.1995 207.54 94.8002C209.003 91.2787 208.846 86.5686 211.497 83.9128C214.153 81.257 218.858 81.4135 222.385 79.956C225.784 78.5474 228.973 75.0601 232.881 75.0601C236.789 75.0601 239.978 78.5474 243.377 79.956C246.899 81.4184 251.609 81.2619 254.264 83.9128C256.92 86.5686 256.764 91.2738 258.221 94.8002C259.63 98.1995 263.117 101.384 263.117 105.296Z" fill="url(#paint19_radial_2729_330660)" fill-opacity="0.5"/>
<path d="M263.117 105.296C263.117 109.204 259.63 112.393 258.221 115.793C256.759 119.314 256.915 124.024 254.264 126.68C251.609 129.336 246.903 129.179 243.377 130.637C239.978 132.045 236.789 135.533 232.881 135.533C228.973 135.533 225.784 132.045 222.385 130.637C218.863 129.174 214.153 129.331 211.497 126.68C208.841 124.024 208.998 119.319 207.54 115.793C206.132 112.393 202.645 109.204 202.645 105.296C202.645 101.388 206.132 98.1995 207.54 94.8002C209.003 91.2787 208.846 86.5686 211.497 83.9128C214.153 81.257 218.858 81.4135 222.385 79.956C225.784 78.5474 228.973 75.0601 232.881 75.0601C236.789 75.0601 239.978 78.5474 243.377 79.956C246.899 81.4184 251.609 81.2619 254.264 83.9128C256.92 86.5686 256.764 91.2738 258.221 94.8002C259.63 98.1995 263.117 101.384 263.117 105.296Z" fill="url(#paint20_radial_2729_330660)" fill-opacity="0.7"/>
<path d="M252.197 105.297C252.197 107.796 249.966 109.831 249.066 112.003C248.132 114.253 248.235 117.261 246.538 118.958C244.841 120.655 241.833 120.552 239.583 121.486C237.411 122.386 235.376 124.617 232.877 124.617C230.378 124.617 228.343 122.386 226.172 121.486C223.922 120.552 220.914 120.655 219.217 118.958C217.519 117.261 217.622 114.253 216.688 112.003C215.788 109.831 213.558 107.796 213.558 105.297C213.558 102.798 215.788 100.763 216.688 98.5915C217.622 96.3416 217.519 93.3336 219.217 91.6365C220.914 89.9393 223.922 90.042 226.172 89.1078C228.343 88.2079 230.378 85.9775 232.877 85.9775C235.376 85.9775 237.411 88.2079 239.583 89.1078C241.833 90.042 244.841 89.9393 246.538 91.6365C248.235 93.3336 248.132 96.3416 249.066 98.5915C249.966 100.763 252.197 102.798 252.197 105.297Z" fill="url(#paint21_linear_2729_330660)"/>
<path d="M252.197 105.297C252.197 107.796 249.966 109.831 249.066 112.003C248.132 114.253 248.235 117.261 246.538 118.958C244.841 120.655 241.833 120.552 239.583 121.486C237.411 122.386 235.376 124.617 232.877 124.617C230.378 124.617 228.343 122.386 226.172 121.486C223.922 120.552 220.914 120.655 219.217 118.958C217.519 117.261 217.622 114.253 216.688 112.003C215.788 109.831 213.558 107.796 213.558 105.297C213.558 102.798 215.788 100.763 216.688 98.5915C217.622 96.3416 217.519 93.3336 219.217 91.6365C220.914 89.9393 223.922 90.042 226.172 89.1078C228.343 88.2079 230.378 85.9775 232.877 85.9775C235.376 85.9775 237.411 88.2079 239.583 89.1078C241.833 90.042 244.841 89.9393 246.538 91.6365C248.235 93.3336 248.132 96.3416 249.066 98.5915C249.966 100.763 252.197 102.798 252.197 105.297Z" fill="url(#paint22_radial_2729_330660)" fill-opacity="0.6"/>
<path d="M107.723 185.575C107.723 186.777 106.748 187.751 105.546 187.751C104.344 187.751 103.37 186.777 103.37 185.575C103.37 184.373 104.344 183.398 105.546 183.398C106.748 183.398 107.723 184.373 107.723 185.575Z" fill="#D6A5FF"/>
<path d="M121.764 202.705C121.764 203.496 121.123 204.137 120.331 204.137C119.54 204.137 118.899 203.496 118.899 202.705C118.899 201.914 119.54 201.272 120.331 201.272C121.123 201.272 121.764 201.914 121.764 202.705Z" fill="#D6A5FF"/>
<path d="M153.574 186.263C154.365 186.263 155.007 185.622 155.007 184.831C155.007 184.04 154.365 183.398 153.574 183.398C152.783 183.398 152.142 184.04 152.142 184.831C152.142 185.622 152.783 186.263 153.574 186.263Z" fill="#D6A5FF"/>
<path d="M189.586 196.397C189.586 197.188 188.944 197.83 188.153 197.83C187.362 197.83 186.721 197.188 186.721 196.397C186.721 195.606 187.362 194.965 188.153 194.965C188.944 194.965 189.586 195.606 189.586 196.397Z" fill="#D6A5FF"/>
<path d="M193.008 192.583C193.565 192.583 194.016 192.132 194.016 191.575C194.016 191.019 193.565 190.567 193.008 190.567C192.452 190.567 192 191.019 192 191.575C192 192.132 192.452 192.583 193.008 192.583Z" fill="#D6A5FF"/>
<path d="M125.359 198.195C125.359 199.187 124.554 199.992 123.561 199.992C122.569 199.992 121.764 199.187 121.764 198.195C121.764 197.202 122.569 196.397 123.561 196.397C124.554 196.397 125.359 197.202 125.359 198.195Z" fill="#D6A5FF"/>
<path d="M162.317 204.867C163.663 204.867 164.754 203.776 164.754 202.43C164.754 201.084 163.663 199.992 162.317 199.992C160.97 199.992 159.879 201.084 159.879 202.43C159.879 203.776 160.97 204.867 162.317 204.867Z" fill="#D6A5FF"/>
<path d="M134.689 243.864C134.689 244.421 134.238 244.872 133.681 244.872C133.125 244.872 132.674 244.421 132.674 243.864C132.674 243.308 133.125 242.856 133.681 242.856C134.238 242.856 134.689 243.308 134.689 243.864Z" fill="#D6A5FF"/>
<path d="M128.48 254.273C129.036 254.273 129.487 253.822 129.487 253.266C129.487 252.709 129.036 252.258 128.48 252.258C127.923 252.258 127.472 252.709 127.472 253.266C127.472 253.822 127.923 254.273 128.48 254.273Z" fill="#D6A5FF"/>
<path d="M118.899 265.258C119.69 265.258 120.331 264.617 120.331 263.826C120.331 263.034 119.69 262.393 118.899 262.393C118.108 262.393 117.467 263.034 117.467 263.826C117.467 264.617 118.108 265.258 118.899 265.258Z" fill="#D6A5FF"/>
<path d="M140.161 254.055C141.153 254.055 141.958 253.25 141.958 252.258C141.958 251.265 141.153 250.46 140.161 250.46C139.168 250.46 138.363 251.265 138.363 252.258C138.363 253.25 139.168 254.055 140.161 254.055Z" fill="#D6A5FF"/>
<path d="M100.671 260.595C100.671 261.588 99.8663 262.393 98.8736 262.393C97.8809 262.393 97.0762 261.588 97.0762 260.595C97.0762 259.603 97.8809 258.798 98.8736 258.798C99.8663 258.798 100.671 259.603 100.671 260.595Z" fill="#D6A5FF"/>
<path d="M103.109 249.747C104.455 249.747 105.546 248.656 105.546 247.309C105.546 245.963 104.455 244.872 103.109 244.872C101.762 244.872 100.671 245.963 100.671 247.309C100.671 248.656 101.762 249.747 103.109 249.747Z" fill="#D6A5FF"/>
<defs>
<linearGradient id="paint0_linear_2729_330660" x1="271.167" y1="24.7396" x2="-60.4742" y2="434.479" gradientUnits="userSpaceOnUse">
<stop offset="0.40601" stop-color="#E7E7E7"/>
<stop offset="0.700403" stop-color="#DFFF87"/>
</linearGradient>
<radialGradient id="paint1_radial_2729_330660" cx="0" cy="0" r="1" gradientUnits="userSpaceOnUse" gradientTransform="translate(79.7455 128.793) rotate(-165.685) scale(95.8109 71.5141)">
<stop offset="0.29673" stop-color="#939393"/>
<stop offset="1" stop-color="#E7E7E7" stop-opacity="0"/>
</radialGradient>
<radialGradient id="paint2_radial_2729_330660" cx="0" cy="0" r="1" gradientUnits="userSpaceOnUse" gradientTransform="translate(141.026 206.362) rotate(90.9075) scale(17.4655 57.8821)">
<stop offset="0.375" stop-color="#404040"/>
<stop offset="1" stop-color="#404040" stop-opacity="0"/>
</radialGradient>
<radialGradient id="paint3_radial_2729_330660" cx="0" cy="0" r="1" gradientUnits="userSpaceOnUse" gradientTransform="translate(118.09 268.881) rotate(88.3789) scale(71.8473 159.44)">
<stop stop-color="#6A6555"/>
<stop offset="0.192708" stop-color="#6A6555" stop-opacity="0"/>
</radialGradient>
<radialGradient id="paint4_radial_2729_330660" cx="0" cy="0" r="1" gradientUnits="userSpaceOnUse" gradientTransform="translate(230.844 112.693) rotate(90.1126) scale(42.1389 39.9291)">
<stop offset="0.505208"/>
<stop offset="0.722702" stop-opacity="0"/>
</radialGradient>
<linearGradient id="paint5_linear_2729_330660" x1="95.5323" y1="108.549" x2="160.235" y2="170.991" gradientUnits="userSpaceOnUse">
<stop stop-color="#FAF1EB"/>
<stop offset="0.180045" stop-color="#E2D5CB"/>
<stop offset="0.732971" stop-color="#FAF1EB"/>
</linearGradient>
<linearGradient id="paint6_linear_2729_330660" x1="128.794" y1="213.85" x2="134.464" y2="144.939" gradientUnits="userSpaceOnUse">
<stop stop-color="#FFF6EF"/>
<stop offset="0.447427" stop-color="#FFF7F0"/>
</linearGradient>
<radialGradient id="paint7_radial_2729_330660" cx="0" cy="0" r="1" gradientUnits="userSpaceOnUse" gradientTransform="translate(149.765 180.651) rotate(-90) scale(20.3058 139.947)">
<stop stop-color="#FEE3CC"/>
<stop offset="1" stop-color="#FEE3CC" stop-opacity="0"/>
</radialGradient>
<linearGradient id="paint8_linear_2729_330660" x1="149.765" y1="211.275" x2="134.793" y2="159.171" gradientUnits="userSpaceOnUse">
<stop stop-color="#FEE5D1"/>
<stop offset="1" stop-color="#FFF6EF"/>
</linearGradient>
<linearGradient id="paint9_linear_2729_330660" x1="108.648" y1="274.404" x2="119.2" y2="209.308" gradientUnits="userSpaceOnUse">
<stop stop-color="#FFF6EF"/>
<stop offset="0.447427" stop-color="#FFF7F0"/>
</linearGradient>
<radialGradient id="paint10_radial_2729_330660" cx="0" cy="0" r="1" gradientUnits="userSpaceOnUse" gradientTransform="translate(118.898 242.436) rotate(-90) scale(19.5532 68.4034)">
<stop stop-color="#FEE3CC"/>
<stop offset="1" stop-color="#FEE3CC" stop-opacity="0"/>
</radialGradient>
<linearGradient id="paint11_linear_2729_330660" x1="118.898" y1="271.925" x2="95.6117" y2="230.791" gradientUnits="userSpaceOnUse">
<stop stop-color="#FEE5D1"/>
<stop offset="1" stop-color="#FFF6EF"/>
</linearGradient>
<linearGradient id="paint12_linear_2729_330660" x1="274.209" y1="220.337" x2="274.209" y2="340.296" gradientUnits="userSpaceOnUse">
<stop offset="0.364583" stop-color="#8EE779"/>
<stop offset="1" stop-color="#30A0F1"/>
</linearGradient>
<radialGradient id="paint13_radial_2729_330660" cx="0" cy="0" r="1" gradientUnits="userSpaceOnUse" gradientTransform="translate(280.302 237.418) rotate(101.07) scale(16.4556 16.7328)">
<stop stop-color="white"/>
<stop offset="1" stop-color="white" stop-opacity="0"/>
</radialGradient>
<radialGradient id="paint14_radial_2729_330660" cx="0" cy="0" r="1" gradientUnits="userSpaceOnUse" gradientTransform="translate(280.66 354.761) rotate(90) scale(22.5622 172.67)">
<stop offset="0.447917" stop-color="#0A4776"/>
<stop offset="1" stop-color="#0A4776" stop-opacity="0"/>
</radialGradient>
<radialGradient id="paint15_radial_2729_330660" cx="0" cy="0" r="1" gradientUnits="userSpaceOnUse" gradientTransform="translate(273.193 297.449) rotate(90) scale(4.82136 89.0098)">
<stop stop-color="white"/>
<stop offset="1" stop-color="white" stop-opacity="0"/>
</radialGradient>
<linearGradient id="paint16_linear_2729_330660" x1="274.328" y1="339.813" x2="274.328" y2="354.296" gradientUnits="userSpaceOnUse">
<stop offset="0.5" stop-color="#FFC452"/>
<stop offset="1" stop-color="#E17816"/>
</linearGradient>
<linearGradient id="paint17_linear_2729_330660" x1="238.693" y1="91.468" x2="213.654" y2="130.858" gradientUnits="userSpaceOnUse">
<stop offset="0.140625" stop-color="#F8DF61"/>
<stop offset="1" stop-color="#F96334"/>
</linearGradient>
<radialGradient id="paint18_radial_2729_330660" cx="0" cy="0" r="1" gradientUnits="userSpaceOnUse" gradientTransform="translate(236.948 98.7621) rotate(107.948) scale(67.2362 67.2362)">
<stop stop-color="#CC491E" stop-opacity="0"/>
<stop offset="0.390741" stop-color="#CC491E" stop-opacity="0"/>
<stop offset="0.615769" stop-color="#CC491E"/>
</radialGradient>
<radialGradient id="paint19_radial_2729_330660" cx="0" cy="0" r="1" gradientUnits="userSpaceOnUse" gradientTransform="translate(224.479 126.937) rotate(109.903) scale(2.85153 9.78901)">
<stop stop-color="white"/>
<stop offset="1" stop-color="white" stop-opacity="0"/>
</radialGradient>
<radialGradient id="paint20_radial_2729_330660" cx="0" cy="0" r="1" gradientUnits="userSpaceOnUse" gradientTransform="translate(244.113 85.5985) rotate(110.054) scale(3.11939 11.4085)">
<stop stop-color="white"/>
<stop offset="1" stop-color="white" stop-opacity="0"/>
</radialGradient>
<linearGradient id="paint21_linear_2729_330660" x1="236.591" y1="96.4614" x2="220.592" y2="121.63" gradientUnits="userSpaceOnUse">
<stop offset="0.140625" stop-color="#F8DF61"/>
<stop offset="1" stop-color="#F9AA34"/>
</linearGradient>
<radialGradient id="paint22_radial_2729_330660" cx="0" cy="0" r="1" gradientUnits="userSpaceOnUse" gradientTransform="translate(227.215 116.372) rotate(97.5053) scale(62.7379 48.1178)">
<stop offset="0.333333" stop-color="#F35A06" stop-opacity="0"/>
<stop offset="0.541667" stop-color="#F35A06"/>
</radialGradient>
</defs>
</svg>
