<svg xmlns="http://www.w3.org/2000/svg" xmlns:xlink="http://www.w3.org/1999/xlink" viewBox="0 0 242.33 214.61"><defs><style>.cls-1,.cls-10,.cls-17,.cls-18,.cls-2,.cls-6,.cls-7,.cls-8{fill:none;}.cls-1{stroke:#dfe1e5;}.cls-1,.cls-10,.cls-2,.cls-6,.cls-7,.cls-8,.cls-9{s troke-miterlimit:10;}.cls-1,.cls-10,.cls-17,.cls-18,.cls-2,.cls-6,.cls-7,.cls-8,.cls-9{stroke-width:2px;}.cls-2{stroke:#c1c7d0;}.cls-3{fill:url(#linear-gradient);}.cls-4{fill:#ebecf0;}.cls-5{fill:url(#linear-gradient-2);}.cls-6{stroke:#3384ff;}.cls-7{stroke:#ff7452;}.cls-8{stroke:#fafbfc;}.cls-9{fill:#ffab00;stroke:#2684ff;}.cls-10{stroke:#ffab00;}.cls-11{fill:url(#linear-gradient-3);}.cls-12{fill:url(#linear-gradient-4);}.cls-13{fill:url(#linear-gradient-5);}.cls-14{fill:#ff7452;}.cls-15{fill:#a5adba;}.cls-16{fill:url(#linear-gradient-6);}.cls-17{stroke:#b2d4ff;}.cls-17,.cls-18{stroke-linecap:round;stroke-linejoin:round;}.cls-18{stroke:#4c9aff;}</style><linearGradient id="linear-gradient" x1="84.01" y1="74.59" x2="111.51" y2="47.1" gradientUnits="userSpaceOnUse"><stop offset="0.03" stop-color="#c1c7d0"></stop><stop offset="0.73" stop-color="#ebecf0"></stop></linearGradient><linearGradient id="linear-gradient-2" x1="58.14" y1="209.23" x2="193.53" y2="73.83" gradientUnits="userSpaceOnUse"><stop offset="0.15" stop-color="#253858"></stop><stop offset="0.64" stop-color="#273a59"></stop><stop offset="0.82" stop-color="#2e405f"></stop><stop offset="0.94" stop-color="#394a67"></stop><stop offset="1" stop-color="#42526e"></stop></linearGradient><linearGradient id="linear-gradient-3" x1="14.67" y1="179.83" x2="242.33" y2="179.83" gradientUnits="userSpaceOnUse"><stop offset="0" stop-color="#6c798f"></stop><stop offset="1" stop-color="#ebecf0"></stop></linearGradient><linearGradient id="linear-gradient-4" x1="-3.07" y1="173.66" x2="246.18" y2="173.66" gradientUnits="userSpaceOnUse"><stop offset="0.02" stop-color="#a5adba"></stop><stop offset="1" stop-color="#ebecf0"></stop></linearGradient><linearGradient id="linear-gradient-5" x1="-3.07" y1="148.62" x2="246.18" y2="148.62" xlink:href="#linear-gradient-4"></linearGradient><linearGradient id="linear-gradient-6" x1="34.72" y1="89.58" x2="128.3" y2="-4" gradientUnits="userSpaceOnUse"><stop offset="0" stop-color="#b2d4ff" stop-opacity="0"></stop><stop offset="0.09" stop-color="#add1ff" stop-opacity="0.05"></stop><stop offset="0.25" stop-color="#9fc9ff" stop-opacity="0.18"></stop><stop offset="0.48" stop-color="#89bdff" stop-opacity="0.4"></stop><stop offset="0.74" stop-color="#6bacff" stop-opacity="0.69"></stop><stop offset="1" stop-color="#4c9aff"></stop></linearGradient></defs><title>Release 2</title><g id="Layer_2" data-name="Layer 2"><g id="Software"><path class="cls-1" d="M196.42,78.6a139.29,139.29,0,0,0,44.77,67.22"></path><path class="cls-2" d="M55.11,78.63A215.9,215.9,0,0,1,38.57,138.3a215.69,215.69,0,0,1-23,39.94"></path><rect class="cls-3" x="87.29" y="43.82" width="20.95" height="34.04"></rect><rect class="cls-4" x="143.48" y="43.82" width="20.95" height="34.04"></rect><rect id="_Rectangle_" data-name="&lt;Rectangle&gt;" class="cls-5" x="54.11" y="77.86" width="143.45" height="127.34"></rect><line class="cls-6" x1="85.58" y1="94.04" x2="123.66" y2="94.04"></line><line class="cls-6" x1="69.36" y1="94.04" x2="79.03" y2="94.04"></line><line class="cls-7" x1="85.58" y1="104.81" x2="123.66" y2="104.81"></line><line class="cls-6" x1="69.36" y1="104.81" x2="79.03" y2="104.81"></line><line class="cls-6" x1="85.58" y1="115.58" x2="157.12" y2="115.58"></line><line class="cls-6" x1="69.36" y1="115.58" x2="79.03" y2="115.58"></line><line class="cls-7" x1="157.12" y1="126.35" x2="182.02" y2="126.35"></line><line class="cls-8" x1="116.74" y1="126.35" x2="149.48" y2="126.35"></line><line class="cls-7" x1="85.58" y1="126.35" x2="107.79" y2="126.35"></line><line class="cls-6" x1="69.36" y1="126.35" x2="79.03" y2="126.35"></line><line class="cls-6" x1="85.58" y1="137.12" x2="157.12" y2="137.12"></line><line class="cls-6" x1="69.36" y1="137.12" x2="79.03" y2="137.12"></line><line class="cls-6" x1="85.58" y1="147.89" x2="123.66" y2="147.89"></line><line class="cls-6" x1="69.36" y1="147.89" x2="79.03" y2="147.89"></line><line class="cls-7" x1="85.58" y1="158.66" x2="123.66" y2="158.66"></line><line class="cls-6" x1="69.36" y1="158.66" x2="79.03" y2="158.66"></line><line class="cls-9" x1="85.58" y1="169.43" x2="155.49" y2="169.43"></line><line class="cls-6" x1="69.36" y1="169.43" x2="79.03" y2="169.43"></line><line class="cls-6" x1="69.36" y1="158.66" x2="79.03" y2="158.66"></line><line class="cls-6" x1="69.36" y1="169.43" x2="79.03" y2="169.43"></line><line class="cls-10" x1="85.58" y1="180.2" x2="123.66" y2="180.2"></line><line class="cls-6" x1="69.36" y1="180.2" x2="79.03" y2="180.2"></line><line class="cls-6" x1="132.4" y1="190.97" x2="155.49" y2="190.97"></line><line class="cls-8" x1="85.58" y1="190.97" x2="123.66" y2="190.97"></line><line class="cls-6" x1="69.36" y1="190.97" x2="79.03" y2="190.97"></line><g id="_Group_" data-name="&lt;Group&gt;"><path class="cls-11" d="M242.33,145.06l-21.91,69.06a24.17,24.17,0,0,1-12.2-6.47l0,0a24.34,24.34,0,0,1-34.1,0h0a24.31,24.31,0,0,1-34.09,0h0a24.31,24.31,0,0,1-34.1,0h0a24.31,24.31,0,0,1-34.09,0h0a24.33,24.33,0,0,1-34.09,0A24.3,24.3,0,0,1,26.15,214L14.67,177.51l102.68-1a42.92,42.92,0,0,0,32.81-15.74,42.93,42.93,0,0,1,33.22-15.73Z"></path></g><path class="cls-12" d="M150.16,160.79a42.92,42.92,0,0,1-32.81,15.74l-102.68,1,3.13,10H228.88l8.75-27.59H151C150.69,160.18,150.42,160.47,150.16,160.79Z"></path><path class="cls-13" d="M165,149.19a42.69,42.69,0,0,0-5.27,3h80.34l2.26-7.11h-59A42.94,42.94,0,0,0,165,149.19Z"></path><path class="cls-14" d="M151,159.87h86.68l2.44-7.7H159.73A43.08,43.08,0,0,0,151,159.87Z"></path><circle class="cls-15" cx="175.8" cy="173.66" r="6.18"></circle><circle class="cls-15" cx="203.88" cy="173.66" r="6.18"></circle><rect class="cls-14" x="87.29" y="48.91" width="20.95" height="6.9"></rect><rect class="cls-14" x="143.48" y="48.91" width="20.95" height="6.9"></rect><path class="cls-16" d="M164.43,43.89a28.38,28.38,0,0,0-28.38-28.38H91A15.5,15.5,0,0,0,75.49,0H49.25A15.5,15.5,0,0,0,33.74,15.51h0A21.65,21.65,0,0,0,12.09,37.16v6.73H8a7.93,7.93,0,0,0-8,7.24A7.75,7.75,0,0,0,7.76,59.4h34A15.53,15.53,0,0,0,56.43,48.93a7.28,7.28,0,0,1,6.85-5h0A7.29,7.29,0,0,1,70,48.46,12,12,0,0,0,81,55.82h47.2a12,12,0,0,0,12-11.93Z"></path><polyline class="cls-17" points="134.85 3.99 138.78 8.26 134.5 12.18"></polyline><polyline class="cls-17" points="124.5 3.9 120.22 7.83 124.15 12.1"></polyline><line class="cls-17" x1="130.9" y1="2.48" x2="127.79" y2="13.65"></line><polyline class="cls-17" points="30.21 55.32 34.13 59.59 29.86 63.52"></polyline><polyline class="cls-17" points="19.85 55.24 15.58 59.16 19.5 63.43"></polyline><line class="cls-17" x1="26.25" y1="53.81" x2="23.14" y2="64.99"></line><polyline class="cls-18" points="71.79 15.59 67.52 19.52 71.44 23.79"></polyline><line class="cls-18" x1="76.1" y1="23.79" x2="82.54" y2="23.79"></line></g></g></svg>