<svg width="416" height="220" viewBox="0 0 416 220" fill="none" xmlns="http://www.w3.org/2000/svg">
<g clip-path="url(#clip0_4905_394801)">
<path d="M176.993 92C176.993 87.8579 180.351 84.5 184.493 84.5H408.493C412.635 84.5 415.993 87.8579 415.993 92V263.5H176.993V92Z" fill="white" stroke="#B3D6F2"/>
<g clip-path="url(#clip1_4905_394801)">
<path d="M308.151 185.156C306.337 185.156 304.596 184.435 303.312 183.153C302.028 181.87 301.305 180.131 301.303 178.316C299.583 178.335 297.91 178.884 296.514 179.89C295.118 180.895 294.066 182.306 293.502 183.932C292.938 185.557 292.889 187.317 293.363 188.971C293.836 190.625 294.809 192.092 296.147 193.173C297.486 194.253 299.126 194.894 300.842 195.008C302.559 195.122 304.269 194.704 305.739 193.81C307.208 192.915 308.366 191.589 309.054 190.013C309.742 188.436 309.927 186.685 309.583 184.999C309.112 185.101 308.633 185.154 308.151 185.156Z" fill="url(#paint0_linear_4905_394801)"/>
<path d="M317.799 195.42C317.493 192.407 316.549 189.494 315.029 186.874C314.817 190.322 313.299 193.56 310.784 195.928C308.27 198.297 304.947 199.619 301.493 199.625C301.168 199.625 300.864 199.553 300.547 199.528C293.369 199.434 286.493 196.628 281.298 191.675C276.831 187.383 273.519 182.035 271.667 176.124C269.223 178.346 266.908 180.706 264.734 183.192C264.345 183.552 264.034 183.988 263.821 184.473C263.609 184.959 263.499 185.483 263.499 186.013C263.499 186.543 263.609 187.067 263.821 187.552C264.034 188.038 264.345 188.474 264.734 188.833C269.407 194.437 274.912 199.289 281.057 203.222C287.237 207.458 294.554 209.726 302.046 209.729C306.915 209.756 311.72 208.614 316.055 206.398C316.33 206.271 316.566 206.102 316.836 205.975C317.797 202.545 318.124 198.968 317.799 195.42Z" fill="url(#paint1_linear_4905_394801)"/>
<path d="M289.493 192.333C288.091 189.751 287.576 186.779 288.026 183.875C288.477 180.971 289.869 178.295 291.989 176.259C295.411 171.652 300.209 168.252 305.69 166.548C308.678 165.636 311.779 165.147 314.903 165.096C312.389 164.007 309.758 163.213 307.062 162.731C299.678 161.488 292.091 162.741 285.499 166.291C281.811 168.204 278.33 170.493 275.112 173.122C276.631 178.919 279.696 184.195 283.979 188.386C285.631 189.944 287.486 191.272 289.493 192.333Z" fill="url(#paint2_linear_4905_394801)"/>
<path d="M338.353 183.378C334.227 178.436 329.462 174.064 324.184 170.378C318.664 168.871 312.837 168.9 307.333 170.462C305.679 170.966 304.083 171.645 302.574 172.489C304.932 172.655 307.206 173.435 309.169 174.752C309.345 174.802 309.513 174.878 309.668 174.976C312.917 177.158 315.679 179.989 317.779 183.291C319.88 186.593 321.274 190.294 321.874 194.162C322.261 197.194 322.214 200.267 321.735 203.286C327.991 199.31 333.592 194.385 338.336 188.69C338.701 188.35 338.992 187.94 339.191 187.484C339.391 187.028 339.494 186.535 339.496 186.038C339.497 185.54 339.397 185.047 339.2 184.589C339.004 184.132 338.716 183.72 338.353 183.378Z" fill="url(#paint3_linear_4905_394801)"/>
<path d="M353.76 132.217H251.249V249.473H353.76V132.217Z" stroke="#B31B1B" stroke-miterlimit="10"/>
</g>
<path d="M176.493 92C176.493 87.5817 180.075 84 184.493 84H408.493C412.911 84 416.493 87.5817 416.493 92V124H176.493V92Z" fill="url(#paint4_linear_4905_394801)"/>
<rect opacity="0.5" x="177.493" y="124" width="28" height="139" fill="#F3F2F1"/>
<circle cx="191.493" cy="142" r="8" fill="#C7E0F4"/>
<circle cx="191.493" cy="166" r="8" fill="#C7E0F4"/>
<circle cx="191.493" cy="190" r="8" fill="#C7E0F4"/>
<path d="M0.993164 14C0.993164 9.85787 4.35103 6.5 8.49316 6.5H240.493C244.635 6.5 247.993 9.85786 247.993 14V171.5H0.993164V14Z" fill="white" stroke="#7A7A7A"/>
<path d="M0.493164 14C0.493164 9.58172 4.07489 6 8.49316 6H240.493C244.911 6 248.493 9.58172 248.493 14V46H0.493164V14Z" fill="url(#paint5_linear_4905_394801)"/>
<path d="M107.493 76.0277L107.493 76.0275C107.493 75.93 107.533 75.8267 107.619 75.7424C107.707 75.6566 107.836 75.5992 107.981 75.5962L107.981 75.5962L107.986 75.5961C111.764 75.501 114.434 75.0323 116.489 74.3584C118.554 73.6811 119.952 72.811 121.178 71.9886C121.332 71.8851 121.483 71.7832 121.63 71.6833C122.661 70.9855 123.556 70.3796 124.739 69.9068C126.071 69.3746 127.811 69 130.493 69C133.176 69 134.916 69.3746 136.247 69.9068C137.431 70.3796 138.325 70.9855 139.356 71.6833C139.504 71.7832 139.654 71.885 139.808 71.9886C141.034 72.811 142.432 73.6811 144.498 74.3584C146.553 75.0323 149.222 75.501 153.001 75.5961L153.005 75.5962C153.15 75.5992 153.279 75.6566 153.367 75.7424L154.065 75.0265L153.367 75.7424C153.454 75.8267 153.493 75.93 153.493 76.0275V76.0277V94.1369C153.493 101.255 148.968 107.807 143.735 112.978C138.534 118.116 132.813 121.714 130.769 122.928C130.689 122.974 130.593 123 130.493 123C130.393 123 130.297 122.974 130.217 122.928C128.174 121.714 122.452 118.116 117.252 112.978C112.019 107.807 107.493 101.255 107.493 94.1369L107.493 76.0277Z" stroke="#0078D4" stroke-width="2"/>
<path d="M142.493 90V108H118.493V90H122.493V84.1562C122.493 83.0312 122.696 81.974 123.103 80.9844C123.509 79.9948 124.071 79.1302 124.79 78.3906C125.509 77.651 126.353 77.0677 127.321 76.6406C128.3 76.2135 129.358 76 130.493 76C131.629 76 132.681 76.2135 133.649 76.6406C134.629 77.0677 135.478 77.651 136.196 78.3906C136.915 79.1302 137.478 79.9948 137.884 80.9844C138.29 81.974 138.493 83.0312 138.493 84.1562V90H142.493ZM124.493 90H136.493V84.1562C136.493 83.3125 136.342 82.5208 136.04 81.7812C135.738 81.0312 135.316 80.375 134.774 79.8125C134.243 79.25 133.608 78.8073 132.868 78.4844C132.139 78.1615 131.347 78 130.493 78C129.639 78 128.842 78.1615 128.103 78.4844C127.373 78.8073 126.738 79.25 126.196 79.8125C125.665 80.375 125.248 81.0312 124.946 81.7812C124.644 82.5208 124.493 83.3125 124.493 84.1562V90ZM140.493 92H120.493V106H140.493V92Z" fill="#0078D4"/>
<rect opacity="0.5" x="1.49316" y="46" width="28" height="125" fill="#F3F2F1"/>
<circle cx="15.4932" cy="64" r="8" fill="#C8C6C4"/>
<circle cx="15.4932" cy="88" r="8" fill="#C8C6C4"/>
<circle cx="15.4932" cy="112" r="8" fill="#C8C6C4"/>
</g>
<defs>
<linearGradient id="paint0_linear_4905_394801" x1="301.396" y1="195.01" x2="301.396" y2="178.307" gradientUnits="userSpaceOnUse">
<stop stop-color="#29BADE"/>
<stop offset="1" stop-color="#50E6FF"/>
</linearGradient>
<linearGradient id="paint1_linear_4905_394801" x1="290.709" y1="209.754" x2="290.709" y2="162.246" gradientUnits="userSpaceOnUse">
<stop offset="0.041" stop-color="#32BEDD"/>
<stop offset="0.495" stop-color="#50E6FF"/>
<stop offset="0.92" stop-color="#C3F1FF"/>
</linearGradient>
<linearGradient id="paint2_linear_4905_394801" x1="295.007" y1="190.421" x2="295.007" y2="149.072" gradientUnits="userSpaceOnUse">
<stop offset="0.244" stop-color="#0078D4"/>
<stop offset="0.6" stop-color="#2E8CE1"/>
<stop offset="0.933" stop-color="#589EED"/>
</linearGradient>
<linearGradient id="paint3_linear_4905_394801" x1="321.034" y1="209.754" x2="321.034" y2="165.704" gradientUnits="userSpaceOnUse">
<stop stop-color="#005BA1"/>
<stop offset="0.399" stop-color="#0078D4"/>
<stop offset="0.857" stop-color="#5EA0EF"/>
</linearGradient>
<linearGradient id="paint4_linear_4905_394801" x1="409.434" y1="61.083" x2="119.201" y2="99.6395" gradientUnits="userSpaceOnUse">
<stop stop-color="#0078D4"/>
<stop offset="0.515461" stop-color="#0680DD"/>
<stop offset="0.959129" stop-color="#84C0F0"/>
</linearGradient>
<linearGradient id="paint5_linear_4905_394801" x1="232.402" y1="-30.25" x2="-0.692227" y2="12.8715" gradientUnits="userSpaceOnUse">
<stop/>
<stop offset="0.5" stop-color="#393939"/>
<stop offset="1" stop-color="#6A6A6A"/>
</linearGradient>
<clipPath id="clip0_4905_394801">
<rect width="416" height="220" fill="white"/>
</clipPath>
<clipPath id="clip1_4905_394801">
<rect width="76" height="76" fill="white" transform="translate(263.493 148)"/>
</clipPath>
</defs>
</svg>
