<svg width="65" height="59" fill="none" xmlns="http://www.w3.org/2000/svg"><path fill-rule="evenodd" clip-rule="evenodd" d="M35.482 1.5c0-.69.56-1.25 1.25-1.25h4.347a14.25 14.25 0 0 1 12.336 7.116l2.168 3.75a1.25 1.25 0 0 1-2.164 1.252l-2.168-3.75A11.75 11.75 0 0 0 41.079 2.75h-4.347c-.69 0-1.25-.56-1.25-1.25zm-11.79 1.25a11.75 11.75 0 0 0-10.171 5.868l-2.17 3.75a1.25 1.25 0 1 1-2.163-1.252l2.168-3.75A14.25 14.25 0 0 1 23.692.25h4.347a1.25 1.25 0 0 1 0 2.5h-4.347zm34.52 15.41a1.25 1.25 0 0 1 1.709.456l2.168 3.75a14.25 14.25 0 0 1 0 14.268l-2.168 3.75a1.25 1.25 0 1 1-2.164-1.252l2.168-3.75a11.75 11.75 0 0 0 0-11.764l-2.168-3.75a1.25 1.25 0 0 1 .456-1.708zm-51.654 0a1.25 1.25 0 0 1 .456 1.708l-2.168 3.75a11.75 11.75 0 0 0 0 11.764l2.168 3.75a1.25 1.25 0 0 1-2.164 1.252l-2.168-3.75a14.25 14.25 0 0 1 0-14.268l2.168-3.75a1.25 1.25 0 0 1 1.708-.456zm48.57 28.016a1.25 1.25 0 0 1 .455 1.708l-2.168 3.75a14.25 14.25 0 0 1-12.336 7.116h-4.347a1.25 1.25 0 0 1 0-2.5h4.347a11.75 11.75 0 0 0 10.172-5.868l2.168-3.75a1.25 1.25 0 0 1 1.708-.456zm-45.484 0a1.25 1.25 0 0 1 1.708.456l2.168 3.75a11.75 11.75 0 0 0 10.172 5.868h4.347a1.25 1.25 0 0 1 0 2.5h-4.347a14.25 14.25 0 0 1-12.336-7.116l-2.168-3.75a1.25 1.25 0 0 1 .456-1.708z" fill="url(#a)"/><path d="M17.267 10.95a8 8 0 0 1 6.959-4.052h16.319a8 8 0 0 1 6.959 4.053l8.282 14.602a8 8 0 0 1 0 7.894l-8.282 14.602a8 8 0 0 1-6.959 4.053H24.226a8 8 0 0 1-6.959-4.053L8.985 33.447a8 8 0 0 1 0-7.894l8.282-14.602z" fill="url(#b)"/><path d="M23.193 24.145a3.5 3.5 0 1 1 7 0 3.5 3.5 0 0 1-7 0zm3.5-5.5a5.5 5.5 0 1 0 0 11 5.5 5.5 0 0 0 0-11zm10.5 7a2 2 0 1 1 4 0 2 2 0 0 1-4 0zm2-4a4 4 0 1 0 0 8 4 4 0 0 0 0-8zm-21 13a3 3 0 0 1 3-3h11a3 3 0 0 1 3 3v.226l-.003.067a4.913 4.913 0 0 1-.146.897 5.562 5.562 0 0 1-1 2.018c-1.17 1.502-3.371 2.792-7.351 2.792s-6.181-1.29-7.352-2.792a5.563 5.563 0 0 1-.999-2.018 4.913 4.913 0 0 1-.146-.897 2.281 2.281 0 0 1-.003-.067v-.226zm2 .178v.011a2.895 2.895 0 0 0 .085.498c.09.348.273.819.641 1.292.705.904 2.254 2.02 5.774 2.02s5.069-1.116 5.773-2.02c.369-.473.551-.944.642-1.291a2.895 2.895 0 0 0 .084-.499v-.189a1 1 0 0 0-1-1h-11a1 1 0 0 0-1 1v.178zm15.477 3.313c.93.317 2.087.509 3.522.509 3.202 0 5.02-.953 6.013-2.125.484-.57.73-1.148.856-1.592a3.658 3.658 0 0 0 .13-.766v-.022l.001-.021v-.016c0-1.358-1.1-2.458-2.458-2.458h-8.189c.5.558.862 1.243 1.034 2h7.155c.249 0 .452.198.458.446a1.68 1.68 0 0 1-.056.294c-.062.22-.19.528-.457.842-.507.6-1.688 1.418-4.487 1.418-1.164 0-2.048-.142-2.72-.35a7.043 7.043 0 0 1-.802 1.841z" fill="url(#c)"/><defs><linearGradient id="a" x1="22.506" y1=".421" x2="38.422" y2="60.34" gradientUnits="userSpaceOnUse"><stop stop-color="#CCDEFF"/><stop offset="1" stop-color="#BBF"/></linearGradient><linearGradient id="b" x1="25.529" y1="6.898" x2="38.912" y2="54.438" gradientUnits="userSpaceOnUse"><stop stop-color="#CCDEFF" stop-opacity=".15"/><stop offset="1" stop-color="#BBF" stop-opacity=".21"/></linearGradient><linearGradient id="c" x1="26.693" y1="18.645" x2="30.773" y2="40.306" gradientUnits="userSpaceOnUse"><stop stop-color="#46A1BB"/><stop offset="1" stop-color="#6161C0"/></linearGradient></defs></svg>