<svg width="57" height="49" viewBox="0 0 57 49" fill="none" xmlns="http://www.w3.org/2000/svg">
<path d="M45.1293 29.1668L45.054 39.4106C45.054 41.9058 43.4279 44.3208 40.2464 46.1922C33.8127 49.9351 23.267 49.9351 16.7579 46.1922C13.5012 44.2451 11.875 41.7498 11.875 39.2546L11.9503 29.0108C11.9503 31.506 13.5765 25.8829 16.8332 27.7543C23.3468 31.4971 33.888 31.4971 40.3218 27.7543C43.5785 25.9631 45.1293 31.5818 45.1293 29.1668Z" fill="url(#paint0_linear_2547_67347)"/>
<path d="M57 25.5485L28.6286 42.1195L0.102051 25.5485L28.4203 8.97754L57 25.5485Z" fill="url(#paint1_linear_2547_67347)"/>
<path d="M50.1319 30.2624L48.1026 31.2249L19.576 14.6539L21.5523 13.6914L50.1319 30.2624Z" fill="url(#paint2_linear_2547_67347)"/>
<path d="M56.9999 25.5479L56.8935 28.0119L28.5221 44.5829L28.6284 42.1189L56.9999 25.5479Z" fill="#156AB3"/>
<path d="M28.6284 42.1189L28.5221 44.5829L0 28.0119L0.106344 25.5479L28.6284 42.1189Z" fill="#0E91E2"/>
<path opacity="0.3" d="M12.7788 27.3421H44.4026C44.6418 27.3421 44.8723 27.2486 45.0451 27.0748C45.2179 26.901 45.3109 26.6693 45.3109 26.4287V4.69347C45.3109 4.18996 44.7881 3.72656 44.0835 3.72656L13.2131 4.19887C13.0934 4.19887 12.9782 4.22115 12.8674 4.26571C12.7567 4.31473 12.6592 4.3771 12.575 4.46622C12.4908 4.55088 12.4244 4.64891 12.3756 4.7603C12.3269 4.87169 12.3091 4.992 12.3091 5.10785L11.8705 26.4376C11.8705 26.6782 11.9635 26.9099 12.1363 27.0792C12.3091 27.2486 12.5396 27.3421 12.7788 27.3421Z" fill="#1F1D20"/>
<path d="M44.3229 3.31934H12.5839C12.0877 3.31934 11.6844 3.72481 11.6844 4.22386V26.0037C11.6844 26.5027 12.0877 26.9082 12.5839 26.9082H44.3273C44.8236 26.9082 45.2268 26.5027 45.2268 26.0037V4.22386C45.2224 3.72481 44.8191 3.31934 44.3229 3.31934Z" fill="url(#paint3_linear_2547_67347)"/>
<path d="M43.9063 4.64355H28.5663V25.3629H43.9063V4.64355V4.64355Z" fill="white"/>
<path d="M28.7833 4.64355H13.4434V25.3629H28.7833V4.64355V4.64355Z" fill="#CDCDD0"/>
<path d="M16.5096 0V20.55C16.5096 20.55 20.6038 20.1401 23.9226 21.8154C27.2459 23.4908 28.7834 25.3444 28.7834 25.3444V4.78995C28.7834 4.78995 26.8692 2.33928 23.9226 1.43476C21.5255 0.6951 16.5096 0 16.5096 0Z" fill="#EAEAEA"/>
<path d="M31.5971 14.5301L30.6311 14.1068L29.6608 14.5301V3.31934H31.5971V14.5301Z" fill="url(#paint4_linear_2547_67347)"/>
<path opacity="0.15" d="M40.8843 8.7002H34.1669C33.8745 8.7002 33.6396 8.94081 33.6396 9.23043C33.6396 9.52451 33.8789 9.76067 34.1669 9.76067H40.8843C41.1767 9.76067 41.4115 9.52006 41.4115 9.23043C41.416 8.93635 41.1767 8.7002 40.8843 8.7002Z" fill="#1F1D20"/>
<path opacity="0.15" d="M40.8843 11.0098H34.1669C33.8745 11.0098 33.6396 11.2504 33.6396 11.54C33.6396 11.8341 33.8789 12.0702 34.1669 12.0702H40.8843C41.1767 12.0702 41.4115 11.8296 41.4115 11.54C41.416 11.2459 41.1767 11.0098 40.8843 11.0098Z" fill="#1F1D20"/>
<path opacity="0.15" fill-rule="evenodd" clip-rule="evenodd" d="M34.167 13.3223H40.8755C41.1679 13.3223 41.4027 13.5629 41.4027 13.8525C41.4027 14.1466 41.1635 14.3827 40.8755 14.3827H34.167C33.8746 14.3827 33.6397 14.1421 33.6397 13.8525C33.6353 13.5629 33.8701 13.3223 34.167 13.3223Z" fill="#1F1D20"/>
<path d="M40.8848 8.52246H34.1674C33.875 8.52246 33.6401 8.76307 33.6401 9.0527C33.6401 9.34678 33.8794 9.58293 34.1674 9.58293H40.8848C41.1772 9.58293 41.412 9.34232 41.412 9.0527C41.4165 8.75862 41.1772 8.52246 40.8848 8.52246Z" fill="#50E6FF"/>
<path d="M40.8843 10.834H34.1669C33.8745 10.834 33.6396 11.0746 33.6396 11.3642C33.6396 11.6583 33.8789 11.8945 34.1669 11.8945H40.8843C41.1767 11.8945 41.4115 11.6538 41.4115 11.3642C41.416 11.0701 41.1767 10.834 40.8843 10.834Z" fill="#32B0E7"/>
<path fill-rule="evenodd" clip-rule="evenodd" d="M34.167 13.1445H40.8755C41.1679 13.1445 41.4027 13.3851 41.4027 13.6748C41.4027 13.9688 41.1635 14.205 40.8755 14.205H34.167C33.8746 14.2095 33.6397 13.9644 33.6397 13.6748C33.6353 13.3851 33.8701 13.1445 34.167 13.1445Z" fill="#185A97"/>
<path d="M49.538 41.1328L48.6474 40.9056L47.7257 42.1621L47.6947 30.9425L49.5247 29.9043L49.538 41.1328Z" fill="url(#paint5_linear_2547_67347)"/>
<defs>
<linearGradient id="paint0_linear_2547_67347" x1="11.8697" y1="38.1817" x2="45.1648" y2="38.1817" gradientUnits="userSpaceOnUse">
<stop stop-color="#4DC2EB"/>
<stop offset="0.585" stop-color="#0078D4"/>
</linearGradient>
<linearGradient id="paint1_linear_2547_67347" x1="13.0582" y1="13.2088" x2="69.077" y2="57.327" gradientUnits="userSpaceOnUse">
<stop stop-color="#4DC2EB"/>
<stop offset="0.585" stop-color="#0078D4"/>
</linearGradient>
<linearGradient id="paint2_linear_2547_67347" x1="31.3096" y1="18.2182" x2="51.3479" y2="41.9165" gradientUnits="userSpaceOnUse">
<stop stop-color="#007ED8"/>
<stop offset="0.7065" stop-color="#002D4C"/>
</linearGradient>
<linearGradient id="paint3_linear_2547_67347" x1="28.4571" y1="4.83715" x2="28.4571" y2="28.7939" gradientUnits="userSpaceOnUse">
<stop stop-color="#007ED8"/>
<stop offset="0.7065" stop-color="#002D4C"/>
</linearGradient>
<linearGradient id="paint4_linear_2547_67347" x1="24.0008" y1="-3.28255" x2="47.1743" y2="38.9275" gradientUnits="userSpaceOnUse">
<stop stop-color="#007ED8"/>
<stop offset="0.7065" stop-color="#002D4C"/>
</linearGradient>
<linearGradient id="paint5_linear_2547_67347" x1="32.6617" y1="16.9447" x2="52.7671" y2="40.7224" gradientUnits="userSpaceOnUse">
<stop stop-color="#007ED8"/>
<stop offset="0.7065" stop-color="#002D4C"/>
</linearGradient>
</defs>
</svg>
