<svg viewBox="0 0 32 32" fill="none" xmlns="http://www.w3.org/2000/svg">
  <g clip-path="url(#clip0_2229_3301)">
    <path
      d="M3 5.5C3 4.11929 4.11929 3 5.5 3H7.5C8.88071 3 10 4.11929 10 5.5V26.5C10 27.8807 8.88071 29 7.5 29H5.5C4.11929 29 3 27.8807 3 26.5V5.5ZM12 5.5C12 4.11929 13.1193 3 14.5 3H16.5C17.8807 3 19 4.11929 19 5.5V26.5C19 27.8807 17.8807 29 16.5 29H14.5C13.1193 29 12 27.8807 12 26.5V5.5ZM21.7991 7.6051C20.5046 7.96344 19.7364 9.33806 20.0833 10.6754L24.3539 27.1413C24.7008 28.4787 26.0313 29.2723 27.3258 28.914L29.2009 28.3949C30.4954 28.0366 31.2636 26.6619 30.9167 25.3246L26.6461 8.85867C26.2992 7.52134 24.9687 6.7277 23.6742 7.08604L21.7991 7.6051Z"
      fill="url(#paint0_linear_2229_3301)" />
  </g>
  <defs>
    <linearGradient id="paint0_linear_2229_3301" x1="17" y1="3" x2="17" y2="29" gradientUnits="userSpaceOnUse">
      <stop offset="0.296875" stop-color="#2886DE" />
      <stop offset="1" stop-color="#316BAA" />
    </linearGradient>
    <clipPath id="clip0_2229_3301">
      <rect width="32" height="32" fill="white" />
    </clipPath>
  </defs>
</svg>