<svg width="32" height="32" viewBox="0 0 32 32" fill="none" xmlns="http://www.w3.org/2000/svg">
<path d="M19.0633 3.80857C17.7319 1.3981 14.2671 1.39812 12.9358 3.80862L2.44269 22.8077C1.15435 25.1404 2.84164 27.9998 5.50648 27.9998L26.4931 27.9998C29.1579 27.9998 30.8452 25.1403 29.5568 22.8076L19.0633 3.80857ZM17.25 22C17.25 22.6904 16.6904 23.25 16 23.25C15.3096 23.25 14.75 22.6904 14.75 22C14.75 21.3096 15.3096 20.75 16 20.75C16.6904 20.75 17.25 21.3096 17.25 22ZM16 9C16.5523 9 17 9.44771 17 10L17 18C17 18.5523 16.5523 19 16 19C15.4477 19 15 18.5523 15 18L15 10C15 9.44771 15.4477 9 16 9Z" fill="url(#paint0_linear_1592_35804)"/>
<defs>
<linearGradient id="paint0_linear_1592_35804" x1="15.9998" y1="2.00073" x2="15.9998" y2="27.9998" gradientUnits="userSpaceOnUse">
<stop offset="0.296875" stop-color="#2886DE"/>
<stop offset="1" stop-color="#316BAA"/>
</linearGradient>
</defs>
</svg>