<svg viewBox="0 0 32 32" fill="none" xmlns="http://www.w3.org/2000/svg">
  <g clip-path="url(#clip0_2229_3177)">
    <path d="M24.5 20C24.1319 20 23.7742 20.0442 23.4318 20.1275L18.8566 10.9772C19.8601 10.1519 20.5 8.90067 20.5 7.5C20.5 5.01472 18.4853 3 16 3C13.5147 3 11.5 5.01472 11.5 7.5C11.5 8.90067 12.1399 10.1519 13.1434 10.9772L8.56819 20.1275C8.22579 20.0442 7.86806 20 7.5 20C5.01472 20 3 22.0147 3 24.5C3 26.9853 5.01472 29 7.5 29C9.98528 29 12 26.9853 12 24.5C12 23.0993 11.3601 21.8481 10.3566 21.0228L14.9318 11.8725C15.2742 11.9558 15.6319 12 16 12C16.3681 12 16.7258 11.9558 17.0682 11.8725L21.6434 21.0228C20.6399 21.8481 20 23.0993 20 24.5C20 26.9853 22.0147 29 24.5 29C26.9853 29 29 26.9853 29 24.5C29 22.0147 26.9853 20 24.5 20Z" fill="url(#paint0_linear_2229_3177)"/>
  </g>
  <defs>
    <linearGradient id="paint0_linear_2229_3177" x1="29" y1="16" x2="3" y2="16" gradientUnits="userSpaceOnUse">
      <stop offset="0.296875" stop-color="#2886DE"/>
      <stop offset="1" stop-color="#316BAA"/>
    </linearGradient>
    <clipPath id="clip0_2229_3177">
      <rect width="32" height="32" fill="white"/>
    </clipPath>
  </defs>
</svg>
