<svg viewBox="0 0 32 32" fill="none" xmlns="http://www.w3.org/2000/svg">
  <path d="M13.2692 2.26645C14.1534 2.09151 15.0667 2 16 2C16.9333 2 17.8466 2.09151 18.7308 2.26645C19.4419 2.40712 19.9043 3.09762 19.7637 3.80871C19.623 4.5198 18.9325 4.98222 18.2214 4.84154C17.504 4.69962 16.7614 4.625 16 4.625C15.2386 4.625 14.496 4.69962 13.7786 4.84154C13.0675 4.98222 12.377 4.5198 12.2363 3.80871C12.0957 3.09762 12.5581 2.40712 13.2692 2.26645ZM21.9587 4.71934C22.362 4.117 23.1772 3.95561 23.7795 4.35887C24.7865 5.03298 25.7009 5.83418 26.5 6.73964V3.3125C26.5 2.58763 27.0876 2 27.8125 2C28.5374 2 29.125 2.58763 29.125 3.3125V10.3125C29.125 11.0374 28.5374 11.625 27.8125 11.625H20.8125C20.0876 11.625 19.5 11.0374 19.5 10.3125C19.5 9.58763 20.0876 9 20.8125 9H24.9668C24.2213 8.04658 23.3271 7.21491 22.3192 6.54016C21.7169 6.1369 21.5555 5.32169 21.9587 4.71934ZM9.68079 6.54016C10.2831 6.1369 10.4445 5.32169 10.0413 4.71934C9.63801 4.117 8.8228 3.95561 8.22046 4.35887C6.6943 5.3806 5.3806 6.6943 4.35887 8.22046C3.95561 8.8228 4.117 9.63801 4.71934 10.0413C5.32169 10.4445 6.1369 10.2831 6.54016 9.68079C7.37101 8.43977 8.43977 7.37101 9.68079 6.54016ZM3.80871 12.2363C4.5198 12.377 4.98222 13.0675 4.84154 13.7786C4.69962 14.496 4.625 15.2386 4.625 16C4.625 16.7614 4.69962 17.504 4.84154 18.2214C4.98222 18.9325 4.5198 19.623 3.80871 19.7637C3.09762 19.9043 2.40712 19.4419 2.26645 18.7308C2.09151 17.8466 2 16.9333 2 16C2 15.0667 2.09151 14.1534 2.26645 13.2692C2.40712 12.5581 3.09762 12.0957 3.80871 12.2363ZM4.71934 21.9587C5.32169 21.5555 6.1369 21.7169 6.54016 22.3192C7.37101 23.5602 8.43977 24.629 9.68079 25.4598C10.2831 25.8631 10.4445 26.6783 10.0413 27.2807C9.63801 27.883 8.8228 28.0444 8.22046 27.6411C6.6943 26.6194 5.3806 25.3057 4.35887 23.7795C3.95561 23.1772 4.117 22.362 4.71934 21.9587Z" fill="url(#paint0_linear_2229_3428)"/>
  <path fill-rule="evenodd" clip-rule="evenodd" d="M15.2258 18.9639C16.0894 18.7665 16.603 17.8802 16.3428 17.0365L15.876 15.5232C16.6521 14.7969 17.5825 14.2336 18.6129 13.8879L19.8492 15.1605C20.4491 15.7779 21.4431 15.7774 22.0423 15.1595L23.3025 13.86C24.3347 14.1927 25.2692 14.7429 26.052 15.4567L25.5562 17.1805C25.3187 18.0065 25.8153 18.8642 26.6519 19.073L28.3493 19.4966C28.4481 19.9823 28.5 20.4851 28.5 21C28.5 21.5794 28.4343 22.1435 28.3099 22.6852L26.7742 23.0361C25.9106 23.2335 25.397 24.1198 25.6572 24.9635L26.1239 26.4768C25.3479 27.2031 24.4174 27.7664 23.3871 28.1121L22.1508 26.8395C21.5509 26.2221 20.5569 26.2226 19.9577 26.8405L18.6975 28.1399C17.6653 27.8073 16.7308 27.2571 15.948 26.5433L16.4438 24.8195C16.6813 23.9935 16.1847 23.1358 15.3481 22.927L13.6507 22.5034C13.5519 22.0177 13.5 21.5149 13.5 21C13.5 20.4206 13.5657 19.8565 13.6901 19.3148L15.2258 18.9639ZM21 23C22.1046 23 23 22.1046 23 21C23 19.8954 22.1046 19 21 19C19.8954 19 19 19.8954 19 21C19 22.1046 19.8954 23 21 23Z" fill="url(#paint1_linear_2229_3428)"/>
  <defs>
    <linearGradient id="paint0_linear_2229_3428" x1="15.5625" y1="2" x2="15.5625" y2="28.1399" gradientUnits="userSpaceOnUse">
      <stop offset="0.296875" stop-color="#2886DE"/>
      <stop offset="1" stop-color="#316BAA"/>
    </linearGradient>
    <linearGradient id="paint1_linear_2229_3428" x1="15.5625" y1="2" x2="15.5625" y2="28.1399" gradientUnits="userSpaceOnUse">
      <stop offset="0.296875" stop-color="#2886DE"/>
      <stop offset="1" stop-color="#316BAA"/>
    </linearGradient>
  </defs>
</svg>
