<svg viewBox="0 0 24 24" fill="none" xmlns="http://www.w3.org/2000/svg">
  <path fill-rule="evenodd" clip-rule="evenodd"
    d="M6.25 3C4.45507 3 3 4.45508 3 6.25V17.75C3 19.5449 4.45508 21 6.25 21H14.0326C13.3525 19.979 13 18.8017 13 17.5237V14.6854C13 13.7859 13.73 13.2062 14.42 13.1063C15.69 12.9264 16.77 12.0169 17.3 11.4872C17.95 10.8376 19.04 10.8376 19.69 11.4872C19.9809 11.7779 20.4374 12.183 21 12.5191V6.25C21 4.45507 19.5449 3 17.75 3H6.25ZM9.67814 6.25998C9.95815 6.21389 10.2402 6.32978 10.4069 6.55943L12.7125 9.73552L13.4927 9.01905C13.7977 8.73888 14.2722 8.75906 14.5524 9.06415C14.8325 9.36923 14.8123 9.84367 14.5073 10.1238L13.1073 11.4096C12.9497 11.5542 12.7379 11.6248 12.5251 11.6034C12.3123 11.5821 12.1187 11.4709 11.993 11.2978L10.0717 8.65111L7.7161 16.2228C7.59305 16.6183 7.17267 16.8392 6.77716 16.7162C6.38164 16.5931 6.16076 16.1727 6.28381 15.7772L9.08381 6.77722C9.16811 6.50625 9.39813 6.30607 9.67814 6.25998Z"
    fill="url(#paint0_linear_3970_1268)" />
  <path
    d="M18.9896 12.1945C19.6423 12.8454 20.8965 13.8805 22.439 14.0928C22.7466 14.1352 23 14.3779 23 14.6817V17.5203C23 21.3363 19.4206 22.7212 18.6467 22.9761C18.5498 23.008 18.4509 23.008 18.354 22.9761C17.5801 22.7213 14.0003 21.3363 14.0003 17.5203L14 14.6818C14 14.378 14.2534 14.1352 14.561 14.0928C16.1032 13.8804 17.3575 12.8454 18.0103 12.1945C18.2704 11.9351 18.7295 11.9352 18.9896 12.1945Z"
    fill="url(#paint1_linear_3970_1268)" />
  <defs>
    <linearGradient id="paint0_linear_3970_1268" x1="13" y1="3" x2="13" y2="23" gradientUnits="userSpaceOnUse">
      <stop offset="0.296875" stop-color="#2886DE" />
      <stop offset="1" stop-color="#316BAA" />
    </linearGradient>
    <linearGradient id="paint1_linear_3970_1268" x1="13" y1="3" x2="13" y2="23" gradientUnits="userSpaceOnUse">
      <stop offset="0.296875" stop-color="#2886DE" />
      <stop offset="1" stop-color="#316BAA" />
    </linearGradient>
  </defs>
</svg>