<svg width="176" height="176" viewBox="0 0 176 176" fill="none" xmlns="http://www.w3.org/2000/svg">
<path d="M7.32964 66.2937H171.845C173.336 66.2933 174.545 65.0841 174.545 63.5927V56.9243H1.6311V60.598C1.63271 63.7441 4.18356 66.2937 7.32964 66.2937Z" fill="#BDBDE6"/>
<path d="M1.45459 56.9483L57.3203 39.4006H120.808L174.369 56.9483H1.45459Z" fill="#E2E2F6"/>
<path d="M120.807 31.7499H57.3203V39.4007H120.807V31.7499Z" fill="#BDBDE6"/>
<path opacity="0.5" d="M57.3203 31.7499C57.3171 14.2181 71.5268 0.00318614 89.0588 5.3552e-07C106.59 -0.00318506 120.805 14.2065 120.808 31.7383C120.808 31.7421 120.808 31.746 120.808 31.7499H57.3203Z" fill="#E2E2F6"/>
<path d="M63.1642 66.3201L17.0676 162.178H157.088L113.842 66.3201H63.1642Z" fill="#FFE5B9"/>
<path d="M87.0781 176C125.743 176 157.088 169.812 157.088 162.178C157.088 154.544 125.743 148.356 87.0781 148.356C48.4123 148.356 17.0676 154.544 17.0676 162.178C17.0676 169.812 48.4123 176 87.0781 176Z" fill="#FFD590"/>
<path d="M54.116 101.482L59.5331 137.064C59.9353 139.715 62.4102 141.537 65.0611 141.135C65.0626 141.135 65.0641 141.135 65.0657 141.134L120.286 132.728C122.937 132.326 124.76 129.85 124.358 127.2C124.357 127.198 124.357 127.196 124.357 127.195L118.939 91.6133L54.116 101.482Z" fill="white"/>
<path d="M118.595 89.3296C118.192 86.6784 115.717 84.8557 113.067 85.2579C113.065 85.2582 113.063 85.2584 113.061 85.2587L57.841 93.6654C55.1903 94.0684 53.3675 96.543 53.7697 99.1935C53.77 99.1953 53.7702 99.1971 53.7704 99.1988L54.3448 103.212L119.17 93.3424L118.595 89.3296Z" fill="#8B8CC7"/>
<path d="M59.6207 99.631C60.6385 99.631 61.4636 98.8064 61.4636 97.7883C61.4636 96.7701 60.6385 95.9456 59.6207 95.9456C58.6028 95.9456 57.7776 96.7701 57.7776 97.7883C57.7776 98.8064 58.6028 99.631 59.6207 99.631Z" fill="#C3C3E0"/>
<path d="M65.3287 98.7624C66.3465 98.7624 67.1716 97.9369 67.1716 96.9188C67.1716 95.9015 66.3465 95.076 65.3287 95.076C64.3108 95.076 63.4856 95.9015 63.4856 96.9188C63.4856 97.9369 64.3108 98.7624 65.3287 98.7624Z" fill="#FFE5B9"/>
<path d="M71.0367 97.893C72.0546 97.893 72.8797 97.0675 72.8797 96.0503C72.8797 95.0321 72.0546 94.2067 71.0367 94.2067C70.0188 94.2067 69.1936 95.0321 69.1936 96.0503C69.1936 97.0675 70.0188 97.893 71.0367 97.893Z" fill="#F7B548"/>
<path d="M63.1641 66.3201C63.1641 66.3201 68.7192 74.466 88.6019 74.466C108.485 74.466 113.842 66.3201 113.842 66.3201H63.1641Z" fill="url(#paint0_linear_1164_124898)"/>
<defs>
<linearGradient id="paint0_linear_1164_124898" x1="88.5033" y1="66.409" x2="88.5033" y2="71.0678" gradientUnits="userSpaceOnUse">
<stop stop-color="#E79A41"/>
<stop offset="0.58759" stop-color="#F3AD46"/>
<stop offset="1" stop-color="#F7B548"/>
</linearGradient>
</defs>
</svg>
