<svg width="103" height="102" viewBox="0 0 103 102" fill="none" xmlns="http://www.w3.org/2000/svg">
<g clip-path="url(#clip0_1580_1943)">
<path d="M51.0888 97.8099C25.2388 97.8099 4.27881 76.8599 4.27881 50.9999C4.27881 25.1399 25.2388 4.18994 51.0888 4.18994C76.9388 4.18994 97.8988 25.1499 97.8988 50.9999C97.8988 76.8499 76.9388 97.8099 51.0888 97.8099Z" fill="url(#paint0_linear_1580_1943)"/>
<path fill-rule="evenodd" clip-rule="evenodd" d="M51.0894 1C78.6994 1 101.089 23.39 101.089 51C101.089 78.61 78.6994 101 51.0894 101C23.4794 101 1.08936 78.61 1.08936 51C1.08936 23.39 23.4794 1 51.0894 1ZM51.0894 96.76C76.3594 96.76 96.8494 76.27 96.8494 51C96.8494 25.73 76.3594 5.24 51.0894 5.24C25.8194 5.24 5.32936 25.73 5.32936 51C5.32936 76.27 25.8194 96.76 51.0894 96.76Z" fill="#D9D9D9"/>
<path fill-rule="evenodd" clip-rule="evenodd" d="M96.9887 51.0001C96.9887 76.3501 76.4387 96.9001 51.0887 96.9001C25.7387 96.9001 5.18873 76.3501 5.18873 51.0001C5.18873 25.6501 25.7387 5.10011 51.0887 5.10011C76.4387 5.10011 96.9887 25.6501 96.9887 51.0001ZM51.0887 1.36011C78.5087 1.36011 100.729 23.5801 100.729 51.0001C100.729 78.4201 78.4987 100.64 51.0887 100.64C23.6687 100.64 1.44873 78.4101 1.44873 51.0001C1.44873 23.5801 23.6687 1.36011 51.0887 1.36011Z" fill="#F2F1F0"/>
<path fill-rule="evenodd" clip-rule="evenodd" d="M51.0893 94.0899C27.2893 94.0899 7.99928 74.7999 7.99928 50.9999C7.99928 27.1999 27.2893 7.90992 51.0893 7.90992C74.8893 7.90992 94.1793 27.1999 94.1793 50.9999C94.1793 74.7999 74.8893 94.0899 51.0893 94.0899ZM97.9193 50.9999C97.9193 76.8599 76.9493 97.8299 51.0893 97.8299C25.2293 97.8299 4.25928 76.8599 4.25928 50.9999C4.25928 25.1399 25.2293 4.16992 51.0893 4.16992C76.9493 4.16992 97.9193 25.1299 97.9193 50.9999Z" fill="url(#paint1_linear_1580_1943)"/>
<path d="M79.6883 28.5283H20.5673V65.6802H79.6883V28.5283Z" fill="#F2F2F2"/>
<path d="M80.1659 26.876H20.0334C19.2177 26.876 18.5652 27.5394 18.5652 28.3551V66.5728C18.5652 67.3885 19.2286 68.0519 20.0443 68.0519H80.1768C80.9925 68.0519 81.6559 67.3885 81.6559 66.5728V28.3551C81.645 27.5394 80.9816 26.876 80.1659 26.876ZM77.9146 63.5716C77.9146 64.1239 77.4669 64.5716 76.9146 64.5716H23.2956C22.7433 64.5716 22.2956 64.1239 22.2956 63.5716V31.1822C22.2956 30.6299 22.7433 30.1822 23.2956 30.1822H76.9146C77.4669 30.1822 77.9146 30.6299 77.9146 31.1822V63.5716Z" fill="url(#paint2_linear_1580_1943)"/>
<g filter="url(#filter0_ddddd_1580_1943)">
<path d="M84.5506 68.051H15.6499V68.2359C15.6499 69.9869 17.0638 71.4008 18.8148 71.4008H81.3966C83.1476 71.4008 84.5615 69.9869 84.5615 68.2359V68.051H84.5506Z" fill="url(#paint3_linear_1580_1943)"/>
</g>
<path fill-rule="evenodd" clip-rule="evenodd" d="M45.5677 69.0905H54.6438C55.2455 69.0903 55.8226 68.8511 56.248 68.4257C56.6735 68.0002 56.9126 67.4232 56.9129 66.8215H43.2986C43.2987 67.4233 43.5378 68.0003 43.9632 68.4259C44.3888 68.8515 44.9659 69.0905 45.5677 69.0905Z" fill="#012E4D"/>
<g filter="url(#filter1_ddddd_1580_1943)">
<path d="M74.9838 33.9648H66.3937V60.3398H74.9838V33.9648Z" fill="url(#paint4_linear_1580_1943)"/>
<path d="M45.9795 33.9648H25.5649V47.1523H45.9795V33.9648Z" fill="#C73ECC"/>
<path d="M45.9795 47.1521H25.5649V60.3396H45.9795V47.1521Z" fill="#702573"/>
<path d="M66.3939 47.1521H45.9794V60.3396H66.3939V47.1521Z" fill="#463771"/>
<path d="M66.3939 33.9648H45.9794V47.1523H66.3939V33.9648Z" fill="#545FD0"/>
<path d="M66.3931 33.9648H25.564V60.3398H66.3931V33.9648Z" fill="url(#paint5_linear_1580_1943)"/>
<g filter="url(#filter2_ddddd_1580_1943)">
<path d="M56.2855 41.5359C56.8276 41.5325 57.3568 41.3685 57.8058 41.0647C58.2548 40.7608 58.6034 40.3309 58.8082 39.8289C59.0129 39.3269 59.0643 38.7756 58.9558 38.2444C58.8474 37.7133 58.5839 37.2262 58.1988 36.8446C57.8137 36.463 57.3243 36.204 56.7921 36.1005C56.26 35.997 55.7092 36.0535 55.2091 36.2629C54.709 36.4723 54.2821 36.8254 53.9825 37.2772C53.6829 37.729 53.5237 38.2594 53.5254 38.8016C53.5299 39.5298 53.8233 40.2264 54.3406 40.739C54.858 41.2515 55.5573 41.5382 56.2855 41.5359Z" fill="white"/>
<path d="M56.286 41.9785C55.2793 41.9827 54.3021 42.3187 53.5059 42.9347C52.7097 43.5508 52.1389 44.4124 51.8821 45.3858C51.8718 45.4295 51.8715 45.4749 51.8812 45.5187C51.891 45.5625 51.9104 45.6037 51.9382 45.6389C51.9661 45.6741 52.0018 45.7025 52.0422 45.7221C52.0826 45.7417 52.1267 45.752 52.1716 45.7521H60.4004C60.4453 45.752 60.4893 45.7417 60.5297 45.7221C60.5701 45.7025 60.6059 45.6741 60.6337 45.6389C60.6616 45.6037 60.6809 45.5625 60.6907 45.5187C60.7005 45.4749 60.7001 45.4295 60.6899 45.3858C60.4343 44.4117 59.8638 43.5493 59.0673 42.9331C58.2708 42.3168 57.293 41.9813 56.286 41.9785Z" fill="white"/>
</g>
<g filter="url(#filter3_ddddd_1580_1943)">
<path d="M36.0186 41.5359C36.5607 41.5325 37.0898 41.3685 37.5388 41.0647C37.9878 40.7608 38.3365 40.3309 38.5412 39.8289C38.7459 39.3269 38.7973 38.7756 38.6888 38.2444C38.5804 37.7133 38.317 37.2262 37.9319 36.8446C37.5467 36.463 37.0573 36.204 36.5252 36.1005C35.993 35.997 35.4422 36.0535 34.9421 36.2629C34.4421 36.4723 34.0152 36.8254 33.7155 37.2772C33.4159 37.729 33.2568 38.2594 33.2584 38.8016C33.2629 39.5298 33.5563 40.2264 34.0737 40.739C34.591 41.2515 35.2903 41.5382 36.0186 41.5359Z" fill="white"/>
<path d="M36.019 41.9785C35.0123 41.9827 34.0351 42.3187 33.2389 42.9347C32.4427 43.5508 31.8719 44.4124 31.6151 45.3858C31.6048 45.4295 31.6045 45.4749 31.6143 45.5187C31.624 45.5625 31.6434 45.6037 31.6713 45.6389C31.6991 45.6741 31.7349 45.7025 31.7752 45.7221C31.8156 45.7417 31.8597 45.752 31.9046 45.7521H40.1334C40.1783 45.752 40.2224 45.7417 40.2628 45.7221C40.3031 45.7025 40.3389 45.6741 40.3667 45.6389C40.3946 45.6037 40.414 45.5625 40.4237 45.5187C40.4335 45.4749 40.4332 45.4295 40.4229 45.3858C40.1674 44.4117 39.5969 43.5493 38.8003 42.9331C38.0038 42.3168 37.0261 41.9813 36.019 41.9785Z" fill="white"/>
</g>
<g filter="url(#filter4_ddddd_1580_1943)">
<path d="M56.2855 54.7568C56.8276 54.7535 57.3568 54.5894 57.8058 54.2856C58.2548 53.9818 58.6034 53.5518 58.8082 53.0499C59.0129 52.5479 59.0643 51.9965 58.9558 51.4654C58.8474 50.9342 58.5839 50.4471 58.1988 50.0655C57.8137 49.684 57.3243 49.4249 56.7921 49.3214C56.26 49.2179 55.7092 49.2745 55.2091 49.4839C54.709 49.6933 54.2821 50.0463 53.9825 50.4981C53.6829 50.9499 53.5237 51.4804 53.5254 52.0225C53.5299 52.7508 53.8233 53.4474 54.3406 53.9599C54.858 54.4725 55.5573 54.7591 56.2855 54.7568Z" fill="white"/>
<path d="M56.286 55.1995C55.2793 55.2036 54.3021 55.5397 53.5059 56.1557C52.7097 56.7717 52.1389 57.6334 51.8821 58.6068C51.8718 58.6505 51.8715 58.6959 51.8812 58.7397C51.891 58.7835 51.9104 58.8247 51.9382 58.8599C51.9661 58.8951 52.0018 58.9235 52.0422 58.9431C52.0826 58.9627 52.1267 58.9729 52.1716 58.973H60.4004C60.4453 58.9729 60.4893 58.9627 60.5297 58.9431C60.5701 58.9235 60.6059 58.8951 60.6337 58.8599C60.6616 58.8247 60.6809 58.7835 60.6907 58.7397C60.7005 58.6959 60.7001 58.6505 60.6899 58.6068C60.4343 57.6327 59.8638 56.7703 59.0673 56.154C58.2708 55.5378 57.293 55.2022 56.286 55.1995Z" fill="white"/>
</g>
<g filter="url(#filter5_ddddd_1580_1943)">
<path d="M36.0186 54.7568C36.5607 54.7535 37.0898 54.5894 37.5388 54.2856C37.9878 53.9818 38.3365 53.5518 38.5412 53.0499C38.7459 52.5479 38.7973 51.9965 38.6888 51.4654C38.5804 50.9342 38.317 50.4471 37.9319 50.0655C37.5467 49.684 37.0573 49.4249 36.5252 49.3214C35.993 49.2179 35.4422 49.2745 34.9421 49.4839C34.4421 49.6933 34.0152 50.0463 33.7155 50.4981C33.4159 50.9499 33.2568 51.4804 33.2584 52.0225C33.2629 52.7508 33.5563 53.4474 34.0737 53.9599C34.591 54.4725 35.2903 54.7591 36.0186 54.7568Z" fill="white"/>
<path d="M36.019 55.1995C35.0123 55.2036 34.0351 55.5397 33.2389 56.1557C32.4427 56.7717 31.8719 57.6334 31.6151 58.6068C31.6048 58.6505 31.6045 58.6959 31.6143 58.7397C31.624 58.7835 31.6434 58.8247 31.6713 58.8599C31.6991 58.8951 31.7349 58.9235 31.7752 58.9431C31.8156 58.9627 31.8597 58.9729 31.9046 58.973H40.1334C40.1783 58.9729 40.2224 58.9627 40.2628 58.9431C40.3031 58.9235 40.3389 58.8951 40.3667 58.8599C40.3946 58.8247 40.414 58.7835 40.4237 58.7397C40.4335 58.6959 40.4332 58.6505 40.4229 58.6068C40.1674 57.6327 39.5969 56.7703 38.8003 56.154C38.0038 55.5378 37.0261 55.2022 36.019 55.1995Z" fill="white"/>
</g>
<g filter="url(#filter6_ddddd_1580_1943)">
<path d="M67.6538 47.3071H67.4945C67.4695 47.3071 67.4448 47.3121 67.4217 47.3216C67.3986 47.3312 67.3775 47.3452 67.3599 47.3629C67.3422 47.3805 67.3282 47.4015 67.3187 47.4246C67.3091 47.4477 67.3042 47.4724 67.3042 47.4974C67.3042 47.5224 67.3091 47.5472 67.3187 47.5703C67.3282 47.5934 67.3422 47.6143 67.3599 47.632C67.3775 47.6497 67.3986 47.6637 67.4217 47.6733C67.4448 47.6828 67.4695 47.6877 67.4945 47.6877H67.6538C67.7043 47.6877 67.7527 47.6677 67.7884 47.632C67.8241 47.5963 67.8442 47.5479 67.8442 47.4974C67.8442 47.447 67.8241 47.3986 67.7884 47.3629C67.7527 47.3272 67.7043 47.3071 67.6538 47.3071Z" fill="white"/>
<path d="M68.3345 47.3071H68.1751C68.1501 47.3071 68.1254 47.3121 68.1023 47.3216C68.0792 47.3312 68.0582 47.3452 68.0405 47.3629C68.0229 47.3805 68.0089 47.4015 67.9993 47.4246C67.9898 47.4477 67.9849 47.4724 67.9849 47.4974C67.9849 47.5224 67.9898 47.5472 67.9993 47.5703C68.0089 47.5934 68.0229 47.6143 68.0405 47.632C68.0582 47.6497 68.0792 47.6637 68.1023 47.6733C68.1254 47.6828 68.1501 47.6877 68.1751 47.6877H68.3345C68.385 47.6877 68.4334 47.6677 68.4691 47.632C68.5048 47.5963 68.5248 47.5479 68.5248 47.4974C68.5248 47.447 68.5048 47.3986 68.4691 47.3629C68.4334 47.3272 68.385 47.3071 68.3345 47.3071Z" fill="white"/>
<path d="M73.6664 47.3071H68.8865C68.8616 47.3071 68.8368 47.3121 68.8138 47.3216C68.7907 47.3312 68.7696 47.3452 68.752 47.3629C68.7343 47.3805 68.7203 47.4015 68.7108 47.4246C68.7012 47.4477 68.6963 47.4724 68.6963 47.4974C68.6963 47.5224 68.7012 47.5472 68.7108 47.5703C68.7203 47.5934 68.7343 47.6143 68.752 47.632C68.7696 47.6497 68.7907 47.6637 68.8138 47.6733C68.8368 47.6828 68.8616 47.6877 68.8865 47.6877H73.6664C73.7168 47.6877 73.7653 47.6677 73.8009 47.632C73.8366 47.5963 73.8567 47.5479 73.8567 47.4974C73.8567 47.447 73.8366 47.3986 73.8009 47.3629C73.7653 47.3272 73.7168 47.3071 73.6664 47.3071Z" fill="white"/>
<path d="M73.7363 48.0176H67.4942C67.4437 48.0176 67.3953 48.0376 67.3596 48.0733C67.3239 48.109 67.304 48.1574 67.304 48.2079C67.304 48.2584 67.3239 48.3068 67.3596 48.3425C67.3953 48.3781 67.4437 48.3982 67.4942 48.3982H73.7363C73.7867 48.3982 73.8352 48.3781 73.8709 48.3425C73.9065 48.3068 73.9266 48.2584 73.9266 48.2079C73.9266 48.1574 73.9065 48.109 73.8709 48.0733C73.8352 48.0376 73.7867 48.0176 73.7363 48.0176V48.0176Z" fill="#9A95DB"/>
<path d="M72.4925 48.7876H67.5076C67.4826 48.7876 67.4578 48.7925 67.4347 48.8021C67.4116 48.8117 67.3907 48.8257 67.373 48.8433C67.3553 48.861 67.3413 48.882 67.3317 48.9051C67.3222 48.9282 67.3173 48.9529 67.3173 48.9779C67.3173 49.0029 67.3222 49.0276 67.3317 49.0507C67.3413 49.0738 67.3553 49.0948 67.373 49.1125C67.3907 49.1301 67.4116 49.1442 67.4347 49.1537C67.4578 49.1633 67.4826 49.1682 67.5076 49.1682H72.4925C72.543 49.1682 72.5914 49.1482 72.6271 49.1125C72.6628 49.0768 72.6828 49.0284 72.6828 48.9779C72.6828 48.9274 72.6628 48.879 72.6271 48.8433C72.5914 48.8077 72.543 48.7876 72.4925 48.7876Z" fill="#6862CB"/>
<path d="M70.6959 49.5259H67.4942C67.4438 49.5259 67.3953 49.5459 67.3597 49.5816C67.324 49.6173 67.304 49.6657 67.304 49.7162C67.3036 49.7413 67.3081 49.7662 67.3175 49.7895C67.3269 49.8128 67.341 49.834 67.3587 49.8517C67.3765 49.8695 67.3976 49.8835 67.4209 49.8929C67.4442 49.9023 67.4691 49.9069 67.4942 49.9065H70.6959C70.721 49.9069 70.7459 49.9023 70.7692 49.8929C70.7925 49.8835 70.8136 49.8695 70.8314 49.8517C70.8492 49.834 70.8632 49.8128 70.8726 49.7895C70.882 49.7662 70.8867 49.7413 70.8862 49.7162C70.8862 49.6657 70.8662 49.6173 70.8305 49.5816C70.7948 49.5459 70.7464 49.5259 70.6959 49.5259Z" fill="#4038BC"/>
<path d="M68.5727 48.0166H67.4942C67.4692 48.0166 67.4445 48.0215 67.4214 48.0311C67.3983 48.0407 67.3773 48.0547 67.3596 48.0723C67.342 48.09 67.328 48.111 67.3184 48.1341C67.3089 48.1572 67.304 48.1819 67.304 48.2069C67.304 48.2319 67.3089 48.2567 67.3184 48.2797C67.328 48.3028 67.342 48.3238 67.3596 48.3415C67.3773 48.3591 67.3983 48.3732 67.4214 48.3827C67.4445 48.3923 67.4692 48.3972 67.4942 48.3972H68.5727C68.5978 48.3976 68.6227 48.393 68.646 48.3836C68.6693 48.3742 68.6904 48.3602 68.7082 48.3424C68.7259 48.3247 68.7399 48.3035 68.7493 48.2802C68.7587 48.257 68.7634 48.232 68.7629 48.2069C68.7629 48.1564 68.7429 48.108 68.7072 48.0723C68.6715 48.0367 68.6231 48.0166 68.5727 48.0166V48.0166Z" fill="#4038BC"/>
<path d="M70.6526 48.7876H69.5742C69.5492 48.7876 69.5245 48.7925 69.5014 48.8021C69.4783 48.8117 69.4573 48.8257 69.4396 48.8433C69.4219 48.861 69.408 48.882 69.3984 48.9051C69.3888 48.9282 69.3839 48.9529 69.3839 48.9779C69.3839 49.0029 69.3888 49.0276 69.3984 49.0507C69.408 49.0738 69.4219 49.0948 69.4396 49.1125C69.4573 49.1301 69.4783 49.1442 69.5014 49.1537C69.5245 49.1633 69.5492 49.1682 69.5742 49.1682H70.6526C70.6777 49.1686 70.7027 49.164 70.726 49.1546C70.7492 49.1452 70.7704 49.1312 70.7881 49.1134C70.8059 49.0957 70.8198 49.0745 70.8293 49.0512C70.8387 49.028 70.8433 49.003 70.8429 48.9779C70.8429 48.9274 70.8228 48.879 70.7871 48.8433C70.7514 48.8077 70.7031 48.7876 70.6526 48.7876V48.7876Z" fill="#242069"/>
<path d="M67.6486 50.2622H67.4942C67.4692 50.2622 67.4445 50.2671 67.4214 50.2767C67.3983 50.2863 67.3773 50.3003 67.3596 50.318C67.342 50.3356 67.328 50.3566 67.3184 50.3797C67.3089 50.4028 67.304 50.4275 67.304 50.4525C67.304 50.4775 67.3089 50.5023 67.3184 50.5253C67.328 50.5484 67.342 50.5694 67.3596 50.5871C67.3773 50.6048 67.3983 50.6188 67.4214 50.6283C67.4445 50.6379 67.4692 50.6428 67.4942 50.6428H67.6486C67.6737 50.6433 67.6986 50.6386 67.7219 50.6292C67.7452 50.6198 67.7663 50.6058 67.7841 50.588C67.8019 50.5703 67.8158 50.5491 67.8252 50.5258C67.8346 50.5026 67.8393 50.4776 67.8388 50.4525C67.8388 50.402 67.8188 50.3536 67.7831 50.318C67.7474 50.2823 67.6991 50.2622 67.6486 50.2622Z" fill="#242069"/>
</g>
<path d="M73.6605 40.3127H67.4946C67.4696 40.3127 67.4449 40.3177 67.4218 40.3272C67.3987 40.3368 67.3777 40.3508 67.36 40.3685C67.3423 40.3862 67.3284 40.4071 67.3188 40.4302C67.3092 40.4533 67.3043 40.4781 67.3043 40.5031C67.3043 40.528 67.3092 40.5528 67.3188 40.5759C67.3284 40.599 67.3423 40.6199 67.36 40.6376C67.3777 40.6553 67.3987 40.6693 67.4218 40.6789C67.4449 40.6884 67.4696 40.6934 67.4946 40.6934H73.6605C73.711 40.6934 73.7594 40.6733 73.7951 40.6376C73.8308 40.6019 73.8509 40.5535 73.8509 40.5031C73.8509 40.4526 73.8308 40.4042 73.7951 40.3685C73.7594 40.3328 73.711 40.3127 73.6605 40.3127V40.3127Z" fill="white"/>
<path d="M67.6543 41.1001H67.4949C67.47 41.1001 67.4452 41.105 67.4222 41.1146C67.3991 41.1242 67.378 41.1382 67.3604 41.1558C67.3427 41.1735 67.3287 41.1945 67.3192 41.2176C67.3096 41.2407 67.3047 41.2654 67.3047 41.2904C67.3047 41.3154 67.3096 41.3401 67.3192 41.3632C67.3287 41.3863 67.3427 41.4073 67.3604 41.425C67.378 41.4426 67.3991 41.4567 67.4222 41.4662C67.4452 41.4758 67.47 41.4807 67.4949 41.4807H67.6543C67.7048 41.4807 67.7532 41.4607 67.7889 41.425C67.8246 41.3893 67.8446 41.3409 67.8446 41.2904C67.8446 41.2399 67.8246 41.1915 67.7889 41.1558C67.7532 41.1202 67.7048 41.1001 67.6543 41.1001Z" fill="#D1C3FA"/>
<path d="M68.335 41.1001H68.1756C68.1506 41.1001 68.1259 41.105 68.1028 41.1146C68.0797 41.1242 68.0587 41.1382 68.041 41.1558C68.0234 41.1735 68.0094 41.1945 67.9998 41.2176C67.9903 41.2407 67.9854 41.2654 67.9854 41.2904C67.9854 41.3154 67.9903 41.3401 67.9998 41.3632C68.0094 41.3863 68.0234 41.4073 68.041 41.425C68.0587 41.4426 68.0797 41.4567 68.1028 41.4662C68.1259 41.4758 68.1506 41.4807 68.1756 41.4807H68.335C68.3854 41.4807 68.4339 41.4607 68.4696 41.425C68.5052 41.3893 68.5253 41.3409 68.5253 41.2904C68.5253 41.2399 68.5052 41.1915 68.4696 41.1558C68.4339 41.1202 68.3854 41.1001 68.335 41.1001Z" fill="#D1C3FA"/>
<path d="M73.6668 41.1001H68.887C68.862 41.1001 68.8373 41.105 68.8142 41.1146C68.7912 41.1242 68.7701 41.1382 68.7525 41.1558C68.7348 41.1735 68.7208 41.1945 68.7113 41.2176C68.7017 41.2407 68.6968 41.2654 68.6968 41.2904C68.6968 41.3154 68.7017 41.3401 68.7113 41.3632C68.7208 41.3863 68.7348 41.4073 68.7525 41.425C68.7701 41.4426 68.7912 41.4567 68.8142 41.4662C68.8373 41.4758 68.862 41.4807 68.887 41.4807H73.6668C73.7173 41.4807 73.7657 41.4607 73.8014 41.425C73.8371 41.3893 73.8572 41.3409 73.8572 41.2904C73.8572 41.2399 73.8371 41.1915 73.8014 41.1558C73.7657 41.1202 73.7173 41.1001 73.6668 41.1001Z" fill="#D1C3FA"/>
<path d="M72.0259 41.8386H69.2487C69.1982 41.8386 69.1498 41.8587 69.1141 41.8944C69.0784 41.9301 69.0583 41.9785 69.0583 42.0289C69.0583 42.0794 69.0784 42.1278 69.1141 42.1635C69.1498 42.1992 69.1982 42.2192 69.2487 42.2192H72.0228C72.0479 42.2197 72.0728 42.215 72.0961 42.2056C72.1194 42.1962 72.1406 42.1822 72.1583 42.1645C72.1761 42.1467 72.19 42.1255 72.1995 42.1023C72.2089 42.079 72.2135 42.054 72.2131 42.0289C72.2131 41.979 72.1935 41.9311 72.1585 41.8955C72.1235 41.8599 72.0758 41.8395 72.0259 41.8386Z" fill="#B391FD"/>
<path d="M68.573 41.8386H67.4946C67.4696 41.8386 67.4449 41.8435 67.4218 41.8531C67.3987 41.8627 67.3777 41.8767 67.36 41.8944C67.3423 41.912 67.3284 41.933 67.3188 41.9561C67.3092 41.9792 67.3043 42.0039 67.3043 42.0289C67.3043 42.0539 67.3092 42.0787 67.3188 42.1018C67.3284 42.1249 67.3423 42.1458 67.36 42.1635C67.3777 42.1812 67.3987 42.1952 67.4218 42.2048C67.4449 42.2143 67.4696 42.2192 67.4946 42.2192H68.573C68.5981 42.2197 68.6231 42.215 68.6464 42.2056C68.6697 42.1962 68.6908 42.1822 68.7086 42.1645C68.7263 42.1467 68.7403 42.1255 68.7497 42.1023C68.7591 42.079 68.7637 42.054 68.7633 42.0289C68.7633 41.9785 68.7432 41.9301 68.7075 41.8944C68.6719 41.8587 68.6235 41.8386 68.573 41.8386V41.8386Z" fill="#B391FD"/>
<path d="M71.5259 42.6138H67.4946C67.4696 42.6138 67.4449 42.6187 67.4218 42.6283C67.3987 42.6378 67.3777 42.6518 67.36 42.6695C67.3423 42.6872 67.3284 42.7082 67.3188 42.7313C67.3092 42.7543 67.3043 42.7791 67.3043 42.8041C67.3043 42.8291 67.3092 42.8538 67.3188 42.8769C67.3284 42.9 67.3423 42.921 67.36 42.9386C67.3777 42.9563 67.3987 42.9703 67.4218 42.9799C67.4449 42.9895 67.4696 42.9944 67.4946 42.9944H71.5259C71.551 42.9948 71.576 42.9902 71.5992 42.9808C71.6225 42.9714 71.6437 42.9574 71.6614 42.9396C71.6792 42.9218 71.6932 42.9007 71.7026 42.8774C71.712 42.8541 71.7167 42.8292 71.7163 42.8041C71.7163 42.7536 71.6962 42.7052 71.6605 42.6695C71.6248 42.6338 71.5764 42.6138 71.5259 42.6138V42.6138Z" fill="#AA85FE"/>
<path d="M73.3315 42.6138H72.253C72.228 42.6138 72.2033 42.6187 72.1802 42.6283C72.1571 42.6378 72.1361 42.6518 72.1184 42.6695C72.1007 42.6872 72.0868 42.7082 72.0772 42.7313C72.0677 42.7543 72.0627 42.7791 72.0627 42.8041C72.0627 42.8291 72.0677 42.8538 72.0772 42.8769C72.0868 42.9 72.1007 42.921 72.1184 42.9386C72.1361 42.9563 72.1571 42.9703 72.1802 42.9799C72.2033 42.9895 72.228 42.9944 72.253 42.9944H73.3315C73.3566 42.9948 73.3815 42.9902 73.4048 42.9808C73.4281 42.9714 73.4492 42.9574 73.467 42.9396C73.4847 42.9218 73.4987 42.9007 73.5081 42.8774C73.5175 42.8541 73.5222 42.8292 73.5217 42.8041C73.5217 42.7536 73.5017 42.7052 73.466 42.6695C73.4303 42.6338 73.3819 42.6138 73.3315 42.6138V42.6138Z" fill="#AA85FE"/>
<path d="M67.6489 43.2996H67.4946C67.4696 43.2996 67.4449 43.3045 67.4218 43.3141C67.3987 43.3236 67.3777 43.3376 67.36 43.3553C67.3423 43.373 67.3284 43.394 67.3188 43.417C67.3092 43.4401 67.3043 43.4649 67.3043 43.4899C67.3043 43.5149 67.3092 43.5396 67.3188 43.5627C67.3284 43.5858 67.3423 43.6068 67.36 43.6244C67.3777 43.6421 67.3987 43.6561 67.4218 43.6657C67.4449 43.6753 67.4696 43.6802 67.4946 43.6802H67.6489C67.6741 43.6806 67.699 43.676 67.7223 43.6666C67.7456 43.6571 67.7667 43.6432 67.7845 43.6254C67.8022 43.6076 67.8162 43.5865 67.8256 43.5632C67.835 43.5399 67.8396 43.515 67.8392 43.4899C67.8392 43.4394 67.8191 43.391 67.7835 43.3553C67.7478 43.3196 67.6994 43.2996 67.6489 43.2996Z" fill="#9767FF"/>
<path d="M73.6616 54.3108H67.4957C67.4707 54.3108 67.446 54.3157 67.4229 54.3253C67.3998 54.3348 67.3788 54.3489 67.3611 54.3665C67.3434 54.3842 67.3295 54.4052 67.3199 54.4283C67.3103 54.4514 67.3054 54.4761 67.3054 54.5011C67.3054 54.5261 67.3103 54.5508 67.3199 54.5739C67.3295 54.597 67.3434 54.618 67.3611 54.6357C67.3788 54.6533 67.3998 54.6674 67.4229 54.6769C67.446 54.6865 67.4707 54.6914 67.4957 54.6914H73.6616C73.7121 54.6914 73.7605 54.6714 73.7962 54.6357C73.8319 54.6 73.852 54.5516 73.852 54.5011C73.852 54.4506 73.8319 54.4022 73.7962 54.3665C73.7605 54.3308 73.7121 54.3108 73.6616 54.3108V54.3108Z" fill="white"/>
<path d="M71.527 55.0376H67.4957C67.4707 55.0376 67.446 55.0425 67.4229 55.0521C67.3998 55.0617 67.3788 55.0757 67.3611 55.0933C67.3434 55.111 67.3295 55.132 67.3199 55.1551C67.3103 55.1782 67.3054 55.2029 67.3054 55.2279C67.3054 55.2529 67.3103 55.2776 67.3199 55.3007C67.3295 55.3238 67.3434 55.3448 67.3611 55.3625C67.3788 55.3801 67.3998 55.3942 67.4229 55.4037C67.446 55.4133 67.4707 55.4182 67.4957 55.4182H71.527C71.5521 55.4186 71.5771 55.414 71.6003 55.4046C71.6236 55.3952 71.6448 55.3812 71.6625 55.3634C71.6803 55.3457 71.6943 55.3245 71.7037 55.3012C71.7131 55.278 71.7178 55.253 71.7174 55.2279C71.7174 55.1774 71.6973 55.129 71.6616 55.0933C71.6259 55.0577 71.5775 55.0376 71.527 55.0376V55.0376Z" fill="#AA85FE"/>
<path d="M73.3315 55.0376H72.253C72.228 55.0376 72.2033 55.0425 72.1802 55.0521C72.1571 55.0617 72.1361 55.0757 72.1184 55.0933C72.1007 55.111 72.0868 55.132 72.0772 55.1551C72.0677 55.1782 72.0627 55.2029 72.0627 55.2279C72.0627 55.2529 72.0677 55.2776 72.0772 55.3007C72.0868 55.3238 72.1007 55.3448 72.1184 55.3625C72.1361 55.3801 72.1571 55.3942 72.1802 55.4037C72.2033 55.4133 72.228 55.4182 72.253 55.4182H73.3315C73.3566 55.4186 73.3815 55.414 73.4048 55.4046C73.4281 55.3952 73.4492 55.3812 73.467 55.3634C73.4847 55.3457 73.4987 55.3245 73.5081 55.3012C73.5175 55.278 73.5222 55.253 73.5217 55.2279C73.5217 55.1774 73.5017 55.129 73.466 55.0933C73.4303 55.0577 73.3819 55.0376 73.3315 55.0376V55.0376Z" fill="#AA85FE"/>
<path d="M67.65 55.7234H67.4957C67.4707 55.7234 67.446 55.7283 67.4229 55.7379C67.3998 55.7474 67.3788 55.7615 67.3611 55.7791C67.3434 55.7968 67.3295 55.8178 67.3199 55.8409C67.3103 55.864 67.3054 55.8887 67.3054 55.9137C67.3054 55.9387 67.3103 55.9634 67.3199 55.9865C67.3295 56.0096 67.3434 56.0306 67.3611 56.0483C67.3788 56.0659 67.3998 56.08 67.4229 56.0895C67.446 56.0991 67.4707 56.104 67.4957 56.104H67.65C67.6752 56.1044 67.7001 56.0998 67.7234 56.0904C67.7467 56.081 67.7678 56.067 67.7856 56.0492C67.8033 56.0315 67.8173 56.0103 67.8267 55.987C67.8361 55.9637 67.8407 55.9388 67.8403 55.9137C67.8403 55.8632 67.8202 55.8148 67.7846 55.7791C67.7489 55.7434 67.7005 55.7234 67.65 55.7234Z" fill="#9767FF"/>
<circle cx="68.2158" cy="38.7815" r="0.910901" fill="#C73ECC"/>
<circle cx="68.2158" cy="45.7422" r="0.910901" fill="#954CCE"/>
<circle cx="68.2158" cy="52.741" r="0.910901" fill="#7057CF"/>
</g>
<g filter="url(#filter7_ddddd_1580_1943)">
<path d="M82.0931 52.1016H62.6013C62.2145 52.1016 61.9019 52.4142 61.9019 52.801V65.8998C61.9019 66.2867 62.2145 66.5993 62.6013 66.5993H65.1257V68.5803C65.1257 69.0248 65.6622 69.2483 65.9778 68.9354L68.334 66.5993H82.0931C82.48 66.5993 82.7926 66.2867 82.7926 65.8998V52.801C82.7887 52.4142 82.4761 52.1016 82.0931 52.1016Z" fill="url(#paint6_linear_1580_1943)"/>
</g>
<g filter="url(#filter8_ddddd_1580_1943)">
<path d="M73.8002 62.9424H85.7501C85.9885 62.9424 86.1799 63.1339 86.1799 63.3722V71.4026C86.1799 71.641 85.9885 71.8325 85.7501 71.8325H84.2026V72.5821C84.2026 73.0266 83.666 73.2501 83.3505 72.9371L82.237 71.8325H73.8002C73.5618 71.8325 73.3704 71.641 73.3704 71.4026V63.3683C73.3704 63.1339 73.5618 62.9424 73.8002 62.9424Z" fill="url(#paint7_linear_1580_1943)"/>
</g>
<path opacity="0.15" d="M74.8407 55.6604H65.1612C64.8798 55.6604 64.6493 55.891 64.6493 56.1723C64.6493 56.4537 64.8798 56.6842 65.1612 56.6842H74.8329C75.1142 56.6842 75.3448 56.4537 75.3448 56.1723C75.3526 55.891 75.122 55.6604 74.8407 55.6604Z" fill="#1F1D20"/>
<path opacity="0.15" d="M73.0509 57.8989H65.1612C64.8798 57.8989 64.6493 58.1295 64.6493 58.4108C64.6493 58.6922 64.8798 58.9228 65.1612 58.9228H73.0431C73.3245 58.9228 73.555 58.6922 73.555 58.4108C73.5628 58.1295 73.3323 57.8989 73.0509 57.8989Z" fill="#1F1D20"/>
<path opacity="0.15" fill-rule="evenodd" clip-rule="evenodd" d="M65.1612 60.3057H70.6711C70.9525 60.3057 71.183 60.5362 71.183 60.8176C71.183 61.0989 70.9525 61.3295 70.6711 61.3295H65.1612C64.8798 61.3295 64.6493 61.0989 64.6493 60.8176C64.6493 60.5362 64.8759 60.3057 65.1612 60.3057Z" fill="#1F1D20"/>
<path d="M74.8407 55.4604H65.1612C64.8798 55.4604 64.6493 55.691 64.6493 55.9724C64.6493 56.2537 64.8798 56.4843 65.1612 56.4843H74.8329C75.1142 56.4843 75.3448 56.2537 75.3448 55.9724C75.3526 55.691 75.122 55.4604 74.8407 55.4604Z" fill="#E7E9FF"/>
<path d="M73.0509 57.6963H65.1612C64.8798 57.6963 64.6493 57.9268 64.6493 58.2082C64.6493 58.4896 64.8798 58.7201 65.1612 58.7201H73.0431C73.3245 58.7201 73.555 58.4896 73.555 58.2082C73.5628 57.9308 73.3323 57.6963 73.0509 57.6963Z" fill="#C8CDFF"/>
<path fill-rule="evenodd" clip-rule="evenodd" d="M65.1612 60.1067H70.6711C70.9525 60.1067 71.183 60.3372 71.183 60.6186C71.183 60.9 70.9525 61.1305 70.6711 61.1305H65.1612C64.8798 61.1305 64.6493 60.9 64.6493 60.6186C64.6493 60.3372 64.8759 60.1067 65.1612 60.1067Z" fill="#9A95DB"/>
<path opacity="0.15" d="M76.8516 66.0841C76.8516 66.2678 77.004 66.4202 77.1877 66.4202H82.3615C82.5452 66.4202 82.6976 66.2678 82.6976 66.0841C82.6976 65.9004 82.5452 65.748 82.3615 65.748H77.1838C76.9962 65.748 76.8438 65.9004 76.8516 66.0841Z" fill="#1F1D20"/>
<path opacity="0.15" d="M76.8605 67.5502C76.8605 67.7338 77.0129 67.8862 77.1966 67.8862H82.3626C82.5463 67.8862 82.6987 67.7338 82.6987 67.5502C82.6987 67.3665 82.5463 67.2141 82.3626 67.2141H77.1927C77.009 67.2141 76.8566 67.3665 76.8605 67.5502Z" fill="#1F1D20"/>
<path opacity="0.15" fill-rule="evenodd" clip-rule="evenodd" d="M82.6985 69.132C82.6985 69.3157 82.5461 69.4681 82.3625 69.4681H77.1847C77.001 69.4681 76.8486 69.3157 76.8486 69.132C76.8486 68.9484 77.001 68.796 77.1847 68.796H82.3625C82.55 68.7921 82.6985 68.9445 82.6985 69.132Z" fill="#1F1D20"/>
<path d="M76.8519 65.9474C76.8519 66.1311 77.0043 66.2835 77.1879 66.2835H82.3618C82.5454 66.2835 82.6978 66.1311 82.6978 65.9474C82.6978 65.7637 82.5454 65.6113 82.3618 65.6113H77.184C76.9964 65.6113 76.844 65.7637 76.8519 65.9474Z" fill="white"/>
<path d="M76.8605 67.4172C76.8605 67.6009 77.0129 67.7533 77.1966 67.7533H82.3626C82.5463 67.7533 82.6987 67.6009 82.6987 67.4172C82.6987 67.2335 82.5463 67.0811 82.3626 67.0811H77.1927C77.009 67.0772 76.8566 67.2296 76.8605 67.4172Z" fill="#D1C3FA"/>
<path fill-rule="evenodd" clip-rule="evenodd" d="M82.6985 68.9955C82.6985 69.1792 82.5461 69.3316 82.3625 69.3316H77.1847C77.001 69.3316 76.8486 69.1792 76.8486 68.9955C76.8486 68.8118 77.001 68.6594 77.1847 68.6594H82.3625C82.55 68.6594 82.6985 68.8118 82.6985 68.9955Z" fill="#B391FD"/>
</g>
<defs>
<filter id="filter0_ddddd_1580_1943" x="12.6499" y="68.051" width="74.9116" height="15.3499" filterUnits="userSpaceOnUse" color-interpolation-filters="sRGB">
<feFlood flood-opacity="0" result="BackgroundImageFix"/>
<feColorMatrix in="SourceAlpha" type="matrix" values="0 0 0 0 0 0 0 0 0 0 0 0 0 0 0 0 0 0 127 0" result="hardAlpha"/>
<feOffset/>
<feColorMatrix type="matrix" values="0 0 0 0 0 0 0 0 0 0 0 0 0 0 0 0 0 0 0.1 0"/>
<feBlend mode="normal" in2="BackgroundImageFix" result="effect1_dropShadow_1580_1943"/>
<feColorMatrix in="SourceAlpha" type="matrix" values="0 0 0 0 0 0 0 0 0 0 0 0 0 0 0 0 0 0 127 0" result="hardAlpha"/>
<feOffset dy="1"/>
<feGaussianBlur stdDeviation="0.5"/>
<feColorMatrix type="matrix" values="0 0 0 0 0 0 0 0 0 0 0 0 0 0 0 0 0 0 0.1 0"/>
<feBlend mode="normal" in2="effect1_dropShadow_1580_1943" result="effect2_dropShadow_1580_1943"/>
<feColorMatrix in="SourceAlpha" type="matrix" values="0 0 0 0 0 0 0 0 0 0 0 0 0 0 0 0 0 0 127 0" result="hardAlpha"/>
<feOffset dy="2"/>
<feGaussianBlur stdDeviation="1"/>
<feColorMatrix type="matrix" values="0 0 0 0 0 0 0 0 0 0 0 0 0 0 0 0 0 0 0.09 0"/>
<feBlend mode="normal" in2="effect2_dropShadow_1580_1943" result="effect3_dropShadow_1580_1943"/>
<feColorMatrix in="SourceAlpha" type="matrix" values="0 0 0 0 0 0 0 0 0 0 0 0 0 0 0 0 0 0 127 0" result="hardAlpha"/>
<feOffset dy="5"/>
<feGaussianBlur stdDeviation="1.5"/>
<feColorMatrix type="matrix" values="0 0 0 0 0 0 0 0 0 0 0 0 0 0 0 0 0 0 0.05 0"/>
<feBlend mode="normal" in2="effect3_dropShadow_1580_1943" result="effect4_dropShadow_1580_1943"/>
<feColorMatrix in="SourceAlpha" type="matrix" values="0 0 0 0 0 0 0 0 0 0 0 0 0 0 0 0 0 0 127 0" result="hardAlpha"/>
<feOffset dy="9"/>
<feGaussianBlur stdDeviation="1.5"/>
<feColorMatrix type="matrix" values="0 0 0 0 0 0 0 0 0 0 0 0 0 0 0 0 0 0 0.01 0"/>
<feBlend mode="normal" in2="effect4_dropShadow_1580_1943" result="effect5_dropShadow_1580_1943"/>
<feBlend mode="normal" in="SourceGraphic" in2="effect5_dropShadow_1580_1943" result="shape"/>
</filter>
<filter id="filter1_ddddd_1580_1943" x="20.564" y="32.9648" width="59.4198" height="45.375" filterUnits="userSpaceOnUse" color-interpolation-filters="sRGB">
<feFlood flood-opacity="0" result="BackgroundImageFix"/>
<feColorMatrix in="SourceAlpha" type="matrix" values="0 0 0 0 0 0 0 0 0 0 0 0 0 0 0 0 0 0 127 0" result="hardAlpha"/>
<feOffset/>
<feColorMatrix type="matrix" values="0 0 0 0 0 0 0 0 0 0 0 0 0 0 0 0 0 0 0.1 0"/>
<feBlend mode="normal" in2="BackgroundImageFix" result="effect1_dropShadow_1580_1943"/>
<feColorMatrix in="SourceAlpha" type="matrix" values="0 0 0 0 0 0 0 0 0 0 0 0 0 0 0 0 0 0 127 0" result="hardAlpha"/>
<feOffset dy="1"/>
<feGaussianBlur stdDeviation="1"/>
<feColorMatrix type="matrix" values="0 0 0 0 0 0 0 0 0 0 0 0 0 0 0 0 0 0 0.1 0"/>
<feBlend mode="normal" in2="effect1_dropShadow_1580_1943" result="effect2_dropShadow_1580_1943"/>
<feColorMatrix in="SourceAlpha" type="matrix" values="0 0 0 0 0 0 0 0 0 0 0 0 0 0 0 0 0 0 127 0" result="hardAlpha"/>
<feOffset dy="3"/>
<feGaussianBlur stdDeviation="1.5"/>
<feColorMatrix type="matrix" values="0 0 0 0 0 0 0 0 0 0 0 0 0 0 0 0 0 0 0.09 0"/>
<feBlend mode="normal" in2="effect2_dropShadow_1580_1943" result="effect3_dropShadow_1580_1943"/>
<feColorMatrix in="SourceAlpha" type="matrix" values="0 0 0 0 0 0 0 0 0 0 0 0 0 0 0 0 0 0 127 0" result="hardAlpha"/>
<feOffset dy="8"/>
<feGaussianBlur stdDeviation="2.5"/>
<feColorMatrix type="matrix" values="0 0 0 0 0 0 0 0 0 0 0 0 0 0 0 0 0 0 0.05 0"/>
<feBlend mode="normal" in2="effect3_dropShadow_1580_1943" result="effect4_dropShadow_1580_1943"/>
<feColorMatrix in="SourceAlpha" type="matrix" values="0 0 0 0 0 0 0 0 0 0 0 0 0 0 0 0 0 0 127 0" result="hardAlpha"/>
<feOffset dy="13"/>
<feGaussianBlur stdDeviation="2.5"/>
<feColorMatrix type="matrix" values="0 0 0 0 0 0 0 0 0 0 0 0 0 0 0 0 0 0 0.01 0"/>
<feBlend mode="normal" in2="effect4_dropShadow_1580_1943" result="effect5_dropShadow_1580_1943"/>
<feBlend mode="normal" in="SourceGraphic" in2="effect5_dropShadow_1580_1943" result="shape"/>
</filter>
<filter id="filter2_ddddd_1580_1943" x="50.8339" y="36.05" width="10.904" height="13.8627" filterUnits="userSpaceOnUse" color-interpolation-filters="sRGB">
<feFlood flood-opacity="0" result="BackgroundImageFix"/>
<feColorMatrix in="SourceAlpha" type="matrix" values="0 0 0 0 0 0 0 0 0 0 0 0 0 0 0 0 0 0 127 0" result="hardAlpha"/>
<feOffset/>
<feColorMatrix type="matrix" values="0 0 0 0 0 0 0 0 0 0 0 0 0 0 0 0 0 0 0.1 0"/>
<feBlend mode="normal" in2="BackgroundImageFix" result="effect1_dropShadow_1580_1943"/>
<feColorMatrix in="SourceAlpha" type="matrix" values="0 0 0 0 0 0 0 0 0 0 0 0 0 0 0 0 0 0 127 0" result="hardAlpha"/>
<feOffset/>
<feColorMatrix type="matrix" values="0 0 0 0 0 0 0 0 0 0 0 0 0 0 0 0 0 0 0.1 0"/>
<feBlend mode="normal" in2="effect1_dropShadow_1580_1943" result="effect2_dropShadow_1580_1943"/>
<feColorMatrix in="SourceAlpha" type="matrix" values="0 0 0 0 0 0 0 0 0 0 0 0 0 0 0 0 0 0 127 0" result="hardAlpha"/>
<feOffset dy="1.0402"/>
<feGaussianBlur stdDeviation="0.520098"/>
<feColorMatrix type="matrix" values="0 0 0 0 0 0 0 0 0 0 0 0 0 0 0 0 0 0 0.09 0"/>
<feBlend mode="normal" in2="effect2_dropShadow_1580_1943" result="effect3_dropShadow_1580_1943"/>
<feColorMatrix in="SourceAlpha" type="matrix" values="0 0 0 0 0 0 0 0 0 0 0 0 0 0 0 0 0 0 127 0" result="hardAlpha"/>
<feOffset dy="2.08039"/>
<feGaussianBlur stdDeviation="0.520098"/>
<feColorMatrix type="matrix" values="0 0 0 0 0 0 0 0 0 0 0 0 0 0 0 0 0 0 0.05 0"/>
<feBlend mode="normal" in2="effect3_dropShadow_1580_1943" result="effect4_dropShadow_1580_1943"/>
<feColorMatrix in="SourceAlpha" type="matrix" values="0 0 0 0 0 0 0 0 0 0 0 0 0 0 0 0 0 0 127 0" result="hardAlpha"/>
<feOffset dy="3.12059"/>
<feGaussianBlur stdDeviation="0.520098"/>
<feColorMatrix type="matrix" values="0 0 0 0 0 0 0 0 0 0 0 0 0 0 0 0 0 0 0.01 0"/>
<feBlend mode="normal" in2="effect4_dropShadow_1580_1943" result="effect5_dropShadow_1580_1943"/>
<feBlend mode="normal" in="SourceGraphic" in2="effect5_dropShadow_1580_1943" result="shape"/>
</filter>
<filter id="filter3_ddddd_1580_1943" x="30.567" y="36.05" width="10.904" height="13.8627" filterUnits="userSpaceOnUse" color-interpolation-filters="sRGB">
<feFlood flood-opacity="0" result="BackgroundImageFix"/>
<feColorMatrix in="SourceAlpha" type="matrix" values="0 0 0 0 0 0 0 0 0 0 0 0 0 0 0 0 0 0 127 0" result="hardAlpha"/>
<feOffset/>
<feColorMatrix type="matrix" values="0 0 0 0 0 0 0 0 0 0 0 0 0 0 0 0 0 0 0.1 0"/>
<feBlend mode="normal" in2="BackgroundImageFix" result="effect1_dropShadow_1580_1943"/>
<feColorMatrix in="SourceAlpha" type="matrix" values="0 0 0 0 0 0 0 0 0 0 0 0 0 0 0 0 0 0 127 0" result="hardAlpha"/>
<feOffset/>
<feColorMatrix type="matrix" values="0 0 0 0 0 0 0 0 0 0 0 0 0 0 0 0 0 0 0.1 0"/>
<feBlend mode="normal" in2="effect1_dropShadow_1580_1943" result="effect2_dropShadow_1580_1943"/>
<feColorMatrix in="SourceAlpha" type="matrix" values="0 0 0 0 0 0 0 0 0 0 0 0 0 0 0 0 0 0 127 0" result="hardAlpha"/>
<feOffset dy="1.0402"/>
<feGaussianBlur stdDeviation="0.520098"/>
<feColorMatrix type="matrix" values="0 0 0 0 0 0 0 0 0 0 0 0 0 0 0 0 0 0 0.09 0"/>
<feBlend mode="normal" in2="effect2_dropShadow_1580_1943" result="effect3_dropShadow_1580_1943"/>
<feColorMatrix in="SourceAlpha" type="matrix" values="0 0 0 0 0 0 0 0 0 0 0 0 0 0 0 0 0 0 127 0" result="hardAlpha"/>
<feOffset dy="2.08039"/>
<feGaussianBlur stdDeviation="0.520098"/>
<feColorMatrix type="matrix" values="0 0 0 0 0 0 0 0 0 0 0 0 0 0 0 0 0 0 0.05 0"/>
<feBlend mode="normal" in2="effect3_dropShadow_1580_1943" result="effect4_dropShadow_1580_1943"/>
<feColorMatrix in="SourceAlpha" type="matrix" values="0 0 0 0 0 0 0 0 0 0 0 0 0 0 0 0 0 0 127 0" result="hardAlpha"/>
<feOffset dy="3.12059"/>
<feGaussianBlur stdDeviation="0.520098"/>
<feColorMatrix type="matrix" values="0 0 0 0 0 0 0 0 0 0 0 0 0 0 0 0 0 0 0.01 0"/>
<feBlend mode="normal" in2="effect4_dropShadow_1580_1943" result="effect5_dropShadow_1580_1943"/>
<feBlend mode="normal" in="SourceGraphic" in2="effect5_dropShadow_1580_1943" result="shape"/>
</filter>
<filter id="filter4_ddddd_1580_1943" x="50.8339" y="49.271" width="10.904" height="13.8627" filterUnits="userSpaceOnUse" color-interpolation-filters="sRGB">
<feFlood flood-opacity="0" result="BackgroundImageFix"/>
<feColorMatrix in="SourceAlpha" type="matrix" values="0 0 0 0 0 0 0 0 0 0 0 0 0 0 0 0 0 0 127 0" result="hardAlpha"/>
<feOffset/>
<feColorMatrix type="matrix" values="0 0 0 0 0 0 0 0 0 0 0 0 0 0 0 0 0 0 0.1 0"/>
<feBlend mode="normal" in2="BackgroundImageFix" result="effect1_dropShadow_1580_1943"/>
<feColorMatrix in="SourceAlpha" type="matrix" values="0 0 0 0 0 0 0 0 0 0 0 0 0 0 0 0 0 0 127 0" result="hardAlpha"/>
<feOffset/>
<feColorMatrix type="matrix" values="0 0 0 0 0 0 0 0 0 0 0 0 0 0 0 0 0 0 0.1 0"/>
<feBlend mode="normal" in2="effect1_dropShadow_1580_1943" result="effect2_dropShadow_1580_1943"/>
<feColorMatrix in="SourceAlpha" type="matrix" values="0 0 0 0 0 0 0 0 0 0 0 0 0 0 0 0 0 0 127 0" result="hardAlpha"/>
<feOffset dy="1.0402"/>
<feGaussianBlur stdDeviation="0.520098"/>
<feColorMatrix type="matrix" values="0 0 0 0 0 0 0 0 0 0 0 0 0 0 0 0 0 0 0.09 0"/>
<feBlend mode="normal" in2="effect2_dropShadow_1580_1943" result="effect3_dropShadow_1580_1943"/>
<feColorMatrix in="SourceAlpha" type="matrix" values="0 0 0 0 0 0 0 0 0 0 0 0 0 0 0 0 0 0 127 0" result="hardAlpha"/>
<feOffset dy="1.0402"/>
<feGaussianBlur stdDeviation="0.520098"/>
<feColorMatrix type="matrix" values="0 0 0 0 0 0 0 0 0 0 0 0 0 0 0 0 0 0 0.05 0"/>
<feBlend mode="normal" in2="effect3_dropShadow_1580_1943" result="effect4_dropShadow_1580_1943"/>
<feColorMatrix in="SourceAlpha" type="matrix" values="0 0 0 0 0 0 0 0 0 0 0 0 0 0 0 0 0 0 127 0" result="hardAlpha"/>
<feOffset dy="3.12059"/>
<feGaussianBlur stdDeviation="0.520098"/>
<feColorMatrix type="matrix" values="0 0 0 0 0 0 0 0 0 0 0 0 0 0 0 0 0 0 0.01 0"/>
<feBlend mode="normal" in2="effect4_dropShadow_1580_1943" result="effect5_dropShadow_1580_1943"/>
<feBlend mode="normal" in="SourceGraphic" in2="effect5_dropShadow_1580_1943" result="shape"/>
</filter>
<filter id="filter5_ddddd_1580_1943" x="30.567" y="49.271" width="10.904" height="13.8627" filterUnits="userSpaceOnUse" color-interpolation-filters="sRGB">
<feFlood flood-opacity="0" result="BackgroundImageFix"/>
<feColorMatrix in="SourceAlpha" type="matrix" values="0 0 0 0 0 0 0 0 0 0 0 0 0 0 0 0 0 0 127 0" result="hardAlpha"/>
<feOffset/>
<feColorMatrix type="matrix" values="0 0 0 0 0 0 0 0 0 0 0 0 0 0 0 0 0 0 0.1 0"/>
<feBlend mode="normal" in2="BackgroundImageFix" result="effect1_dropShadow_1580_1943"/>
<feColorMatrix in="SourceAlpha" type="matrix" values="0 0 0 0 0 0 0 0 0 0 0 0 0 0 0 0 0 0 127 0" result="hardAlpha"/>
<feOffset/>
<feColorMatrix type="matrix" values="0 0 0 0 0 0 0 0 0 0 0 0 0 0 0 0 0 0 0.1 0"/>
<feBlend mode="normal" in2="effect1_dropShadow_1580_1943" result="effect2_dropShadow_1580_1943"/>
<feColorMatrix in="SourceAlpha" type="matrix" values="0 0 0 0 0 0 0 0 0 0 0 0 0 0 0 0 0 0 127 0" result="hardAlpha"/>
<feOffset dy="1.0402"/>
<feGaussianBlur stdDeviation="0.520098"/>
<feColorMatrix type="matrix" values="0 0 0 0 0 0 0 0 0 0 0 0 0 0 0 0 0 0 0.09 0"/>
<feBlend mode="normal" in2="effect2_dropShadow_1580_1943" result="effect3_dropShadow_1580_1943"/>
<feColorMatrix in="SourceAlpha" type="matrix" values="0 0 0 0 0 0 0 0 0 0 0 0 0 0 0 0 0 0 127 0" result="hardAlpha"/>
<feOffset dy="1.0402"/>
<feGaussianBlur stdDeviation="0.520098"/>
<feColorMatrix type="matrix" values="0 0 0 0 0 0 0 0 0 0 0 0 0 0 0 0 0 0 0.05 0"/>
<feBlend mode="normal" in2="effect3_dropShadow_1580_1943" result="effect4_dropShadow_1580_1943"/>
<feColorMatrix in="SourceAlpha" type="matrix" values="0 0 0 0 0 0 0 0 0 0 0 0 0 0 0 0 0 0 127 0" result="hardAlpha"/>
<feOffset dy="3.12059"/>
<feGaussianBlur stdDeviation="0.520098"/>
<feColorMatrix type="matrix" values="0 0 0 0 0 0 0 0 0 0 0 0 0 0 0 0 0 0 0.01 0"/>
<feBlend mode="normal" in2="effect4_dropShadow_1580_1943" result="effect5_dropShadow_1580_1943"/>
<feBlend mode="normal" in="SourceGraphic" in2="effect5_dropShadow_1580_1943" result="shape"/>
</filter>
<filter id="filter6_ddddd_1580_1943" x="65.7806" y="47.3071" width="9.66941" height="9.42916" filterUnits="userSpaceOnUse" color-interpolation-filters="sRGB">
<feFlood flood-opacity="0" result="BackgroundImageFix"/>
<feColorMatrix in="SourceAlpha" type="matrix" values="0 0 0 0 0 0 0 0 0 0 0 0 0 0 0 0 0 0 127 0" result="hardAlpha"/>
<feOffset/>
<feColorMatrix type="matrix" values="0 0 0 0 0 0 0 0 0 0 0 0 0 0 0 0 0 0 0.1 0"/>
<feBlend mode="normal" in2="BackgroundImageFix" result="effect1_dropShadow_1580_1943"/>
<feColorMatrix in="SourceAlpha" type="matrix" values="0 0 0 0 0 0 0 0 0 0 0 0 0 0 0 0 0 0 127 0" result="hardAlpha"/>
<feOffset dy="0.507789"/>
<feGaussianBlur stdDeviation="0.253894"/>
<feColorMatrix type="matrix" values="0 0 0 0 0 0 0 0 0 0 0 0 0 0 0 0 0 0 0.1 0"/>
<feBlend mode="normal" in2="effect1_dropShadow_1580_1943" result="effect2_dropShadow_1580_1943"/>
<feColorMatrix in="SourceAlpha" type="matrix" values="0 0 0 0 0 0 0 0 0 0 0 0 0 0 0 0 0 0 127 0" result="hardAlpha"/>
<feOffset dy="1.01558"/>
<feGaussianBlur stdDeviation="0.507789"/>
<feColorMatrix type="matrix" values="0 0 0 0 0 0 0 0 0 0 0 0 0 0 0 0 0 0 0.09 0"/>
<feBlend mode="normal" in2="effect2_dropShadow_1580_1943" result="effect3_dropShadow_1580_1943"/>
<feColorMatrix in="SourceAlpha" type="matrix" values="0 0 0 0 0 0 0 0 0 0 0 0 0 0 0 0 0 0 127 0" result="hardAlpha"/>
<feOffset dy="2.53894"/>
<feGaussianBlur stdDeviation="0.761683"/>
<feColorMatrix type="matrix" values="0 0 0 0 0 0 0 0 0 0 0 0 0 0 0 0 0 0 0.05 0"/>
<feBlend mode="normal" in2="effect3_dropShadow_1580_1943" result="effect4_dropShadow_1580_1943"/>
<feColorMatrix in="SourceAlpha" type="matrix" values="0 0 0 0 0 0 0 0 0 0 0 0 0 0 0 0 0 0 127 0" result="hardAlpha"/>
<feOffset dy="4.5701"/>
<feGaussianBlur stdDeviation="0.761683"/>
<feColorMatrix type="matrix" values="0 0 0 0 0 0 0 0 0 0 0 0 0 0 0 0 0 0 0.01 0"/>
<feBlend mode="normal" in2="effect4_dropShadow_1580_1943" result="effect5_dropShadow_1580_1943"/>
<feBlend mode="normal" in="SourceGraphic" in2="effect5_dropShadow_1580_1943" result="shape"/>
</filter>
<filter id="filter7_ddddd_1580_1943" x="59.9019" y="51.1016" width="25.8907" height="24.9797" filterUnits="userSpaceOnUse" color-interpolation-filters="sRGB">
<feFlood flood-opacity="0" result="BackgroundImageFix"/>
<feColorMatrix in="SourceAlpha" type="matrix" values="0 0 0 0 0 0 0 0 0 0 0 0 0 0 0 0 0 0 127 0" result="hardAlpha"/>
<feOffset/>
<feColorMatrix type="matrix" values="0 0 0 0 0 0 0 0 0 0 0 0 0 0 0 0 0 0 0.1 0"/>
<feBlend mode="normal" in2="BackgroundImageFix" result="effect1_dropShadow_1580_1943"/>
<feColorMatrix in="SourceAlpha" type="matrix" values="0 0 0 0 0 0 0 0 0 0 0 0 0 0 0 0 0 0 127 0" result="hardAlpha"/>
<feOffset/>
<feGaussianBlur stdDeviation="0.5"/>
<feColorMatrix type="matrix" values="0 0 0 0 0 0 0 0 0 0 0 0 0 0 0 0 0 0 0.1 0"/>
<feBlend mode="normal" in2="effect1_dropShadow_1580_1943" result="effect2_dropShadow_1580_1943"/>
<feColorMatrix in="SourceAlpha" type="matrix" values="0 0 0 0 0 0 0 0 0 0 0 0 0 0 0 0 0 0 127 0" result="hardAlpha"/>
<feOffset dy="1"/>
<feGaussianBlur stdDeviation="0.5"/>
<feColorMatrix type="matrix" values="0 0 0 0 0 0 0 0 0 0 0 0 0 0 0 0 0 0 0.09 0"/>
<feBlend mode="normal" in2="effect2_dropShadow_1580_1943" result="effect3_dropShadow_1580_1943"/>
<feColorMatrix in="SourceAlpha" type="matrix" values="0 0 0 0 0 0 0 0 0 0 0 0 0 0 0 0 0 0 127 0" result="hardAlpha"/>
<feOffset dy="3"/>
<feGaussianBlur stdDeviation="1"/>
<feColorMatrix type="matrix" values="0 0 0 0 0 0 0 0 0 0 0 0 0 0 0 0 0 0 0.05 0"/>
<feBlend mode="normal" in2="effect3_dropShadow_1580_1943" result="effect4_dropShadow_1580_1943"/>
<feColorMatrix in="SourceAlpha" type="matrix" values="0 0 0 0 0 0 0 0 0 0 0 0 0 0 0 0 0 0 127 0" result="hardAlpha"/>
<feOffset dx="1" dy="5"/>
<feGaussianBlur stdDeviation="1"/>
<feColorMatrix type="matrix" values="0 0 0 0 0 0 0 0 0 0 0 0 0 0 0 0 0 0 0.01 0"/>
<feBlend mode="normal" in2="effect4_dropShadow_1580_1943" result="effect5_dropShadow_1580_1943"/>
<feBlend mode="normal" in="SourceGraphic" in2="effect5_dropShadow_1580_1943" result="shape"/>
</filter>
<filter id="filter8_ddddd_1580_1943" x="72.3704" y="62.9424" width="14.8096" height="14.1406" filterUnits="userSpaceOnUse" color-interpolation-filters="sRGB">
<feFlood flood-opacity="0" result="BackgroundImageFix"/>
<feColorMatrix in="SourceAlpha" type="matrix" values="0 0 0 0 0 0 0 0 0 0 0 0 0 0 0 0 0 0 127 0" result="hardAlpha"/>
<feOffset/>
<feColorMatrix type="matrix" values="0 0 0 0 0 0 0 0 0 0 0 0 0 0 0 0 0 0 0.1 0"/>
<feBlend mode="normal" in2="BackgroundImageFix" result="effect1_dropShadow_1580_1943"/>
<feColorMatrix in="SourceAlpha" type="matrix" values="0 0 0 0 0 0 0 0 0 0 0 0 0 0 0 0 0 0 127 0" result="hardAlpha"/>
<feOffset/>
<feColorMatrix type="matrix" values="0 0 0 0 0 0 0 0 0 0 0 0 0 0 0 0 0 0 0.1 0"/>
<feBlend mode="normal" in2="effect1_dropShadow_1580_1943" result="effect2_dropShadow_1580_1943"/>
<feColorMatrix in="SourceAlpha" type="matrix" values="0 0 0 0 0 0 0 0 0 0 0 0 0 0 0 0 0 0 127 0" result="hardAlpha"/>
<feOffset dy="1"/>
<feGaussianBlur stdDeviation="0.5"/>
<feColorMatrix type="matrix" values="0 0 0 0 0 0 0 0 0 0 0 0 0 0 0 0 0 0 0.09 0"/>
<feBlend mode="normal" in2="effect2_dropShadow_1580_1943" result="effect3_dropShadow_1580_1943"/>
<feColorMatrix in="SourceAlpha" type="matrix" values="0 0 0 0 0 0 0 0 0 0 0 0 0 0 0 0 0 0 127 0" result="hardAlpha"/>
<feOffset dy="1"/>
<feGaussianBlur stdDeviation="0.5"/>
<feColorMatrix type="matrix" values="0 0 0 0 0 0 0 0 0 0 0 0 0 0 0 0 0 0 0.05 0"/>
<feBlend mode="normal" in2="effect3_dropShadow_1580_1943" result="effect4_dropShadow_1580_1943"/>
<feColorMatrix in="SourceAlpha" type="matrix" values="0 0 0 0 0 0 0 0 0 0 0 0 0 0 0 0 0 0 127 0" result="hardAlpha"/>
<feOffset dy="3"/>
<feGaussianBlur stdDeviation="0.5"/>
<feColorMatrix type="matrix" values="0 0 0 0 0 0 0 0 0 0 0 0 0 0 0 0 0 0 0.01 0"/>
<feBlend mode="normal" in2="effect4_dropShadow_1580_1943" result="effect5_dropShadow_1580_1943"/>
<feBlend mode="normal" in="SourceGraphic" in2="effect5_dropShadow_1580_1943" result="shape"/>
</filter>
<linearGradient id="paint0_linear_1580_1943" x1="36.0317" y1="0.560941" x2="66.268" y2="101.852" gradientUnits="userSpaceOnUse">
<stop stop-color="#A9B1FF"/>
<stop offset="1" stop-color="#7B83EB"/>
</linearGradient>
<linearGradient id="paint1_linear_1580_1943" x1="51.0892" y1="4.16982" x2="51.0892" y2="97.83" gradientUnits="userSpaceOnUse">
<stop stop-color="#5A62C3"/>
<stop offset="0.5" stop-color="#4D55BD"/>
<stop offset="1" stop-color="#3940AB"/>
</linearGradient>
<linearGradient id="paint2_linear_1580_1943" x1="17.3934" y1="15.9764" x2="50.8521" y2="91.5824" gradientUnits="userSpaceOnUse">
<stop stop-color="#007ED8"/>
<stop offset="0.7065" stop-color="#002D4C"/>
</linearGradient>
<linearGradient id="paint3_linear_1580_1943" x1="12.2957" y1="67.1643" x2="12.5246" y2="74.5125" gradientUnits="userSpaceOnUse">
<stop stop-color="#007ED8"/>
<stop offset="0.7065" stop-color="#002D4C"/>
</linearGradient>
<linearGradient id="paint4_linear_1580_1943" x1="70.6887" y1="33.9648" x2="70.6887" y2="60.3398" gradientUnits="userSpaceOnUse">
<stop stop-color="#F0F0F0"/>
<stop offset="0.33" stop-color="#ECECEC"/>
<stop offset="0.68" stop-color="#DFDFDF"/>
<stop offset="1" stop-color="#CCCCCC"/>
</linearGradient>
<linearGradient id="paint5_linear_1580_1943" x1="45.9785" y1="60.3398" x2="45.9785" y2="33.9648" gradientUnits="userSpaceOnUse">
<stop stop-color="#004DAE" stop-opacity="0.7"/>
<stop offset="1" stop-color="#008BF1" stop-opacity="0.1"/>
</linearGradient>
<linearGradient id="paint6_linear_1580_1943" x1="72.3472" y1="52.1015" x2="72.3472" y2="69.7802" gradientUnits="userSpaceOnUse">
<stop stop-color="#5A62C3"/>
<stop offset="0.5" stop-color="#4D55BD"/>
<stop offset="1" stop-color="#3940AB"/>
</linearGradient>
<linearGradient id="paint7_linear_1580_1943" x1="74.5136" y1="59.8663" x2="86.3222" y2="77.9265" gradientUnits="userSpaceOnUse">
<stop stop-color="#BDA6D5"/>
<stop offset="0.458333" stop-color="#954CCE"/>
<stop offset="0.953125" stop-color="#5E2D72"/>
</linearGradient>
<clipPath id="clip0_1580_1943">
<rect width="102" height="102" fill="white" transform="translate(0.0893555)"/>
</clipPath>
</defs>
</svg>
